999
dxflib 3.12.2.0
  0
SECTION
  2
HEADER
  9
$ACADVER
  1
AC1015
  9
$HANDSEED
  5
FFFF
  9
$DIMADEC
 70
0
  9
$DIMASZ
 40
7.0
  9
$DIMAUNIT
 70
0
  9
$DIMAZIN
 70
2
  9
$DIMDEC
 70
4
  9
$DIMEXE
 40
5.0
  9
$DIMEXO
 40
2.5
  9
$DIMGAP
 40
2.5
  9
$DIMLUNIT
 70
2
  9
$DIMSCALE
 40
1.0
  9
$DIMTSZ
 40
0.0
  9
$DIMTXT
 40
2.5
  9
$DIMZIN
 70
8
  9
$DWGCODEPAGE
  3
ANSI_1252
  9
$INSUNITS
 70
4
  9
$LTSCALE
 40
1.0
  9
$MEASUREMENT
 70
1
  9
$PDMODE
 70
64
  9
$PDSIZE
 40
5.0
  0
ENDSEC
  0
SECTION
  2
TABLES
  0
TABLE
  2
VPORT
  5
8
100
AcDbSymbolTable
 70
1
  0
VPORT
  5
30
100
AcDbSymbolTableRecord
100
AcDbViewportTableRecord
  2
*Active
 70
0
 10
0.0
 20
0.0
 11
1.0
 21
1.0
 12
286.30555555555549
 22
148.5
 13
0.0
 23
0.0
 14
10.0
 24
10.0
 15
10.0
 25
10.0
 16
0.0
 26
0.0
 36
1.0
 17
0.0
 27
0.0
 37
0.0
 40
297.0
 41
1.92798353909465
 42
50.0
 43
0.0
 44
0.0
 50
0.0
 51
0.0
 71
0
 72
100
 73
1
 74
3
 75
1
 76
1
 77
0
 78
0
281
0
 65
1
110
0.0
120
0.0
130
0.0
111
1.0
121
0.0
131
0.0
112
0.0
122
1.0
132
0.0
 79
0
146
0.0
  0
ENDTAB
  0
TABLE
  2
LTYPE
  5
5
100
AcDbSymbolTable
 70
41
  0
LTYPE
  5
16
100
AcDbSymbolTableRecord
100
AcDbLinetypeTableRecord
  2
Continuous
 70
0
  3
Solid line
 72
65
 73
0
 40
0.0
  0
LTYPE
  5
31
100
AcDbSymbolTableRecord
100
AcDbLinetypeTableRecord
  2
PHANTOMX2
 70
0
  3
Phantom (2x) ____________    ____    ____   _
 72
65
 73
6
 40
127.00000000000001
 49
63.5
 74
0
 49
-12.699999999999999
 74
0
 49
12.699999999999999
 74
0
 49
-12.699999999999999
 74
0
 49
12.699999999999999
 74
0
 49
-12.699999999999999
 74
0
  0
LTYPE
  5
15
100
AcDbSymbolTableRecord
100
AcDbLinetypeTableRecord
  2
BYLAYER
 70
0
  3

 72
65
 73
0
 40
0.0
  0
LTYPE
  5
32
100
AcDbSymbolTableRecord
100
AcDbLinetypeTableRecord
  2
ACAD_ISO12W100
 70
0
  3
ISO dash double-dot __ . . __ . . __ . . __ . . 
 72
65
 73
6
 40
21.0
 49
12.0
 74
0
 49
-2.9500000000000002
 74
0
 49
0.1
 74
0
 49
-2.9000000000000004
 74
0
 49
0.1
 74
0
 49
-2.9500000000000002
 74
0
  0
LTYPE
  5
33
100
AcDbSymbolTableRecord
100
AcDbLinetypeTableRecord
  2
DASHED2
 70
0
  3
Dashed (.5x) _ _ _ _ _ _ _ _ _ _ _ _ _ _ _ _ _ 
 72
65
 73
2
 40
9.5249999999999986
 49
6.3499999999999996
 74
0
 49
-3.1749999999999998
 74
0
  0
LTYPE
  5
34
100
AcDbSymbolTableRecord
100
AcDbLinetypeTableRecord
  2
ACAD_ISO06W100
 70
0
  3
ISO long-dash triple-dot ____ ... ____ ... ____
 72
65
 73
8
 40
36.000000000000007
 49
24.0
 74
0
 49
-2.9500000000000002
 74
0
 49
0.1
 74
0
 49
-2.9000000000000004
 74
0
 49
0.1
 74
0
 49
-2.9000000000000004
 74
0
 49
0.1
 74
0
 49
-2.9500000000000002
 74
0
  0
LTYPE
  5
35
100
AcDbSymbolTableRecord
100
AcDbLinetypeTableRecord
  2
ACAD_ISO15W100
 70
0
  3
ISO double-dash triple-dot __ __ . . . __ __ . .
 72
65
 73
10
 40
39.000000000000007
 49
12.0
 74
0
 49
-3.0
 74
0
 49
12.0
 74
0
 49
-2.9500000000000002
 74
0
 49
0.1
 74
0
 49
-2.9000000000000004
 74
0
 49
0.1
 74
0
 49
-2.9000000000000004
 74
0
 49
0.1
 74
0
 49
-2.9500000000000002
 74
0
  0
LTYPE
  5
36
100
AcDbSymbolTableRecord
100
AcDbLinetypeTableRecord
  2
DIVIDE2
 70
0
  3
Divide (.5x) __..__..__..__..__..__..__..__.._
 72
65
 73
6
 40
15.874999999999998
 49
6.3499999999999996
 74
0
 49
-3.125
 74
0
 49
0.1
 74
0
 49
-3.0750000000000002
 74
0
 49
0.1
 74
0
 49
-3.125
 74
0
  0
LTYPE
  5
37
100
AcDbSymbolTableRecord
100
AcDbLinetypeTableRecord
  2
ACAD_ISO13W100
 70
0
  3
ISO double-dash double-dot __ __ . . __ __ . . _
 72
65
 73
8
 40
36.000000000000007
 49
12.0
 74
0
 49
-3.0
 74
0
 49
12.0
 74
0
 49
-2.9500000000000002
 74
0
 49
0.1
 74
0
 49
-2.9000000000000004
 74
0
 49
0.1
 74
0
 49
-2.9500000000000002
 74
0
  0
LTYPE
  5
38
100
AcDbSymbolTableRecord
100
AcDbLinetypeTableRecord
  2
CENTER2
 70
0
  3
Center (.5x) ___ _ ___ _ ___ _ ___ _ ___ _ ___
 72
65
 73
4
 40
28.575000000000003
 49
19.050000000000001
 74
0
 49
-3.1749999999999998
 74
0
 49
3.1749999999999998
 74
0
 49
-3.1749999999999998
 74
0
  0
LTYPE
  5
39
100
AcDbSymbolTableRecord
100
AcDbLinetypeTableRecord
  2
BORDER2
 70
0
  3
Border (.5x) __.__.__.__.__.__.__.__.__.__.__.
 72
65
 73
6
 40
22.225000000000001
 49
6.3499999999999996
 74
0
 49
-3.1749999999999998
 74
0
 49
6.3499999999999996
 74
0
 49
-3.125
 74
0
 49
0.1
 74
0
 49
-3.125
 74
0
  0
LTYPE
  5
14
100
AcDbSymbolTableRecord
100
AcDbLinetypeTableRecord
  2
BYBLOCK
 70
0
  3

 72
65
 73
0
 40
0.0
  0
LTYPE
  5
3A
100
AcDbSymbolTableRecord
100
AcDbLinetypeTableRecord
  2
ACAD_ISO05W100
 70
0
  3
ISO long-dash double-dot ____ .. ____ .. ____ . 
 72
65
 73
6
 40
33.000000000000007
 49
24.0
 74
0
 49
-2.9500000000000002
 74
0
 49
0.1
 74
0
 49
-2.9000000000000004
 74
0
 49
0.1
 74
0
 49
-2.9500000000000002
 74
0
  0
LTYPE
  5
3B
100
AcDbSymbolTableRecord
100
AcDbLinetypeTableRecord
  2
ACAD_ISO14W100
 70
0
  3
ISO dash triple-dot __ . . . __ . . . __ . . . _
 72
65
 73
8
 40
24.000000000000004
 49
12.0
 74
0
 49
-2.9500000000000002
 74
0
 49
0.1
 74
0
 49
-2.9000000000000004
 74
0
 49
0.1
 74
0
 49
-2.9000000000000004
 74
0
 49
0.1
 74
0
 49
-2.9500000000000002
 74
0
  0
LTYPE
  5
3C
100
AcDbSymbolTableRecord
100
AcDbLinetypeTableRecord
  2
ACAD_ISO09W100
 70
0
  3
ISO long-dash double-short-dash ____ __ __ ____
 72
65
 73
6
 40
45.0
 49
24.0
 74
0
 49
-3.0
 74
0
 49
6.0
 74
0
 49
-3.0
 74
0
 49
6.0
 74
0
 49
-3.0
 74
0
  0
LTYPE
  5
3D
100
AcDbSymbolTableRecord
100
AcDbLinetypeTableRecord
  2
ACAD_ISO10W100
 70
0
  3
ISO dash dot __ . __ . __ . __ . __ . __ . __ . 
 72
65
 73
4
 40
18.0
 49
12.0
 74
0
 49
-2.9500000000000002
 74
0
 49
0.1
 74
0
 49
-2.9500000000000002
 74
0
  0
LTYPE
  5
3E
100
AcDbSymbolTableRecord
100
AcDbLinetypeTableRecord
  2
ACAD_ISO04W100
 70
0
  3
ISO long-dash dot ____ . ____ . ____ . ____ . _
 72
65
 73
4
 40
30.0
 49
24.0
 74
0
 49
-2.9500000000000002
 74
0
 49
0.1
 74
0
 49
-2.9500000000000002
 74
0
  0
LTYPE
  5
3F
100
AcDbSymbolTableRecord
100
AcDbLinetypeTableRecord
  2
BORDER
 70
0
  3
Border __ __ . __ __ . __ __ . __ __ . __ __ .
 72
65
 73
6
 40
44.449999999999996
 49
12.699999999999999
 74
0
 49
-6.3499999999999996
 74
0
 49
12.699999999999999
 74
0
 49
-6.2999999999999998
 74
0
 49
0.1
 74
0
 49
-6.2999999999999998
 74
0
  0
LTYPE
  5
40
100
AcDbSymbolTableRecord
100
AcDbLinetypeTableRecord
  2
BORDERX2
 70
0
  3
Border (2x) ____  ____  .  ____  ____  .  ___
 72
65
 73
6
 40
88.899999999999977
 49
25.399999999999999
 74
0
 49
-12.699999999999999
 74
0
 49
25.399999999999999
 74
0
 49
-12.649999999999999
 74
0
 49
0.1
 74
0
 49
-12.649999999999999
 74
0
  0
LTYPE
  5
41
100
AcDbSymbolTableRecord
100
AcDbLinetypeTableRecord
  2
DASHDOTX2
 70
0
  3
Dash dot (2x) ____  .  ____  .  ____  .  ___
 72
65
 73
4
 40
50.799999999999997
 49
25.399999999999999
 74
0
 49
-12.649999999999999
 74
0
 49
0.1
 74
0
 49
-12.649999999999999
 74
0
  0
LTYPE
  5
42
100
AcDbSymbolTableRecord
100
AcDbLinetypeTableRecord
  2
DIVIDE
 70
0
  3
Divide ____ . . ____ . . ____ . . ____ . . ____
 72
65
 73
6
 40
31.750000000000004
 49
12.699999999999999
 74
0
 49
-6.2999999999999998
 74
0
 49
0.1
 74
0
 49
-6.25
 74
0
 49
0.1
 74
0
 49
-6.2999999999999998
 74
0
  0
LTYPE
  5
43
100
AcDbSymbolTableRecord
100
AcDbLinetypeTableRecord
  2
ACAD_ISO03W100
 70
0
  3
ISO dash space __    __    __    __    __    __
 72
65
 73
2
 40
30.0
 49
12.0
 74
0
 49
-18.0
 74
0
  0
LTYPE
  5
44
100
AcDbSymbolTableRecord
100
AcDbLinetypeTableRecord
  2
HIDDEN
 70
0
  3
Hidden __ __ __ __ __ __ __ __ __ __ __ __ __ __
 72
65
 73
2
 40
9.5249999999999986
 49
6.3499999999999996
 74
0
 49
-3.1749999999999998
 74
0
  0
LTYPE
  5
45
100
AcDbSymbolTableRecord
100
AcDbLinetypeTableRecord
  2
ACAD_ISO02W100
 70
0
  3
ISO dash __ __ __ __ __ __ __ __ __ __ __ __ __
 72
65
 73
2
 40
15.0
 49
12.0
 74
0
 49
-3.0
 74
0
  0
LTYPE
  5
46
100
AcDbSymbolTableRecord
100
AcDbLinetypeTableRecord
  2
DIVIDEX2
 70
0
  3
Divide (2x) ________  .  .  ________  .  .  _
 72
65
 73
6
 40
63.5
 49
25.399999999999999
 74
0
 49
-12.649999999999999
 74
0
 49
0.1
 74
0
 49
-12.599999999999998
 74
0
 49
0.1
 74
0
 49
-12.649999999999999
 74
0
  0
LTYPE
  5
47
100
AcDbSymbolTableRecord
100
AcDbLinetypeTableRecord
  2
CENTERX2
 70
0
  3
Center (2x) ________  __  ________  __  _____
 72
65
 73
4
 40
101.60000000000001
 49
63.5
 74
0
 49
-12.699999999999999
 74
0
 49
12.699999999999999
 74
0
 49
-12.699999999999999
 74
0
  0
LTYPE
  5
48
100
AcDbSymbolTableRecord
100
AcDbLinetypeTableRecord
  2
DASHED
 70
0
  3
Dashed __ __ __ __ __ __ __ __ __ __ __ __ __ _
 72
65
 73
2
 40
19.049999999999997
 49
12.699999999999999
 74
0
 49
-6.3499999999999996
 74
0
  0
LTYPE
  5
49
100
AcDbSymbolTableRecord
100
AcDbLinetypeTableRecord
  2
DOT
 70
0
  3
Dot . . . . . . . . . . . . . . . . . . . . . . . .
 72
65
 73
2
 40
6.3499999999999996
 49
0.1
 74
0
 49
-6.25
 74
0
  0
LTYPE
  5
4A
100
AcDbSymbolTableRecord
100
AcDbLinetypeTableRecord
  2
ACAD_ISO08W100
 70
0
  3
ISO long-dash short-dash ____ __ ____ __ ____ _
 72
65
 73
4
 40
36.0
 49
24.0
 74
0
 49
-3.0
 74
0
 49
6.0
 74
0
 49
-3.0
 74
0
  0
LTYPE
  5
4B
100
AcDbSymbolTableRecord
100
AcDbLinetypeTableRecord
  2
DOTX2
 70
0
  3
Dot (2x) .  .  .  .  .  .  .  .  .  .  .  .  .  .
 72
65
 73
2
 40
12.699999999999999
 49
0.1
 74
0
 49
-12.6
 74
0
  0
LTYPE
  5
4C
100
AcDbSymbolTableRecord
100
AcDbLinetypeTableRecord
  2
CENTER
 70
0
  3
Center ____ _ ____ _ ____ _ ____ _ ____ _ ____
 72
65
 73
4
 40
50.800000000000004
 49
31.75
 74
0
 49
-6.3499999999999996
 74
0
 49
6.3499999999999996
 74
0
 49
-6.3499999999999996
 74
0
  0
LTYPE
  5
4D
100
AcDbSymbolTableRecord
100
AcDbLinetypeTableRecord
  2
HIDDEN2
 70
0
  3
Hidden (.5x) _ _ _ _ _ _ _ _ _ _ _ _ _ _ _ _ _ 
 72
65
 73
2
 40
4.7624999999999993
 49
3.1749999999999998
 74
0
 49
-1.5874999999999999
 74
0
  0
LTYPE
  5
4E
100
AcDbSymbolTableRecord
100
AcDbLinetypeTableRecord
  2
ACAD_ISO11W100
 70
0
  3
ISO double-dash dot __ __ . __ __ . __ __ . __ _
 72
65
 73
6
 40
33.0
 49
12.0
 74
0
 49
-3.0
 74
0
 49
12.0
 74
0
 49
-2.9500000000000002
 74
0
 49
0.1
 74
0
 49
-2.9500000000000002
 74
0
  0
LTYPE
  5
4F
100
AcDbSymbolTableRecord
100
AcDbLinetypeTableRecord
  2
HIDDENX2
 70
0
  3
Hidden (2x) ____ ____ ____ ____ ____ ____ ____ 
 72
65
 73
2
 40
19.049999999999997
 49
12.699999999999999
 74
0
 49
-6.3499999999999996
 74
0
  0
LTYPE
  5
50
100
AcDbSymbolTableRecord
100
AcDbLinetypeTableRecord
  2
DOT2
 70
0
  3
Dot (.5x) ........................................
 72
65
 73
2
 40
3.1749999999999998
 49
0.1
 74
0
 49
-3.0749999999999997
 74
0
  0
LTYPE
  5
51
100
AcDbSymbolTableRecord
100
AcDbLinetypeTableRecord
  2
ACAD_ISO07W100
 70
0
  3
ISO dot . . . . . . . . . . . . . . . . . . . . 
 72
65
 73
2
 40
3.0
 49
0.1
 74
0
 49
-2.8999999999999999
 74
0
  0
LTYPE
  5
52
100
AcDbSymbolTableRecord
100
AcDbLinetypeTableRecord
  2
PHANTOM2
 70
0
  3
Phantom (.5x) ___ _ _ ___ _ _ ___ _ _ ___ _ _
 72
65
 73
6
 40
31.750000000000004
 49
15.875
 74
0
 49
-3.1749999999999998
 74
0
 49
3.1749999999999998
 74
0
 49
-3.1749999999999998
 74
0
 49
3.1749999999999998
 74
0
 49
-3.1749999999999998
 74
0
  0
LTYPE
  5
53
100
AcDbSymbolTableRecord
100
AcDbLinetypeTableRecord
  2
DASHDOT
 70
0
  3
Dash dot __ . __ . __ . __ . __ . __ . __ . __
 72
65
 73
4
 40
25.400000000000002
 49
12.699999999999999
 74
0
 49
-6.2999999999999998
 74
0
 49
0.1
 74
0
 49
-6.2999999999999998
 74
0
  0
LTYPE
  5
54
100
AcDbSymbolTableRecord
100
AcDbLinetypeTableRecord
  2
PHANTOM
 70
0
  3
Phantom ______  __  __  ______  __  __  ______ 
 72
65
 73
6
 40
63.500000000000007
 49
31.75
 74
0
 49
-6.3499999999999996
 74
0
 49
6.3499999999999996
 74
0
 49
-6.3499999999999996
 74
0
 49
6.3499999999999996
 74
0
 49
-6.3499999999999996
 74
0
  0
LTYPE
  5
55
100
AcDbSymbolTableRecord
100
AcDbLinetypeTableRecord
  2
DASHDOT2
 70
0
  3
Dash dot (.5x) _._._._._._._._._._._._._._._.
 72
65
 73
4
 40
12.699999999999999
 49
6.3499999999999996
 74
0
 49
-3.125
 74
0
 49
0.1
 74
0
 49
-3.125
 74
0
  0
LTYPE
  5
56
100
AcDbSymbolTableRecord
100
AcDbLinetypeTableRecord
  2
DASHEDX2
 70
0
  3
Dashed (2x) ____  ____  ____  ____  ____  ___
 72
65
 73
2
 40
38.099999999999994
 49
25.399999999999999
 74
0
 49
-12.699999999999999
 74
0
  0
ENDTAB
  0
TABLE
  2
LAYER
  5
2
100
AcDbSymbolTable
 70
3
  0
LAYER
  5
57
100
AcDbSymbolTableRecord
100
AcDbLayerTableRecord
  2
labels - figures
 70
0
 62
7
420
16777215
  6
Continuous
370
140
390
F
  0
LAYER
  5
58
100
AcDbSymbolTableRecord
100
AcDbLayerTableRecord
  2
labels - categories
 70
0
 62
7
420
16777215
  6
Continuous
370
200
390
F
  0
LAYER
  5
10
100
AcDbSymbolTableRecord
100
AcDbLayerTableRecord
  2
0
 70
0
 62
7
420
16777215
  6
Continuous
370
0
390
F
  0
ENDTAB
  0
TABLE
  2
STYLE
  5
3
100
AcDbSymbolTable
 70
201
  0
STYLE
  5
59
100
AcDbSymbolTableRecord
100
AcDbTextStyleTableRecord
  2
Standard
 70
0
 40
0.0
 41
1.0
 50
0.0
 71
0
 42
2.5
  3

  4

1001
ACAD
1000
txt
1071
0
  0
STYLE
  5
5A
100
AcDbSymbolTableRecord
100
AcDbTextStyleTableRecord
  2
textstyle0
 70
0
 40
0.0
 41
1.0
 50
0.0
 71
0
 42
5.0
  3

  4

1001
ACAD
1000
Standard
1071
0
  0
STYLE
  5
5B
100
AcDbSymbolTableRecord
100
AcDbTextStyleTableRecord
  2
textstyle1
 70
0
 40
0.0
 41
1.0
 50
0.0
 71
0
 42
5.0
  3

  4

1001
ACAD
1000
Standard
1071
0
  0
STYLE
  5
5C
100
AcDbSymbolTableRecord
100
AcDbTextStyleTableRecord
  2
textstyle2
 70
0
 40
0.0
 41
1.0
 50
0.0
 71
0
 42
5.0
  3

  4

1001
ACAD
1000
Standard
1071
0
  0
STYLE
  5
5D
100
AcDbSymbolTableRecord
100
AcDbTextStyleTableRecord
  2
textstyle3
 70
0
 40
0.0
 41
1.0
 50
0.0
 71
0
 42
20.0
  3

  4

1001
ACAD
1000
Standard
1071
0
  0
STYLE
  5
5E
100
AcDbSymbolTableRecord
100
AcDbTextStyleTableRecord
  2
textstyle4
 70
0
 40
0.0
 41
1.0
 50
0.0
 71
0
 42
20.0
  3

  4

1001
ACAD
1000
Standard
1071
0
  0
STYLE
  5
5F
100
AcDbSymbolTableRecord
100
AcDbTextStyleTableRecord
  2
textstyle5
 70
0
 40
0.0
 41
1.0
 50
0.0
 71
0
 42
20.0
  3

  4

1001
ACAD
1000
Standard
1071
0
  0
STYLE
  5
60
100
AcDbSymbolTableRecord
100
AcDbTextStyleTableRecord
  2
textstyle6
 70
0
 40
0.0
 41
1.0
 50
0.0
 71
0
 42
20.0
  3

  4

1001
ACAD
1000
Standard
1071
0
  0
STYLE
  5
61
100
AcDbSymbolTableRecord
100
AcDbTextStyleTableRecord
  2
textstyle7
 70
0
 40
0.0
 41
1.0
 50
0.0
 71
0
 42
20.0
  3

  4

1001
ACAD
1000
Standard
1071
0
  0
STYLE
  5
62
100
AcDbSymbolTableRecord
100
AcDbTextStyleTableRecord
  2
textstyle8
 70
0
 40
0.0
 41
1.0
 50
0.0
 71
0
 42
20.0
  3

  4

1001
ACAD
1000
Standard
1071
0
  0
STYLE
  5
63
100
AcDbSymbolTableRecord
100
AcDbTextStyleTableRecord
  2
textstyle9
 70
0
 40
0.0
 41
1.0
 50
0.0
 71
0
 42
5.0
  3

  4

1001
ACAD
1000
Standard
1071
0
  0
STYLE
  5
64
100
AcDbSymbolTableRecord
100
AcDbTextStyleTableRecord
  2
textstyle10
 70
0
 40
0.0
 41
1.0
 50
0.0
 71
0
 42
5.0
  3

  4

1001
ACAD
1000
Standard
1071
0
  0
STYLE
  5
65
100
AcDbSymbolTableRecord
100
AcDbTextStyleTableRecord
  2
textstyle11
 70
0
 40
0.0
 41
1.0
 50
0.0
 71
0
 42
5.0
  3

  4

1001
ACAD
1000
Standard
1071
0
  0
STYLE
  5
66
100
AcDbSymbolTableRecord
100
AcDbTextStyleTableRecord
  2
textstyle12
 70
0
 40
0.0
 41
1.0
 50
0.0
 71
0
 42
5.0
  3

  4

1001
ACAD
1000
Standard
1071
0
  0
STYLE
  5
67
100
AcDbSymbolTableRecord
100
AcDbTextStyleTableRecord
  2
textstyle13
 70
0
 40
0.0
 41
1.0
 50
0.0
 71
0
 42
5.0
  3

  4

1001
ACAD
1000
Standard
1071
0
  0
STYLE
  5
68
100
AcDbSymbolTableRecord
100
AcDbTextStyleTableRecord
  2
textstyle14
 70
0
 40
0.0
 41
1.0
 50
0.0
 71
0
 42
5.0
  3

  4

1001
ACAD
1000
Standard
1071
0
  0
STYLE
  5
69
100
AcDbSymbolTableRecord
100
AcDbTextStyleTableRecord
  2
textstyle15
 70
0
 40
0.0
 41
1.0
 50
0.0
 71
0
 42
5.0
  3

  4

1001
ACAD
1000
Standard
1071
0
  0
STYLE
  5
6A
100
AcDbSymbolTableRecord
100
AcDbTextStyleTableRecord
  2
textstyle16
 70
0
 40
0.0
 41
1.0
 50
0.0
 71
0
 42
5.0
  3

  4

1001
ACAD
1000
Standard
1071
0
  0
STYLE
  5
6B
100
AcDbSymbolTableRecord
100
AcDbTextStyleTableRecord
  2
textstyle17
 70
0
 40
0.0
 41
1.0
 50
0.0
 71
0
 42
5.0
  3

  4

1001
ACAD
1000
Standard
1071
0
  0
STYLE
  5
6C
100
AcDbSymbolTableRecord
100
AcDbTextStyleTableRecord
  2
textstyle18
 70
0
 40
0.0
 41
1.0
 50
0.0
 71
0
 42
5.0
  3

  4

1001
ACAD
1000
Standard
1071
0
  0
STYLE
  5
6D
100
AcDbSymbolTableRecord
100
AcDbTextStyleTableRecord
  2
textstyle19
 70
0
 40
0.0
 41
1.0
 50
0.0
 71
0
 42
5.0
  3

  4

1001
ACAD
1000
Standard
1071
0
  0
STYLE
  5
6E
100
AcDbSymbolTableRecord
100
AcDbTextStyleTableRecord
  2
textstyle20
 70
0
 40
0.0
 41
1.0
 50
0.0
 71
0
 42
5.0
  3

  4

1001
ACAD
1000
Standard
1071
0
  0
STYLE
  5
6F
100
AcDbSymbolTableRecord
100
AcDbTextStyleTableRecord
  2
textstyle21
 70
0
 40
0.0
 41
1.0
 50
0.0
 71
0
 42
5.0
  3

  4

1001
ACAD
1000
Standard
1071
0
  0
STYLE
  5
70
100
AcDbSymbolTableRecord
100
AcDbTextStyleTableRecord
  2
textstyle22
 70
0
 40
0.0
 41
1.0
 50
0.0
 71
0
 42
5.0
  3

  4

1001
ACAD
1000
Standard
1071
0
  0
STYLE
  5
71
100
AcDbSymbolTableRecord
100
AcDbTextStyleTableRecord
  2
textstyle23
 70
0
 40
0.0
 41
1.0
 50
0.0
 71
0
 42
5.0
  3

  4

1001
ACAD
1000
Standard
1071
0
  0
STYLE
  5
72
100
AcDbSymbolTableRecord
100
AcDbTextStyleTableRecord
  2
textstyle24
 70
0
 40
0.0
 41
1.0
 50
0.0
 71
0
 42
5.0
  3

  4

1001
ACAD
1000
Standard
1071
0
  0
STYLE
  5
73
100
AcDbSymbolTableRecord
100
AcDbTextStyleTableRecord
  2
textstyle25
 70
0
 40
0.0
 41
1.0
 50
0.0
 71
0
 42
5.0
  3

  4

1001
ACAD
1000
Standard
1071
0
  0
STYLE
  5
74
100
AcDbSymbolTableRecord
100
AcDbTextStyleTableRecord
  2
textstyle26
 70
0
 40
0.0
 41
1.0
 50
0.0
 71
0
 42
5.0
  3

  4

1001
ACAD
1000
Standard
1071
0
  0
STYLE
  5
75
100
AcDbSymbolTableRecord
100
AcDbTextStyleTableRecord
  2
textstyle27
 70
0
 40
0.0
 41
1.0
 50
0.0
 71
0
 42
5.0
  3

  4

1001
ACAD
1000
Standard
1071
0
  0
STYLE
  5
76
100
AcDbSymbolTableRecord
100
AcDbTextStyleTableRecord
  2
textstyle28
 70
0
 40
0.0
 41
1.0
 50
0.0
 71
0
 42
5.0
  3

  4

1001
ACAD
1000
Standard
1071
0
  0
STYLE
  5
77
100
AcDbSymbolTableRecord
100
AcDbTextStyleTableRecord
  2
textstyle29
 70
0
 40
0.0
 41
1.0
 50
0.0
 71
0
 42
5.0
  3

  4

1001
ACAD
1000
Standard
1071
0
  0
STYLE
  5
78
100
AcDbSymbolTableRecord
100
AcDbTextStyleTableRecord
  2
textstyle30
 70
0
 40
0.0
 41
1.0
 50
0.0
 71
0
 42
5.0
  3

  4

1001
ACAD
1000
Standard
1071
0
  0
STYLE
  5
79
100
AcDbSymbolTableRecord
100
AcDbTextStyleTableRecord
  2
textstyle31
 70
0
 40
0.0
 41
1.0
 50
0.0
 71
0
 42
5.0
  3

  4

1001
ACAD
1000
Standard
1071
0
  0
STYLE
  5
7A
100
AcDbSymbolTableRecord
100
AcDbTextStyleTableRecord
  2
textstyle32
 70
0
 40
0.0
 41
1.0
 50
0.0
 71
0
 42
5.0
  3

  4

1001
ACAD
1000
Standard
1071
0
  0
STYLE
  5
7B
100
AcDbSymbolTableRecord
100
AcDbTextStyleTableRecord
  2
textstyle33
 70
0
 40
0.0
 41
1.0
 50
0.0
 71
0
 42
5.0
  3

  4

1001
ACAD
1000
Standard
1071
0
  0
STYLE
  5
7C
100
AcDbSymbolTableRecord
100
AcDbTextStyleTableRecord
  2
textstyle34
 70
0
 40
0.0
 41
1.0
 50
0.0
 71
0
 42
5.0
  3

  4

1001
ACAD
1000
Standard
1071
0
  0
STYLE
  5
7D
100
AcDbSymbolTableRecord
100
AcDbTextStyleTableRecord
  2
textstyle35
 70
0
 40
0.0
 41
1.0
 50
0.0
 71
0
 42
5.0
  3

  4

1001
ACAD
1000
Standard
1071
0
  0
STYLE
  5
7E
100
AcDbSymbolTableRecord
100
AcDbTextStyleTableRecord
  2
textstyle36
 70
0
 40
0.0
 41
1.0
 50
0.0
 71
0
 42
5.0
  3

  4

1001
ACAD
1000
Standard
1071
0
  0
STYLE
  5
7F
100
AcDbSymbolTableRecord
100
AcDbTextStyleTableRecord
  2
textstyle37
 70
0
 40
0.0
 41
1.0
 50
0.0
 71
0
 42
5.0
  3

  4

1001
ACAD
1000
Standard
1071
0
  0
STYLE
  5
80
100
AcDbSymbolTableRecord
100
AcDbTextStyleTableRecord
  2
textstyle38
 70
0
 40
0.0
 41
1.0
 50
0.0
 71
0
 42
5.0
  3

  4

1001
ACAD
1000
Standard
1071
0
  0
STYLE
  5
81
100
AcDbSymbolTableRecord
100
AcDbTextStyleTableRecord
  2
textstyle39
 70
0
 40
0.0
 41
1.0
 50
0.0
 71
0
 42
5.0
  3

  4

1001
ACAD
1000
Standard
1071
0
  0
STYLE
  5
82
100
AcDbSymbolTableRecord
100
AcDbTextStyleTableRecord
  2
textstyle40
 70
0
 40
0.0
 41
1.0
 50
0.0
 71
0
 42
5.0
  3

  4

1001
ACAD
1000
Standard
1071
0
  0
STYLE
  5
83
100
AcDbSymbolTableRecord
100
AcDbTextStyleTableRecord
  2
textstyle41
 70
0
 40
0.0
 41
1.0
 50
0.0
 71
0
 42
5.0
  3

  4

1001
ACAD
1000
Standard
1071
0
  0
STYLE
  5
84
100
AcDbSymbolTableRecord
100
AcDbTextStyleTableRecord
  2
textstyle42
 70
0
 40
0.0
 41
1.0
 50
0.0
 71
0
 42
5.0
  3

  4

1001
ACAD
1000
Standard
1071
0
  0
STYLE
  5
85
100
AcDbSymbolTableRecord
100
AcDbTextStyleTableRecord
  2
textstyle43
 70
0
 40
0.0
 41
1.0
 50
0.0
 71
0
 42
5.0
  3

  4

1001
ACAD
1000
Standard
1071
0
  0
STYLE
  5
86
100
AcDbSymbolTableRecord
100
AcDbTextStyleTableRecord
  2
textstyle44
 70
0
 40
0.0
 41
1.0
 50
0.0
 71
0
 42
5.0
  3

  4

1001
ACAD
1000
Standard
1071
0
  0
STYLE
  5
87
100
AcDbSymbolTableRecord
100
AcDbTextStyleTableRecord
  2
textstyle45
 70
0
 40
0.0
 41
1.0
 50
0.0
 71
0
 42
5.0
  3

  4

1001
ACAD
1000
Standard
1071
0
  0
STYLE
  5
88
100
AcDbSymbolTableRecord
100
AcDbTextStyleTableRecord
  2
textstyle46
 70
0
 40
0.0
 41
1.0
 50
0.0
 71
0
 42
5.0
  3

  4

1001
ACAD
1000
Standard
1071
0
  0
STYLE
  5
89
100
AcDbSymbolTableRecord
100
AcDbTextStyleTableRecord
  2
textstyle47
 70
0
 40
0.0
 41
1.0
 50
0.0
 71
0
 42
5.0
  3

  4

1001
ACAD
1000
Standard
1071
0
  0
STYLE
  5
8A
100
AcDbSymbolTableRecord
100
AcDbTextStyleTableRecord
  2
textstyle48
 70
0
 40
0.0
 41
1.0
 50
0.0
 71
0
 42
5.0
  3

  4

1001
ACAD
1000
Standard
1071
0
  0
STYLE
  5
8B
100
AcDbSymbolTableRecord
100
AcDbTextStyleTableRecord
  2
textstyle49
 70
0
 40
0.0
 41
1.0
 50
0.0
 71
0
 42
5.0
  3

  4

1001
ACAD
1000
Standard
1071
0
  0
STYLE
  5
8C
100
AcDbSymbolTableRecord
100
AcDbTextStyleTableRecord
  2
textstyle50
 70
0
 40
0.0
 41
1.0
 50
0.0
 71
0
 42
5.0
  3

  4

1001
ACAD
1000
Standard
1071
0
  0
STYLE
  5
8D
100
AcDbSymbolTableRecord
100
AcDbTextStyleTableRecord
  2
textstyle51
 70
0
 40
0.0
 41
1.0
 50
0.0
 71
0
 42
5.0
  3

  4

1001
ACAD
1000
Standard
1071
0
  0
STYLE
  5
8E
100
AcDbSymbolTableRecord
100
AcDbTextStyleTableRecord
  2
textstyle52
 70
0
 40
0.0
 41
1.0
 50
0.0
 71
0
 42
5.0
  3

  4

1001
ACAD
1000
Standard
1071
0
  0
STYLE
  5
8F
100
AcDbSymbolTableRecord
100
AcDbTextStyleTableRecord
  2
textstyle53
 70
0
 40
0.0
 41
1.0
 50
0.0
 71
0
 42
5.0
  3

  4

1001
ACAD
1000
Standard
1071
0
  0
STYLE
  5
90
100
AcDbSymbolTableRecord
100
AcDbTextStyleTableRecord
  2
textstyle54
 70
0
 40
0.0
 41
1.0
 50
0.0
 71
0
 42
5.0
  3

  4

1001
ACAD
1000
Standard
1071
0
  0
STYLE
  5
91
100
AcDbSymbolTableRecord
100
AcDbTextStyleTableRecord
  2
textstyle55
 70
0
 40
0.0
 41
1.0
 50
0.0
 71
0
 42
5.0
  3

  4

1001
ACAD
1000
Standard
1071
0
  0
STYLE
  5
92
100
AcDbSymbolTableRecord
100
AcDbTextStyleTableRecord
  2
textstyle56
 70
0
 40
0.0
 41
1.0
 50
0.0
 71
0
 42
5.0
  3

  4

1001
ACAD
1000
Standard
1071
0
  0
STYLE
  5
93
100
AcDbSymbolTableRecord
100
AcDbTextStyleTableRecord
  2
textstyle57
 70
0
 40
0.0
 41
1.0
 50
0.0
 71
0
 42
5.0
  3

  4

1001
ACAD
1000
Standard
1071
0
  0
STYLE
  5
94
100
AcDbSymbolTableRecord
100
AcDbTextStyleTableRecord
  2
textstyle58
 70
0
 40
0.0
 41
1.0
 50
0.0
 71
0
 42
5.0
  3

  4

1001
ACAD
1000
Standard
1071
0
  0
STYLE
  5
95
100
AcDbSymbolTableRecord
100
AcDbTextStyleTableRecord
  2
textstyle59
 70
0
 40
0.0
 41
1.0
 50
0.0
 71
0
 42
5.0
  3

  4

1001
ACAD
1000
Standard
1071
0
  0
STYLE
  5
96
100
AcDbSymbolTableRecord
100
AcDbTextStyleTableRecord
  2
textstyle60
 70
0
 40
0.0
 41
1.0
 50
0.0
 71
0
 42
5.0
  3

  4

1001
ACAD
1000
Standard
1071
0
  0
STYLE
  5
97
100
AcDbSymbolTableRecord
100
AcDbTextStyleTableRecord
  2
textstyle61
 70
0
 40
0.0
 41
1.0
 50
0.0
 71
0
 42
5.0
  3

  4

1001
ACAD
1000
Standard
1071
0
  0
STYLE
  5
98
100
AcDbSymbolTableRecord
100
AcDbTextStyleTableRecord
  2
textstyle62
 70
0
 40
0.0
 41
1.0
 50
0.0
 71
0
 42
5.0
  3

  4

1001
ACAD
1000
Standard
1071
0
  0
STYLE
  5
99
100
AcDbSymbolTableRecord
100
AcDbTextStyleTableRecord
  2
textstyle63
 70
0
 40
0.0
 41
1.0
 50
0.0
 71
0
 42
5.0
  3

  4

1001
ACAD
1000
Standard
1071
0
  0
STYLE
  5
9A
100
AcDbSymbolTableRecord
100
AcDbTextStyleTableRecord
  2
textstyle64
 70
0
 40
0.0
 41
1.0
 50
0.0
 71
0
 42
5.0
  3

  4

1001
ACAD
1000
Standard
1071
0
  0
STYLE
  5
9B
100
AcDbSymbolTableRecord
100
AcDbTextStyleTableRecord
  2
textstyle65
 70
0
 40
0.0
 41
1.0
 50
0.0
 71
0
 42
5.0
  3

  4

1001
ACAD
1000
Standard
1071
0
  0
STYLE
  5
9C
100
AcDbSymbolTableRecord
100
AcDbTextStyleTableRecord
  2
textstyle66
 70
0
 40
0.0
 41
1.0
 50
0.0
 71
0
 42
5.0
  3

  4

1001
ACAD
1000
Standard
1071
0
  0
STYLE
  5
9D
100
AcDbSymbolTableRecord
100
AcDbTextStyleTableRecord
  2
textstyle67
 70
0
 40
0.0
 41
1.0
 50
0.0
 71
0
 42
5.0
  3

  4

1001
ACAD
1000
Standard
1071
0
  0
STYLE
  5
9E
100
AcDbSymbolTableRecord
100
AcDbTextStyleTableRecord
  2
textstyle68
 70
0
 40
0.0
 41
1.0
 50
0.0
 71
0
 42
5.0
  3

  4

1001
ACAD
1000
Standard
1071
0
  0
STYLE
  5
9F
100
AcDbSymbolTableRecord
100
AcDbTextStyleTableRecord
  2
textstyle69
 70
0
 40
0.0
 41
1.0
 50
0.0
 71
0
 42
5.0
  3

  4

1001
ACAD
1000
Standard
1071
0
  0
STYLE
  5
A0
100
AcDbSymbolTableRecord
100
AcDbTextStyleTableRecord
  2
textstyle70
 70
0
 40
0.0
 41
1.0
 50
0.0
 71
0
 42
5.0
  3

  4

1001
ACAD
1000
Standard
1071
0
  0
STYLE
  5
A1
100
AcDbSymbolTableRecord
100
AcDbTextStyleTableRecord
  2
textstyle71
 70
0
 40
0.0
 41
1.0
 50
0.0
 71
0
 42
5.0
  3

  4

1001
ACAD
1000
Standard
1071
0
  0
STYLE
  5
A2
100
AcDbSymbolTableRecord
100
AcDbTextStyleTableRecord
  2
textstyle72
 70
0
 40
0.0
 41
1.0
 50
0.0
 71
0
 42
5.0
  3

  4

1001
ACAD
1000
Standard
1071
0
  0
STYLE
  5
A3
100
AcDbSymbolTableRecord
100
AcDbTextStyleTableRecord
  2
textstyle73
 70
0
 40
0.0
 41
1.0
 50
0.0
 71
0
 42
5.0
  3

  4

1001
ACAD
1000
Standard
1071
0
  0
STYLE
  5
A4
100
AcDbSymbolTableRecord
100
AcDbTextStyleTableRecord
  2
textstyle74
 70
0
 40
0.0
 41
1.0
 50
0.0
 71
0
 42
5.0
  3

  4

1001
ACAD
1000
Standard
1071
0
  0
STYLE
  5
A5
100
AcDbSymbolTableRecord
100
AcDbTextStyleTableRecord
  2
textstyle75
 70
0
 40
0.0
 41
1.0
 50
0.0
 71
0
 42
5.0
  3

  4

1001
ACAD
1000
Standard
1071
0
  0
STYLE
  5
A6
100
AcDbSymbolTableRecord
100
AcDbTextStyleTableRecord
  2
textstyle76
 70
0
 40
0.0
 41
1.0
 50
0.0
 71
0
 42
5.0
  3

  4

1001
ACAD
1000
Standard
1071
0
  0
STYLE
  5
A7
100
AcDbSymbolTableRecord
100
AcDbTextStyleTableRecord
  2
textstyle77
 70
0
 40
0.0
 41
1.0
 50
0.0
 71
0
 42
5.0
  3

  4

1001
ACAD
1000
Standard
1071
0
  0
STYLE
  5
A8
100
AcDbSymbolTableRecord
100
AcDbTextStyleTableRecord
  2
textstyle78
 70
0
 40
0.0
 41
1.0
 50
0.0
 71
0
 42
5.0
  3

  4

1001
ACAD
1000
Standard
1071
0
  0
STYLE
  5
A9
100
AcDbSymbolTableRecord
100
AcDbTextStyleTableRecord
  2
textstyle79
 70
0
 40
0.0
 41
1.0
 50
0.0
 71
0
 42
5.0
  3

  4

1001
ACAD
1000
Standard
1071
0
  0
STYLE
  5
AA
100
AcDbSymbolTableRecord
100
AcDbTextStyleTableRecord
  2
textstyle80
 70
0
 40
0.0
 41
1.0
 50
0.0
 71
0
 42
5.0
  3

  4

1001
ACAD
1000
Standard
1071
0
  0
STYLE
  5
AB
100
AcDbSymbolTableRecord
100
AcDbTextStyleTableRecord
  2
textstyle81
 70
0
 40
0.0
 41
1.0
 50
0.0
 71
0
 42
5.0
  3

  4

1001
ACAD
1000
Standard
1071
0
  0
STYLE
  5
AC
100
AcDbSymbolTableRecord
100
AcDbTextStyleTableRecord
  2
textstyle82
 70
0
 40
0.0
 41
1.0
 50
0.0
 71
0
 42
5.0
  3

  4

1001
ACAD
1000
Standard
1071
0
  0
STYLE
  5
AD
100
AcDbSymbolTableRecord
100
AcDbTextStyleTableRecord
  2
textstyle83
 70
0
 40
0.0
 41
1.0
 50
0.0
 71
0
 42
5.0
  3

  4

1001
ACAD
1000
Standard
1071
0
  0
STYLE
  5
AE
100
AcDbSymbolTableRecord
100
AcDbTextStyleTableRecord
  2
textstyle84
 70
0
 40
0.0
 41
1.0
 50
0.0
 71
0
 42
5.0
  3

  4

1001
ACAD
1000
Standard
1071
0
  0
STYLE
  5
AF
100
AcDbSymbolTableRecord
100
AcDbTextStyleTableRecord
  2
textstyle85
 70
0
 40
0.0
 41
1.0
 50
0.0
 71
0
 42
5.0
  3

  4

1001
ACAD
1000
Standard
1071
0
  0
STYLE
  5
B0
100
AcDbSymbolTableRecord
100
AcDbTextStyleTableRecord
  2
textstyle86
 70
0
 40
0.0
 41
1.0
 50
0.0
 71
0
 42
5.0
  3

  4

1001
ACAD
1000
Standard
1071
0
  0
STYLE
  5
B1
100
AcDbSymbolTableRecord
100
AcDbTextStyleTableRecord
  2
textstyle87
 70
0
 40
0.0
 41
1.0
 50
0.0
 71
0
 42
5.0
  3

  4

1001
ACAD
1000
Standard
1071
0
  0
STYLE
  5
B2
100
AcDbSymbolTableRecord
100
AcDbTextStyleTableRecord
  2
textstyle88
 70
0
 40
0.0
 41
1.0
 50
0.0
 71
0
 42
5.0
  3

  4

1001
ACAD
1000
Standard
1071
0
  0
STYLE
  5
B3
100
AcDbSymbolTableRecord
100
AcDbTextStyleTableRecord
  2
textstyle89
 70
0
 40
0.0
 41
1.0
 50
0.0
 71
0
 42
5.0
  3

  4

1001
ACAD
1000
Standard
1071
0
  0
STYLE
  5
B4
100
AcDbSymbolTableRecord
100
AcDbTextStyleTableRecord
  2
textstyle90
 70
0
 40
0.0
 41
1.0
 50
0.0
 71
0
 42
5.0
  3

  4

1001
ACAD
1000
Standard
1071
0
  0
STYLE
  5
B5
100
AcDbSymbolTableRecord
100
AcDbTextStyleTableRecord
  2
textstyle91
 70
0
 40
0.0
 41
1.0
 50
0.0
 71
0
 42
5.0
  3

  4

1001
ACAD
1000
Standard
1071
0
  0
STYLE
  5
B6
100
AcDbSymbolTableRecord
100
AcDbTextStyleTableRecord
  2
textstyle92
 70
0
 40
0.0
 41
1.0
 50
0.0
 71
0
 42
5.0
  3

  4

1001
ACAD
1000
Standard
1071
0
  0
STYLE
  5
B7
100
AcDbSymbolTableRecord
100
AcDbTextStyleTableRecord
  2
textstyle93
 70
0
 40
0.0
 41
1.0
 50
0.0
 71
0
 42
5.0
  3

  4

1001
ACAD
1000
Standard
1071
0
  0
STYLE
  5
B8
100
AcDbSymbolTableRecord
100
AcDbTextStyleTableRecord
  2
textstyle94
 70
0
 40
0.0
 41
1.0
 50
0.0
 71
0
 42
5.0
  3

  4

1001
ACAD
1000
Standard
1071
0
  0
STYLE
  5
B9
100
AcDbSymbolTableRecord
100
AcDbTextStyleTableRecord
  2
textstyle95
 70
0
 40
0.0
 41
1.0
 50
0.0
 71
0
 42
5.0
  3

  4

1001
ACAD
1000
Standard
1071
0
  0
STYLE
  5
BA
100
AcDbSymbolTableRecord
100
AcDbTextStyleTableRecord
  2
textstyle96
 70
0
 40
0.0
 41
1.0
 50
0.0
 71
0
 42
5.0
  3

  4

1001
ACAD
1000
Standard
1071
0
  0
STYLE
  5
BB
100
AcDbSymbolTableRecord
100
AcDbTextStyleTableRecord
  2
textstyle97
 70
0
 40
0.0
 41
1.0
 50
0.0
 71
0
 42
5.0
  3

  4

1001
ACAD
1000
Standard
1071
0
  0
STYLE
  5
BC
100
AcDbSymbolTableRecord
100
AcDbTextStyleTableRecord
  2
textstyle98
 70
0
 40
0.0
 41
1.0
 50
0.0
 71
0
 42
5.0
  3

  4

1001
ACAD
1000
Standard
1071
0
  0
STYLE
  5
BD
100
AcDbSymbolTableRecord
100
AcDbTextStyleTableRecord
  2
textstyle99
 70
0
 40
0.0
 41
1.0
 50
0.0
 71
0
 42
5.0
  3

  4

1001
ACAD
1000
Standard
1071
0
  0
STYLE
  5
BE
100
AcDbSymbolTableRecord
100
AcDbTextStyleTableRecord
  2
textstyle100
 70
0
 40
0.0
 41
1.0
 50
0.0
 71
0
 42
5.0
  3

  4

1001
ACAD
1000
Standard
1071
0
  0
STYLE
  5
BF
100
AcDbSymbolTableRecord
100
AcDbTextStyleTableRecord
  2
textstyle101
 70
0
 40
0.0
 41
1.0
 50
0.0
 71
0
 42
5.0
  3

  4

1001
ACAD
1000
Standard
1071
0
  0
STYLE
  5
C0
100
AcDbSymbolTableRecord
100
AcDbTextStyleTableRecord
  2
textstyle102
 70
0
 40
0.0
 41
1.0
 50
0.0
 71
0
 42
5.0
  3

  4

1001
ACAD
1000
Standard
1071
0
  0
STYLE
  5
C1
100
AcDbSymbolTableRecord
100
AcDbTextStyleTableRecord
  2
textstyle103
 70
0
 40
0.0
 41
1.0
 50
0.0
 71
0
 42
5.0
  3

  4

1001
ACAD
1000
Standard
1071
0
  0
STYLE
  5
C2
100
AcDbSymbolTableRecord
100
AcDbTextStyleTableRecord
  2
textstyle104
 70
0
 40
0.0
 41
1.0
 50
0.0
 71
0
 42
5.0
  3

  4

1001
ACAD
1000
Standard
1071
0
  0
STYLE
  5
C3
100
AcDbSymbolTableRecord
100
AcDbTextStyleTableRecord
  2
textstyle105
 70
0
 40
0.0
 41
1.0
 50
0.0
 71
0
 42
5.0
  3

  4

1001
ACAD
1000
Standard
1071
0
  0
STYLE
  5
C4
100
AcDbSymbolTableRecord
100
AcDbTextStyleTableRecord
  2
textstyle106
 70
0
 40
0.0
 41
1.0
 50
0.0
 71
0
 42
5.0
  3

  4

1001
ACAD
1000
Standard
1071
0
  0
STYLE
  5
C5
100
AcDbSymbolTableRecord
100
AcDbTextStyleTableRecord
  2
textstyle107
 70
0
 40
0.0
 41
1.0
 50
0.0
 71
0
 42
5.0
  3

  4

1001
ACAD
1000
Standard
1071
0
  0
STYLE
  5
C6
100
AcDbSymbolTableRecord
100
AcDbTextStyleTableRecord
  2
textstyle108
 70
0
 40
0.0
 41
1.0
 50
0.0
 71
0
 42
5.0
  3

  4

1001
ACAD
1000
Standard
1071
0
  0
STYLE
  5
C7
100
AcDbSymbolTableRecord
100
AcDbTextStyleTableRecord
  2
textstyle109
 70
0
 40
0.0
 41
1.0
 50
0.0
 71
0
 42
5.0
  3

  4

1001
ACAD
1000
Standard
1071
0
  0
STYLE
  5
C8
100
AcDbSymbolTableRecord
100
AcDbTextStyleTableRecord
  2
textstyle110
 70
0
 40
0.0
 41
1.0
 50
0.0
 71
0
 42
5.0
  3

  4

1001
ACAD
1000
Standard
1071
0
  0
STYLE
  5
C9
100
AcDbSymbolTableRecord
100
AcDbTextStyleTableRecord
  2
textstyle111
 70
0
 40
0.0
 41
1.0
 50
0.0
 71
0
 42
5.0
  3

  4

1001
ACAD
1000
Standard
1071
0
  0
STYLE
  5
CA
100
AcDbSymbolTableRecord
100
AcDbTextStyleTableRecord
  2
textstyle112
 70
0
 40
0.0
 41
1.0
 50
0.0
 71
0
 42
5.0
  3

  4

1001
ACAD
1000
Standard
1071
0
  0
STYLE
  5
CB
100
AcDbSymbolTableRecord
100
AcDbTextStyleTableRecord
  2
textstyle113
 70
0
 40
0.0
 41
1.0
 50
0.0
 71
0
 42
5.0
  3

  4

1001
ACAD
1000
Standard
1071
0
  0
STYLE
  5
CC
100
AcDbSymbolTableRecord
100
AcDbTextStyleTableRecord
  2
textstyle114
 70
0
 40
0.0
 41
1.0
 50
0.0
 71
0
 42
5.0
  3

  4

1001
ACAD
1000
Standard
1071
0
  0
STYLE
  5
CD
100
AcDbSymbolTableRecord
100
AcDbTextStyleTableRecord
  2
textstyle115
 70
0
 40
0.0
 41
1.0
 50
0.0
 71
0
 42
5.0
  3

  4

1001
ACAD
1000
Standard
1071
0
  0
STYLE
  5
CE
100
AcDbSymbolTableRecord
100
AcDbTextStyleTableRecord
  2
textstyle116
 70
0
 40
0.0
 41
1.0
 50
0.0
 71
0
 42
5.0
  3

  4

1001
ACAD
1000
Standard
1071
0
  0
STYLE
  5
CF
100
AcDbSymbolTableRecord
100
AcDbTextStyleTableRecord
  2
textstyle117
 70
0
 40
0.0
 41
1.0
 50
0.0
 71
0
 42
5.0
  3

  4

1001
ACAD
1000
Standard
1071
0
  0
STYLE
  5
D0
100
AcDbSymbolTableRecord
100
AcDbTextStyleTableRecord
  2
textstyle118
 70
0
 40
0.0
 41
1.0
 50
0.0
 71
0
 42
5.0
  3

  4

1001
ACAD
1000
Standard
1071
0
  0
STYLE
  5
D1
100
AcDbSymbolTableRecord
100
AcDbTextStyleTableRecord
  2
textstyle119
 70
0
 40
0.0
 41
1.0
 50
0.0
 71
0
 42
5.0
  3

  4

1001
ACAD
1000
Standard
1071
0
  0
STYLE
  5
D2
100
AcDbSymbolTableRecord
100
AcDbTextStyleTableRecord
  2
textstyle120
 70
0
 40
0.0
 41
1.0
 50
0.0
 71
0
 42
5.0
  3

  4

1001
ACAD
1000
Standard
1071
0
  0
STYLE
  5
D3
100
AcDbSymbolTableRecord
100
AcDbTextStyleTableRecord
  2
textstyle121
 70
0
 40
0.0
 41
1.0
 50
0.0
 71
0
 42
5.0
  3

  4

1001
ACAD
1000
Standard
1071
0
  0
STYLE
  5
D4
100
AcDbSymbolTableRecord
100
AcDbTextStyleTableRecord
  2
textstyle122
 70
0
 40
0.0
 41
1.0
 50
0.0
 71
0
 42
5.0
  3

  4

1001
ACAD
1000
Standard
1071
0
  0
STYLE
  5
D5
100
AcDbSymbolTableRecord
100
AcDbTextStyleTableRecord
  2
textstyle123
 70
0
 40
0.0
 41
1.0
 50
0.0
 71
0
 42
5.0
  3

  4

1001
ACAD
1000
Standard
1071
0
  0
STYLE
  5
D6
100
AcDbSymbolTableRecord
100
AcDbTextStyleTableRecord
  2
textstyle124
 70
0
 40
0.0
 41
1.0
 50
0.0
 71
0
 42
5.0
  3

  4

1001
ACAD
1000
Standard
1071
0
  0
STYLE
  5
D7
100
AcDbSymbolTableRecord
100
AcDbTextStyleTableRecord
  2
textstyle125
 70
0
 40
0.0
 41
1.0
 50
0.0
 71
0
 42
5.0
  3

  4

1001
ACAD
1000
Standard
1071
0
  0
STYLE
  5
D8
100
AcDbSymbolTableRecord
100
AcDbTextStyleTableRecord
  2
textstyle126
 70
0
 40
0.0
 41
1.0
 50
0.0
 71
0
 42
5.0
  3

  4

1001
ACAD
1000
Standard
1071
0
  0
STYLE
  5
D9
100
AcDbSymbolTableRecord
100
AcDbTextStyleTableRecord
  2
textstyle127
 70
0
 40
0.0
 41
1.0
 50
0.0
 71
0
 42
5.0
  3

  4

1001
ACAD
1000
Standard
1071
0
  0
STYLE
  5
DA
100
AcDbSymbolTableRecord
100
AcDbTextStyleTableRecord
  2
textstyle128
 70
0
 40
0.0
 41
1.0
 50
0.0
 71
0
 42
5.0
  3

  4

1001
ACAD
1000
Standard
1071
0
  0
STYLE
  5
DB
100
AcDbSymbolTableRecord
100
AcDbTextStyleTableRecord
  2
textstyle129
 70
0
 40
0.0
 41
1.0
 50
0.0
 71
0
 42
5.0
  3

  4

1001
ACAD
1000
Standard
1071
0
  0
STYLE
  5
DC
100
AcDbSymbolTableRecord
100
AcDbTextStyleTableRecord
  2
textstyle130
 70
0
 40
0.0
 41
1.0
 50
0.0
 71
0
 42
5.0
  3

  4

1001
ACAD
1000
Standard
1071
0
  0
STYLE
  5
DD
100
AcDbSymbolTableRecord
100
AcDbTextStyleTableRecord
  2
textstyle131
 70
0
 40
0.0
 41
1.0
 50
0.0
 71
0
 42
5.0
  3

  4

1001
ACAD
1000
Standard
1071
0
  0
STYLE
  5
DE
100
AcDbSymbolTableRecord
100
AcDbTextStyleTableRecord
  2
textstyle132
 70
0
 40
0.0
 41
1.0
 50
0.0
 71
0
 42
5.0
  3

  4

1001
ACAD
1000
Standard
1071
0
  0
STYLE
  5
DF
100
AcDbSymbolTableRecord
100
AcDbTextStyleTableRecord
  2
textstyle133
 70
0
 40
0.0
 41
1.0
 50
0.0
 71
0
 42
5.0
  3

  4

1001
ACAD
1000
Standard
1071
0
  0
STYLE
  5
E0
100
AcDbSymbolTableRecord
100
AcDbTextStyleTableRecord
  2
textstyle134
 70
0
 40
0.0
 41
1.0
 50
0.0
 71
0
 42
20.0
  3

  4

1001
ACAD
1000
Standard
1071
0
  0
STYLE
  5
E1
100
AcDbSymbolTableRecord
100
AcDbTextStyleTableRecord
  2
textstyle135
 70
0
 40
0.0
 41
1.0
 50
0.0
 71
0
 42
20.0
  3

  4

1001
ACAD
1000
Standard
1071
0
  0
STYLE
  5
E2
100
AcDbSymbolTableRecord
100
AcDbTextStyleTableRecord
  2
textstyle136
 70
0
 40
0.0
 41
1.0
 50
0.0
 71
0
 42
10.0
  3

  4

1001
ACAD
1000
Standard
1071
0
  0
STYLE
  5
E3
100
AcDbSymbolTableRecord
100
AcDbTextStyleTableRecord
  2
textstyle137
 70
0
 40
0.0
 41
1.0
 50
0.0
 71
0
 42
10.0
  3

  4

1001
ACAD
1000
Standard
1071
0
  0
STYLE
  5
E4
100
AcDbSymbolTableRecord
100
AcDbTextStyleTableRecord
  2
textstyle138
 70
0
 40
0.0
 41
1.0
 50
0.0
 71
0
 42
10.0
  3

  4

1001
ACAD
1000
Standard
1071
0
  0
STYLE
  5
E5
100
AcDbSymbolTableRecord
100
AcDbTextStyleTableRecord
  2
textstyle139
 70
0
 40
0.0
 41
1.0
 50
0.0
 71
0
 42
10.0
  3

  4

1001
ACAD
1000
Standard
1071
0
  0
STYLE
  5
E6
100
AcDbSymbolTableRecord
100
AcDbTextStyleTableRecord
  2
textstyle140
 70
0
 40
0.0
 41
1.0
 50
0.0
 71
0
 42
10.0
  3

  4

1001
ACAD
1000
Standard
1071
0
  0
STYLE
  5
E7
100
AcDbSymbolTableRecord
100
AcDbTextStyleTableRecord
  2
textstyle141
 70
0
 40
0.0
 41
1.0
 50
0.0
 71
0
 42
10.0
  3

  4

1001
ACAD
1000
Standard
1071
0
  0
STYLE
  5
E8
100
AcDbSymbolTableRecord
100
AcDbTextStyleTableRecord
  2
textstyle142
 70
0
 40
0.0
 41
1.0
 50
0.0
 71
0
 42
10.0
  3

  4

1001
ACAD
1000
Standard
1071
0
  0
STYLE
  5
E9
100
AcDbSymbolTableRecord
100
AcDbTextStyleTableRecord
  2
textstyle143
 70
0
 40
0.0
 41
1.0
 50
0.0
 71
0
 42
10.0
  3

  4

1001
ACAD
1000
Standard
1071
0
  0
STYLE
  5
EA
100
AcDbSymbolTableRecord
100
AcDbTextStyleTableRecord
  2
textstyle144
 70
0
 40
0.0
 41
1.0
 50
0.0
 71
0
 42
10.0
  3

  4

1001
ACAD
1000
Standard
1071
0
  0
STYLE
  5
EB
100
AcDbSymbolTableRecord
100
AcDbTextStyleTableRecord
  2
textstyle145
 70
0
 40
0.0
 41
1.0
 50
0.0
 71
0
 42
10.0
  3

  4

1001
ACAD
1000
Standard
1071
0
  0
STYLE
  5
EC
100
AcDbSymbolTableRecord
100
AcDbTextStyleTableRecord
  2
textstyle146
 70
0
 40
0.0
 41
1.0
 50
0.0
 71
0
 42
10.0
  3

  4

1001
ACAD
1000
Standard
1071
0
  0
STYLE
  5
ED
100
AcDbSymbolTableRecord
100
AcDbTextStyleTableRecord
  2
textstyle147
 70
0
 40
0.0
 41
1.0
 50
0.0
 71
0
 42
10.0
  3

  4

1001
ACAD
1000
Standard
1071
0
  0
STYLE
  5
EE
100
AcDbSymbolTableRecord
100
AcDbTextStyleTableRecord
  2
textstyle148
 70
0
 40
0.0
 41
1.0
 50
0.0
 71
0
 42
10.0
  3

  4

1001
ACAD
1000
Standard
1071
0
  0
STYLE
  5
EF
100
AcDbSymbolTableRecord
100
AcDbTextStyleTableRecord
  2
textstyle149
 70
0
 40
0.0
 41
1.0
 50
0.0
 71
0
 42
10.0
  3

  4

1001
ACAD
1000
Standard
1071
0
  0
STYLE
  5
F0
100
AcDbSymbolTableRecord
100
AcDbTextStyleTableRecord
  2
textstyle150
 70
0
 40
0.0
 41
1.0
 50
0.0
 71
0
 42
10.0
  3

  4

1001
ACAD
1000
Standard
1071
0
  0
STYLE
  5
F1
100
AcDbSymbolTableRecord
100
AcDbTextStyleTableRecord
  2
textstyle151
 70
0
 40
0.0
 41
1.0
 50
0.0
 71
0
 42
10.0
  3

  4

1001
ACAD
1000
Standard
1071
0
  0
STYLE
  5
F2
100
AcDbSymbolTableRecord
100
AcDbTextStyleTableRecord
  2
textstyle152
 70
0
 40
0.0
 41
1.0
 50
0.0
 71
0
 42
10.0
  3

  4

1001
ACAD
1000
Standard
1071
0
  0
STYLE
  5
F3
100
AcDbSymbolTableRecord
100
AcDbTextStyleTableRecord
  2
textstyle153
 70
0
 40
0.0
 41
1.0
 50
0.0
 71
0
 42
10.0
  3

  4

1001
ACAD
1000
Standard
1071
0
  0
STYLE
  5
F4
100
AcDbSymbolTableRecord
100
AcDbTextStyleTableRecord
  2
textstyle154
 70
0
 40
0.0
 41
1.0
 50
0.0
 71
0
 42
10.0
  3

  4

1001
ACAD
1000
Standard
1071
0
  0
STYLE
  5
F5
100
AcDbSymbolTableRecord
100
AcDbTextStyleTableRecord
  2
textstyle155
 70
0
 40
0.0
 41
1.0
 50
0.0
 71
0
 42
10.0
  3

  4

1001
ACAD
1000
Standard
1071
0
  0
STYLE
  5
F6
100
AcDbSymbolTableRecord
100
AcDbTextStyleTableRecord
  2
textstyle156
 70
0
 40
0.0
 41
1.0
 50
0.0
 71
0
 42
10.0
  3

  4

1001
ACAD
1000
Standard
1071
0
  0
STYLE
  5
F7
100
AcDbSymbolTableRecord
100
AcDbTextStyleTableRecord
  2
textstyle157
 70
0
 40
0.0
 41
1.0
 50
0.0
 71
0
 42
10.0
  3

  4

1001
ACAD
1000
Standard
1071
0
  0
STYLE
  5
F8
100
AcDbSymbolTableRecord
100
AcDbTextStyleTableRecord
  2
textstyle158
 70
0
 40
0.0
 41
1.0
 50
0.0
 71
0
 42
10.0
  3

  4

1001
ACAD
1000
Standard
1071
0
  0
STYLE
  5
F9
100
AcDbSymbolTableRecord
100
AcDbTextStyleTableRecord
  2
textstyle159
 70
0
 40
0.0
 41
1.0
 50
0.0
 71
0
 42
10.0
  3

  4

1001
ACAD
1000
Standard
1071
0
  0
STYLE
  5
FA
100
AcDbSymbolTableRecord
100
AcDbTextStyleTableRecord
  2
textstyle160
 70
0
 40
0.0
 41
1.0
 50
0.0
 71
0
 42
10.0
  3

  4

1001
ACAD
1000
Standard
1071
0
  0
STYLE
  5
FB
100
AcDbSymbolTableRecord
100
AcDbTextStyleTableRecord
  2
textstyle161
 70
0
 40
0.0
 41
1.0
 50
0.0
 71
0
 42
10.0
  3

  4

1001
ACAD
1000
Standard
1071
0
  0
STYLE
  5
FC
100
AcDbSymbolTableRecord
100
AcDbTextStyleTableRecord
  2
textstyle162
 70
0
 40
0.0
 41
1.0
 50
0.0
 71
0
 42
10.0
  3

  4

1001
ACAD
1000
Standard
1071
0
  0
STYLE
  5
FD
100
AcDbSymbolTableRecord
100
AcDbTextStyleTableRecord
  2
textstyle163
 70
0
 40
0.0
 41
1.0
 50
0.0
 71
0
 42
10.0
  3

  4

1001
ACAD
1000
Standard
1071
0
  0
STYLE
  5
FE
100
AcDbSymbolTableRecord
100
AcDbTextStyleTableRecord
  2
textstyle164
 70
0
 40
0.0
 41
1.0
 50
0.0
 71
0
 42
10.0
  3

  4

1001
ACAD
1000
Standard
1071
0
  0
STYLE
  5
FF
100
AcDbSymbolTableRecord
100
AcDbTextStyleTableRecord
  2
textstyle165
 70
0
 40
0.0
 41
1.0
 50
0.0
 71
0
 42
10.0
  3

  4

1001
ACAD
1000
Standard
1071
0
  0
STYLE
  5
100
100
AcDbSymbolTableRecord
100
AcDbTextStyleTableRecord
  2
textstyle166
 70
0
 40
0.0
 41
1.0
 50
0.0
 71
0
 42
10.0
  3

  4

1001
ACAD
1000
Standard
1071
0
  0
STYLE
  5
101
100
AcDbSymbolTableRecord
100
AcDbTextStyleTableRecord
  2
textstyle167
 70
0
 40
0.0
 41
1.0
 50
0.0
 71
0
 42
10.0
  3

  4

1001
ACAD
1000
Standard
1071
0
  0
STYLE
  5
102
100
AcDbSymbolTableRecord
100
AcDbTextStyleTableRecord
  2
textstyle168
 70
0
 40
0.0
 41
1.0
 50
0.0
 71
0
 42
10.0
  3

  4

1001
ACAD
1000
Standard
1071
0
  0
STYLE
  5
103
100
AcDbSymbolTableRecord
100
AcDbTextStyleTableRecord
  2
textstyle169
 70
0
 40
0.0
 41
1.0
 50
0.0
 71
0
 42
10.0
  3

  4

1001
ACAD
1000
Standard
1071
0
  0
STYLE
  5
104
100
AcDbSymbolTableRecord
100
AcDbTextStyleTableRecord
  2
textstyle170
 70
0
 40
0.0
 41
1.0
 50
0.0
 71
0
 42
10.0
  3

  4

1001
ACAD
1000
Standard
1071
0
  0
STYLE
  5
105
100
AcDbSymbolTableRecord
100
AcDbTextStyleTableRecord
  2
textstyle171
 70
0
 40
0.0
 41
1.0
 50
0.0
 71
0
 42
10.0
  3

  4

1001
ACAD
1000
Standard
1071
0
  0
STYLE
  5
106
100
AcDbSymbolTableRecord
100
AcDbTextStyleTableRecord
  2
textstyle172
 70
0
 40
0.0
 41
1.0
 50
0.0
 71
0
 42
10.0
  3

  4

1001
ACAD
1000
Standard
1071
0
  0
STYLE
  5
107
100
AcDbSymbolTableRecord
100
AcDbTextStyleTableRecord
  2
textstyle173
 70
0
 40
0.0
 41
1.0
 50
0.0
 71
0
 42
10.0
  3

  4

1001
ACAD
1000
Standard
1071
0
  0
STYLE
  5
108
100
AcDbSymbolTableRecord
100
AcDbTextStyleTableRecord
  2
textstyle174
 70
0
 40
0.0
 41
1.0
 50
0.0
 71
0
 42
10.0
  3

  4

1001
ACAD
1000
Standard
1071
0
  0
STYLE
  5
109
100
AcDbSymbolTableRecord
100
AcDbTextStyleTableRecord
  2
textstyle175
 70
0
 40
0.0
 41
1.0
 50
0.0
 71
0
 42
10.0
  3

  4

1001
ACAD
1000
Standard
1071
0
  0
STYLE
  5
10A
100
AcDbSymbolTableRecord
100
AcDbTextStyleTableRecord
  2
textstyle176
 70
0
 40
0.0
 41
1.0
 50
0.0
 71
0
 42
10.0
  3

  4

1001
ACAD
1000
Standard
1071
0
  0
STYLE
  5
10B
100
AcDbSymbolTableRecord
100
AcDbTextStyleTableRecord
  2
textstyle177
 70
0
 40
0.0
 41
1.0
 50
0.0
 71
0
 42
10.0
  3

  4

1001
ACAD
1000
Standard
1071
0
  0
STYLE
  5
10C
100
AcDbSymbolTableRecord
100
AcDbTextStyleTableRecord
  2
textstyle178
 70
0
 40
0.0
 41
1.0
 50
0.0
 71
0
 42
10.0
  3

  4

1001
ACAD
1000
Standard
1071
0
  0
STYLE
  5
10D
100
AcDbSymbolTableRecord
100
AcDbTextStyleTableRecord
  2
textstyle179
 70
0
 40
0.0
 41
1.0
 50
0.0
 71
0
 42
10.0
  3

  4

1001
ACAD
1000
Standard
1071
0
  0
STYLE
  5
10E
100
AcDbSymbolTableRecord
100
AcDbTextStyleTableRecord
  2
textstyle180
 70
0
 40
0.0
 41
1.0
 50
0.0
 71
0
 42
10.0
  3

  4

1001
ACAD
1000
Standard
1071
0
  0
STYLE
  5
10F
100
AcDbSymbolTableRecord
100
AcDbTextStyleTableRecord
  2
textstyle181
 70
0
 40
0.0
 41
1.0
 50
0.0
 71
0
 42
10.0
  3

  4

1001
ACAD
1000
Standard
1071
0
  0
STYLE
  5
110
100
AcDbSymbolTableRecord
100
AcDbTextStyleTableRecord
  2
textstyle182
 70
0
 40
0.0
 41
1.0
 50
0.0
 71
0
 42
10.0
  3

  4

1001
ACAD
1000
Standard
1071
0
  0
STYLE
  5
111
100
AcDbSymbolTableRecord
100
AcDbTextStyleTableRecord
  2
textstyle183
 70
0
 40
0.0
 41
1.0
 50
0.0
 71
0
 42
10.0
  3

  4

1001
ACAD
1000
Standard
1071
0
  0
STYLE
  5
112
100
AcDbSymbolTableRecord
100
AcDbTextStyleTableRecord
  2
textstyle184
 70
0
 40
0.0
 41
1.0
 50
0.0
 71
0
 42
10.0
  3

  4

1001
ACAD
1000
Standard
1071
0
  0
STYLE
  5
113
100
AcDbSymbolTableRecord
100
AcDbTextStyleTableRecord
  2
textstyle185
 70
0
 40
0.0
 41
1.0
 50
0.0
 71
0
 42
10.0
  3

  4

1001
ACAD
1000
Standard
1071
0
  0
STYLE
  5
114
100
AcDbSymbolTableRecord
100
AcDbTextStyleTableRecord
  2
textstyle186
 70
0
 40
0.0
 41
1.0
 50
0.0
 71
0
 42
10.0
  3

  4

1001
ACAD
1000
Standard
1071
0
  0
STYLE
  5
115
100
AcDbSymbolTableRecord
100
AcDbTextStyleTableRecord
  2
textstyle187
 70
0
 40
0.0
 41
1.0
 50
0.0
 71
0
 42
10.0
  3

  4

1001
ACAD
1000
Standard
1071
0
  0
STYLE
  5
116
100
AcDbSymbolTableRecord
100
AcDbTextStyleTableRecord
  2
textstyle188
 70
0
 40
0.0
 41
1.0
 50
0.0
 71
0
 42
10.0
  3

  4

1001
ACAD
1000
Standard
1071
0
  0
STYLE
  5
117
100
AcDbSymbolTableRecord
100
AcDbTextStyleTableRecord
  2
textstyle189
 70
0
 40
0.0
 41
1.0
 50
0.0
 71
0
 42
10.0
  3

  4

1001
ACAD
1000
Standard
1071
0
  0
STYLE
  5
118
100
AcDbSymbolTableRecord
100
AcDbTextStyleTableRecord
  2
textstyle190
 70
0
 40
0.0
 41
1.0
 50
0.0
 71
0
 42
10.0
  3

  4

1001
ACAD
1000
Standard
1071
0
  0
STYLE
  5
119
100
AcDbSymbolTableRecord
100
AcDbTextStyleTableRecord
  2
textstyle191
 70
0
 40
0.0
 41
1.0
 50
0.0
 71
0
 42
10.0
  3

  4

1001
ACAD
1000
Standard
1071
0
  0
STYLE
  5
11A
100
AcDbSymbolTableRecord
100
AcDbTextStyleTableRecord
  2
textstyle192
 70
0
 40
0.0
 41
1.0
 50
0.0
 71
0
 42
10.0
  3

  4

1001
ACAD
1000
Standard
1071
0
  0
STYLE
  5
11B
100
AcDbSymbolTableRecord
100
AcDbTextStyleTableRecord
  2
textstyle193
 70
0
 40
0.0
 41
1.0
 50
0.0
 71
0
 42
10.0
  3

  4

1001
ACAD
1000
Standard
1071
0
  0
STYLE
  5
11C
100
AcDbSymbolTableRecord
100
AcDbTextStyleTableRecord
  2
textstyle194
 70
0
 40
0.0
 41
1.0
 50
0.0
 71
0
 42
10.0
  3

  4

1001
ACAD
1000
Standard
1071
0
  0
STYLE
  5
11D
100
AcDbSymbolTableRecord
100
AcDbTextStyleTableRecord
  2
textstyle195
 70
0
 40
0.0
 41
1.0
 50
0.0
 71
0
 42
10.0
  3

  4

1001
ACAD
1000
Standard
1071
0
  0
STYLE
  5
11E
100
AcDbSymbolTableRecord
100
AcDbTextStyleTableRecord
  2
textstyle196
 70
0
 40
0.0
 41
1.0
 50
0.0
 71
0
 42
10.0
  3

  4

1001
ACAD
1000
Standard
1071
0
  0
STYLE
  5
11F
100
AcDbSymbolTableRecord
100
AcDbTextStyleTableRecord
  2
textstyle197
 70
0
 40
0.0
 41
1.0
 50
0.0
 71
0
 42
10.0
  3

  4

1001
ACAD
1000
Standard
1071
0
  0
STYLE
  5
120
100
AcDbSymbolTableRecord
100
AcDbTextStyleTableRecord
  2
textstyle198
 70
0
 40
0.0
 41
1.0
 50
0.0
 71
0
 42
10.0
  3

  4

1001
ACAD
1000
Standard
1071
0
  0
STYLE
  5
121
100
AcDbSymbolTableRecord
100
AcDbTextStyleTableRecord
  2
textstyle199
 70
0
 40
0.0
 41
1.0
 50
0.0
 71
0
 42
10.0
  3

  4

1001
ACAD
1000
Standard
1071
0
  0
ENDTAB
  0
TABLE
  2
VIEW
  5
6
100
AcDbSymbolTable
 70
0
  0
ENDTAB
  0
TABLE
  2
UCS
  5
7
100
AcDbSymbolTable
 70
0
  0
ENDTAB
  0
TABLE
  2
APPID
  5
9
100
AcDbSymbolTable
 70
1
  0
APPID
  5
12
100
AcDbSymbolTableRecord
100
AcDbRegAppTableRecord
  2
ACAD
 70
0
  0
APPID
  5
122
100
AcDbSymbolTableRecord
100
AcDbRegAppTableRecord
  2
QCAD
 70
0
  0
ENDTAB
  0
TABLE
  2
DIMSTYLE
  5
A
100
AcDbSymbolTable
 70
1
100
AcDbDimStyleTable
 71
0
  0
DIMSTYLE
105
27
100
AcDbSymbolTableRecord
100
AcDbDimStyleTableRecord
  2
Standard
 41
7.0
 42
2.5
 43
3.75
 44
5.0
 70
0
 73
0
 74
0
 77
1
 78
8
140
2.5
141
2.5
143
0.03937007874016
147
2.5
171
3
172
1
271
2
272
2
274
3
278
44
283
0
284
8
340
59
  0
ENDTAB
  0
TABLE
  2
BLOCK_RECORD
  5
1
100
AcDbSymbolTable
 70
1
  0
BLOCK_RECORD
  5
1F
100
AcDbSymbolTableRecord
100
AcDbBlockTableRecord
  2
*Model_Space
340
22
  0
BLOCK_RECORD
  5
1B
100
AcDbSymbolTableRecord
100
AcDbBlockTableRecord
  2
*Paper_Space
340
1E
  0
BLOCK_RECORD
  5
23
100
AcDbSymbolTableRecord
100
AcDbBlockTableRecord
  2
*Paper_Space0
340
26
  0
ENDTAB
  0
ENDSEC
  0
SECTION
  2
BLOCKS
  0
BLOCK
  5
20
100
AcDbEntity
  8
0
100
AcDbBlockBegin
  2
*Model_Space
 70
0
 10
0.0
 20
0.0
 30
0.0
  3
*Model_Space
  1

  0
ENDBLK
  5
21
100
AcDbEntity
  8
0
100
AcDbBlockEnd
  0
BLOCK
  5
1C
100
AcDbEntity
 67
1
  8
0
100
AcDbBlockBegin
  2
*Paper_Space
 70
0
 10
0.0
 20
0.0
 30
0.0
  3
*Paper_Space
  1

  0
ENDBLK
  5
1D
100
AcDbEntity
 67
1
  8
0
100
AcDbBlockEnd
  0
BLOCK
  5
24
100
AcDbEntity
  8
0
100
AcDbBlockBegin
  2
*Paper_Space0
 70
0
 10
0.0
 20
0.0
 30
0.0
  3
*Paper_Space0
  1

  0
ENDBLK
  5
25
100
AcDbEntity
  8
0
100
AcDbBlockEnd
  0
ENDSEC
  0
SECTION
  2
ENTITIES
  0
MTEXT
  5
123
100
AcDbEntity
100
AcDbMText
  8
labels - categories
 62
256
370
-1
 48
1.0
  6
BYLAYER
 10
0.0
 20
110.0
 30
0.0
 40
20.0
 41
0.0
 71
5
 72
1
  1
cross
  7
textstyle3
 50
0.0
 73
2
 44
1.0
  0
MTEXT
  5
124
100
AcDbEntity
100
AcDbMText
  8
labels - categories
 62
256
370
-1
 48
1.0
  6
BYLAYER
 10
0.0
 20
-490.0
 30
0.0
 40
20.0
 41
0.0
 71
5
 72
1
  1
project in
  7
textstyle4
 50
0.0
 73
2
 44
1.0
  0
MTEXT
  5
125
100
AcDbEntity
100
AcDbMText
  8
labels - categories
 62
256
370
-1
 48
1.0
  6
BYLAYER
 10
0.0
 20
-790.0
 30
0.0
 40
20.0
 41
0.0
 71
5
 72
1
  1
project out
  7
textstyle5
 50
0.0
 73
2
 44
1.0
  0
MTEXT
  5
126
100
AcDbEntity
100
AcDbMText
  8
labels - categories
 62
256
370
-1
 48
1.0
  6
BYLAYER
 10
0.0
 20
-1090.0
 30
0.0
 40
20.0
 41
0.0
 71
5
 72
1
  1
cast in
  7
textstyle6
 50
0.0
 73
2
 44
1.0
  0
MTEXT
  5
127
100
AcDbEntity
100
AcDbMText
  8
labels - categories
 62
256
370
-1
 48
1.0
  6
BYLAYER
 10
-0.277777777777942
 20
-1388.4596080597335
 30
0.0
 40
20.0
 41
0.0
 71
5
 72
1
  1
cast out
  7
textstyle7
 50
0.0
 73
2
 44
1.0
  0
MTEXT
  5
128
100
AcDbEntity
100
AcDbMText
  8
labels - categories
 62
256
370
-1
 48
1.0
  6
BYLAYER
 10
0.0
 20
-1690.0
 30
0.0
 40
20.0
 41
0.0
 71
5
 72
1
  1
cast away
  7
textstyle8
 50
0.0
 73
2
 44
1.0
  0
LEADER
  5
129
  8
0
 62
256
370
-1
 48
1.0
  6
BYLAYER
100
AcDbEntity
100
AcDbLeader
  3
Standard
 71
1
 72
0
 73
3
 74
0
 75
0
 40
1.0
 41
10.0
 76
2
 10
30.0
 20
0.0
 10
-30.0
 20
0.0
  0
LEADER
  5
12A
  8
0
 62
256
370
-1
 48
1.0
  6
BYLAYER
100
AcDbEntity
100
AcDbLeader
  3
Standard
 71
1
 72
0
 73
3
 74
0
 75
0
 40
1.0
 41
10.0
 76
2
 10
0.0
 20
-30.0
 10
0.0
 20
30.0
  0
POINT
  5
12B
100
AcDbEntity
100
AcDbPoint
  8
0
 62
256
370
-1
 48
1.0
  6
BYLAYER
 10
-0.0
 20
-0.0
 30
0.0
  0
POINT
  5
12C
100
AcDbEntity
100
AcDbPoint
  8
0
 62
256
370
-1
 48
1.0
  6
BYLAYER
 10
0.0
 20
30.0
 30
0.0
  0
POINT
  5
12D
100
AcDbEntity
100
AcDbPoint
  8
0
 62
256
370
-1
 48
1.0
  6
BYLAYER
 10
-30.0
 20
0.0
 30
0.0
  0
MTEXT
  5
12E
100
AcDbEntity
100
AcDbMText
  8
0
 62
256
370
-1
 48
1.0
  6
BYLAYER
 10
609.99999999999989
 20
-569.16666666666652
 30
0.0
 40
5.0
 41
0.0
 71
5
 72
1
  1
a
  7
textstyle0
 50
0.0
 73
2
 44
1.0
  0
MTEXT
  5
12F
100
AcDbEntity
100
AcDbMText
  8
0
 62
256
370
-1
 48
1.0
  6
BYLAYER
 10
389.99999999999989
 20
-569.16666666666652
 30
0.0
 40
5.0
 41
0.0
 71
5
 72
1
  1
a
  7
textstyle1
 50
0.0
 73
2
 44
1.0
  0
MTEXT
  5
130
100
AcDbEntity
100
AcDbMText
  8
0
 62
256
370
-1
 48
1.0
  6
BYLAYER
 10
1009.9999999999999
 20
-569.16666666666652
 30
0.0
 40
5.0
 41
0.0
 71
5
 72
1
  1
a
  7
textstyle2
 50
0.0
 73
2
 44
1.0
  0
MTEXT
  5
131
100
AcDbEntity
100
AcDbMText
  8
0
 62
256
370
-1
 48
1.0
  6
BYLAYER
 10
759.99999999999989
 20
-629.16666666666652
 30
0.0
 40
5.0
 41
0.0
 71
5
 72
1
  1
a
  7
textstyle17
 50
0.0
 73
2
 44
1.0
  0
MTEXT
  5
132
100
AcDbEntity
100
AcDbMText
  8
0
 62
256
370
-1
 48
1.0
  6
BYLAYER
 10
-260.00000000000011
 20
-579.16666666666652
 30
0.0
 40
5.0
 41
0.0
 71
5
 72
1
  1
a
  7
textstyle18
 50
0.0
 73
2
 44
1.0
  0
MTEXT
  5
133
100
AcDbEntity
100
AcDbMText
  8
0
 62
256
370
-1
 48
1.0
  6
BYLAYER
 10
-450.00000000000011
 20
-579.16666666666652
 30
0.0
 40
5.0
 41
0.0
 71
5
 72
1
  1
a
  7
textstyle19
 50
0.0
 73
2
 44
1.0
  0
MTEXT
  5
134
100
AcDbEntity
100
AcDbMText
  8
0
 62
256
370
-1
 48
1.0
  6
BYLAYER
 10
214.93077674215334
 20
-576.08432272777679
 30
0.0
 40
5.0
 41
0.0
 71
5
 72
1
  1
a
  7
textstyle20
 50
0.0
 73
2
 44
1.0
  0
MTEXT
  5
135
100
AcDbEntity
100
AcDbMText
  8
0
 62
256
370
-1
 48
1.0
  6
BYLAYER
 10
9.9999999999998863
 20
-559.16666666666652
 30
0.0
 40
5.0
 41
0.0
 71
5
 72
1
  1
a
  7
textstyle21
 50
0.0
 73
2
 44
1.0
  0
MTEXT
  5
136
100
AcDbEntity
100
AcDbMText
  8
0
 62
256
370
-1
 48
1.0
  6
BYLAYER
 10
756.46284161173367
 20
-944.28822229754394
 30
0.0
 40
5.0
 41
0.0
 71
5
 72
1
  1
a
  7
textstyle22
 50
0.0
 73
2
 44
1.0
  0
MTEXT
  5
137
100
AcDbEntity
100
AcDbMText
  8
0
 62
256
370
-1
 48
1.0
  6
BYLAYER
 10
1006.4628416117334
 20
-884.28822229754519
 30
0.0
 40
5.0
 41
0.0
 71
5
 72
1
  1
a
  7
textstyle23
 50
0.0
 73
2
 44
1.0
  0
MTEXT
  5
138
100
AcDbEntity
100
AcDbMText
  8
0
 62
256
370
-1
 48
1.0
  6
BYLAYER
 10
9.9999999999997158
 20
-859.1666666666664
 30
0.0
 40
5.0
 41
0.0
 71
5
 72
1
  1
a
  7
textstyle24
 50
0.0
 73
2
 44
1.0
  0
MTEXT
  5
139
100
AcDbEntity
100
AcDbMText
  8
0
 62
256
370
-1
 48
1.0
  6
BYLAYER
 10
-263.53715838826628
 20
-894.28822229754155
 30
0.0
 40
5.0
 41
0.0
 71
5
 72
1
  1
a
  7
textstyle9
 50
0.0
 73
2
 44
1.0
  0
MTEXT
  5
13A
100
AcDbEntity
100
AcDbMText
  8
0
 62
256
370
-1
 48
1.0
  6
BYLAYER
 10
386.46284161173378
 20
-884.28822229754292
 30
0.0
 40
5.0
 41
0.0
 71
5
 72
1
  1
a
  7
textstyle10
 50
0.0
 73
2
 44
1.0
  0
MTEXT
  5
13B
100
AcDbEntity
100
AcDbMText
  8
0
 62
256
370
-1
 48
1.0
  6
BYLAYER
 10
606.46284161173367
 20
-884.2882222975428
 30
0.0
 40
5.0
 41
0.0
 71
5
 72
1
  1
a
  7
textstyle11
 50
0.0
 73
2
 44
1.0
  0
MTEXT
  5
13C
100
AcDbEntity
100
AcDbMText
  8
0
 62
256
370
-1
 48
1.0
  6
BYLAYER
 10
-453.53715838826656
 20
-894.28822229754371
 30
0.0
 40
5.0
 41
0.0
 71
5
 72
1
  1
a
  7
textstyle12
 50
0.0
 73
2
 44
1.0
  0
MTEXT
  5
13D
100
AcDbEntity
100
AcDbMText
  8
0
 62
256
370
-1
 48
1.0
  6
BYLAYER
 10
550.0
 20
-2079.1666666666661
 30
0.0
 40
5.0
 41
0.0
 71
5
 72
1
  1
a
  7
textstyle13
 50
0.0
 73
2
 44
1.0
  0
MTEXT
  5
13E
100
AcDbEntity
100
AcDbMText
  8
0
 62
256
370
-1
 48
1.0
  6
BYLAYER
 10
740.0
 20
-2109.1666666666661
 30
0.0
 40
5.0
 41
0.0
 71
5
 72
1
  1
a
  7
textstyle14
 50
0.0
 73
2
 44
1.0
  0
MTEXT
  5
13F
100
AcDbEntity
100
AcDbMText
  8
0
 62
256
370
-1
 48
1.0
  6
BYLAYER
 10
179.99999999999997
 20
-2089.1666666666661
 30
0.0
 40
5.0
 41
0.0
 71
5
 72
1
  1
a
  7
textstyle15
 50
0.0
 73
2
 44
1.0
  0
MTEXT
  5
140
100
AcDbEntity
100
AcDbMText
  8
0
 62
256
370
-1
 48
1.0
  6
BYLAYER
 10
359.99999999999994
 20
-2079.1666666666661
 30
0.0
 40
5.0
 41
0.0
 71
5
 72
1
  1
a
  7
textstyle16
 50
0.0
 73
2
 44
1.0
  0
MTEXT
  5
141
100
AcDbEntity
100
AcDbMText
  8
0
 62
256
370
-1
 48
1.0
  6
BYLAYER
 10
1003.024611613386
 20
-2119.3909960342344
 30
0.0
 40
5.0
 41
0.0
 71
5
 72
1
  1
a
  7
textstyle33
 50
0.0
 73
2
 44
1.0
  0
MTEXT
  5
142
100
AcDbEntity
100
AcDbMText
  8
0
 62
256
370
-1
 48
1.0
  6
BYLAYER
 10
1170.0
 20
-2129.1666666666661
 30
0.0
 40
5.0
 41
0.0
 71
5
 72
1
  1
a
  7
textstyle34
 50
0.0
 73
2
 44
1.0
  0
MTEXT
  5
143
100
AcDbEntity
100
AcDbMText
  8
0
 62
256
370
-1
 48
1.0
  6
BYLAYER
 10
-1004.6814058711398
 20
-2142.211409752369
 30
0.0
 40
5.0
 41
0.0
 71
5
 72
1
  1
a
  7
textstyle35
 50
0.0
 73
2
 44
1.0
  0
MTEXT
  5
144
100
AcDbEntity
100
AcDbMText
  8
0
 62
256
370
-1
 48
1.0
  6
BYLAYER
 10
-805.47505987297609
 20
-2074.7743728351043
 30
0.0
 40
5.0
 41
0.0
 71
5
 72
1
  1
a
  7
textstyle36
 50
0.0
 73
2
 44
1.0
  0
MTEXT
  5
145
100
AcDbEntity
100
AcDbMText
  8
0
 62
256
370
-1
 48
1.0
  6
BYLAYER
 10
-1414.6410015462598
 20
-2153.103592553824
 30
0.0
 40
5.0
 41
0.0
 71
5
 72
1
  1
a
  7
textstyle37
 50
0.0
 73
2
 44
1.0
  0
MTEXT
  5
146
100
AcDbEntity
100
AcDbMText
  8
0
 62
256
370
-1
 48
1.0
  6
BYLAYER
 10
-1204.0704904907
 20
-2063.4930776176438
 30
0.0
 40
5.0
 41
0.0
 71
5
 72
1
  1
a
  7
textstyle38
 50
0.0
 73
2
 44
1.0
  0
MTEXT
  5
147
100
AcDbEntity
100
AcDbMText
  8
0
 62
256
370
-1
 48
1.0
  6
BYLAYER
 10
-210.00000000000003
 20
-2119.1666666666661
 30
0.0
 40
5.0
 41
0.0
 71
5
 72
1
  1
a
  7
textstyle39
 50
0.0
 73
2
 44
1.0
  0
MTEXT
  5
148
100
AcDbEntity
100
AcDbMText
  8
0
 62
256
370
-1
 48
1.0
  6
BYLAYER
 10
-40.000000000000028
 20
-2079.1666666666661
 30
0.0
 40
5.0
 41
0.0
 71
5
 72
1
  1
a
  7
textstyle40
 50
0.0
 73
2
 44
1.0
  0
MTEXT
  5
149
100
AcDbEntity
100
AcDbMText
  8
0
 62
256
370
-1
 48
1.0
  6
BYLAYER
 10
-620.0
 20
-2079.1666666666661
 30
0.0
 40
5.0
 41
0.0
 71
5
 72
1
  1
a
  7
textstyle25
 50
0.0
 73
2
 44
1.0
  0
MTEXT
  5
14A
100
AcDbEntity
100
AcDbMText
  8
0
 62
256
370
-1
 48
1.0
  6
BYLAYER
 10
-410.00000000000006
 20
-2149.1666666666661
 30
0.0
 40
5.0
 41
0.0
 71
5
 72
1
  1
a
  7
textstyle26
 50
0.0
 73
2
 44
1.0
  0
MTEXT
  5
14B
100
AcDbEntity
100
AcDbMText
  8
0
 62
256
370
-1
 48
1.0
  6
BYLAYER
 10
9.9999999999994884
 20
-1459.1666666666667
 30
0.0
 40
5.0
 41
0.0
 71
5
 72
1
  1
a
  7
textstyle27
 50
0.0
 73
2
 44
1.0
  0
MTEXT
  5
14C
100
AcDbEntity
100
AcDbMText
  8
0
 62
256
370
-1
 48
1.0
  6
BYLAYER
 10
769.16666666666492
 20
-1567.587069294043
 30
0.0
 40
5.0
 41
0.0
 71
5
 72
1
  1
a
  7
textstyle28
 50
0.0
 73
2
 44
1.0
  0
MTEXT
  5
14D
100
AcDbEntity
100
AcDbMText
  8
0
 62
256
370
-1
 48
1.0
  6
BYLAYER
 10
549.16666666666629
 20
-1477.5870692940425
 30
0.0
 40
5.0
 41
0.0
 71
5
 72
1
  1
a
  7
textstyle29
 50
0.0
 73
2
 44
1.0
  0
MTEXT
  5
14E
100
AcDbEntity
100
AcDbMText
  8
0
 62
256
370
-1
 48
1.0
  6
BYLAYER
 10
349.1666666666664
 20
-1437.5870692940418
 30
0.0
 40
5.0
 41
0.0
 71
5
 72
1
  1
a
  7
textstyle30
 50
0.0
 73
2
 44
1.0
  0
MTEXT
  5
14F
100
AcDbEntity
100
AcDbMText
  8
0
 62
256
370
-1
 48
1.0
  6
BYLAYER
 10
159.16666666666623
 20
-1527.5870692940418
 30
0.0
 40
5.0
 41
0.0
 71
5
 72
1
  1
a
  7
textstyle31
 50
0.0
 73
2
 44
1.0
  0
MTEXT
  5
150
100
AcDbEntity
100
AcDbMText
  8
0
 62
256
370
-1
 48
1.0
  6
BYLAYER
 10
349.44444444444429
 20
-1739.1274612343084
 30
0.0
 40
5.0
 41
0.0
 71
5
 72
1
  1
a
  7
textstyle32
 50
0.0
 73
2
 44
1.0
  0
MTEXT
  5
151
100
AcDbEntity
100
AcDbMText
  8
0
 62
256
370
-1
 48
1.0
  6
BYLAYER
 10
549.44444444444423
 20
-1779.1274612343088
 30
0.0
 40
5.0
 41
0.0
 71
5
 72
1
  1
a
  7
textstyle49
 50
0.0
 73
2
 44
1.0
  0
MTEXT
  5
152
100
AcDbEntity
100
AcDbMText
  8
0
 62
256
370
-1
 48
1.0
  6
BYLAYER
 10
9.9999999999997158
 20
-1769.1666666666667
 30
0.0
 40
5.0
 41
0.0
 71
5
 72
1
  1
a
  7
textstyle50
 50
0.0
 73
2
 44
1.0
  0
MTEXT
  5
153
100
AcDbEntity
100
AcDbMText
  8
0
 62
256
370
-1
 48
1.0
  6
BYLAYER
 10
160.0
 20
-1820.0
 30
0.0
 40
5.0
 41
0.0
 71
5
 72
1
  1
a
  7
textstyle51
 50
0.0
 73
2
 44
1.0
  0
MTEXT
  5
154
100
AcDbEntity
100
AcDbMText
  8
0
 62
256
370
-1
 48
1.0
  6
BYLAYER
 10
770.0
 20
-1269.1666666666665
 30
0.0
 40
5.0
 41
0.0
 71
5
 72
1
  1
a
  7
textstyle52
 50
0.0
 73
2
 44
1.0
  0
MTEXT
  5
155
100
AcDbEntity
100
AcDbMText
  8
0
 62
256
370
-1
 48
1.0
  6
BYLAYER
 10
769.44444444444343
 20
-1869.1274612343091
 30
0.0
 40
5.0
 41
0.0
 71
5
 72
1
  1
a
  7
textstyle53
 50
0.0
 73
2
 44
1.0
  0
MTEXT
  5
156
100
AcDbEntity
100
AcDbMText
  8
0
 62
256
370
-1
 48
1.0
  6
BYLAYER
 10
350.0
 20
-1139.1666666666665
 30
0.0
 40
5.0
 41
0.0
 71
5
 72
1
  1
a
  7
textstyle54
 50
0.0
 73
2
 44
1.0
  0
MTEXT
  5
157
100
AcDbEntity
100
AcDbMText
  8
0
 62
256
370
-1
 48
1.0
  6
BYLAYER
 10
550.0
 20
-1179.1666666666665
 30
0.0
 40
5.0
 41
0.0
 71
5
 72
1
  1
a
  7
textstyle55
 50
0.0
 73
2
 44
1.0
  0
MTEXT
  5
158
100
AcDbEntity
100
AcDbMText
  8
0
 62
256
370
-1
 48
1.0
  6
BYLAYER
 10
9.9999999999999929
 20
-1159.1666666666665
 30
0.0
 40
5.0
 41
0.0
 71
5
 72
1
  1
a
  7
textstyle56
 50
0.0
 73
2
 44
1.0
  0
MTEXT
  5
159
100
AcDbEntity
100
AcDbMText
  8
0
 62
256
370
-1
 48
1.0
  6
BYLAYER
 10
160.0
 20
-1229.1666666666665
 30
0.0
 40
5.0
 41
0.0
 71
5
 72
1
  1
a
  7
textstyle41
 50
0.0
 73
2
 44
1.0
  0
MTEXT
  5
15A
100
AcDbEntity
100
AcDbMText
  8
0
 62
256
370
-1
 48
1.0
  6
BYLAYER
 10
216.46284161173355
 20
-864.28822229754303
 30
0.0
 40
5.0
 41
0.0
 71
5
 72
1
  1
a
  7
textstyle42
 50
0.0
 73
2
 44
1.0
  0
MTEXT
  5
15B
100
AcDbEntity
100
AcDbMText
  8
0
 62
256
370
-1
 48
1.0
  6
BYLAYER
 10
210.0
 20
-349.16666666666663
 30
0.0
 40
5.0
 41
0.0
 71
5
 72
1
  1
a
  7
textstyle43
 50
0.0
 73
2
 44
1.0
  0
MTEXT
  5
15C
100
AcDbEntity
100
AcDbMText
  8
0
 62
256
370
-1
 48
1.0
  6
BYLAYER
 10
10.0
 20
-349.16666666666663
 30
0.0
 40
5.0
 41
0.0
 71
5
 72
1
  1
a
  7
textstyle44
 50
0.0
 73
2
 44
1.0
  0
MTEXT
  5
15D
100
AcDbEntity
100
AcDbMText
  8
0
 62
256
370
-1
 48
1.0
  6
BYLAYER
 10
400.0
 20
-279.16666666666663
 30
0.0
 40
5.0
 41
0.0
 71
5
 72
1
  1
a
  7
textstyle45
 50
0.0
 73
2
 44
1.0
  0
MTEXT
  5
15E
100
AcDbEntity
100
AcDbMText
  8
0
 62
256
370
-1
 48
1.0
  6
BYLAYER
 10
-640.0
 20
-319.16666666666663
 30
0.0
 40
5.0
 41
0.0
 71
5
 72
1
  1
a
  7
textstyle46
 50
0.0
 73
2
 44
1.0
  0
MTEXT
  5
15F
100
AcDbEntity
100
AcDbMText
  8
0
 62
256
370
-1
 48
1.0
  6
BYLAYER
 10
-840.0
 20
-319.16666666666663
 30
0.0
 40
5.0
 41
0.0
 71
5
 72
1
  1
a
  7
textstyle47
 50
0.0
 73
2
 44
1.0
  0
MTEXT
  5
160
100
AcDbEntity
100
AcDbMText
  8
0
 62
256
370
-1
 48
1.0
  6
BYLAYER
 10
-190.0
 20
-279.16666666666663
 30
0.0
 40
5.0
 41
0.0
 71
5
 72
1
  1
a
  7
textstyle48
 50
0.0
 73
2
 44
1.0
  0
MTEXT
  5
161
100
AcDbEntity
100
AcDbMText
  8
0
 62
256
370
-1
 48
1.0
  6
BYLAYER
 10
-410.0
 20
-309.16666666666663
 30
0.0
 40
5.0
 41
0.0
 71
5
 72
1
  1
a
  7
textstyle65
 50
0.0
 73
2
 44
1.0
  0
MTEXT
  5
162
100
AcDbEntity
100
AcDbMText
  8
0
 62
256
370
-1
 48
1.0
  6
BYLAYER
 10
420.0
 20
-19.166666666666618
 30
0.0
 40
5.0
 41
0.0
 71
5
 72
1
  1
a
  7
textstyle66
 50
0.0
 73
2
 44
1.0
  0
MTEXT
  5
163
100
AcDbEntity
100
AcDbMText
  8
0
 62
256
370
-1
 48
1.0
  6
BYLAYER
 10
170.0
 20
-39.166666666666615
 30
0.0
 40
5.0
 41
0.0
 71
5
 72
1
  1
a
  7
textstyle67
 50
0.0
 73
2
 44
1.0
  0
MTEXT
  5
164
100
AcDbEntity
100
AcDbMText
  8
0
 62
256
370
-1
 48
1.0
  6
BYLAYER
 10
840.0
 20
30.833333333333382
 30
0.0
 40
5.0
 41
0.0
 71
5
 72
1
  1
a
  7
textstyle68
 50
0.0
 73
2
 44
1.0
  0
MTEXT
  5
165
100
AcDbEntity
100
AcDbMText
  8
0
 62
256
370
-1
 48
1.0
  6
BYLAYER
 10
620.0
 20
-9.1666666666666181
 30
0.0
 40
5.0
 41
0.0
 71
5
 72
1
  1
a
  7
textstyle69
 50
0.0
 73
2
 44
1.0
  0
MTEXT
  5
166
100
AcDbEntity
100
AcDbMText
  8
0
 62
256
370
-1
 48
1.0
  6
BYLAYER
 10
-620.0
 20
-29.166666666666618
 30
0.0
 40
5.0
 41
0.0
 71
5
 72
1
  1
a
  7
textstyle70
 50
0.0
 73
2
 44
1.0
  0
MTEXT
  5
167
100
AcDbEntity
100
AcDbMText
  8
0
 62
256
370
-1
 48
1.0
  6
BYLAYER
 10
-380.0
 20
30.833333333333382
 30
0.0
 40
5.0
 41
0.0
 71
5
 72
1
  1
a
  7
textstyle71
 50
0.0
 73
2
 44
1.0
  0
MTEXT
  5
168
100
AcDbEntity
100
AcDbMText
  8
0
 62
256
370
-1
 48
1.0
  6
BYLAYER
 10
1206.661512966449
 20
-243.88667764045809
 30
0.0
 40
5.0
 41
0.0
 71
5
 72
1
  1
a
  7
textstyle72
 50
0.0
 73
2
 44
1.0
  0
MTEXT
  5
169
100
AcDbEntity
100
AcDbMText
  8
0
 62
256
370
-1
 48
1.0
  6
BYLAYER
 10
818.20104598051205
 20
-273.05469411342835
 30
0.0
 40
5.0
 41
0.0
 71
5
 72
1
  1
a
  7
textstyle57
 50
0.0
 73
2
 44
1.0
  0
MTEXT
  5
16A
100
AcDbEntity
100
AcDbMText
  8
0
 62
256
370
-1
 48
1.0
  6
BYLAYER
 10
610.0
 20
-319.16666666666663
 30
0.0
 40
5.0
 41
0.0
 71
5
 72
1
  1
a
  7
textstyle58
 50
0.0
 73
2
 44
1.0
  0
MTEXT
  5
16B
100
AcDbEntity
100
AcDbMText
  8
0
 62
256
370
-1
 48
1.0
  6
BYLAYER
 10
1030.0
 20
-289.16666666666663
 30
0.0
 40
5.0
 41
0.0
 71
5
 72
1
  1
a
  7
textstyle59
 50
0.0
 73
2
 44
1.0
  0
MTEXT
  5
16C
100
AcDbEntity
100
AcDbMText
  8
0
 62
256
370
-1
 48
1.0
  6
BYLAYER
 10
-190.0
 20
30.833333333333336
 30
0.0
 40
5.0
 41
0.0
 71
5
 72
1
  1
a
  7
textstyle60
 50
0.0
 73
2
 44
1.0
  0
MTEXT
  5
16D
100
AcDbEntity
100
AcDbMText
  8
0
 62
256
370
-1
 48
1.0
  6
BYLAYER
 10
-30.0
 20
10.0
 30
0.0
 40
5.0
 41
0.0
 71
5
 72
1
  1
a
  7
textstyle61
 50
0.0
 73
2
 44
1.0
  0
MTEXT
  5
16E
100
AcDbEntity
100
AcDbMText
  8
0
 62
256
370
-1
 48
1.0
  6
BYLAYER
 10
630.00000000000125
 20
-620.0
 30
0.0
 40
5.0
 41
0.0
 71
5
 72
1
  1
b
  7
textstyle62
 50
0.0
 73
2
 44
1.0
  0
MTEXT
  5
16F
100
AcDbEntity
100
AcDbMText
  8
0
 62
256
370
-1
 48
1.0
  6
BYLAYER
 10
400.00000000000125
 20
-640.0
 30
0.0
 40
5.0
 41
0.0
 71
5
 72
1
  1
b
  7
textstyle63
 50
0.0
 73
2
 44
1.0
  0
MTEXT
  5
170
100
AcDbEntity
100
AcDbMText
  8
0
 62
256
370
-1
 48
1.0
  6
BYLAYER
 10
980.00000000000125
 20
-580.0
 30
0.0
 40
5.0
 41
0.0
 71
5
 72
1
  1
b
  7
textstyle64
 50
0.0
 73
2
 44
1.0
  0
MTEXT
  5
171
100
AcDbEntity
100
AcDbMText
  8
0
 62
256
370
-1
 48
1.0
  6
BYLAYER
 10
820.00000000000125
 20
-580.0
 30
0.0
 40
5.0
 41
0.0
 71
5
 72
1
  1
b
  7
textstyle81
 50
0.0
 73
2
 44
1.0
  0
MTEXT
  5
172
100
AcDbEntity
100
AcDbMText
  8
0
 62
256
370
-1
 48
1.0
  6
BYLAYER
 10
-179.99999999999878
 20
-570.0
 30
0.0
 40
5.0
 41
0.0
 71
5
 72
1
  1
b
  7
textstyle82
 50
0.0
 73
2
 44
1.0
  0
MTEXT
  5
173
100
AcDbEntity
100
AcDbMText
  8
0
 62
256
370
-1
 48
1.0
  6
BYLAYER
 10
-389.99999999999875
 20
-570.0
 30
0.0
 40
5.0
 41
0.0
 71
5
 72
1
  1
b
  7
textstyle83
 50
0.0
 73
2
 44
1.0
  0
MTEXT
  5
174
100
AcDbEntity
100
AcDbMText
  8
0
 62
256
370
-1
 48
1.0
  6
BYLAYER
 10
224.93077674215468
 20
-636.91765606111028
 30
0.0
 40
5.0
 41
0.0
 71
5
 72
1
  1
b
  7
textstyle84
 50
0.0
 73
2
 44
1.0
  0
MTEXT
  5
175
100
AcDbEntity
100
AcDbMText
  8
0
 62
256
370
-1
 48
1.0
  6
BYLAYER
 10
-39.999999999998771
 20
-630.0
 30
0.0
 40
5.0
 41
0.0
 71
5
 72
1
  1
b
  7
textstyle85
 50
0.0
 73
2
 44
1.0
  0
MTEXT
  5
176
100
AcDbEntity
100
AcDbMText
  8
0
 62
256
370
-1
 48
1.0
  6
BYLAYER
 10
226.46284161173492
 20
-925.12155563087651
 30
0.0
 40
5.0
 41
0.0
 71
5
 72
1
  1
b
  7
textstyle86
 50
0.0
 73
2
 44
1.0
  0
MTEXT
  5
177
100
AcDbEntity
100
AcDbMText
  8
0
 62
256
370
-1
 48
1.0
  6
BYLAYER
 10
-39.999999999999147
 20
-929.99999999999977
 30
0.0
 40
5.0
 41
0.0
 71
5
 72
1
  1
b
  7
textstyle87
 50
0.0
 73
2
 44
1.0
  0
MTEXT
  5
178
100
AcDbEntity
100
AcDbMText
  8
0
 62
256
370
-1
 48
1.0
  6
BYLAYER
 10
-393.53715838826542
 20
-885.12155563087708
 30
0.0
 40
5.0
 41
0.0
 71
5
 72
1
  1
b
  7
textstyle88
 50
0.0
 73
2
 44
1.0
  0
MTEXT
  5
179
100
AcDbEntity
100
AcDbMText
  8
0
 62
256
370
-1
 48
1.0
  6
BYLAYER
 10
720.0
 20
-70.0
 30
0.0
 40
5.0
 41
0.0
 71
5
 72
1
  1
b
  7
textstyle73
 50
0.0
 73
2
 44
1.0
  0
MTEXT
  5
17A
100
AcDbEntity
100
AcDbMText
  8
0
 62
256
370
-1
 48
1.0
  6
BYLAYER
 10
590.0
 20
-20.0
 30
0.0
 40
5.0
 41
0.0
 71
5
 72
1
  1
b
  7
textstyle74
 50
0.0
 73
2
 44
1.0
  0
MTEXT
  5
17B
100
AcDbEntity
100
AcDbMText
  8
0
 62
256
370
-1
 48
1.0
  6
BYLAYER
 10
760.00000000000125
 20
-280.0
 30
0.0
 40
5.0
 41
0.0
 71
5
 72
1
  1
b
  7
textstyle75
 50
0.0
 73
2
 44
1.0
  0
MTEXT
  5
17C
100
AcDbEntity
100
AcDbMText
  8
0
 62
256
370
-1
 48
1.0
  6
BYLAYER
 10
560.00000000000125
 20
-290.0
 30
0.0
 40
5.0
 41
0.0
 71
5
 72
1
  1
b
  7
textstyle76
 50
0.0
 73
2
 44
1.0
  0
MTEXT
  5
17D
100
AcDbEntity
100
AcDbMText
  8
0
 62
256
370
-1
 48
1.0
  6
BYLAYER
 10
1246.6615129664503
 20
-284.72001097379024
 30
0.0
 40
5.0
 41
0.0
 71
5
 72
1
  1
b
  7
textstyle77
 50
0.0
 73
2
 44
1.0
  0
MTEXT
  5
17E
100
AcDbEntity
100
AcDbMText
  8
0
 62
256
370
-1
 48
1.0
  6
BYLAYER
 10
980.00000000000125
 20
-350.0
 30
0.0
 40
5.0
 41
0.0
 71
5
 72
1
  1
b
  7
textstyle78
 50
0.0
 73
2
 44
1.0
  0
MTEXT
  5
17F
100
AcDbEntity
100
AcDbMText
  8
0
 62
256
370
-1
 48
1.0
  6
BYLAYER
 10
50.000000000001229
 20
-290.0
 30
0.0
 40
5.0
 41
0.0
 71
5
 72
1
  1
b
  7
textstyle79
 50
0.0
 73
2
 44
1.0
  0
MTEXT
  5
180
100
AcDbEntity
100
AcDbMText
  8
0
 62
256
370
-1
 48
1.0
  6
BYLAYER
 10
-249.99999999999878
 20
-310.0
 30
0.0
 40
5.0
 41
0.0
 71
5
 72
1
  1
b
  7
textstyle80
 50
0.0
 73
2
 44
1.0
  0
MTEXT
  5
181
100
AcDbEntity
100
AcDbMText
  8
0
 62
256
370
-1
 48
1.0
  6
BYLAYER
 10
390.00000000000125
 20
-340.0
 30
0.0
 40
5.0
 41
0.0
 71
5
 72
1
  1
b
  7
textstyle97
 50
0.0
 73
2
 44
1.0
  0
MTEXT
  5
182
100
AcDbEntity
100
AcDbMText
  8
0
 62
256
370
-1
 48
1.0
  6
BYLAYER
 10
190.00000000000122
 20
-290.0
 30
0.0
 40
5.0
 41
0.0
 71
5
 72
1
  1
b
  7
textstyle98
 50
0.0
 73
2
 44
1.0
  0
MTEXT
  5
183
100
AcDbEntity
100
AcDbMText
  8
0
 62
256
370
-1
 48
1.0
  6
BYLAYER
 10
-779.99999999999875
 20
-310.0
 30
0.0
 40
5.0
 41
0.0
 71
5
 72
1
  1
b
  7
textstyle99
 50
0.0
 73
2
 44
1.0
  0
MTEXT
  5
184
100
AcDbEntity
100
AcDbMText
  8
0
 62
256
370
-1
 48
1.0
  6
BYLAYER
 10
-379.99999999999875
 20
-290.0
 30
0.0
 40
5.0
 41
0.0
 71
5
 72
1
  1
b
  7
textstyle100
 50
0.0
 73
2
 44
1.0
  0
MTEXT
  5
185
100
AcDbEntity
100
AcDbMText
  8
0
 62
256
370
-1
 48
1.0
  6
BYLAYER
 10
-609.99999999999875
 20
-280.0
 30
0.0
 40
5.0
 41
0.0
 71
5
 72
1
  1
b
  7
textstyle101
 50
0.0
 73
2
 44
1.0
  0
MTEXT
  5
186
100
AcDbEntity
100
AcDbMText
  8
0
 62
256
370
-1
 48
1.0
  6
BYLAYER
 10
626.46284161173526
 20
-935.12155563087651
 30
0.0
 40
5.0
 41
0.0
 71
5
 72
1
  1
b
  7
textstyle102
 50
0.0
 73
2
 44
1.0
  0
MTEXT
  5
187
100
AcDbEntity
100
AcDbMText
  8
0
 62
256
370
-1
 48
1.0
  6
BYLAYER
 10
-1384.6410015462591
 20
-2063.9369258871579
 30
0.0
 40
5.0
 41
0.0
 71
5
 72
1
  1
b
  7
textstyle103
 50
0.0
 73
2
 44
1.0
  0
MTEXT
  5
188
100
AcDbEntity
100
AcDbMText
  8
0
 62
256
370
-1
 48
1.0
  6
BYLAYER
 10
-1204.0704904906993
 20
-2144.3264109509778
 30
0.0
 40
5.0
 41
0.0
 71
5
 72
1
  1
b
  7
textstyle104
 50
0.0
 73
2
 44
1.0
  0
MTEXT
  5
189
100
AcDbEntity
100
AcDbMText
  8
0
 62
256
370
-1
 48
1.0
  6
BYLAYER
 10
1050.0000000000007
 20
-2130.0
 30
0.0
 40
5.0
 41
0.0
 71
5
 72
1
  1
b
  7
textstyle89
 50
0.0
 73
2
 44
1.0
  0
MTEXT
  5
18A
100
AcDbEntity
100
AcDbMText
  8
0
 62
256
370
-1
 48
1.0
  6
BYLAYER
 10
1190.0000000000007
 20
-2130.0
 30
0.0
 40
5.0
 41
0.0
 71
5
 72
1
  1
b
  7
textstyle90
 50
0.0
 73
2
 44
1.0
  0
MTEXT
  5
18B
100
AcDbEntity
100
AcDbMText
  8
0
 62
256
370
-1
 48
1.0
  6
BYLAYER
 10
640.00000000000068
 20
-2080.0
 30
0.0
 40
5.0
 41
0.0
 71
5
 72
1
  1
b
  7
textstyle91
 50
0.0
 73
2
 44
1.0
  0
MTEXT
  5
18C
100
AcDbEntity
100
AcDbMText
  8
0
 62
256
370
-1
 48
1.0
  6
BYLAYER
 10
830.00000000000068
 20
-2040.0
 30
0.0
 40
5.0
 41
0.0
 71
5
 72
1
  1
b
  7
textstyle92
 50
0.0
 73
2
 44
1.0
  0
MTEXT
  5
18D
100
AcDbEntity
100
AcDbMText
  8
0
 62
256
370
-1
 48
1.0
  6
BYLAYER
 10
-589.99999999999932
 20
-2080.0
 30
0.0
 40
5.0
 41
0.0
 71
5
 72
1
  1
b
  7
textstyle93
 50
0.0
 73
2
 44
1.0
  0
MTEXT
  5
18E
100
AcDbEntity
100
AcDbMText
  8
0
 62
256
370
-1
 48
1.0
  6
BYLAYER
 10
-379.99999999999937
 20
-2090.0
 30
0.0
 40
5.0
 41
0.0
 71
5
 72
1
  1
b
  7
textstyle94
 50
0.0
 73
2
 44
1.0
  0
MTEXT
  5
18F
100
AcDbEntity
100
AcDbMText
  8
0
 62
256
370
-1
 48
1.0
  6
BYLAYER
 10
-984.68140587113908
 20
-2083.044743085703
 30
0.0
 40
5.0
 41
0.0
 71
5
 72
1
  1
b
  7
textstyle95
 50
0.0
 73
2
 44
1.0
  0
MTEXT
  5
190
100
AcDbEntity
100
AcDbMText
  8
0
 62
256
370
-1
 48
1.0
  6
BYLAYER
 10
-805.47505987297541
 20
-2135.6077061684382
 30
0.0
 40
5.0
 41
0.0
 71
5
 72
1
  1
b
  7
textstyle96
 50
0.0
 73
2
 44
1.0
  0
MTEXT
  5
191
100
AcDbEntity
100
AcDbMText
  8
0
 62
256
370
-1
 48
1.0
  6
BYLAYER
 10
210.00000000000063
 20
-2090.0
 30
0.0
 40
5.0
 41
0.0
 71
5
 72
1
  1
b
  7
textstyle113
 50
0.0
 73
2
 44
1.0
  0
MTEXT
  5
192
100
AcDbEntity
100
AcDbMText
  8
0
 62
256
370
-1
 48
1.0
  6
BYLAYER
 10
440.00000000000063
 20
-2080.0
 30
0.0
 40
5.0
 41
0.0
 71
5
 72
1
  1
b
  7
textstyle114
 50
0.0
 73
2
 44
1.0
  0
MTEXT
  5
193
100
AcDbEntity
100
AcDbMText
  8
0
 62
256
370
-1
 48
1.0
  6
BYLAYER
 10
-179.99999999999937
 20
-2120.0
 30
0.0
 40
5.0
 41
0.0
 71
5
 72
1
  1
b
  7
textstyle115
 50
0.0
 73
2
 44
1.0
  0
MTEXT
  5
194
100
AcDbEntity
100
AcDbMText
  8
0
 62
256
370
-1
 48
1.0
  6
BYLAYER
 10
-39.999999999999375
 20
-2110.0
 30
0.0
 40
5.0
 41
0.0
 71
5
 72
1
  1
b
  7
textstyle116
 50
0.0
 73
2
 44
1.0
  0
MTEXT
  5
195
100
AcDbEntity
100
AcDbMText
  8
0
 62
256
370
-1
 48
1.0
  6
BYLAYER
 10
449.16666666666686
 20
-1458.4204026273758
 30
0.0
 40
5.0
 41
0.0
 71
5
 72
1
  1
b
  7
textstyle117
 50
0.0
 73
2
 44
1.0
  0
MTEXT
  5
196
100
AcDbEntity
100
AcDbMText
  8
0
 62
256
370
-1
 48
1.0
  6
BYLAYER
 10
809.16666666666629
 20
-1558.4204026273758
 30
0.0
 40
5.0
 41
0.0
 71
5
 72
1
  1
b
  7
textstyle118
 50
0.0
 73
2
 44
1.0
  0
MTEXT
  5
197
100
AcDbEntity
100
AcDbMText
  8
0
 62
256
370
-1
 48
1.0
  6
BYLAYER
 10
249.16666666666509
 20
-1538.420402627376
 30
0.0
 40
5.0
 41
0.0
 71
5
 72
1
  1
b
  7
textstyle119
 50
0.0
 73
2
 44
1.0
  0
MTEXT
  5
198
100
AcDbEntity
100
AcDbMText
  8
0
 62
256
370
-1
 48
1.0
  6
BYLAYER
 10
559.16666666666606
 20
-1528.420402627376
 30
0.0
 40
5.0
 41
0.0
 71
5
 72
1
  1
b
  7
textstyle120
 50
0.0
 73
2
 44
1.0
  0
MTEXT
  5
199
100
AcDbEntity
100
AcDbMText
  8
0
 62
256
370
-1
 48
1.0
  6
BYLAYER
 10
-60.000000000001023
 20
-1519.9999999999989
 30
0.0
 40
5.0
 41
0.0
 71
5
 72
1
  1
b
  7
textstyle105
 50
0.0
 73
2
 44
1.0
  0
MTEXT
  5
19A
100
AcDbEntity
100
AcDbMText
  8
0
 62
256
370
-1
 48
1.0
  6
BYLAYER
 10
449.44444444444412
 20
-1759.9607945676423
 30
0.0
 40
5.0
 41
0.0
 71
5
 72
1
  1
b
  7
textstyle106
 50
0.0
 73
2
 44
1.0
  0
MTEXT
  5
19B
100
AcDbEntity
100
AcDbMText
  8
0
 62
256
370
-1
 48
1.0
  6
BYLAYER
 10
809.44444444444423
 20
-1859.9607945676423
 30
0.0
 40
5.0
 41
0.0
 71
5
 72
1
  1
b
  7
textstyle107
 50
0.0
 73
2
 44
1.0
  0
MTEXT
  5
19C
100
AcDbEntity
100
AcDbMText
  8
0
 62
256
370
-1
 48
1.0
  6
BYLAYER
 10
240.0
 20
-1820.0
 30
0.0
 40
5.0
 41
0.0
 71
5
 72
1
  1
b
  7
textstyle108
 50
0.0
 73
2
 44
1.0
  0
MTEXT
  5
19D
100
AcDbEntity
100
AcDbMText
  8
0
 62
256
370
-1
 48
1.0
  6
BYLAYER
 10
559.44444444444366
 20
-1829.9607945676423
 30
0.0
 40
5.0
 41
0.0
 71
5
 72
1
  1
b
  7
textstyle109
 50
0.0
 73
2
 44
1.0
  0
MTEXT
  5
19E
100
AcDbEntity
100
AcDbMText
  8
0
 62
256
370
-1
 48
1.0
  6
BYLAYER
 10
-60.000000000000625
 20
-1830.0
 30
0.0
 40
5.0
 41
0.0
 71
5
 72
1
  1
b
  7
textstyle110
 50
0.0
 73
2
 44
1.0
  0
MTEXT
  5
19F
100
AcDbEntity
100
AcDbMText
  8
0
 62
256
370
-1
 48
1.0
  6
BYLAYER
 10
250.00000000000003
 20
-1240.0
 30
0.0
 40
5.0
 41
0.0
 71
5
 72
1
  1
b
  7
textstyle111
 50
0.0
 73
2
 44
1.0
  0
MTEXT
  5
1A0
100
AcDbEntity
100
AcDbMText
  8
0
 62
256
370
-1
 48
1.0
  6
BYLAYER
 10
450.0
 20
-1160.0
 30
0.0
 40
5.0
 41
0.0
 71
5
 72
1
  1
b
  7
textstyle112
 50
0.0
 73
2
 44
1.0
  0
MTEXT
  5
1A1
100
AcDbEntity
100
AcDbMText
  8
0
 62
256
370
-1
 48
1.0
  6
BYLAYER
 10
-59.999999999999972
 20
-1220.0
 30
0.0
 40
5.0
 41
0.0
 71
5
 72
1
  1
b
  7
textstyle126
 50
0.0
 73
2
 44
1.0
  0
MTEXT
  5
1A2
100
AcDbEntity
100
AcDbMText
  8
0
 62
256
370
-1
 48
1.0
  6
BYLAYER
 10
810.0
 20
-1260.0
 30
0.0
 40
5.0
 41
0.0
 71
5
 72
1
  1
b
  7
textstyle127
 50
0.0
 73
2
 44
1.0
  0
MTEXT
  5
1A3
100
AcDbEntity
100
AcDbMText
  8
0
 62
256
370
-1
 48
1.0
  6
BYLAYER
 10
560.0
 20
-1230.0
 30
0.0
 40
5.0
 41
0.0
 71
5
 72
1
  1
b
  7
textstyle128
 50
0.0
 73
2
 44
1.0
  0
MTEXT
  5
1A4
100
AcDbEntity
100
AcDbMText
  8
0
 62
256
370
-1
 48
1.0
  6
BYLAYER
 10
396.46284161173475
 20
-955.12155563087663
 30
0.0
 40
5.0
 41
0.0
 71
5
 72
1
  1
b
  7
textstyle129
 50
0.0
 73
2
 44
1.0
  0
MTEXT
  5
1A5
100
AcDbEntity
100
AcDbMText
  8
0
 62
256
370
-1
 48
1.0
  6
BYLAYER
 10
976.46284161173503
 20
-895.12155563087276
 30
0.0
 40
5.0
 41
0.0
 71
5
 72
1
  1
b
  7
textstyle130
 50
0.0
 73
2
 44
1.0
  0
MTEXT
  5
1A6
100
AcDbEntity
100
AcDbMText
  8
0
 62
256
370
-1
 48
1.0
  6
BYLAYER
 10
816.46284161173503
 20
-895.12155563087538
 30
0.0
 40
5.0
 41
0.0
 71
5
 72
1
  1
b
  7
textstyle131
 50
0.0
 73
2
 44
1.0
  0
MTEXT
  5
1A7
100
AcDbEntity
100
AcDbMText
  8
0
 62
256
370
-1
 48
1.0
  6
BYLAYER
 10
-183.53715838826525
 20
-885.12155563087674
 30
0.0
 40
5.0
 41
0.0
 71
5
 72
1
  1
b
  7
textstyle132
 50
0.0
 73
2
 44
1.0
  0
MTEXT
  5
1A8
100
AcDbEntity
100
AcDbMText
  8
0
 62
256
370
-1
 48
1.0
  6
BYLAYER
 10
-640.0
 20
10.0
 30
0.0
 40
5.0
 41
0.0
 71
5
 72
1
  1
b
  7
textstyle133
 50
0.0
 73
2
 44
1.0
  0
MTEXT
  5
1A9
100
AcDbEntity
100
AcDbMText
  8
0
 62
256
370
-1
 48
1.0
  6
BYLAYER
 10
-370.0
 20
-20.0
 30
0.0
 40
5.0
 41
0.0
 71
5
 72
1
  1
b
  7
textstyle121
 50
0.0
 73
2
 44
1.0
  0
MTEXT
  5
1AA
100
AcDbEntity
100
AcDbMText
  8
0
 62
256
370
-1
 48
1.0
  6
BYLAYER
 10
460.0
 20
0.0
 30
0.0
 40
5.0
 41
0.0
 71
5
 72
1
  1
b
  7
textstyle122
 50
0.0
 73
2
 44
1.0
  0
MTEXT
  5
1AB
100
AcDbEntity
100
AcDbMText
  8
0
 62
256
370
-1
 48
1.0
  6
BYLAYER
 10
140.0
 20
30.0
 30
0.0
 40
5.0
 41
0.0
 71
5
 72
1
  1
b
  7
textstyle123
 50
0.0
 73
2
 44
1.0
  0
MTEXT
  5
1AC
100
AcDbEntity
100
AcDbMText
  8
0
 62
256
370
-1
 48
1.0
  6
BYLAYER
 10
-230.0
 20
10.0
 30
0.0
 40
5.0
 41
0.0
 71
5
 72
1
  1
b
  7
textstyle124
 50
0.0
 73
2
 44
1.0
  0
MTEXT
  5
1AD
100
AcDbEntity
100
AcDbMText
  8
0
 62
256
370
-1
 48
1.0
  6
BYLAYER
 10
10.0
 20
30.0
 30
0.0
 40
5.0
 41
0.0
 71
5
 72
1
  1
b
  7
textstyle125
 50
0.0
 73
2
 44
1.0
  0
LEADER
  5
1AE
  8
0
 62
256
370
-1
 48
1.0
  6
BYLAYER
100
AcDbEntity
100
AcDbLeader
  3
Standard
 71
1
 72
0
 73
3
 74
0
 75
0
 40
1.0
 41
10.0
 76
2
 10
246.38964805168041
 20
-39.774613239102322
 10
129.04047685168058
 20
23.229649160897608
  0
LEADER
  5
1AF
  8
0
 62
256
370
-1
 48
1.0
  6
BYLAYER
100
AcDbEntity
100
AcDbLeader
  3
Standard
 71
1
 72
0
 73
3
 74
0
 75
0
 40
1.0
 41
10.0
 76
2
 10
213.24522565168047
 20
47.117521160897574
 10
183.38538565168051
 20
-49.329762039102306
  0
LEADER
  5
1B0
  8
0
 62
256
370
-1
 48
1.0
  6
BYLAYER
100
AcDbEntity
100
AcDbLeader
  3
Standard
 71
1
 72
0
 73
3
 74
0
 75
0
 40
1.0
 41
10.0
 76
2
 10
334.77329913670582
 20
16.097078389113875
 10
423.34952851270572
 20
-15.291585418886086
  0
LEADER
  5
1B1
  8
0
 62
256
370
-1
 48
1.0
  6
BYLAYER
100
AcDbEntity
100
AcDbLeader
  3
Standard
 71
1
 72
0
 73
3
 74
0
 75
0
 40
1.0
 41
10.0
 76
2
 10
380.35135891270573
 20
-28.621017994886046
 10
454.30821062470562
 20
4.9175542931138807
  0
LEADER
  5
1B2
  8
0
 62
256
370
-1
 48
1.0
  6
BYLAYER
100
AcDbEntity
100
AcDbLeader
  3
Standard
 71
1
 72
0
 73
3
 74
0
 75
0
 40
1.0
 41
10.0
 76
2
 10
-430.0
 20
30.0
 10
-370.0
 20
-30.0
  0
LEADER
  5
1B3
  8
0
 62
256
370
-1
 48
1.0
  6
BYLAYER
100
AcDbEntity
100
AcDbLeader
  3
Standard
 71
1
 72
0
 73
3
 74
0
 75
0
 40
1.0
 41
10.0
 76
2
 10
-430.0
 20
-30.0
 10
-370.0
 20
30.0
  0
LEADER
  5
1B4
  8
0
 62
256
370
-1
 48
1.0
  6
BYLAYER
100
AcDbEntity
100
AcDbLeader
  3
Standard
 71
1
 72
0
 73
3
 74
0
 75
0
 40
1.0
 41
10.0
 76
2
 10
-568.77297192959941
 20
2.0694169600001118
 10
-638.77297192959941
 20
2.0694169600001118
  0
LEADER
  5
1B5
  8
0
 62
256
370
-1
 48
1.0
  6
BYLAYER
100
AcDbEntity
100
AcDbLeader
  3
Standard
 71
1
 72
0
 73
3
 74
0
 75
0
 40
1.0
 41
10.0
 76
2
 10
-608.77297192959941
 20
12.069416960000112
 10
-608.77297192959941
 20
-37.930583039999888
  0
LEADER
  5
1B6
  8
0
 62
256
370
-1
 48
1.0
  6
BYLAYER
100
AcDbEntity
100
AcDbLeader
  3
Standard
 71
1
 72
0
 73
3
 74
0
 75
0
 40
1.0
 41
10.0
 76
2
 10
561.16192320563118
 20
21.892389937916533
 10
609.14788047923105
 20
-22.481721089283411
  0
LEADER
  5
1B7
  8
0
 62
256
370
-1
 48
1.0
  6
BYLAYER
100
AcDbEntity
100
AcDbLeader
  3
Standard
 71
1
 72
0
 73
3
 74
0
 75
0
 40
1.0
 41
10.0
 76
2
 10
625.755193580031
 20
29.206922699516507
 10
607.50751358003106
 20
-23.255157300483432
  0
MTEXT
  5
1B8
100
AcDbEntity
100
AcDbMText
  8
labels - categories
 62
256
370
-1
 48
1.0
  6
BYLAYER
 10
0.0
 20
-190.0
 30
0.0
 40
20.0
 41
0.0
 71
5
 72
1
  1
touch
  7
textstyle134
 50
0.0
 73
2
 44
1.0
  0
POINT
  5
1B9
100
AcDbEntity
100
AcDbPoint
  8
0
 62
256
370
-1
 48
1.0
  6
BYLAYER
 10
-370.0
 20
30.0
 30
0.0
  0
POINT
  5
1BA
100
AcDbEntity
100
AcDbPoint
  8
0
 62
256
370
-1
 48
1.0
  6
BYLAYER
 10
-370.0
 20
-30.0
 30
0.0
  0
POINT
  5
1BB
100
AcDbEntity
100
AcDbPoint
  8
0
 62
256
370
-1
 48
1.0
  6
BYLAYER
 10
-400.0
 20
0.0
 30
0.0
  0
POINT
  5
1BC
100
AcDbEntity
100
AcDbPoint
  8
0
 62
256
370
-1
 48
1.0
  6
BYLAYER
 10
-608.77297192959941
 20
-37.930583039999888
 30
0.0
  0
POINT
  5
1BD
100
AcDbEntity
100
AcDbPoint
  8
0
 62
256
370
-1
 48
1.0
  6
BYLAYER
 10
-638.77297192959941
 20
2.0694169600001118
 30
0.0
  0
POINT
  5
1BE
100
AcDbEntity
100
AcDbPoint
  8
0
 62
256
370
-1
 48
1.0
  6
BYLAYER
 10
-608.77297192959941
 20
2.0694169600001118
 30
0.0
  0
POINT
  5
1BF
100
AcDbEntity
100
AcDbPoint
  8
0
 62
256
370
-1
 48
1.0
  6
BYLAYER
 10
183.38538565168051
 20
-49.329762039102306
 30
0.0
  0
POINT
  5
1C0
100
AcDbEntity
100
AcDbPoint
  8
0
 62
256
370
-1
 48
1.0
  6
BYLAYER
 10
194.90199468362476
 20
-12.131114865922321
 30
0.0
  0
POINT
  5
1C1
100
AcDbEntity
100
AcDbPoint
  8
0
 62
256
370
-1
 48
1.0
  6
BYLAYER
 10
129.04047685168058
 20
23.229649160897608
 30
0.0
  0
POINT
  5
1C2
100
AcDbEntity
100
AcDbPoint
  8
0
 62
256
370
-1
 48
1.0
  6
BYLAYER
 10
423.34952851270572
 20
-15.291585418886086
 30
0.0
  0
POINT
  5
1C3
100
AcDbEntity
100
AcDbPoint
  8
0
 62
256
370
-1
 48
1.0
  6
BYLAYER
 10
454.30821062470562
 20
4.9175542931138807
 30
0.0
  0
POINT
  5
1C4
100
AcDbEntity
100
AcDbPoint
  8
0
 62
256
370
-1
 48
1.0
  6
BYLAYER
 10
609.14788047923105
 20
-22.481721089283411
 30
0.0
  0
POINT
  5
1C5
100
AcDbEntity
100
AcDbPoint
  8
0
 62
256
370
-1
 48
1.0
  6
BYLAYER
 10
607.50751358003106
 20
-23.255157300483432
 30
0.0
  0
POINT
  5
1C6
100
AcDbEntity
100
AcDbPoint
  8
0
 62
256
370
-1
 48
1.0
  6
BYLAYER
 10
608.1102758608173
 20
-21.522215743223288
 30
0.0
  0
LEADER
  5
1C7
  8
0
 62
256
370
-1
 48
1.0
  6
BYLAYER
100
AcDbEntity
100
AcDbLeader
  3
Standard
 71
1
 72
0
 73
3
 74
0
 75
0
 40
1.0
 41
10.0
 76
2
 10
808.75469843592737
 20
-12.512437953998933
 10
706.62989843592743
 20
-61.933237953998884
  0
LEADER
  5
1C8
  8
0
 62
256
370
-1
 48
1.0
  6
BYLAYER
100
AcDbEntity
100
AcDbLeader
  3
Standard
 71
1
 72
0
 73
3
 74
0
 75
0
 40
1.0
 41
10.0
 76
2
 10
803.26759507913243
 20
-17.571314565208752
 10
841.35334931592797
 20
49.625059646001006
  0
POINT
  5
1C9
100
AcDbEntity
100
AcDbPoint
  8
0
 62
256
370
-1
 48
1.0
  6
BYLAYER
 10
805.1447368770846
 20
-14.259390586535339
 30
0.0
  0
POINT
  5
1CA
100
AcDbEntity
100
AcDbPoint
  8
0
 62
256
370
-1
 48
1.0
  6
BYLAYER
 10
706.62989843592743
 20
-61.933237953998884
 30
0.0
  0
POINT
  5
1CB
100
AcDbEntity
100
AcDbPoint
  8
0
 62
256
370
-1
 48
1.0
  6
BYLAYER
 10
841.35334931592797
 20
49.625059646001006
 30
0.0
  0
MTEXT
  5
1CC
100
AcDbEntity
100
AcDbMText
  8
labels - categories
 62
256
370
-1
 48
1.0
  6
BYLAYER
 10
0.0
 20
-1990.0
 30
0.0
 40
20.0
 41
0.0
 71
5
 72
1
  1
parallel
  7
textstyle135
 50
0.0
 73
2
 44
1.0
  0
POINT
  5
1CD
100
AcDbEntity
100
AcDbPoint
  8
0
 62
256
370
-1
 48
1.0
  6
BYLAYER
 10
415.71236619786612
 20
-12.585212365569147
 30
0.0
  0
LEADER
  5
1CE
  8
0
 62
256
370
-1
 48
1.0
  6
BYLAYER
100
AcDbEntity
100
AcDbLeader
  3
Standard
 71
1
 72
0
 73
3
 74
0
 75
0
 40
1.0
 41
10.0
 76
2
 10
0.0
 20
-300.0
 10
50.0
 20
-300.0
  0
LEADER
  5
1CF
  8
0
 62
256
370
-1
 48
1.0
  6
BYLAYER
100
AcDbEntity
100
AcDbLeader
  3
Standard
 71
1
 72
0
 73
3
 74
0
 75
0
 40
1.0
 41
10.0
 76
2
 10
0.0
 20
-300.0
 10
0.0
 20
-350.0
  0
LEADER
  5
1D0
  8
0
 62
256
370
-1
 48
1.0
  6
BYLAYER
100
AcDbEntity
100
AcDbLeader
  3
Standard
 71
1
 72
0
 73
3
 74
0
 75
0
 40
1.0
 41
10.0
 76
2
 10
146.62477465219757
 20
-304.76725642914931
 10
196.62477465219757
 20
-304.76725642914931
  0
LEADER
  5
1D1
  8
0
 62
256
370
-1
 48
1.0
  6
BYLAYER
100
AcDbEntity
100
AcDbLeader
  3
Standard
 71
1
 72
0
 73
3
 74
0
 75
0
 40
1.0
 41
10.0
 76
2
 10
196.62477465219757
 20
-354.76725642914931
 10
196.62477465219757
 20
-304.76725642914931
  0
LEADER
  5
1D2
  8
0
 62
256
370
-1
 48
1.0
  6
BYLAYER
100
AcDbEntity
100
AcDbLeader
  3
Standard
 71
1
 72
0
 73
3
 74
0
 75
0
 40
1.0
 41
10.0
 76
2
 10
600.0
 20
-260.0
 10
600.0
 20
-330.0
  0
LEADER
  5
1D3
  8
0
 62
256
370
-1
 48
1.0
  6
BYLAYER
100
AcDbEntity
100
AcDbLeader
  3
Standard
 71
1
 72
0
 73
3
 74
0
 75
0
 40
1.0
 41
10.0
 76
2
 10
540.0
 20
-300.0
 10
600.0
 20
-300.0
  0
LEADER
  5
1D4
  8
0
 62
256
370
-1
 48
1.0
  6
BYLAYER
100
AcDbEntity
100
AcDbLeader
  3
Standard
 71
1
 72
0
 73
3
 74
0
 75
0
 40
1.0
 41
10.0
 76
2
 10
805.93855103355156
 20
-335.13982902620944
 10
805.93855103355156
 20
-265.13982902620944
  0
LEADER
  5
1D5
  8
0
 62
256
370
-1
 48
1.0
  6
BYLAYER
100
AcDbEntity
100
AcDbLeader
  3
Standard
 71
1
 72
0
 73
3
 74
0
 75
0
 40
1.0
 41
10.0
 76
2
 10
805.93855103355156
 20
-295.13982902620944
 10
745.93855103355156
 20
-295.13982902620944
  0
LEADER
  5
1D6
  8
0
 62
256
370
-1
 48
1.0
  6
BYLAYER
100
AcDbEntity
100
AcDbLeader
  3
Standard
 71
1
 72
0
 73
3
 74
0
 75
0
 40
1.0
 41
10.0
 76
2
 10
344.44926105219724
 20
-295.80930442914928
 10
404.44926105219724
 20
-295.80930442914928
  0
LEADER
  5
1D7
  8
0
 62
256
370
-1
 48
1.0
  6
BYLAYER
100
AcDbEntity
100
AcDbLeader
  3
Standard
 71
1
 72
0
 73
3
 74
0
 75
0
 40
1.0
 41
10.0
 76
2
 10
404.44926105219724
 20
-295.80930442914928
 10
404.44926105219724
 20
-345.80930442914928
  0
LEADER
  5
1D8
  8
0
 62
256
370
-1
 48
1.0
  6
BYLAYER
100
AcDbEntity
100
AcDbLeader
  3
Standard
 71
1
 72
0
 73
3
 74
0
 75
0
 40
1.0
 41
10.0
 76
2
 10
945.54853503355127
 20
-304.28466102620973
 10
1035.5485350335512
 20
-304.28466102620973
  0
LEADER
  5
1D9
  8
0
 62
256
370
-1
 48
1.0
  6
BYLAYER
100
AcDbEntity
100
AcDbLeader
  3
Standard
 71
1
 72
0
 73
3
 74
0
 75
0
 40
1.0
 41
10.0
 76
2
 10
995.54853503355127
 20
-304.28466102620973
 10
995.54853503355127
 20
-364.28466102620973
  0
LEADER
  5
1DA
  8
0
 62
256
370
-1
 48
1.0
  6
BYLAYER
100
AcDbEntity
100
AcDbLeader
  3
Standard
 71
1
 72
0
 73
3
 74
0
 75
0
 40
1.0
 41
10.0
 76
2
 10
1260.0
 20
-300.0
 10
1180.0
 20
-300.0
  0
LEADER
  5
1DB
  8
0
 62
256
370
-1
 48
1.0
  6
BYLAYER
100
AcDbEntity
100
AcDbLeader
  3
Standard
 71
1
 72
0
 73
3
 74
0
 75
0
 40
1.0
 41
10.0
 76
2
 10
1200.0
 20
-300.0
 10
1200.0
 20
-240.0
  0
LEADER
  5
1DC
  8
0
 62
256
370
-1
 48
1.0
  6
BYLAYER
100
AcDbEntity
100
AcDbLeader
  3
Standard
 71
1
 72
0
 73
3
 74
0
 75
0
 40
1.0
 41
10.0
 76
2
 10
-204.36061199535385
 20
-345.58194712636566
 10
-204.36061199535385
 20
-275.58194712636566
  0
LEADER
  5
1DD
  8
0
 62
256
370
-1
 48
1.0
  6
BYLAYER
100
AcDbEntity
100
AcDbLeader
  3
Standard
 71
1
 72
0
 73
3
 74
0
 75
0
 40
1.0
 41
10.0
 76
2
 10
-204.36061199535385
 20
-295.58194712636566
 10
-254.36061199535385
 20
-325.58194712636566
  0
LEADER
  5
1DE
  8
0
 62
256
370
-1
 48
1.0
  6
BYLAYER
100
AcDbEntity
100
AcDbLeader
  3
Standard
 71
1
 72
0
 73
3
 74
0
 75
0
 40
1.0
 41
10.0
 76
2
 10
-446.4121959953535
 20
-295.81554712636569
 10
-366.4121959953535
 20
-295.81554712636569
  0
LEADER
  5
1DF
  8
0
 62
256
370
-1
 48
1.0
  6
BYLAYER
100
AcDbEntity
100
AcDbLeader
  3
Standard
 71
1
 72
0
 73
3
 74
0
 75
0
 40
1.0
 41
10.0
 76
2
 10
-386.4121959953535
 20
-345.81554712636569
 10
-406.4121959953535
 20
-295.81554712636569
  0
LEADER
  5
1E0
  8
0
 62
256
370
-1
 48
1.0
  6
BYLAYER
100
AcDbEntity
100
AcDbLeader
  3
Standard
 71
1
 72
0
 73
3
 74
0
 75
0
 40
1.0
 41
10.0
 76
2
 10
-630.0
 20
-270.0
 10
-580.0
 20
-320.0
  0
LEADER
  5
1E1
  8
0
 62
256
370
-1
 48
1.0
  6
BYLAYER
100
AcDbEntity
100
AcDbLeader
  3
Standard
 71
1
 72
0
 73
3
 74
0
 75
0
 40
1.0
 41
10.0
 76
2
 10
-600.0
 20
-300.0
 10
-630.0
 20
-330.0
  0
LEADER
  5
1E2
  8
0
 62
256
370
-1
 48
1.0
  6
BYLAYER
100
AcDbEntity
100
AcDbLeader
  3
Standard
 71
1
 72
0
 73
3
 74
0
 75
0
 40
1.0
 41
10.0
 76
2
 10
-780.0
 20
-280.0
 10
-830.0
 20
-330.0
  0
LEADER
  5
1E3
  8
0
 62
256
370
-1
 48
1.0
  6
BYLAYER
100
AcDbEntity
100
AcDbLeader
  3
Standard
 71
1
 72
0
 73
3
 74
0
 75
0
 40
1.0
 41
10.0
 76
2
 10
-770.0
 20
-330.0
 10
-800.0
 20
-300.0
  0
LEADER
  5
1E4
  8
0
 62
256
370
-1
 48
1.0
  6
BYLAYER
100
AcDbEntity
100
AcDbLeader
  3
Standard
 71
1
 72
0
 73
3
 74
0
 75
0
 40
1.0
 41
10.0
 76
2
 10
60.0
 20
-920.0
 10
-60.0
 20
-920.0
  0
LEADER
  5
1E5
  8
0
 62
256
370
-1
 48
1.0
  6
BYLAYER
100
AcDbEntity
100
AcDbLeader
  3
Standard
 71
1
 72
0
 73
3
 74
0
 75
0
 40
1.0
 41
10.0
 76
2
 10
60.0
 20
-620.0
 10
-60.0
 20
-620.0
  0
LEADER
  5
1E6
  8
0
 62
256
370
-1
 48
1.0
  6
BYLAYER
100
AcDbEntity
100
AcDbLeader
  3
Standard
 71
1
 72
0
 73
3
 74
0
 75
0
 40
1.0
 41
10.0
 76
2
 10
426.46284161173372
 20
-885.12155563087651
 10
376.46284161173372
 20
-965.12155563087651
  0
LEADER
  5
1E7
  8
0
 62
256
370
-1
 48
1.0
  6
BYLAYER
100
AcDbEntity
100
AcDbLeader
  3
Standard
 71
1
 72
0
 73
3
 74
0
 75
0
 40
1.0
 41
10.0
 76
2
 10
430.0
 20
-570.0
 10
380.0
 20
-650.0
  0
LEADER
  5
1E8
  8
0
 62
256
370
-1
 48
1.0
  6
BYLAYER
100
AcDbEntity
100
AcDbLeader
  3
Standard
 71
1
 72
0
 73
3
 74
0
 75
0
 40
1.0
 41
10.0
 76
2
 10
558.29178975176546
 20
-948.10802634381139
 10
653.31774456776543
 20
-911.12960048781144
  0
LEADER
  5
1E9
  8
0
 62
256
370
-1
 48
1.0
  6
BYLAYER
100
AcDbEntity
100
AcDbLeader
  3
Standard
 71
1
 72
0
 73
3
 74
0
 75
0
 40
1.0
 41
10.0
 76
2
 10
561.8289481400318
 20
-632.98647071293487
 10
656.85490295603176
 20
-596.00804485693493
  0
LEADER
  5
1EA
  8
0
 62
256
370
-1
 48
1.0
  6
BYLAYER
100
AcDbEntity
100
AcDbLeader
  3
Standard
 71
1
 72
0
 73
3
 74
0
 75
0
 40
1.0
 41
10.0
 76
2
 10
805.59364096313197
 20
-873.82941072906101
 10
803.36461585106804
 20
-951.84528965130085
  0
LEADER
  5
1EB
  8
0
 62
256
370
-1
 48
1.0
  6
BYLAYER
100
AcDbEntity
100
AcDbLeader
  3
Standard
 71
1
 72
0
 73
3
 74
0
 75
0
 40
1.0
 41
10.0
 76
2
 10
809.13079935139831
 20
-558.7078550981845
 10
806.90177423933437
 20
-636.72373402042433
  0
LEADER
  5
1EC
  8
0
 62
256
370
-1
 48
1.0
  6
BYLAYER
100
AcDbEntity
100
AcDbLeader
  3
Standard
 71
1
 72
0
 73
3
 74
0
 75
0
 40
1.0
 41
10.0
 76
2
 10
1005.4628926782038
 20
-944.4152059444209
 10
972.77052436793178
 20
-873.08640235837288
  0
LEADER
  5
1ED
  8
0
 62
256
370
-1
 48
1.0
  6
BYLAYER
100
AcDbEntity
100
AcDbLeader
  3
Standard
 71
1
 72
0
 73
3
 74
0
 75
0
 40
1.0
 41
10.0
 76
2
 10
1009.0000510664701
 20
-629.29365031354439
 10
976.30768275619812
 20
-557.96484672749637
  0
LEADER
  5
1EE
  8
0
 62
256
370
-1
 48
1.0
  6
BYLAYER
100
AcDbEntity
100
AcDbLeader
  3
Standard
 71
1
 72
0
 73
3
 74
0
 75
0
 40
1.0
 41
10.0
 76
2
 10
-198.89093120000041
 20
-961.02986240000007
 10
-198.89093120000041
 20
-861.02986240000007
  0
LEADER
  5
1EF
  8
0
 62
256
370
-1
 48
1.0
  6
BYLAYER
100
AcDbEntity
100
AcDbLeader
  3
Standard
 71
1
 72
0
 73
3
 74
0
 75
0
 40
1.0
 41
10.0
 76
2
 10
-195.35377281173413
 20
-645.90830676912356
 10
-195.35377281173413
 20
-545.90830676912356
  0
LEADER
  5
1F0
  8
0
 62
256
370
-1
 48
1.0
  6
BYLAYER
100
AcDbEntity
100
AcDbLeader
  3
Standard
 71
1
 72
0
 73
3
 74
0
 75
0
 40
1.0
 41
10.0
 76
2
 10
-400.0
 20
-860.0
 10
-400.0
 20
-960.0
  0
LEADER
  5
1F1
  8
0
 62
256
370
-1
 48
1.0
  6
BYLAYER
100
AcDbEntity
100
AcDbLeader
  3
Standard
 71
1
 72
0
 73
3
 74
0
 75
0
 40
1.0
 41
10.0
 76
2
 10
-396.46284161173378
 20
-544.87844436912349
 10
-396.46284161173378
 20
-644.87844436912349
  0
LEADER
  5
1F2
  8
0
 62
256
370
-1
 48
1.0
  6
BYLAYER
100
AcDbEntity
100
AcDbLeader
  3
Standard
 71
1
 72
0
 73
3
 74
0
 75
0
 40
1.0
 41
10.0
 76
2
 10
161.53206486958027
 20
-918.20389956976624
 10
241.53206486958027
 20
-918.20389956976624
  0
LEADER
  5
1F3
  8
0
 62
256
370
-1
 48
1.0
  6
BYLAYER
100
AcDbEntity
100
AcDbLeader
  3
Standard
 71
1
 72
0
 73
3
 74
0
 75
0
 40
1.0
 41
10.0
 76
2
 10
160.0
 20
-630.0
 10
240.0
 20
-630.0
  0
LEADER
  5
1F4
  8
0
 62
256
370
-1
 48
1.0
  6
BYLAYER
100
AcDbEntity
100
AcDbLeader
  3
Standard
 71
1
 72
0
 73
3
 74
0
 75
0
 40
1.0
 41
10.0
 76
2
 10
0.0
 20
-610.0
 10
0.0
 20
-560.0
  0
LEADER
  5
1F5
  8
0
 62
256
370
-1
 48
1.0
  6
BYLAYER
100
AcDbEntity
100
AcDbLeader
  3
Standard
 71
1
 72
0
 73
3
 74
0
 75
0
 40
1.0
 41
10.0
 76
2
 10
-205.35377281173413
 20
-595.90830676912356
 10
-275.35377281173413
 20
-595.90830676912356
  0
LEADER
  5
1F6
  8
0
 62
256
370
-1
 48
1.0
  6
BYLAYER
100
AcDbEntity
100
AcDbLeader
  3
Standard
 71
1
 72
0
 73
3
 74
0
 75
0
 40
1.0
 41
10.0
 76
2
 10
-406.46284161173378
 20
-594.87844436912349
 10
-456.46284161173378
 20
-594.87844436912349
  0
LEADER
  5
1F7
  8
0
 62
256
370
-1
 48
1.0
  6
BYLAYER
100
AcDbEntity
100
AcDbLeader
  3
Standard
 71
1
 72
0
 73
3
 74
0
 75
0
 40
1.0
 41
10.0
 76
2
 10
200.0
 20
-620.0
 10
200.0
 20
-560.0
  0
POINT
  5
1F8
100
AcDbEntity
100
AcDbPoint
  8
0
 62
256
370
-1
 48
1.0
  6
BYLAYER
 10
-400.0
 20
-910.0
 30
0.0
  0
POINT
  5
1F9
100
AcDbEntity
100
AcDbPoint
  8
0
 62
256
370
-1
 48
1.0
  6
BYLAYER
 10
-396.46284161173378
 20
-594.87844436912349
 30
0.0
  0
POINT
  5
1FA
100
AcDbEntity
100
AcDbPoint
  8
0
 62
256
370
-1
 48
1.0
  6
BYLAYER
 10
-460.0
 20
-910.0
 30
0.0
  0
POINT
  5
1FB
100
AcDbEntity
100
AcDbPoint
  8
0
 62
256
370
-1
 48
1.0
  6
BYLAYER
 10
-456.46284161173378
 20
-594.87844436912349
 30
0.0
  0
POINT
  5
1FC
100
AcDbEntity
100
AcDbPoint
  8
0
 62
256
370
-1
 48
1.0
  6
BYLAYER
 10
-400.0
 20
-960.0
 30
0.0
  0
POINT
  5
1FD
100
AcDbEntity
100
AcDbPoint
  8
0
 62
256
370
-1
 48
1.0
  6
BYLAYER
 10
-396.46284161173378
 20
-644.87844436912349
 30
0.0
  0
POINT
  5
1FE
100
AcDbEntity
100
AcDbPoint
  8
0
 62
256
370
-1
 48
1.0
  6
BYLAYER
 10
-278.89093120000047
 20
-911.02986240000007
 30
0.0
  0
POINT
  5
1FF
100
AcDbEntity
100
AcDbPoint
  8
0
 62
256
370
-1
 48
1.0
  6
BYLAYER
 10
-275.35377281173413
 20
-595.90830676912356
 30
0.0
  0
POINT
  5
200
100
AcDbEntity
100
AcDbPoint
  8
0
 62
256
370
-1
 48
1.0
  6
BYLAYER
 10
-198.89093120000041
 20
-861.02986240000007
 30
0.0
  0
POINT
  5
201
100
AcDbEntity
100
AcDbPoint
  8
0
 62
256
370
-1
 48
1.0
  6
BYLAYER
 10
-195.35377281173413
 20
-545.90830676912356
 30
0.0
  0
POINT
  5
202
100
AcDbEntity
100
AcDbPoint
  8
0
 62
256
370
-1
 48
1.0
  6
BYLAYER
 10
-198.89093120000041
 20
-911.02986240000007
 30
0.0
  0
POINT
  5
203
100
AcDbEntity
100
AcDbPoint
  8
0
 62
256
370
-1
 48
1.0
  6
BYLAYER
 10
-195.35377281173413
 20
-595.90830676912356
 30
0.0
  0
POINT
  5
204
100
AcDbEntity
100
AcDbPoint
  8
0
 62
256
370
-1
 48
1.0
  6
BYLAYER
 10
-60.0
 20
-920.0
 30
0.0
  0
POINT
  5
205
100
AcDbEntity
100
AcDbPoint
  8
0
 62
256
370
-1
 48
1.0
  6
BYLAYER
 10
-60.0
 20
-620.0
 30
0.0
  0
POINT
  5
206
100
AcDbEntity
100
AcDbPoint
  8
0
 62
256
370
-1
 48
1.0
  6
BYLAYER
 10
0.0
 20
-850.0
 30
0.0
  0
POINT
  5
207
100
AcDbEntity
100
AcDbPoint
  8
0
 62
256
370
-1
 48
1.0
  6
BYLAYER
 10
0.0
 20
-560.0
 30
0.0
  0
POINT
  5
208
100
AcDbEntity
100
AcDbPoint
  8
0
 62
256
370
-1
 48
1.0
  6
BYLAYER
 10
0.0
 20
-920.0
 30
0.0
  0
POINT
  5
209
100
AcDbEntity
100
AcDbPoint
  8
0
 62
256
370
-1
 48
1.0
  6
BYLAYER
 10
0.0
 20
-620.0
 30
0.0
  0
POINT
  5
20A
100
AcDbEntity
100
AcDbPoint
  8
0
 62
256
370
-1
 48
1.0
  6
BYLAYER
 10
241.53206486958027
 20
-918.20389956976624
 30
0.0
  0
POINT
  5
20B
100
AcDbEntity
100
AcDbPoint
  8
0
 62
256
370
-1
 48
1.0
  6
BYLAYER
 10
240.0
 20
-630.0
 30
0.0
  0
POINT
  5
20C
100
AcDbEntity
100
AcDbPoint
  8
0
 62
256
370
-1
 48
1.0
  6
BYLAYER
 10
201.53206486958027
 20
-848.20389956976624
 30
0.0
  0
POINT
  5
20D
100
AcDbEntity
100
AcDbPoint
  8
0
 62
256
370
-1
 48
1.0
  6
BYLAYER
 10
200.0
 20
-560.0
 30
0.0
  0
POINT
  5
20E
100
AcDbEntity
100
AcDbPoint
  8
0
 62
256
370
-1
 48
1.0
  6
BYLAYER
 10
201.53206486958027
 20
-918.20389956976624
 30
0.0
  0
POINT
  5
20F
100
AcDbEntity
100
AcDbPoint
  8
0
 62
256
370
-1
 48
1.0
  6
BYLAYER
 10
200.0
 20
-630.0
 30
0.0
  0
POINT
  5
210
100
AcDbEntity
100
AcDbPoint
  8
0
 62
256
370
-1
 48
1.0
  6
BYLAYER
 10
366.09602066774943
 20
-880.738852669126
 30
0.0
  0
POINT
  5
211
100
AcDbEntity
100
AcDbPoint
  8
0
 62
256
370
-1
 48
1.0
  6
BYLAYER
 10
369.63317905601571
 20
-565.61729703824949
 30
0.0
  0
POINT
  5
212
100
AcDbEntity
100
AcDbPoint
  8
0
 62
256
370
-1
 48
1.0
  6
BYLAYER
 10
400.37582872927345
 20
-926.86077624281279
 30
0.0
  0
POINT
  5
213
100
AcDbEntity
100
AcDbPoint
  8
0
 62
256
370
-1
 48
1.0
  6
BYLAYER
 10
403.91298711753973
 20
-611.73922061193628
 30
0.0
  0
POINT
  5
214
100
AcDbEntity
100
AcDbPoint
  8
0
 62
256
370
-1
 48
1.0
  6
BYLAYER
 10
394.66806789391399
 20
-919.18124348251104
 30
0.0
  0
POINT
  5
215
100
AcDbEntity
100
AcDbPoint
  8
0
 62
256
370
-1
 48
1.0
  6
BYLAYER
 10
398.20522628218026
 20
-604.05968785163452
 30
0.0
  0
POINT
  5
216
100
AcDbEntity
100
AcDbPoint
  8
0
 62
256
370
-1
 48
1.0
  6
BYLAYER
 10
589.93673260371293
 20
-930.32832870876086
 30
0.0
  0
POINT
  5
217
100
AcDbEntity
100
AcDbPoint
  8
0
 62
256
370
-1
 48
1.0
  6
BYLAYER
 10
593.47389099197926
 20
-615.20677307788435
 30
0.0
  0
POINT
  5
218
100
AcDbEntity
100
AcDbPoint
  8
0
 62
256
370
-1
 48
1.0
  6
BYLAYER
 10
582.77749637379065
 20
-938.57965182121336
 30
0.0
  0
POINT
  5
219
100
AcDbEntity
100
AcDbPoint
  8
0
 62
256
370
-1
 48
1.0
  6
BYLAYER
 10
586.31465476205699
 20
-623.45809619033685
 30
0.0
  0
POINT
  5
21A
100
AcDbEntity
100
AcDbPoint
  8
0
 62
256
370
-1
 48
1.0
  6
BYLAYER
 10
653.31774456776543
 20
-911.12960048781144
 30
0.0
  0
POINT
  5
21B
100
AcDbEntity
100
AcDbPoint
  8
0
 62
256
370
-1
 48
1.0
  6
BYLAYER
 10
656.85490295603176
 20
-596.00804485693493
 30
0.0
  0
POINT
  5
21C
100
AcDbEntity
100
AcDbPoint
  8
0
 62
256
370
-1
 48
1.0
  6
BYLAYER
 10
640.42434271574894
 20
-872.13921874912603
 30
0.0
  0
POINT
  5
21D
100
AcDbEntity
100
AcDbPoint
  8
0
 62
256
370
-1
 48
1.0
  6
BYLAYER
 10
643.96150110401527
 20
-557.01766311824952
 30
0.0
  0
POINT
  5
21E
100
AcDbEntity
100
AcDbPoint
  8
0
 62
256
370
-1
 48
1.0
  6
BYLAYER
 10
803.36461585106804
 20
-951.84528965130085
 30
0.0
  0
POINT
  5
21F
100
AcDbEntity
100
AcDbPoint
  8
0
 62
256
370
-1
 48
1.0
  6
BYLAYER
 10
806.90177423933437
 20
-636.72373402042433
 30
0.0
  0
POINT
  5
220
100
AcDbEntity
100
AcDbPoint
  8
0
 62
256
370
-1
 48
1.0
  6
BYLAYER
 10
745.13761314995077
 20
-970.68620767733057
 30
0.0
  0
POINT
  5
221
100
AcDbEntity
100
AcDbPoint
  8
0
 62
256
370
-1
 48
1.0
  6
BYLAYER
 10
748.67477153821699
 20
-655.56465204645406
 30
0.0
  0
POINT
  5
222
100
AcDbEntity
100
AcDbPoint
  8
0
 62
256
370
-1
 48
1.0
  6
BYLAYER
 10
803.71897223640372
 20
-939.44281616455578
 30
0.0
  0
POINT
  5
223
100
AcDbEntity
100
AcDbPoint
  8
0
 62
256
370
-1
 48
1.0
  6
BYLAYER
 10
807.25613062466994
 20
-624.32126053367926
 30
0.0
  0
POINT
  5
224
100
AcDbEntity
100
AcDbPoint
  8
0
 62
256
370
-1
 48
1.0
  6
BYLAYER
 10
1016.1870667769329
 20
-888.65808355337549
 30
0.0
  0
POINT
  5
225
100
AcDbEntity
100
AcDbPoint
  8
0
 62
256
370
-1
 48
1.0
  6
BYLAYER
 10
1019.7242251651991
 20
-573.53652792249898
 30
0.0
  0
POINT
  5
226
100
AcDbEntity
100
AcDbPoint
  8
0
 62
256
370
-1
 48
1.0
  6
BYLAYER
 10
990.79818269306838
 20
-912.41947506776137
 30
0.0
  0
POINT
  5
227
100
AcDbEntity
100
AcDbPoint
  8
0
 62
256
370
-1
 48
1.0
  6
BYLAYER
 10
994.3353410813346
 20
-597.29791943688485
 30
0.0
  0
POINT
  5
228
100
AcDbEntity
100
AcDbPoint
  8
0
 62
256
370
-1
 48
1.0
  6
BYLAYER
 10
972.77052436793178
 20
-873.08640235837288
 30
0.0
  0
POINT
  5
229
100
AcDbEntity
100
AcDbPoint
  8
0
 62
256
370
-1
 48
1.0
  6
BYLAYER
 10
976.30768275619812
 20
-557.96484672749637
 30
0.0
  0
LEADER
  5
22A
  8
0
 62
256
370
-1
 48
1.0
  6
BYLAYER
100
AcDbEntity
100
AcDbLeader
  3
Standard
 71
1
 72
0
 73
3
 74
0
 75
0
 40
1.0
 41
10.0
 76
2
 10
398.20522628218026
 20
-604.05968785163452
 10
369.63317905601571
 20
-565.61729703824949
  0
LEADER
  5
22B
  8
0
 62
256
370
-1
 48
1.0
  6
BYLAYER
100
AcDbEntity
100
AcDbLeader
  3
Standard
 71
1
 72
0
 73
3
 74
0
 75
0
 40
1.0
 41
10.0
 76
2
 10
593.47389099197926
 20
-615.20677307788435
 10
643.96150110401527
 20
-557.01766311824952
  0
LEADER
  5
22C
  8
0
 62
256
370
-1
 48
1.0
  6
BYLAYER
100
AcDbEntity
100
AcDbLeader
  3
Standard
 71
1
 72
0
 73
3
 74
0
 75
0
 40
1.0
 41
10.0
 76
2
 10
801.65349945520609
 20
-627.30933049072655
 10
748.67477153821699
 20
-655.56465204645406
  0
LEADER
  5
22D
  8
0
 62
256
370
-1
 48
1.0
  6
BYLAYER
100
AcDbEntity
100
AcDbLeader
  3
Standard
 71
1
 72
0
 73
3
 74
0
 75
0
 40
1.0
 41
10.0
 76
2
 10
999.75423156466695
 20
-592.22639372812523
 10
1019.7242251651991
 20
-573.53652792249898
  0
POINT
  5
22E
100
AcDbEntity
100
AcDbPoint
  8
0
 62
256
370
-1
 48
1.0
  6
BYLAYER
 10
805.59364096313197
 20
-873.82941072906101
 30
0.0
  0
POINT
  5
22F
100
AcDbEntity
100
AcDbPoint
  8
0
 62
256
370
-1
 48
1.0
  6
BYLAYER
 10
809.13079935139831
 20
-558.7078550981845
 30
0.0
  0
POINT
  5
230
100
AcDbEntity
100
AcDbPoint
  8
0
 62
256
370
-1
 48
1.0
  6
BYLAYER
 10
798.11634106693987
 20
-942.43088612160307
 30
0.0
  0
POINT
  5
231
100
AcDbEntity
100
AcDbPoint
  8
0
 62
256
370
-1
 48
1.0
  6
BYLAYER
 10
801.65349945520609
 20
-627.30933049072655
 30
0.0
  0
POINT
  5
232
100
AcDbEntity
100
AcDbPoint
  8
0
 62
256
370
-1
 48
1.0
  6
BYLAYER
 10
996.21707317640062
 20
-907.34794935900175
 30
0.0
  0
POINT
  5
233
100
AcDbEntity
100
AcDbPoint
  8
0
 62
256
370
-1
 48
1.0
  6
BYLAYER
 10
999.75423156466695
 20
-592.22639372812523
 30
0.0
  0
POINT
  5
234
100
AcDbEntity
100
AcDbPoint
  8
0
 62
256
370
-1
 48
1.0
  6
BYLAYER
 10
1005.4628926782038
 20
-944.4152059444209
 30
0.0
  0
POINT
  5
235
100
AcDbEntity
100
AcDbPoint
  8
0
 62
256
370
-1
 48
1.0
  6
BYLAYER
 10
1009.0000510664701
 20
-629.29365031354439
 30
0.0
  0
POINT
  5
236
100
AcDbEntity
100
AcDbPoint
  8
0
 62
256
370
-1
 48
1.0
  6
BYLAYER
 10
558.29178975176546
 20
-948.10802634381139
 30
0.0
  0
POINT
  5
237
100
AcDbEntity
100
AcDbPoint
  8
0
 62
256
370
-1
 48
1.0
  6
BYLAYER
 10
561.8289481400318
 20
-632.98647071293487
 30
0.0
  0
POINT
  5
238
100
AcDbEntity
100
AcDbPoint
  8
0
 62
256
370
-1
 48
1.0
  6
BYLAYER
 10
426.46284161173372
 20
-885.12155563087651
 30
0.0
  0
POINT
  5
239
100
AcDbEntity
100
AcDbPoint
  8
0
 62
256
370
-1
 48
1.0
  6
BYLAYER
 10
430.0
 20
-570.0
 30
0.0
  0
POINT
  5
23A
100
AcDbEntity
100
AcDbPoint
  8
0
 62
256
370
-1
 48
1.0
  6
BYLAYER
 10
161.53206486958027
 20
-918.20389956976624
 30
0.0
  0
POINT
  5
23B
100
AcDbEntity
100
AcDbPoint
  8
0
 62
256
370
-1
 48
1.0
  6
BYLAYER
 10
160.0
 20
-630.0
 30
0.0
  0
POINT
  5
23C
100
AcDbEntity
100
AcDbPoint
  8
0
 62
256
370
-1
 48
1.0
  6
BYLAYER
 10
201.53206486958027
 20
-908.20389956976624
 30
0.0
  0
POINT
  5
23D
100
AcDbEntity
100
AcDbPoint
  8
0
 62
256
370
-1
 48
1.0
  6
BYLAYER
 10
200.0
 20
-620.0
 30
0.0
  0
POINT
  5
23E
100
AcDbEntity
100
AcDbPoint
  8
0
 62
256
370
-1
 48
1.0
  6
BYLAYER
 10
0.0
 20
-910.0
 30
0.0
  0
POINT
  5
23F
100
AcDbEntity
100
AcDbPoint
  8
0
 62
256
370
-1
 48
1.0
  6
BYLAYER
 10
0.0
 20
-610.0
 30
0.0
  0
POINT
  5
240
100
AcDbEntity
100
AcDbPoint
  8
0
 62
256
370
-1
 48
1.0
  6
BYLAYER
 10
-208.89093120000041
 20
-911.02986240000007
 30
0.0
  0
POINT
  5
241
100
AcDbEntity
100
AcDbPoint
  8
0
 62
256
370
-1
 48
1.0
  6
BYLAYER
 10
-205.35377281173413
 20
-595.90830676912356
 30
0.0
  0
POINT
  5
242
100
AcDbEntity
100
AcDbPoint
  8
0
 62
256
370
-1
 48
1.0
  6
BYLAYER
 10
-198.89093120000041
 20
-961.02986240000007
 30
0.0
  0
POINT
  5
243
100
AcDbEntity
100
AcDbPoint
  8
0
 62
256
370
-1
 48
1.0
  6
BYLAYER
 10
-195.35377281173413
 20
-645.90830676912356
 30
0.0
  0
POINT
  5
244
100
AcDbEntity
100
AcDbPoint
  8
0
 62
256
370
-1
 48
1.0
  6
BYLAYER
 10
-410.0
 20
-910.0
 30
0.0
  0
POINT
  5
245
100
AcDbEntity
100
AcDbPoint
  8
0
 62
256
370
-1
 48
1.0
  6
BYLAYER
 10
-406.46284161173378
 20
-594.87844436912349
 30
0.0
  0
POINT
  5
246
100
AcDbEntity
100
AcDbPoint
  8
0
 62
256
370
-1
 48
1.0
  6
BYLAYER
 10
-400.0
 20
-860.0
 30
0.0
  0
POINT
  5
247
100
AcDbEntity
100
AcDbPoint
  8
0
 62
256
370
-1
 48
1.0
  6
BYLAYER
 10
-396.46284161173378
 20
-544.87844436912349
 30
0.0
  0
POINT
  5
248
100
AcDbEntity
100
AcDbPoint
  8
0
 62
256
370
-1
 48
1.0
  6
BYLAYER
 10
376.46284161173372
 20
-965.12155563087651
 30
0.0
  0
POINT
  5
249
100
AcDbEntity
100
AcDbPoint
  8
0
 62
256
370
-1
 48
1.0
  6
BYLAYER
 10
380.0
 20
-650.0
 30
0.0
  0
POINT
  5
24A
100
AcDbEntity
100
AcDbPoint
  8
0
 62
256
370
-1
 48
1.0
  6
BYLAYER
 10
-608.77297192959941
 20
12.069416960000112
 30
0.0
  0
POINT
  5
24B
100
AcDbEntity
100
AcDbPoint
  8
0
 62
256
370
-1
 48
1.0
  6
BYLAYER
 10
-568.77297192959941
 20
2.0694169600001118
 30
0.0
  0
POINT
  5
24C
100
AcDbEntity
100
AcDbPoint
  8
0
 62
256
370
-1
 48
1.0
  6
BYLAYER
 10
-430.0
 20
30.0
 30
0.0
  0
POINT
  5
24D
100
AcDbEntity
100
AcDbPoint
  8
0
 62
256
370
-1
 48
1.0
  6
BYLAYER
 10
-430.0
 20
-30.0
 30
0.0
  0
POINT
  5
24E
100
AcDbEntity
100
AcDbPoint
  8
0
 62
256
370
-1
 48
1.0
  6
BYLAYER
 10
30.0
 20
0.0
 30
0.0
  0
POINT
  5
24F
100
AcDbEntity
100
AcDbPoint
  8
0
 62
256
370
-1
 48
1.0
  6
BYLAYER
 10
0.0
 20
-30.0
 30
0.0
  0
POINT
  5
250
100
AcDbEntity
100
AcDbPoint
  8
0
 62
256
370
-1
 48
1.0
  6
BYLAYER
 10
213.24522565168047
 20
47.117521160897574
 30
0.0
  0
POINT
  5
251
100
AcDbEntity
100
AcDbPoint
  8
0
 62
256
370
-1
 48
1.0
  6
BYLAYER
 10
246.38964805168041
 20
-39.774613239102322
 30
0.0
  0
POINT
  5
252
100
AcDbEntity
100
AcDbPoint
  8
0
 62
256
370
-1
 48
1.0
  6
BYLAYER
 10
380.35135891270573
 20
-28.621017994886046
 30
0.0
  0
POINT
  5
253
100
AcDbEntity
100
AcDbPoint
  8
0
 62
256
370
-1
 48
1.0
  6
BYLAYER
 10
334.77329913670582
 20
16.097078389113875
 30
0.0
  0
POINT
  5
254
100
AcDbEntity
100
AcDbPoint
  8
0
 62
256
370
-1
 48
1.0
  6
BYLAYER
 10
561.16192320563118
 20
21.892389937916533
 30
0.0
  0
POINT
  5
255
100
AcDbEntity
100
AcDbPoint
  8
0
 62
256
370
-1
 48
1.0
  6
BYLAYER
 10
625.755193580031
 20
29.206922699516507
 30
0.0
  0
POINT
  5
256
100
AcDbEntity
100
AcDbPoint
  8
0
 62
256
370
-1
 48
1.0
  6
BYLAYER
 10
808.75469843592737
 20
-12.512437953998933
 30
0.0
  0
POINT
  5
257
100
AcDbEntity
100
AcDbPoint
  8
0
 62
256
370
-1
 48
1.0
  6
BYLAYER
 10
803.26759507913243
 20
-17.571314565208752
 30
0.0
  0
POINT
  5
258
100
AcDbEntity
100
AcDbPoint
  8
0
 62
256
370
-1
 48
1.0
  6
BYLAYER
 10
805.93855103355156
 20
-335.13982902620944
 30
0.0
  0
POINT
  5
259
100
AcDbEntity
100
AcDbPoint
  8
0
 62
256
370
-1
 48
1.0
  6
BYLAYER
 10
805.93855103355156
 20
-295.13982902620944
 30
0.0
  0
POINT
  5
25A
100
AcDbEntity
100
AcDbPoint
  8
0
 62
256
370
-1
 48
1.0
  6
BYLAYER
 10
805.93855103355156
 20
-265.13982902620944
 30
0.0
  0
POINT
  5
25B
100
AcDbEntity
100
AcDbPoint
  8
0
 62
256
370
-1
 48
1.0
  6
BYLAYER
 10
745.93855103355156
 20
-295.13982902620944
 30
0.0
  0
POINT
  5
25C
100
AcDbEntity
100
AcDbPoint
  8
0
 62
256
370
-1
 48
1.0
  6
BYLAYER
 10
945.54853503355127
 20
-304.28466102620973
 30
0.0
  0
POINT
  5
25D
100
AcDbEntity
100
AcDbPoint
  8
0
 62
256
370
-1
 48
1.0
  6
BYLAYER
 10
1035.5485350335512
 20
-304.28466102620973
 30
0.0
  0
POINT
  5
25E
100
AcDbEntity
100
AcDbPoint
  8
0
 62
256
370
-1
 48
1.0
  6
BYLAYER
 10
995.54853503355127
 20
-304.28466102620973
 30
0.0
  0
POINT
  5
25F
100
AcDbEntity
100
AcDbPoint
  8
0
 62
256
370
-1
 48
1.0
  6
BYLAYER
 10
995.54853503355127
 20
-364.28466102620973
 30
0.0
  0
POINT
  5
260
100
AcDbEntity
100
AcDbPoint
  8
0
 62
256
370
-1
 48
1.0
  6
BYLAYER
 10
1180.0
 20
-300.0
 30
0.0
  0
POINT
  5
261
100
AcDbEntity
100
AcDbPoint
  8
0
 62
256
370
-1
 48
1.0
  6
BYLAYER
 10
1200.0
 20
-240.0
 30
0.0
  0
POINT
  5
262
100
AcDbEntity
100
AcDbPoint
  8
0
 62
256
370
-1
 48
1.0
  6
BYLAYER
 10
1260.0
 20
-300.0
 30
0.0
  0
POINT
  5
263
100
AcDbEntity
100
AcDbPoint
  8
0
 62
256
370
-1
 48
1.0
  6
BYLAYER
 10
600.0
 20
-330.0
 30
0.0
  0
POINT
  5
264
100
AcDbEntity
100
AcDbPoint
  8
0
 62
256
370
-1
 48
1.0
  6
BYLAYER
 10
540.0
 20
-300.0
 30
0.0
  0
POINT
  5
265
100
AcDbEntity
100
AcDbPoint
  8
0
 62
256
370
-1
 48
1.0
  6
BYLAYER
 10
600.0
 20
-260.0
 30
0.0
  0
POINT
  5
266
100
AcDbEntity
100
AcDbPoint
  8
0
 62
256
370
-1
 48
1.0
  6
BYLAYER
 10
404.44926105219724
 20
-295.80930442914928
 30
0.0
  0
POINT
  5
267
100
AcDbEntity
100
AcDbPoint
  8
0
 62
256
370
-1
 48
1.0
  6
BYLAYER
 10
404.44926105219724
 20
-345.80930442914928
 30
0.0
  0
POINT
  5
268
100
AcDbEntity
100
AcDbPoint
  8
0
 62
256
370
-1
 48
1.0
  6
BYLAYER
 10
344.44926105219724
 20
-295.80930442914928
 30
0.0
  0
POINT
  5
269
100
AcDbEntity
100
AcDbPoint
  8
0
 62
256
370
-1
 48
1.0
  6
BYLAYER
 10
196.62477465219757
 20
-304.76725642914931
 30
0.0
  0
POINT
  5
26A
100
AcDbEntity
100
AcDbPoint
  8
0
 62
256
370
-1
 48
1.0
  6
BYLAYER
 10
146.62477465219757
 20
-304.76725642914931
 30
0.0
  0
POINT
  5
26B
100
AcDbEntity
100
AcDbPoint
  8
0
 62
256
370
-1
 48
1.0
  6
BYLAYER
 10
196.62477465219757
 20
-354.76725642914931
 30
0.0
  0
POINT
  5
26C
100
AcDbEntity
100
AcDbPoint
  8
0
 62
256
370
-1
 48
1.0
  6
BYLAYER
 10
50.0
 20
-300.0
 30
0.0
  0
POINT
  5
26D
100
AcDbEntity
100
AcDbPoint
  8
0
 62
256
370
-1
 48
1.0
  6
BYLAYER
 10
0.0
 20
-299.99999999999994
 30
0.0
  0
POINT
  5
26E
100
AcDbEntity
100
AcDbPoint
  8
0
 62
256
370
-1
 48
1.0
  6
BYLAYER
 10
0.0
 20
-350.0
 30
0.0
  0
POINT
  5
26F
100
AcDbEntity
100
AcDbPoint
  8
0
 62
256
370
-1
 48
1.0
  6
BYLAYER
 10
-204.36061199535385
 20
-275.58194712636566
 30
0.0
  0
POINT
  5
270
100
AcDbEntity
100
AcDbPoint
  8
0
 62
256
370
-1
 48
1.0
  6
BYLAYER
 10
-204.36061199535388
 20
-295.58194712636566
 30
0.0
  0
POINT
  5
271
100
AcDbEntity
100
AcDbPoint
  8
0
 62
256
370
-1
 48
1.0
  6
BYLAYER
 10
-204.36061199535385
 20
-345.58194712636566
 30
0.0
  0
POINT
  5
272
100
AcDbEntity
100
AcDbPoint
  8
0
 62
256
370
-1
 48
1.0
  6
BYLAYER
 10
-254.36061199535385
 20
-325.58194712636566
 30
0.0
  0
POINT
  5
273
100
AcDbEntity
100
AcDbPoint
  8
0
 62
256
370
-1
 48
1.0
  6
BYLAYER
 10
-386.4121959953535
 20
-345.81554712636569
 30
0.0
  0
POINT
  5
274
100
AcDbEntity
100
AcDbPoint
  8
0
 62
256
370
-1
 48
1.0
  6
BYLAYER
 10
-406.4121959953535
 20
-295.81554712636569
 30
0.0
  0
POINT
  5
275
100
AcDbEntity
100
AcDbPoint
  8
0
 62
256
370
-1
 48
1.0
  6
BYLAYER
 10
-366.4121959953535
 20
-295.81554712636569
 30
0.0
  0
POINT
  5
276
100
AcDbEntity
100
AcDbPoint
  8
0
 62
256
370
-1
 48
1.0
  6
BYLAYER
 10
-446.4121959953535
 20
-295.81554712636569
 30
0.0
  0
POINT
  5
277
100
AcDbEntity
100
AcDbPoint
  8
0
 62
256
370
-1
 48
1.0
  6
BYLAYER
 10
-580.0
 20
-320.0
 30
0.0
  0
POINT
  5
278
100
AcDbEntity
100
AcDbPoint
  8
0
 62
256
370
-1
 48
1.0
  6
BYLAYER
 10
-630.0
 20
-330.0
 30
0.0
  0
POINT
  5
279
100
AcDbEntity
100
AcDbPoint
  8
0
 62
256
370
-1
 48
1.0
  6
BYLAYER
 10
-630.0
 20
-270.0
 30
0.0
  0
POINT
  5
27A
100
AcDbEntity
100
AcDbPoint
  8
0
 62
256
370
-1
 48
1.0
  6
BYLAYER
 10
-600.0
 20
-300.0
 30
0.0
  0
POINT
  5
27B
100
AcDbEntity
100
AcDbPoint
  8
0
 62
256
370
-1
 48
1.0
  6
BYLAYER
 10
-800.0
 20
-300.0
 30
0.0
  0
POINT
  5
27C
100
AcDbEntity
100
AcDbPoint
  8
0
 62
256
370
-1
 48
1.0
  6
BYLAYER
 10
-780.0
 20
-280.0
 30
0.0
  0
POINT
  5
27D
100
AcDbEntity
100
AcDbPoint
  8
0
 62
256
370
-1
 48
1.0
  6
BYLAYER
 10
-770.0
 20
-330.0
 30
0.0
  0
POINT
  5
27E
100
AcDbEntity
100
AcDbPoint
  8
0
 62
256
370
-1
 48
1.0
  6
BYLAYER
 10
-830.0
 20
-330.0
 30
0.0
  0
POINT
  5
27F
100
AcDbEntity
100
AcDbPoint
  8
0
 62
256
370
-1
 48
1.0
  6
BYLAYER
 10
60.0
 20
-920.0
 30
0.0
  0
POINT
  5
280
100
AcDbEntity
100
AcDbPoint
  8
0
 62
256
370
-1
 48
1.0
  6
BYLAYER
 10
60.0
 20
-620.0
 30
0.0
  0
LEADER
  5
281
  8
0
 62
256
370
-1
 48
1.0
  6
BYLAYER
100
AcDbEntity
100
AcDbLeader
  3
Standard
 71
1
 72
0
 73
3
 74
0
 75
0
 40
1.0
 41
10.0
 76
2
 10
-170.0
 20
0.0
 10
-230.0
 20
0.0
  0
LEADER
  5
282
  8
0
 62
256
370
-1
 48
1.0
  6
BYLAYER
100
AcDbEntity
100
AcDbLeader
  3
Standard
 71
1
 72
0
 73
3
 74
0
 75
0
 40
1.0
 41
10.0
 76
2
 10
-200.0
 20
-30.0
 10
-200.0
 20
30.0
  0
POINT
  5
283
100
AcDbEntity
100
AcDbPoint
  8
0
 62
256
370
-1
 48
1.0
  6
BYLAYER
 10
-200.0
 20
30.0
 30
0.0
  0
POINT
  5
284
100
AcDbEntity
100
AcDbPoint
  8
0
 62
256
370
-1
 48
1.0
  6
BYLAYER
 10
-230.0
 20
0.0
 30
0.0
  0
POINT
  5
285
100
AcDbEntity
100
AcDbPoint
  8
0
 62
256
370
-1
 48
1.0
  6
BYLAYER
 10
-200.0
 20
0.0
 30
0.0
  0
POINT
  5
286
100
AcDbEntity
100
AcDbPoint
  8
0
 62
256
370
-1
 48
1.0
  6
BYLAYER
 10
-170.0
 20
0.0
 30
0.0
  0
POINT
  5
287
100
AcDbEntity
100
AcDbPoint
  8
0
 62
256
370
-1
 48
1.0
  6
BYLAYER
 10
-200.0
 20
-30.0
 30
0.0
  0
LEADER
  5
288
  8
0
 62
256
370
-1
 48
1.0
  6
BYLAYER
100
AcDbEntity
100
AcDbLeader
  3
Standard
 71
1
 72
0
 73
3
 74
0
 75
0
 40
1.0
 41
10.0
 76
2
 10
-460.0
 20
-910.0
 10
-410.0
 20
-910.0
  0
LEADER
  5
289
  8
0
 62
256
370
-1
 48
1.0
  6
BYLAYER
100
AcDbEntity
100
AcDbLeader
  3
Standard
 71
1
 72
0
 73
3
 74
0
 75
0
 40
1.0
 41
10.0
 76
2
 10
-278.89093120000047
 20
-911.02986240000007
 10
-208.89093120000041
 20
-911.02986240000007
  0
LEADER
  5
28A
  8
0
 62
256
370
-1
 48
1.0
  6
BYLAYER
100
AcDbEntity
100
AcDbLeader
  3
Standard
 71
1
 72
0
 73
3
 74
0
 75
0
 40
1.0
 41
10.0
 76
2
 10
0.0
 20
-850.0
 10
0.0
 20
-910.0
  0
LEADER
  5
28B
  8
0
 62
256
370
-1
 48
1.0
  6
BYLAYER
100
AcDbEntity
100
AcDbLeader
  3
Standard
 71
1
 72
0
 73
3
 74
0
 75
0
 40
1.0
 41
10.0
 76
2
 10
201.53206486958027
 20
-848.20389956976624
 10
201.53206486958027
 20
-908.20389956976624
  0
LEADER
  5
28C
  8
0
 62
256
370
-1
 48
1.0
  6
BYLAYER
100
AcDbEntity
100
AcDbLeader
  3
Standard
 71
1
 72
0
 73
3
 74
0
 75
0
 40
1.0
 41
10.0
 76
2
 10
366.09602066774943
 20
-880.738852669126
 10
394.66806789391399
 20
-919.18124348251104
  0
LEADER
  5
28D
  8
0
 62
256
370
-1
 48
1.0
  6
BYLAYER
100
AcDbEntity
100
AcDbLeader
  3
Standard
 71
1
 72
0
 73
3
 74
0
 75
0
 40
1.0
 41
10.0
 76
2
 10
640.42434271574894
 20
-872.13921874912603
 10
589.93673260371293
 20
-930.32832870876086
  0
LEADER
  5
28E
  8
0
 62
256
370
-1
 48
1.0
  6
BYLAYER
100
AcDbEntity
100
AcDbLeader
  3
Standard
 71
1
 72
0
 73
3
 74
0
 75
0
 40
1.0
 41
10.0
 76
2
 10
745.13761314995077
 20
-970.68620767733057
 10
798.11634106693987
 20
-942.43088612160307
  0
LEADER
  5
28F
  8
0
 62
256
370
-1
 48
1.0
  6
BYLAYER
100
AcDbEntity
100
AcDbLeader
  3
Standard
 71
1
 72
0
 73
3
 74
0
 75
0
 40
1.0
 41
10.0
 76
2
 10
1016.1870667769329
 20
-888.65808355337549
 10
996.21707317640062
 20
-907.34794935900175
  0
LEADER
  5
290
  8
0
 62
256
370
-1
 48
1.0
  6
BYLAYER
100
AcDbEntity
100
AcDbLeader
  3
Standard
 71
1
 72
0
 73
3
 74
0
 75
0
 40
1.0
 41
10.0
 76
2
 10
-10.0
 20
-1230.0
 10
-70.0
 20
-1230.0
  0
LEADER
  5
291
  8
0
 62
256
370
-1
 48
1.0
  6
BYLAYER
100
AcDbEntity
100
AcDbLeader
  3
Standard
 71
1
 72
0
 73
3
 74
0
 75
0
 40
1.0
 41
10.0
 76
2
 10
0.0
 20
-1220.0
 10
0.0
 20
-1160.0
  0
LEADER
  5
292
  8
0
 62
256
370
-1
 48
1.0
  6
BYLAYER
100
AcDbEntity
100
AcDbLeader
  3
Standard
 71
1
 72
0
 73
3
 74
0
 75
0
 40
1.0
 41
10.0
 76
2
 10
190.0
 20
-1210.0
 10
160.0
 20
-1240.0
  0
LEADER
  5
293
  8
0
 62
256
370
-1
 48
1.0
  6
BYLAYER
100
AcDbEntity
100
AcDbLeader
  3
Standard
 71
1
 72
0
 73
3
 74
0
 75
0
 40
1.0
 41
10.0
 76
2
 10
210.0
 20
-1210.0
 10
250.0
 20
-1250.0
  0
POINT
  5
294
100
AcDbEntity
100
AcDbPoint
  8
0
 62
256
370
-1
 48
1.0
  6
BYLAYER
 10
200.0
 20
-1200.0
 30
0.0
  0
POINT
  5
295
100
AcDbEntity
100
AcDbPoint
  8
0
 62
256
370
-1
 48
1.0
  6
BYLAYER
 10
199.1666666666668
 20
-1498.4204026273756
 30
0.0
  0
POINT
  5
296
100
AcDbEntity
100
AcDbPoint
  8
0
 62
256
370
-1
 48
1.0
  6
BYLAYER
 10
199.44444444444446
 20
-1799.9607945676421
 30
0.0
  0
POINT
  5
297
100
AcDbEntity
100
AcDbPoint
  8
0
 62
256
370
-1
 48
1.0
  6
BYLAYER
 10
0.0
 20
-1230.0
 30
0.0
  0
POINT
  5
298
100
AcDbEntity
100
AcDbPoint
  8
0
 62
256
370
-1
 48
1.0
  6
BYLAYER
 10
0.0
 20
-1530.0
 30
0.0
  0
POINT
  5
299
100
AcDbEntity
100
AcDbPoint
  8
0
 62
256
370
-1
 48
1.0
  6
BYLAYER
 10
0.0
 20
-1840.0
 30
0.0
  0
POINT
  5
29A
100
AcDbEntity
100
AcDbPoint
  8
0
 62
256
370
-1
 48
1.0
  6
BYLAYER
 10
190.0
 20
-1210.0
 30
0.0
  0
POINT
  5
29B
100
AcDbEntity
100
AcDbPoint
  8
0
 62
256
370
-1
 48
1.0
  6
BYLAYER
 10
189.1666666666668
 20
-1508.4204026273756
 30
0.0
  0
POINT
  5
29C
100
AcDbEntity
100
AcDbPoint
  8
0
 62
256
370
-1
 48
1.0
  6
BYLAYER
 10
189.44444444444446
 20
-1809.9607945676421
 30
0.0
  0
POINT
  5
29D
100
AcDbEntity
100
AcDbPoint
  8
0
 62
256
370
-1
 48
1.0
  6
BYLAYER
 10
210.0
 20
-1210.0
 30
0.0
  0
POINT
  5
29E
100
AcDbEntity
100
AcDbPoint
  8
0
 62
256
370
-1
 48
1.0
  6
BYLAYER
 10
209.1666666666668
 20
-1508.4204026273756
 30
0.0
  0
POINT
  5
29F
100
AcDbEntity
100
AcDbPoint
  8
0
 62
256
370
-1
 48
1.0
  6
BYLAYER
 10
209.44444444444446
 20
-1809.9607945676421
 30
0.0
  0
POINT
  5
2A0
100
AcDbEntity
100
AcDbPoint
  8
0
 62
256
370
-1
 48
1.0
  6
BYLAYER
 10
160.0
 20
-1240.0
 30
0.0
  0
POINT
  5
2A1
100
AcDbEntity
100
AcDbPoint
  8
0
 62
256
370
-1
 48
1.0
  6
BYLAYER
 10
159.1666666666668
 20
-1538.4204026273756
 30
0.0
  0
POINT
  5
2A2
100
AcDbEntity
100
AcDbPoint
  8
0
 62
256
370
-1
 48
1.0
  6
BYLAYER
 10
159.44444444444446
 20
-1839.9607945676421
 30
0.0
  0
POINT
  5
2A3
100
AcDbEntity
100
AcDbPoint
  8
0
 62
256
370
-1
 48
1.0
  6
BYLAYER
 10
250.0
 20
-1250.0
 30
0.0
  0
POINT
  5
2A4
100
AcDbEntity
100
AcDbPoint
  8
0
 62
256
370
-1
 48
1.0
  6
BYLAYER
 10
249.1666666666668
 20
-1548.4204026273756
 30
0.0
  0
POINT
  5
2A5
100
AcDbEntity
100
AcDbPoint
  8
0
 62
256
370
-1
 48
1.0
  6
BYLAYER
 10
249.44444444444446
 20
-1849.9607945676421
 30
0.0
  0
POINT
  5
2A6
100
AcDbEntity
100
AcDbPoint
  8
0
 62
256
370
-1
 48
1.0
  6
BYLAYER
 10
-70.0
 20
-1230.0
 30
0.0
  0
POINT
  5
2A7
100
AcDbEntity
100
AcDbPoint
  8
0
 62
256
370
-1
 48
1.0
  6
BYLAYER
 10
-70.0
 20
-1530.0
 30
0.0
  0
POINT
  5
2A8
100
AcDbEntity
100
AcDbPoint
  8
0
 62
256
370
-1
 48
1.0
  6
BYLAYER
 10
-70.0
 20
-1840.0
 30
0.0
  0
POINT
  5
2A9
100
AcDbEntity
100
AcDbPoint
  8
0
 62
256
370
-1
 48
1.0
  6
BYLAYER
 10
-10.0
 20
-1230.0
 30
0.0
  0
POINT
  5
2AA
100
AcDbEntity
100
AcDbPoint
  8
0
 62
256
370
-1
 48
1.0
  6
BYLAYER
 10
-10.0
 20
-1530.0
 30
0.0
  0
POINT
  5
2AB
100
AcDbEntity
100
AcDbPoint
  8
0
 62
256
370
-1
 48
1.0
  6
BYLAYER
 10
-10.0
 20
-1840.0
 30
0.0
  0
POINT
  5
2AC
100
AcDbEntity
100
AcDbPoint
  8
0
 62
256
370
-1
 48
1.0
  6
BYLAYER
 10
0.0
 20
-1220.0
 30
0.0
  0
POINT
  5
2AD
100
AcDbEntity
100
AcDbPoint
  8
0
 62
256
370
-1
 48
1.0
  6
BYLAYER
 10
0.0
 20
-1520.0
 30
0.0
  0
POINT
  5
2AE
100
AcDbEntity
100
AcDbPoint
  8
0
 62
256
370
-1
 48
1.0
  6
BYLAYER
 10
0.0
 20
-1830.0
 30
0.0
  0
POINT
  5
2AF
100
AcDbEntity
100
AcDbPoint
  8
0
 62
256
370
-1
 48
1.0
  6
BYLAYER
 10
0.0
 20
-1160.0
 30
0.0
  0
POINT
  5
2B0
100
AcDbEntity
100
AcDbPoint
  8
0
 62
256
370
-1
 48
1.0
  6
BYLAYER
 10
0.0
 20
-1460.0
 30
0.0
  0
POINT
  5
2B1
100
AcDbEntity
100
AcDbPoint
  8
0
 62
256
370
-1
 48
1.0
  6
BYLAYER
 10
0.0
 20
-1770.0
 30
0.0
  0
POINT
  5
2B2
100
AcDbEntity
100
AcDbPoint
  8
0
 62
256
370
-1
 48
1.0
  6
BYLAYER
 10
522.84137774159046
 20
-1183.8910132888359
 30
0.0
  0
POINT
  5
2B3
100
AcDbEntity
100
AcDbPoint
  8
0
 62
256
370
-1
 48
1.0
  6
BYLAYER
 10
522.00804440825732
 20
-1482.3114159162114
 30
0.0
  0
POINT
  5
2B4
100
AcDbEntity
100
AcDbPoint
  8
0
 62
256
370
-1
 48
1.0
  6
BYLAYER
 10
522.28582218603492
 20
-1783.851807856478
 30
0.0
  0
POINT
  5
2B5
100
AcDbEntity
100
AcDbPoint
  8
0
 62
256
370
-1
 48
1.0
  6
BYLAYER
 10
641.57519234501717
 20
-1210.8524035044613
 30
0.0
  0
POINT
  5
2B6
100
AcDbEntity
100
AcDbPoint
  8
0
 62
256
370
-1
 48
1.0
  6
BYLAYER
 10
640.74185901168403
 20
-1509.2728061318369
 30
0.0
  0
POINT
  5
2B7
100
AcDbEntity
100
AcDbPoint
  8
0
 62
256
370
-1
 48
1.0
  6
BYLAYER
 10
641.01963678946163
 20
-1810.8131980721034
 30
0.0
  0
POINT
  5
2B8
100
AcDbEntity
100
AcDbPoint
  8
0
 62
256
370
-1
 48
1.0
  6
BYLAYER
 10
539.19193441722791
 20
-1521.9665467061436
 30
0.0
  0
POINT
  5
2B9
100
AcDbEntity
100
AcDbPoint
  8
0
 62
256
370
-1
 48
1.0
  6
BYLAYER
 10
539.46971219500551
 20
-1823.5069386464102
 30
0.0
  0
POINT
  5
2BA
100
AcDbEntity
100
AcDbPoint
  8
0
 62
256
370
-1
 48
1.0
  6
BYLAYER
 10
540.02526775056106
 20
-1223.5461440787681
 30
0.0
  0
POINT
  5
2BB
100
AcDbEntity
100
AcDbPoint
  8
0
 62
256
370
-1
 48
1.0
  6
BYLAYER
 10
775.44243191588248
 20
-1616.5403919402665
 30
0.0
  0
POINT
  5
2BC
100
AcDbEntity
100
AcDbPoint
  8
0
 62
256
370
-1
 48
1.0
  6
BYLAYER
 10
775.72020969366019
 20
-1918.0807838805331
 30
0.0
  0
POINT
  5
2BD
100
AcDbEntity
100
AcDbPoint
  8
0
 62
256
370
-1
 48
1.0
  6
BYLAYER
 10
776.27576524921574
 20
-1318.119989312891
 30
0.0
  0
POINT
  5
2BE
100
AcDbEntity
100
AcDbPoint
  8
0
 62
256
370
-1
 48
1.0
  6
BYLAYER
 10
803.95760811530158
 20
-1592.8368459393807
 30
0.0
  0
POINT
  5
2BF
100
AcDbEntity
100
AcDbPoint
  8
0
 62
256
370
-1
 48
1.0
  6
BYLAYER
 10
804.2353858930793
 20
-1894.3772378796473
 30
0.0
  0
POINT
  5
2C0
100
AcDbEntity
100
AcDbPoint
  8
0
 62
256
370
-1
 48
1.0
  6
BYLAYER
 10
804.79094144863484
 20
-1294.4164433120052
 30
0.0
  0
POINT
  5
2C1
100
AcDbEntity
100
AcDbPoint
  8
0
 62
256
370
-1
 48
1.0
  6
BYLAYER
 10
786.48921668969888
 20
-1471.4774949825617
 30
0.0
  0
POINT
  5
2C2
100
AcDbEntity
100
AcDbPoint
  8
0
 62
256
370
-1
 48
1.0
  6
BYLAYER
 10
786.76699446747648
 20
-1773.0178869228282
 30
0.0
  0
POINT
  5
2C3
100
AcDbEntity
100
AcDbPoint
  8
0
 62
256
370
-1
 48
1.0
  6
BYLAYER
 10
787.32255002303202
 20
-1173.0570923551861
 30
0.0
  0
POINT
  5
2C4
100
AcDbEntity
100
AcDbPoint
  8
0
 62
256
370
-1
 48
1.0
  6
BYLAYER
 10
414.81769558815859
 20
-1531.7998447567929
 30
0.0
  0
POINT
  5
2C5
100
AcDbEntity
100
AcDbPoint
  8
0
 62
256
370
-1
 48
1.0
  6
BYLAYER
 10
415.09547336593624
 20
-1833.3402366970595
 30
0.0
  0
POINT
  5
2C6
100
AcDbEntity
100
AcDbPoint
  8
0
 62
256
370
-1
 48
1.0
  6
BYLAYER
 10
415.65102892149179
 20
-1233.3794421294174
 30
0.0
  0
POINT
  5
2C7
100
AcDbEntity
100
AcDbPoint
  8
0
 62
256
370
-1
 48
1.0
  6
BYLAYER
 10
444.68053936788942
 20
-1447.2827170517712
 30
0.0
  0
POINT
  5
2C8
100
AcDbEntity
100
AcDbPoint
  8
0
 62
256
370
-1
 48
1.0
  6
BYLAYER
 10
444.95831714566708
 20
-1748.8231089920378
 30
0.0
  0
POINT
  5
2C9
100
AcDbEntity
100
AcDbPoint
  8
0
 62
256
370
-1
 48
1.0
  6
BYLAYER
 10
445.51387270122262
 20
-1148.8623144243957
 30
0.0
  0
POINT
  5
2CA
100
AcDbEntity
100
AcDbPoint
  8
0
 62
256
370
-1
 48
1.0
  6
BYLAYER
 10
355.56995239673034
 20
-1420.3788241792004
 30
0.0
  0
POINT
  5
2CB
100
AcDbEntity
100
AcDbPoint
  8
0
 62
256
370
-1
 48
1.0
  6
BYLAYER
 10
355.847730174508
 20
-1721.9192161194669
 30
0.0
  0
POINT
  5
2CC
100
AcDbEntity
100
AcDbPoint
  8
0
 62
256
370
-1
 48
1.0
  6
BYLAYER
 10
356.40328573006354
 20
-1121.9584215518248
 30
0.0
  0
POINT
  5
2CD
100
AcDbEntity
100
AcDbPoint
  8
0
 62
256
370
-1
 48
1.0
  6
BYLAYER
 10
407.366087213664
 20
-1517.7863859259958
 30
0.0
  0
POINT
  5
2CE
100
AcDbEntity
100
AcDbPoint
  8
0
 62
256
370
-1
 48
1.0
  6
BYLAYER
 10
407.64386499144166
 20
-1819.3267778662623
 30
0.0
  0
POINT
  5
2CF
100
AcDbEntity
100
AcDbPoint
  8
0
 62
256
370
-1
 48
1.0
  6
BYLAYER
 10
408.1994205469972
 20
-1219.3659832986202
 30
0.0
  0
POINT
  5
2D0
100
AcDbEntity
100
AcDbPoint
  8
0
 62
256
370
-1
 48
1.0
  6
BYLAYER
 10
421.27771943648281
 20
-1513.5168351213576
 30
0.0
  0
POINT
  5
2D1
100
AcDbEntity
100
AcDbPoint
  8
0
 62
256
370
-1
 48
1.0
  6
BYLAYER
 10
421.55549721426047
 20
-1815.0572270616242
 30
0.0
  0
POINT
  5
2D2
100
AcDbEntity
100
AcDbPoint
  8
0
 62
256
370
-1
 48
1.0
  6
BYLAYER
 10
422.11105276981601
 20
-1215.0964324939821
 30
0.0
  0
POINT
  5
2D3
100
AcDbEntity
100
AcDbPoint
  8
0
 62
256
370
-1
 48
1.0
  6
BYLAYER
 10
619.30669507774473
 20
-1504.4054326621215
 30
0.0
  0
POINT
  5
2D4
100
AcDbEntity
100
AcDbPoint
  8
0
 62
256
370
-1
 48
1.0
  6
BYLAYER
 10
619.58447285552245
 20
-1805.945824602388
 30
0.0
  0
POINT
  5
2D5
100
AcDbEntity
100
AcDbPoint
  8
0
 62
256
370
-1
 48
1.0
  6
BYLAYER
 10
620.14002841107799
 20
-1205.9850300347459
 30
0.0
  0
POINT
  5
2D6
100
AcDbEntity
100
AcDbPoint
  8
0
 62
256
370
-1
 48
1.0
  6
BYLAYER
 10
612.48267826938809
 20
-1512.8052037246237
 30
0.0
  0
POINT
  5
2D7
100
AcDbEntity
100
AcDbPoint
  8
0
 62
256
370
-1
 48
1.0
  6
BYLAYER
 10
612.7604560471658
 20
-1814.3455956648902
 30
0.0
  0
POINT
  5
2D8
100
AcDbEntity
100
AcDbPoint
  8
0
 62
256
370
-1
 48
1.0
  6
BYLAYER
 10
613.31601160272135
 20
-1214.3848010972481
 30
0.0
  0
POINT
  5
2D9
100
AcDbEntity
100
AcDbPoint
  8
0
 62
256
370
-1
 48
1.0
  6
BYLAYER
 10
784.66701184979229
 20
-1495.4061147881869
 30
0.0
  0
POINT
  5
2DA
100
AcDbEntity
100
AcDbPoint
  8
0
 62
256
370
-1
 48
1.0
  6
BYLAYER
 10
784.94478962756989
 20
-1796.9465067284534
 30
0.0
  0
POINT
  5
2DB
100
AcDbEntity
100
AcDbPoint
  8
0
 62
256
370
-1
 48
1.0
  6
BYLAYER
 10
785.50034518312543
 20
-1196.9857121608113
 30
0.0
  0
POINT
  5
2DC
100
AcDbEntity
100
AcDbPoint
  8
0
 62
256
370
-1
 48
1.0
  6
BYLAYER
 10
789.29247075201806
 20
-1490.9527337313052
 30
0.0
  0
POINT
  5
2DD
100
AcDbEntity
100
AcDbPoint
  8
0
 62
256
370
-1
 48
1.0
  6
BYLAYER
 10
789.57024852979566
 20
-1792.4931256715718
 30
0.0
  0
POINT
  5
2DE
100
AcDbEntity
100
AcDbPoint
  8
0
 62
256
370
-1
 48
1.0
  6
BYLAYER
 10
790.12580408535121
 20
-1192.5323311039297
 30
0.0
  0
LEADER
  5
2DF
  8
0
 62
256
370
-1
 48
1.0
  6
BYLAYER
100
AcDbEntity
100
AcDbLeader
  3
Standard
 71
1
 72
0
 73
3
 74
0
 75
0
 40
1.0
 41
10.0
 76
2
 10
422.11105276981601
 20
-1215.0964324939821
 10
445.51387270122262
 20
-1148.8623144243957
  0
LEADER
  5
2E0
  8
0
 62
256
370
-1
 48
1.0
  6
BYLAYER
100
AcDbEntity
100
AcDbLeader
  3
Standard
 71
1
 72
0
 73
3
 74
0
 75
0
 40
1.0
 41
10.0
 76
2
 10
408.1994205469972
 20
-1219.3659832986202
 10
356.40328573006354
 20
-1121.9584215518248
  0
LEADER
  5
2E1
  8
0
 62
256
370
-1
 48
1.0
  6
BYLAYER
100
AcDbEntity
100
AcDbLeader
  3
Standard
 71
1
 72
0
 73
3
 74
0
 75
0
 40
1.0
 41
10.0
 76
2
 10
620.14002841107799
 20
-1205.9850300347459
 10
522.84137774159046
 20
-1183.8910132888359
  0
LEADER
  5
2E2
  8
0
 62
256
370
-1
 48
1.0
  6
BYLAYER
100
AcDbEntity
100
AcDbLeader
  3
Standard
 71
1
 72
0
 73
3
 74
0
 75
0
 40
1.0
 41
10.0
 76
2
 10
613.31601160272135
 20
-1214.3848010972481
 10
540.02526775056106
 20
-1223.5461440787681
  0
LEADER
  5
2E3
  8
0
 62
256
370
-1
 48
1.0
  6
BYLAYER
100
AcDbEntity
100
AcDbLeader
  3
Standard
 71
1
 72
0
 73
3
 74
0
 75
0
 40
1.0
 41
10.0
 76
2
 10
790.12580408535121
 20
-1192.5323311039297
 10
804.79094144863484
 20
-1294.4164433120052
  0
LEADER
  5
2E4
  8
0
 62
256
370
-1
 48
1.0
  6
BYLAYER
100
AcDbEntity
100
AcDbLeader
  3
Standard
 71
1
 72
0
 73
3
 74
0
 75
0
 40
1.0
 41
10.0
 76
2
 10
785.50034518312543
 20
-1196.9857121608113
 10
776.27576524921574
 20
-1318.119989312891
  0
LEADER
  5
2E5
  8
0
 62
256
370
-1
 48
1.0
  6
BYLAYER
100
AcDbEntity
100
AcDbLeader
  3
Standard
 71
1
 72
0
 73
3
 74
0
 75
0
 40
1.0
 41
10.0
 76
2
 10
0.0
 20
-1460.0
 10
0.0
 20
-1520.0
  0
LEADER
  5
2E6
  8
0
 62
256
370
-1
 48
1.0
  6
BYLAYER
100
AcDbEntity
100
AcDbLeader
  3
Standard
 71
1
 72
0
 73
3
 74
0
 75
0
 40
1.0
 41
10.0
 76
2
 10
0.0
 20
-1770.0
 10
0.0
 20
-1830.0
  0
LEADER
  5
2E7
  8
0
 62
256
370
-1
 48
1.0
  6
BYLAYER
100
AcDbEntity
100
AcDbLeader
  3
Standard
 71
1
 72
0
 73
3
 74
0
 75
0
 40
1.0
 41
10.0
 76
2
 10
-70.0
 20
-1840.0
 10
-10.0
 20
-1840.0
  0
LEADER
  5
2E8
  8
0
 62
256
370
-1
 48
1.0
  6
BYLAYER
100
AcDbEntity
100
AcDbLeader
  3
Standard
 71
1
 72
0
 73
3
 74
0
 75
0
 40
1.0
 41
10.0
 76
2
 10
159.1666666666668
 20
-1538.4204026273756
 10
189.1666666666668
 20
-1508.4204026273756
  0
LEADER
  5
2E9
  8
0
 62
256
370
-1
 48
1.0
  6
BYLAYER
100
AcDbEntity
100
AcDbLeader
  3
Standard
 71
1
 72
0
 73
3
 74
0
 75
0
 40
1.0
 41
10.0
 76
2
 10
159.44444444444446
 20
-1839.9607945676421
 10
189.44444444444446
 20
-1809.9607945676421
  0
LEADER
  5
2EA
  8
0
 62
256
370
-1
 48
1.0
  6
BYLAYER
100
AcDbEntity
100
AcDbLeader
  3
Standard
 71
1
 72
0
 73
3
 74
0
 75
0
 40
1.0
 41
10.0
 76
2
 10
249.44444444444446
 20
-1849.9607945676421
 10
209.44444444444446
 20
-1809.9607945676421
  0
LEADER
  5
2EB
  8
0
 62
256
370
-1
 48
1.0
  6
BYLAYER
100
AcDbEntity
100
AcDbLeader
  3
Standard
 71
1
 72
0
 73
3
 74
0
 75
0
 40
1.0
 41
10.0
 76
2
 10
444.95831714566708
 20
-1748.8231089920378
 10
421.55549721426047
 20
-1815.0572270616242
  0
LEADER
  5
2EC
  8
0
 62
256
370
-1
 48
1.0
  6
BYLAYER
100
AcDbEntity
100
AcDbLeader
  3
Standard
 71
1
 72
0
 73
3
 74
0
 75
0
 40
1.0
 41
10.0
 76
2
 10
355.56995239673034
 20
-1420.3788241792004
 10
407.366087213664
 20
-1517.7863859259958
  0
LEADER
  5
2ED
  8
0
 62
256
370
-1
 48
1.0
  6
BYLAYER
100
AcDbEntity
100
AcDbLeader
  3
Standard
 71
1
 72
0
 73
3
 74
0
 75
0
 40
1.0
 41
10.0
 76
2
 10
355.847730174508
 20
-1721.9192161194669
 10
407.64386499144166
 20
-1819.3267778662623
  0
LEADER
  5
2EE
  8
0
 62
256
370
-1
 48
1.0
  6
BYLAYER
100
AcDbEntity
100
AcDbLeader
  3
Standard
 71
1
 72
0
 73
3
 74
0
 75
0
 40
1.0
 41
10.0
 76
2
 10
522.00804440825732
 20
-1482.3114159162114
 10
619.30669507774473
 20
-1504.4054326621215
  0
LEADER
  5
2EF
  8
0
 62
256
370
-1
 48
1.0
  6
BYLAYER
100
AcDbEntity
100
AcDbLeader
  3
Standard
 71
1
 72
0
 73
3
 74
0
 75
0
 40
1.0
 41
10.0
 76
2
 10
522.28582218603492
 20
-1783.851807856478
 10
619.58447285552245
 20
-1805.945824602388
  0
LEADER
  5
2F0
  8
0
 62
256
370
-1
 48
1.0
  6
BYLAYER
100
AcDbEntity
100
AcDbLeader
  3
Standard
 71
1
 72
0
 73
3
 74
0
 75
0
 40
1.0
 41
10.0
 76
2
 10
539.46971219500551
 20
-1823.5069386464102
 10
612.7604560471658
 20
-1814.3455956648902
  0
LEADER
  5
2F1
  8
0
 62
256
370
-1
 48
1.0
  6
BYLAYER
100
AcDbEntity
100
AcDbLeader
  3
Standard
 71
1
 72
0
 73
3
 74
0
 75
0
 40
1.0
 41
10.0
 76
2
 10
775.44243191588248
 20
-1616.5403919402665
 10
784.66701184979229
 20
-1495.4061147881869
  0
LEADER
  5
2F2
  8
0
 62
256
370
-1
 48
1.0
  6
BYLAYER
100
AcDbEntity
100
AcDbLeader
  3
Standard
 71
1
 72
0
 73
3
 74
0
 75
0
 40
1.0
 41
10.0
 76
2
 10
775.72020969366019
 20
-1918.0807838805331
 10
784.94478962756989
 20
-1796.9465067284534
  0
LEADER
  5
2F3
  8
0
 62
256
370
-1
 48
1.0
  6
BYLAYER
100
AcDbEntity
100
AcDbLeader
  3
Standard
 71
1
 72
0
 73
3
 74
0
 75
0
 40
1.0
 41
10.0
 76
2
 10
804.2353858930793
 20
-1894.3772378796473
 10
789.57024852979566
 20
-1792.4931256715718
  0
LEADER
  5
2F4
  8
0
 62
256
370
-1
 48
1.0
  6
BYLAYER
100
AcDbEntity
100
AcDbLeader
  3
Standard
 71
1
 72
0
 73
3
 74
0
 75
0
 40
1.0
 41
10.0
 76
2
 10
-10.0
 20
-1530.0
 10
-70.0
 20
-1530.0
  0
LEADER
  5
2F5
  8
0
 62
256
370
-1
 48
1.0
  6
BYLAYER
100
AcDbEntity
100
AcDbLeader
  3
Standard
 71
1
 72
0
 73
3
 74
0
 75
0
 40
1.0
 41
10.0
 76
2
 10
209.1666666666668
 20
-1508.4204026273756
 10
249.1666666666668
 20
-1548.4204026273756
  0
LEADER
  5
2F6
  8
0
 62
256
370
-1
 48
1.0
  6
BYLAYER
100
AcDbEntity
100
AcDbLeader
  3
Standard
 71
1
 72
0
 73
3
 74
0
 75
0
 40
1.0
 41
10.0
 76
2
 10
789.29247075201806
 20
-1490.9527337313052
 10
803.95760811530158
 20
-1592.8368459393807
  0
LEADER
  5
2F7
  8
0
 62
256
370
-1
 48
1.0
  6
BYLAYER
100
AcDbEntity
100
AcDbLeader
  3
Standard
 71
1
 72
0
 73
3
 74
0
 75
0
 40
1.0
 41
10.0
 76
2
 10
612.48267826938809
 20
-1512.8052037246237
 10
539.19193441722791
 20
-1521.9665467061436
  0
LEADER
  5
2F8
  8
0
 62
256
370
-1
 48
1.0
  6
BYLAYER
100
AcDbEntity
100
AcDbLeader
  3
Standard
 71
1
 72
0
 73
3
 74
0
 75
0
 40
1.0
 41
10.0
 76
2
 10
421.27771943648281
 20
-1513.5168351213576
 10
444.68053936788942
 20
-1447.2827170517712
  0
LEADER
  5
2F9
  8
0
 62
256
370
-1
 48
1.0
  6
BYLAYER
100
AcDbEntity
100
AcDbLeader
  3
Standard
 71
1
 72
0
 73
3
 74
0
 75
0
 40
1.0
 41
10.0
 76
2
 10
40.0
 20
-2090.0
 10
-40.0
 20
-2090.0
  0
LEADER
  5
2FA
  8
0
 62
256
370
-1
 48
1.0
  6
BYLAYER
100
AcDbEntity
100
AcDbLeader
  3
Standard
 71
1
 72
0
 73
3
 74
0
 75
0
 40
1.0
 41
10.0
 76
2
 10
40.0
 20
-2100.0
 10
-40.0
 20
-2100.0
  0
LEADER
  5
2FB
  8
0
 62
256
370
-1
 48
1.0
  6
BYLAYER
100
AcDbEntity
100
AcDbLeader
  3
Standard
 71
1
 72
0
 73
3
 74
0
 75
0
 40
1.0
 41
10.0
 76
2
 10
-200.0
 20
-2060.0
 10
-200.0
 20
-2120.0
  0
LEADER
  5
2FC
  8
0
 62
256
370
-1
 48
1.0
  6
BYLAYER
100
AcDbEntity
100
AcDbLeader
  3
Standard
 71
1
 72
0
 73
3
 74
0
 75
0
 40
1.0
 41
10.0
 76
2
 10
-190.0
 20
-2060.0
 10
-190.0
 20
-2120.0
  0
LEADER
  5
2FD
  8
0
 62
256
370
-1
 48
1.0
  6
BYLAYER
100
AcDbEntity
100
AcDbLeader
  3
Standard
 71
1
 72
0
 73
3
 74
0
 75
0
 40
1.0
 41
10.0
 76
2
 10
-400.0
 20
-2090.0
 10
-400.0
 20
-2150.0
  0
LEADER
  5
2FE
  8
0
 62
256
370
-1
 48
1.0
  6
BYLAYER
100
AcDbEntity
100
AcDbLeader
  3
Standard
 71
1
 72
0
 73
3
 74
0
 75
0
 40
1.0
 41
10.0
 76
2
 10
-390.0
 20
-2150.0
 10
-390.0
 20
-2090.0
  0
LEADER
  5
2FF
  8
0
 62
256
370
-1
 48
1.0
  6
BYLAYER
100
AcDbEntity
100
AcDbLeader
  3
Standard
 71
1
 72
0
 73
3
 74
0
 75
0
 40
1.0
 41
10.0
 76
2
 10
-610.0
 20
-2140.0
 10
-610.0
 20
-2080.0
  0
LEADER
  5
300
  8
0
 62
256
370
-1
 48
1.0
  6
BYLAYER
100
AcDbEntity
100
AcDbLeader
  3
Standard
 71
1
 72
0
 73
3
 74
0
 75
0
 40
1.0
 41
10.0
 76
2
 10
-600.0
 20
-2140.0
 10
-600.0
 20
-2080.0
  0
LEADER
  5
301
  8
0
 62
256
370
-1
 48
1.0
  6
BYLAYER
100
AcDbEntity
100
AcDbLeader
  3
Standard
 71
1
 72
0
 73
3
 74
0
 75
0
 40
1.0
 41
10.0
 76
2
 10
-795.47505987297609
 20
-2145.6077061684382
 10
-795.47505987297609
 20
-2105.6077061684382
  0
LEADER
  5
302
  8
0
 62
256
370
-1
 48
1.0
  6
BYLAYER
100
AcDbEntity
100
AcDbLeader
  3
Standard
 71
1
 72
0
 73
3
 74
0
 75
0
 40
1.0
 41
10.0
 76
2
 10
-795.47505987297609
 20
-2065.6077061684382
 10
-795.47505987297609
 20
-2105.6077061684382
  0
LEADER
  5
303
  8
0
 62
256
370
-1
 48
1.0
  6
BYLAYER
100
AcDbEntity
100
AcDbLeader
  3
Standard
 71
1
 72
0
 73
3
 74
0
 75
0
 40
1.0
 41
10.0
 76
2
 10
-994.68140587113976
 20
-2073.044743085703
 10
-994.68140587113976
 20
-2113.044743085703
  0
LEADER
  5
304
  8
0
 62
256
370
-1
 48
1.0
  6
BYLAYER
100
AcDbEntity
100
AcDbLeader
  3
Standard
 71
1
 72
0
 73
3
 74
0
 75
0
 40
1.0
 41
10.0
 76
2
 10
-994.68140587113976
 20
-2113.044743085703
 10
-994.68140587113976
 20
-2153.044743085703
  0
LEADER
  5
305
  8
0
 62
256
370
-1
 48
1.0
  6
BYLAYER
100
AcDbEntity
100
AcDbLeader
  3
Standard
 71
1
 72
0
 73
3
 74
0
 75
0
 40
1.0
 41
10.0
 76
2
 10
-1194.0704904907
 20
-2104.3264109509778
 10
-1194.0704904907
 20
-2054.3264109509778
  0
LEADER
  5
306
  8
0
 62
256
370
-1
 48
1.0
  6
BYLAYER
100
AcDbEntity
100
AcDbLeader
  3
Standard
 71
1
 72
0
 73
3
 74
0
 75
0
 40
1.0
 41
10.0
 76
2
 10
-1194.0704904907
 20
-2104.3264109509778
 10
-1194.0704904907
 20
-2154.3264109509778
  0
LEADER
  5
307
  8
0
 62
256
370
-1
 48
1.0
  6
BYLAYER
100
AcDbEntity
100
AcDbLeader
  3
Standard
 71
1
 72
0
 73
3
 74
0
 75
0
 40
1.0
 41
10.0
 76
2
 10
-1404.6410015462598
 20
-2113.9369258871579
 10
-1404.6410015462598
 20
-2153.9369258871579
  0
LEADER
  5
308
  8
0
 62
256
370
-1
 48
1.0
  6
BYLAYER
100
AcDbEntity
100
AcDbLeader
  3
Standard
 71
1
 72
0
 73
3
 74
0
 75
0
 40
1.0
 41
10.0
 76
2
 10
-1394.6410015462598
 20
-2103.9369258871579
 10
-1394.6410015462598
 20
-2063.9369258871579
  0
LEADER
  5
309
  8
0
 62
256
370
-1
 48
1.0
  6
BYLAYER
100
AcDbEntity
100
AcDbLeader
  3
Standard
 71
1
 72
0
 73
3
 74
0
 75
0
 40
1.0
 41
10.0
 76
2
 10
160.0
 20
-2100.0
 10
200.0
 20
-2100.0
  0
LEADER
  5
30A
  8
0
 62
256
370
-1
 48
1.0
  6
BYLAYER
100
AcDbEntity
100
AcDbLeader
  3
Standard
 71
1
 72
0
 73
3
 74
0
 75
0
 40
1.0
 41
10.0
 76
2
 10
230.0
 20
-2100.0
 10
200.0
 20
-2100.0
  0
LEADER
  5
30B
  8
0
 62
256
370
-1
 48
1.0
  6
BYLAYER
100
AcDbEntity
100
AcDbLeader
  3
Standard
 71
1
 72
0
 73
3
 74
0
 75
0
 40
1.0
 41
10.0
 76
2
 10
360.0
 20
-2090.0
 10
390.0
 20
-2090.0
  0
LEADER
  5
30C
  8
0
 62
256
370
-1
 48
1.0
  6
BYLAYER
100
AcDbEntity
100
AcDbLeader
  3
Standard
 71
1
 72
0
 73
3
 74
0
 75
0
 40
1.0
 41
10.0
 76
2
 10
400.0
 20
-2090.0
 10
440.0
 20
-2090.0
  0
LEADER
  5
30D
  8
0
 62
256
370
-1
 48
1.0
  6
BYLAYER
100
AcDbEntity
100
AcDbLeader
  3
Standard
 71
1
 72
0
 73
3
 74
0
 75
0
 40
1.0
 41
10.0
 76
2
 10
590.0
 20
-2090.0
 10
550.0
 20
-2090.0
  0
LEADER
  5
30E
  8
0
 62
256
370
-1
 48
1.0
  6
BYLAYER
100
AcDbEntity
100
AcDbLeader
  3
Standard
 71
1
 72
0
 73
3
 74
0
 75
0
 40
1.0
 41
10.0
 76
2
 10
600.0
 20
-2090.0
 10
640.0
 20
-2090.0
  0
LEADER
  5
30F
  8
0
 62
256
370
-1
 48
1.0
  6
BYLAYER
100
AcDbEntity
100
AcDbLeader
  3
Standard
 71
1
 72
0
 73
3
 74
0
 75
0
 40
1.0
 41
10.0
 76
2
 10
790.0
 20
-2080.0
 10
750.0
 20
-2120.0
  0
LEADER
  5
310
  8
0
 62
256
370
-1
 48
1.0
  6
BYLAYER
100
AcDbEntity
100
AcDbLeader
  3
Standard
 71
1
 72
0
 73
3
 74
0
 75
0
 40
1.0
 41
10.0
 76
2
 10
810.0
 20
-2080.0
 10
840.0
 20
-2050.0
  0
LEADER
  5
311
  8
0
 62
256
370
-1
 48
1.0
  6
BYLAYER
100
AcDbEntity
100
AcDbLeader
  3
Standard
 71
1
 72
0
 73
3
 74
0
 75
0
 40
1.0
 41
10.0
 76
2
 10
1010.0
 20
-2090.0
 10
1020.0
 20
-2120.0
  0
LEADER
  5
312
  8
0
 62
256
370
-1
 48
1.0
  6
BYLAYER
100
AcDbEntity
100
AcDbLeader
  3
Standard
 71
1
 72
0
 73
3
 74
0
 75
0
 40
1.0
 41
10.0
 76
2
 10
1030.0
 20
-2110.0
 10
1040.0
 20
-2140.0
  0
LEADER
  5
313
  8
0
 62
256
370
-1
 48
1.0
  6
BYLAYER
100
AcDbEntity
100
AcDbLeader
  3
Standard
 71
1
 72
0
 73
3
 74
0
 75
0
 40
1.0
 41
10.0
 76
2
 10
1190.0
 20
-2090.0
 10
1180.0
 20
-2140.0
  0
POINT
  5
314
100
AcDbEntity
100
AcDbPoint
  8
0
 62
256
370
-1
 48
1.0
  6
BYLAYER
 10
-1404.6410015462598
 20
-2113.9369258871579
 30
0.0
  0
POINT
  5
315
100
AcDbEntity
100
AcDbPoint
  8
0
 62
256
370
-1
 48
1.0
  6
BYLAYER
 10
-1404.6410015462598
 20
-2153.9369258871579
 30
0.0
  0
POINT
  5
316
100
AcDbEntity
100
AcDbPoint
  8
0
 62
256
370
-1
 48
1.0
  6
BYLAYER
 10
-1394.6410015462598
 20
-2103.9369258871579
 30
0.0
  0
POINT
  5
317
100
AcDbEntity
100
AcDbPoint
  8
0
 62
256
370
-1
 48
1.0
  6
BYLAYER
 10
-1394.6410015462598
 20
-2063.9369258871579
 30
0.0
  0
POINT
  5
318
100
AcDbEntity
100
AcDbPoint
  8
0
 62
256
370
-1
 48
1.0
  6
BYLAYER
 10
-1194.0704904907
 20
-2104.3264109509787
 30
0.0
  0
POINT
  5
319
100
AcDbEntity
100
AcDbPoint
  8
0
 62
256
370
-1
 48
1.0
  6
BYLAYER
 10
-1194.0704904907
 20
-2054.3264109509778
 30
0.0
  0
POINT
  5
31A
100
AcDbEntity
100
AcDbPoint
  8
0
 62
256
370
-1
 48
1.0
  6
BYLAYER
 10
-1194.0704904907
 20
-2154.3264109509778
 30
0.0
  0
POINT
  5
31B
100
AcDbEntity
100
AcDbPoint
  8
0
 62
256
370
-1
 48
1.0
  6
BYLAYER
 10
-994.68140587113976
 20
-2113.0447430857039
 30
0.0
  0
POINT
  5
31C
100
AcDbEntity
100
AcDbPoint
  8
0
 62
256
370
-1
 48
1.0
  6
BYLAYER
 10
-994.68140587113976
 20
-2073.044743085703
 30
0.0
  0
POINT
  5
31D
100
AcDbEntity
100
AcDbPoint
  8
0
 62
256
370
-1
 48
1.0
  6
BYLAYER
 10
-994.68140587113976
 20
-2153.044743085703
 30
0.0
  0
POINT
  5
31E
100
AcDbEntity
100
AcDbPoint
  8
0
 62
256
370
-1
 48
1.0
  6
BYLAYER
 10
-795.47505987297609
 20
-2065.6077061684382
 30
0.0
  0
POINT
  5
31F
100
AcDbEntity
100
AcDbPoint
  8
0
 62
256
370
-1
 48
1.0
  6
BYLAYER
 10
-795.47505987297609
 20
-2105.6077061684382
 30
0.0
  0
POINT
  5
320
100
AcDbEntity
100
AcDbPoint
  8
0
 62
256
370
-1
 48
1.0
  6
BYLAYER
 10
-795.47505987297609
 20
-2145.6077061684382
 30
0.0
  0
POINT
  5
321
100
AcDbEntity
100
AcDbPoint
  8
0
 62
256
370
-1
 48
1.0
  6
BYLAYER
 10
-610.0
 20
-2080.0
 30
0.0
  0
POINT
  5
322
100
AcDbEntity
100
AcDbPoint
  8
0
 62
256
370
-1
 48
1.0
  6
BYLAYER
 10
-600.0
 20
-2080.0
 30
0.0
  0
POINT
  5
323
100
AcDbEntity
100
AcDbPoint
  8
0
 62
256
370
-1
 48
1.0
  6
BYLAYER
 10
-600.0
 20
-2140.0
 30
0.0
  0
POINT
  5
324
100
AcDbEntity
100
AcDbPoint
  8
0
 62
256
370
-1
 48
1.0
  6
BYLAYER
 10
-610.0
 20
-2140.0
 30
0.0
  0
POINT
  5
325
100
AcDbEntity
100
AcDbPoint
  8
0
 62
256
370
-1
 48
1.0
  6
BYLAYER
 10
-400.0
 20
-2150.0
 30
0.0
  0
POINT
  5
326
100
AcDbEntity
100
AcDbPoint
  8
0
 62
256
370
-1
 48
1.0
  6
BYLAYER
 10
-400.0
 20
-2090.0
 30
0.0
  0
POINT
  5
327
100
AcDbEntity
100
AcDbPoint
  8
0
 62
256
370
-1
 48
1.0
  6
BYLAYER
 10
-390.0
 20
-2090.0
 30
0.0
  0
POINT
  5
328
100
AcDbEntity
100
AcDbPoint
  8
0
 62
256
370
-1
 48
1.0
  6
BYLAYER
 10
-390.0
 20
-2150.0
 30
0.0
  0
POINT
  5
329
100
AcDbEntity
100
AcDbPoint
  8
0
 62
256
370
-1
 48
1.0
  6
BYLAYER
 10
-200.0
 20
-2060.0
 30
0.0
  0
POINT
  5
32A
100
AcDbEntity
100
AcDbPoint
  8
0
 62
256
370
-1
 48
1.0
  6
BYLAYER
 10
-190.0
 20
-2060.0
 30
0.0
  0
POINT
  5
32B
100
AcDbEntity
100
AcDbPoint
  8
0
 62
256
370
-1
 48
1.0
  6
BYLAYER
 10
-190.0
 20
-2120.0
 30
0.0
  0
POINT
  5
32C
100
AcDbEntity
100
AcDbPoint
  8
0
 62
256
370
-1
 48
1.0
  6
BYLAYER
 10
-200.0
 20
-2120.0
 30
0.0
  0
POINT
  5
32D
100
AcDbEntity
100
AcDbPoint
  8
0
 62
256
370
-1
 48
1.0
  6
BYLAYER
 10
-40.0
 20
-2100.0
 30
0.0
  0
POINT
  5
32E
100
AcDbEntity
100
AcDbPoint
  8
0
 62
256
370
-1
 48
1.0
  6
BYLAYER
 10
-40.0
 20
-2090.0
 30
0.0
  0
POINT
  5
32F
100
AcDbEntity
100
AcDbPoint
  8
0
 62
256
370
-1
 48
1.0
  6
BYLAYER
 10
40.0
 20
-2090.0
 30
0.0
  0
POINT
  5
330
100
AcDbEntity
100
AcDbPoint
  8
0
 62
256
370
-1
 48
1.0
  6
BYLAYER
 10
40.0
 20
-2100.0
 30
0.0
  0
POINT
  5
331
100
AcDbEntity
100
AcDbPoint
  8
0
 62
256
370
-1
 48
1.0
  6
BYLAYER
 10
160.0
 20
-2100.0
 30
0.0
  0
POINT
  5
332
100
AcDbEntity
100
AcDbPoint
  8
0
 62
256
370
-1
 48
1.0
  6
BYLAYER
 10
200.0
 20
-2100.0
 30
0.0
  0
POINT
  5
333
100
AcDbEntity
100
AcDbPoint
  8
0
 62
256
370
-1
 48
1.0
  6
BYLAYER
 10
230.0
 20
-2100.0
 30
0.0
  0
POINT
  5
334
100
AcDbEntity
100
AcDbPoint
  8
0
 62
256
370
-1
 48
1.0
  6
BYLAYER
 10
360.0
 20
-2090.0
 30
0.0
  0
POINT
  5
335
100
AcDbEntity
100
AcDbPoint
  8
0
 62
256
370
-1
 48
1.0
  6
BYLAYER
 10
390.0
 20
-2090.0
 30
0.0
  0
POINT
  5
336
100
AcDbEntity
100
AcDbPoint
  8
0
 62
256
370
-1
 48
1.0
  6
BYLAYER
 10
400.0
 20
-2090.0
 30
0.0
  0
POINT
  5
337
100
AcDbEntity
100
AcDbPoint
  8
0
 62
256
370
-1
 48
1.0
  6
BYLAYER
 10
440.0
 20
-2090.0
 30
0.0
  0
POINT
  5
338
100
AcDbEntity
100
AcDbPoint
  8
0
 62
256
370
-1
 48
1.0
  6
BYLAYER
 10
550.0
 20
-2090.0
 30
0.0
  0
POINT
  5
339
100
AcDbEntity
100
AcDbPoint
  8
0
 62
256
370
-1
 48
1.0
  6
BYLAYER
 10
590.0
 20
-2090.0
 30
0.0
  0
POINT
  5
33A
100
AcDbEntity
100
AcDbPoint
  8
0
 62
256
370
-1
 48
1.0
  6
BYLAYER
 10
600.0
 20
-2090.0
 30
0.0
  0
POINT
  5
33B
100
AcDbEntity
100
AcDbPoint
  8
0
 62
256
370
-1
 48
1.0
  6
BYLAYER
 10
640.0
 20
-2090.0
 30
0.0
  0
POINT
  5
33C
100
AcDbEntity
100
AcDbPoint
  8
0
 62
256
370
-1
 48
1.0
  6
BYLAYER
 10
750.0
 20
-2120.0
 30
0.0
  0
POINT
  5
33D
100
AcDbEntity
100
AcDbPoint
  8
0
 62
256
370
-1
 48
1.0
  6
BYLAYER
 10
790.0
 20
-2080.0
 30
0.0
  0
POINT
  5
33E
100
AcDbEntity
100
AcDbPoint
  8
0
 62
256
370
-1
 48
1.0
  6
BYLAYER
 10
840.0
 20
-2050.0
 30
0.0
  0
POINT
  5
33F
100
AcDbEntity
100
AcDbPoint
  8
0
 62
256
370
-1
 48
1.0
  6
BYLAYER
 10
810.0
 20
-2080.0
 30
0.0
  0
POINT
  5
340
100
AcDbEntity
100
AcDbPoint
  8
0
 62
256
370
-1
 48
1.0
  6
BYLAYER
 10
1010.0
 20
-2090.0
 30
0.0
  0
POINT
  5
341
100
AcDbEntity
100
AcDbPoint
  8
0
 62
256
370
-1
 48
1.0
  6
BYLAYER
 10
1020.0
 20
-2120.0
 30
0.0
  0
POINT
  5
342
100
AcDbEntity
100
AcDbPoint
  8
0
 62
256
370
-1
 48
1.0
  6
BYLAYER
 10
1030.0
 20
-2110.0
 30
0.0
  0
POINT
  5
343
100
AcDbEntity
100
AcDbPoint
  8
0
 62
256
370
-1
 48
1.0
  6
BYLAYER
 10
1040.0
 20
-2140.0
 30
0.0
  0
POINT
  5
344
100
AcDbEntity
100
AcDbPoint
  8
0
 62
256
370
-1
 48
1.0
  6
BYLAYER
 10
1180.0
 20
-2140.0
 30
0.0
  0
POINT
  5
345
100
AcDbEntity
100
AcDbPoint
  8
0
 62
256
370
-1
 48
1.0
  6
BYLAYER
 10
1190.0
 20
-2090.0
 30
0.0
  0
POINT
  5
346
100
AcDbEntity
100
AcDbPoint
  8
0
 62
256
370
-1
 48
1.0
  6
BYLAYER
 10
1200.0000000000002
 20
-300.0
 30
0.0
  0
POINT
  5
347
100
AcDbEntity
100
AcDbPoint
  8
0
 62
256
370
-1
 48
1.0
  6
BYLAYER
 10
600.0
 20
-300.0
 30
0.0
  0
MTEXT
  5
348
100
AcDbEntity
100
AcDbMText
  8
labels - figures
 62
256
370
-1
 48
1.0
  6
BYLAYER
 10
-600.0
 20
80.0
 30
0.0
 40
10.0
 41
0.0
 71
5
 72
1
  1
1
  7
textstyle144
 50
0.0
 73
2
 44
1.0
  0
MTEXT
  5
349
100
AcDbEntity
100
AcDbMText
  8
labels - figures
 62
256
370
-1
 48
1.0
  6
BYLAYER
 10
1200.0
 20
-2020.0
 30
0.0
 40
10.0
 41
0.0
 71
5
 72
1
  1
14
  7
textstyle136
 50
0.0
 73
2
 44
1.0
  0
MTEXT
  5
34A
100
AcDbEntity
100
AcDbMText
  8
labels - figures
 62
256
370
-1
 48
1.0
  6
BYLAYER
 10
200.00000000000006
 20
-1420.0
 30
0.0
 40
10.0
 41
0.0
 71
5
 72
1
  1
2
  7
textstyle137
 50
0.0
 73
2
 44
1.0
  0
MTEXT
  5
34B
100
AcDbEntity
100
AcDbMText
  8
labels - figures
 62
256
370
-1
 48
1.0
  6
BYLAYER
 10
400.00000000000006
 20
-1420.0
 30
0.0
 40
10.0
 41
0.0
 71
5
 72
1
  1
3
  7
textstyle138
 50
0.0
 73
2
 44
1.0
  0
MTEXT
  5
34C
100
AcDbEntity
100
AcDbMText
  8
labels - figures
 62
256
370
-1
 48
1.0
  6
BYLAYER
 10
800.00000000000011
 20
-1120.0
 30
0.0
 40
10.0
 41
0.0
 71
5
 72
1
  1
5
  7
textstyle139
 50
0.0
 73
2
 44
1.0
  0
MTEXT
  5
34D
100
AcDbEntity
100
AcDbMText
  8
labels - figures
 62
256
370
-1
 48
1.0
  6
BYLAYER
 10
0.00000000000006
 20
-1420.0
 30
0.0
 40
10.0
 41
0.0
 71
5
 72
1
  1
1
  7
textstyle140
 50
0.0
 73
2
 44
1.0
  0
MTEXT
  5
34E
100
AcDbEntity
100
AcDbMText
  8
labels - figures
 62
256
370
-1
 48
1.0
  6
BYLAYER
 10
0.00000000000006
 20
-1720.0
 30
0.0
 40
10.0
 41
0.0
 71
5
 72
1
  1
1
  7
textstyle141
 50
0.0
 73
2
 44
1.0
  0
MTEXT
  5
34F
100
AcDbEntity
100
AcDbMText
  8
labels - figures
 62
256
370
-1
 48
1.0
  6
BYLAYER
 10
200.00000000000006
 20
-1720.0
 30
0.0
 40
10.0
 41
0.0
 71
5
 72
1
  1
2
  7
textstyle142
 50
0.0
 73
2
 44
1.0
  0
MTEXT
  5
350
100
AcDbEntity
100
AcDbMText
  8
labels - figures
 62
256
370
-1
 48
1.0
  6
BYLAYER
 10
600.00000000000011
 20
-1420.0
 30
0.0
 40
10.0
 41
0.0
 71
5
 72
1
  1
4
  7
textstyle143
 50
0.0
 73
2
 44
1.0
  0
MTEXT
  5
351
100
AcDbEntity
100
AcDbMText
  8
labels - figures
 62
256
370
-1
 48
1.0
  6
BYLAYER
 10
800.00000000000011
 20
-1420.0
 30
0.0
 40
10.0
 41
0.0
 71
5
 72
1
  1
5
  7
textstyle153
 50
0.0
 73
2
 44
1.0
  0
MTEXT
  5
352
100
AcDbEntity
100
AcDbMText
  8
labels - figures
 62
256
370
-1
 48
1.0
  6
BYLAYER
 10
-199.99999999999994
 20
-820.0
 30
0.0
 40
10.0
 41
0.0
 71
5
 72
1
  1
2
  7
textstyle154
 50
0.0
 73
2
 44
1.0
  0
MTEXT
  5
353
100
AcDbEntity
100
AcDbMText
  8
labels - figures
 62
256
370
-1
 48
1.0
  6
BYLAYER
 10
-399.99999999999994
 20
-820.0
 30
0.0
 40
10.0
 41
0.0
 71
5
 72
1
  1
1
  7
textstyle155
 50
0.0
 73
2
 44
1.0
  0
MTEXT
  5
354
100
AcDbEntity
100
AcDbMText
  8
labels - figures
 62
256
370
-1
 48
1.0
  6
BYLAYER
 10
200.00000000000006
 20
-820.0
 30
0.0
 40
10.0
 41
0.0
 71
5
 72
1
  1
4
  7
textstyle156
 50
0.0
 73
2
 44
1.0
  0
MTEXT
  5
355
100
AcDbEntity
100
AcDbMText
  8
labels - figures
 62
256
370
-1
 48
1.0
  6
BYLAYER
 10
0.00000000000006
 20
-820.0
 30
0.0
 40
10.0
 41
0.0
 71
5
 72
1
  1
3
  7
textstyle157
 50
0.0
 73
2
 44
1.0
  0
MTEXT
  5
356
100
AcDbEntity
100
AcDbMText
  8
labels - figures
 62
256
370
-1
 48
1.0
  6
BYLAYER
 10
400.00000000000006
 20
-1120.0
 30
0.0
 40
10.0
 41
0.0
 71
5
 72
1
  1
3
  7
textstyle158
 50
0.0
 73
2
 44
1.0
  0
MTEXT
  5
357
100
AcDbEntity
100
AcDbMText
  8
labels - figures
 62
256
370
-1
 48
1.0
  6
BYLAYER
 10
600.00000000000011
 20
-1120.0
 30
0.0
 40
10.0
 41
0.0
 71
5
 72
1
  1
4
  7
textstyle159
 50
0.0
 73
2
 44
1.0
  0
MTEXT
  5
358
100
AcDbEntity
100
AcDbMText
  8
labels - figures
 62
256
370
-1
 48
1.0
  6
BYLAYER
 10
0.00000000000006
 20
-1120.0
 30
0.0
 40
10.0
 41
0.0
 71
5
 72
1
  1
1
  7
textstyle160
 50
0.0
 73
2
 44
1.0
  0
MTEXT
  5
359
100
AcDbEntity
100
AcDbMText
  8
labels - figures
 62
256
370
-1
 48
1.0
  6
BYLAYER
 10
200.00000000000006
 20
-1120.0
 30
0.0
 40
10.0
 41
0.0
 71
5
 72
1
  1
2
  7
textstyle145
 50
0.0
 73
2
 44
1.0
  0
MTEXT
  5
35A
100
AcDbEntity
100
AcDbMText
  8
labels - figures
 62
256
370
-1
 48
1.0
  6
BYLAYER
 10
-1400.0
 20
-2020.0
 30
0.0
 40
10.0
 41
0.0
 71
5
 72
1
  1
1
  7
textstyle146
 50
0.0
 73
2
 44
1.0
  0
MTEXT
  5
35B
100
AcDbEntity
100
AcDbMText
  8
labels - figures
 62
256
370
-1
 48
1.0
  6
BYLAYER
 10
200.00000000000006
 20
-2020.0
 30
0.0
 40
10.0
 41
0.0
 71
5
 72
1
  1
9
  7
textstyle147
 50
0.0
 73
2
 44
1.0
  0
MTEXT
  5
35C
100
AcDbEntity
100
AcDbMText
  8
labels - figures
 62
256
370
-1
 48
1.0
  6
BYLAYER
 10
-999.99999999999989
 20
-2020.0
 30
0.0
 40
10.0
 41
0.0
 71
5
 72
1
  1
3
  7
textstyle148
 50
0.0
 73
2
 44
1.0
  0
MTEXT
  5
35D
100
AcDbEntity
100
AcDbMText
  8
labels - figures
 62
256
370
-1
 48
1.0
  6
BYLAYER
 10
-1200.0
 20
-2020.0
 30
0.0
 40
10.0
 41
0.0
 71
5
 72
1
  1
2
  7
textstyle149
 50
0.0
 73
2
 44
1.0
  0
MTEXT
  5
35E
100
AcDbEntity
100
AcDbMText
  8
labels - figures
 62
256
370
-1
 48
1.0
  6
BYLAYER
 10
800.00000000000011
 20
-2020.0
 30
0.0
 40
10.0
 41
0.0
 71
5
 72
1
  1
12
  7
textstyle150
 50
0.0
 73
2
 44
1.0
  0
MTEXT
  5
35F
100
AcDbEntity
100
AcDbMText
  8
labels - figures
 62
256
370
-1
 48
1.0
  6
BYLAYER
 10
1000.0000000000001
 20
-2020.0
 30
0.0
 40
10.0
 41
0.0
 71
5
 72
1
  1
13
  7
textstyle151
 50
0.0
 73
2
 44
1.0
  0
MTEXT
  5
360
100
AcDbEntity
100
AcDbMText
  8
labels - figures
 62
256
370
-1
 48
1.0
  6
BYLAYER
 10
400.00000000000006
 20
-2020.0
 30
0.0
 40
10.0
 41
0.0
 71
5
 72
1
  1
10
  7
textstyle152
 50
0.0
 73
2
 44
1.0
  0
MTEXT
  5
361
100
AcDbEntity
100
AcDbMText
  8
labels - figures
 62
256
370
-1
 48
1.0
  6
BYLAYER
 10
600.00000000000011
 20
-2020.0
 30
0.0
 40
10.0
 41
0.0
 71
5
 72
1
  1
11
  7
textstyle169
 50
0.0
 73
2
 44
1.0
  0
MTEXT
  5
362
100
AcDbEntity
100
AcDbMText
  8
labels - figures
 62
256
370
-1
 48
1.0
  6
BYLAYER
 10
800.00000000000011
 20
-1720.0
 30
0.0
 40
10.0
 41
0.0
 71
5
 72
1
  1
5
  7
textstyle170
 50
0.0
 73
2
 44
1.0
  0
MTEXT
  5
363
100
AcDbEntity
100
AcDbMText
  8
labels - figures
 62
256
370
-1
 48
1.0
  6
BYLAYER
 10
0.00000000000006
 20
-2020.0
 30
0.0
 40
10.0
 41
0.0
 71
5
 72
1
  1
8
  7
textstyle171
 50
0.0
 73
2
 44
1.0
  0
MTEXT
  5
364
100
AcDbEntity
100
AcDbMText
  8
labels - figures
 62
256
370
-1
 48
1.0
  6
BYLAYER
 10
400.00000000000006
 20
-1720.0
 30
0.0
 40
10.0
 41
0.0
 71
5
 72
1
  1
3
  7
textstyle172
 50
0.0
 73
2
 44
1.0
  0
MTEXT
  5
365
100
AcDbEntity
100
AcDbMText
  8
labels - figures
 62
256
370
-1
 48
1.0
  6
BYLAYER
 10
600.00000000000011
 20
-1720.0
 30
0.0
 40
10.0
 41
0.0
 71
5
 72
1
  1
4
  7
textstyle173
 50
0.0
 73
2
 44
1.0
  0
MTEXT
  5
366
100
AcDbEntity
100
AcDbMText
  8
labels - figures
 62
256
370
-1
 48
1.0
  6
BYLAYER
 10
-600.0
 20
-2020.0
 30
0.0
 40
10.0
 41
0.0
 71
5
 72
1
  1
5
  7
textstyle174
 50
0.0
 73
2
 44
1.0
  0
MTEXT
  5
367
100
AcDbEntity
100
AcDbMText
  8
labels - figures
 62
256
370
-1
 48
1.0
  6
BYLAYER
 10
-799.99999999999989
 20
-2020.0
 30
0.0
 40
10.0
 41
0.0
 71
5
 72
1
  1
4
  7
textstyle175
 50
0.0
 73
2
 44
1.0
  0
MTEXT
  5
368
100
AcDbEntity
100
AcDbMText
  8
labels - figures
 62
256
370
-1
 48
1.0
  6
BYLAYER
 10
-199.99999999999994
 20
-2020.0
 30
0.0
 40
10.0
 41
0.0
 71
5
 72
1
  1
7
  7
textstyle176
 50
0.0
 73
2
 44
1.0
  0
MTEXT
  5
369
100
AcDbEntity
100
AcDbMText
  8
labels - figures
 62
256
370
-1
 48
1.0
  6
BYLAYER
 10
-399.99999999999994
 20
-2020.0
 30
0.0
 40
10.0
 41
0.0
 71
5
 72
1
  1
6
  7
textstyle161
 50
0.0
 73
2
 44
1.0
  0
MTEXT
  5
36A
100
AcDbEntity
100
AcDbMText
  8
labels - figures
 62
256
370
-1
 48
1.0
  6
BYLAYER
 10
-599.99999999999955
 20
-220.0
 30
0.0
 40
10.0
 41
0.0
 71
5
 72
1
  1
2
  7
textstyle162
 50
0.0
 73
2
 44
1.0
  0
MTEXT
  5
36B
100
AcDbEntity
100
AcDbMText
  8
labels - figures
 62
256
370
-1
 48
1.0
  6
BYLAYER
 10
-199.99999999999957
 20
-220.0
 30
0.0
 40
10.0
 41
0.0
 71
5
 72
1
  1
4
  7
textstyle163
 50
0.0
 73
2
 44
1.0
  0
MTEXT
  5
36C
100
AcDbEntity
100
AcDbMText
  8
labels - figures
 62
256
370
-1
 48
1.0
  6
BYLAYER
 10
-399.99999999999955
 20
-220.0
 30
0.0
 40
10.0
 41
0.0
 71
5
 72
1
  1
3
  7
textstyle164
 50
0.0
 73
2
 44
1.0
  0
MTEXT
  5
36D
100
AcDbEntity
100
AcDbMText
  8
labels - figures
 62
256
370
-1
 48
1.0
  6
BYLAYER
 10
200.00000000000043
 20
-220.0
 30
0.0
 40
10.0
 41
0.0
 71
5
 72
1
  1
6
  7
textstyle165
 50
0.0
 73
2
 44
1.0
  0
MTEXT
  5
36E
100
AcDbEntity
100
AcDbMText
  8
labels - figures
 62
256
370
-1
 48
1.0
  6
BYLAYER
 10
400.00000000000045
 20
-220.0
 30
0.0
 40
10.0
 41
0.0
 71
5
 72
1
  1
7
  7
textstyle166
 50
0.0
 73
2
 44
1.0
  0
MTEXT
  5
36F
100
AcDbEntity
100
AcDbMText
  8
labels - figures
 62
256
370
-1
 48
1.0
  6
BYLAYER
 10
-799.99999999999955
 20
-220.0
 30
0.0
 40
10.0
 41
0.0
 71
5
 72
1
  1
1
  7
textstyle167
 50
0.0
 73
2
 44
1.0
  0
MTEXT
  5
370
100
AcDbEntity
100
AcDbMText
  8
labels - figures
 62
256
370
-1
 48
1.0
  6
BYLAYER
 10
0.0000000000004263
 20
80.0
 30
0.0
 40
10.0
 41
0.0
 71
5
 72
1
  1
4
  7
textstyle168
 50
0.0
 73
2
 44
1.0
  0
MTEXT
  5
371
100
AcDbEntity
100
AcDbMText
  8
labels - figures
 62
256
370
-1
 48
1.0
  6
BYLAYER
 10
200.00000000000043
 20
80.0
 30
0.0
 40
10.0
 41
0.0
 71
5
 72
1
  1
5
  7
textstyle185
 50
0.0
 73
2
 44
1.0
  0
MTEXT
  5
372
100
AcDbEntity
100
AcDbMText
  8
labels - figures
 62
256
370
-1
 48
1.0
  6
BYLAYER
 10
-399.99999999999955
 20
80.0
 30
0.0
 40
10.0
 41
0.0
 71
5
 72
1
  1
2
  7
textstyle186
 50
0.0
 73
2
 44
1.0
  0
MTEXT
  5
373
100
AcDbEntity
100
AcDbMText
  8
labels - figures
 62
256
370
-1
 48
1.0
  6
BYLAYER
 10
-199.99999999999957
 20
80.0
 30
0.0
 40
10.0
 41
0.0
 71
5
 72
1
  1
3
  7
textstyle187
 50
0.0
 73
2
 44
1.0
  0
MTEXT
  5
374
100
AcDbEntity
100
AcDbMText
  8
labels - figures
 62
256
370
-1
 48
1.0
  6
BYLAYER
 10
800.00000000000045
 20
80.0
 30
0.0
 40
10.0
 41
0.0
 71
5
 72
1
  1
8
  7
textstyle188
 50
0.0
 73
2
 44
1.0
  0
MTEXT
  5
375
100
AcDbEntity
100
AcDbMText
  8
labels - figures
 62
256
370
-1
 48
1.0
  6
BYLAYER
 10
0.0000000000004263
 20
-220.0
 30
0.0
 40
10.0
 41
0.0
 71
5
 72
1
  1
5
  7
textstyle189
 50
0.0
 73
2
 44
1.0
  0
MTEXT
  5
376
100
AcDbEntity
100
AcDbMText
  8
labels - figures
 62
256
370
-1
 48
1.0
  6
BYLAYER
 10
400.00000000000045
 20
80.0
 30
0.0
 40
10.0
 41
0.0
 71
5
 72
1
  1
6
  7
textstyle190
 50
0.0
 73
2
 44
1.0
  0
MTEXT
  5
377
100
AcDbEntity
100
AcDbMText
  8
labels - figures
 62
256
370
-1
 48
1.0
  6
BYLAYER
 10
600.00000000000045
 20
80.0
 30
0.0
 40
10.0
 41
0.0
 71
5
 72
1
  1
7
  7
textstyle191
 50
0.0
 73
2
 44
1.0
  0
MTEXT
  5
378
100
AcDbEntity
100
AcDbMText
  8
labels - figures
 62
256
370
-1
 48
1.0
  6
BYLAYER
 10
800.00000000000011
 20
-520.0
 30
0.0
 40
10.0
 41
0.0
 71
5
 72
1
  1
7
  7
textstyle192
 50
0.0
 73
2
 44
1.0
  0
MTEXT
  5
379
100
AcDbEntity
100
AcDbMText
  8
labels - figures
 62
256
370
-1
 48
1.0
  6
BYLAYER
 10
1000.0000000000001
 20
-520.0
 30
0.0
 40
10.0
 41
0.0
 71
5
 72
1
  1
8
  7
textstyle177
 50
0.0
 73
2
 44
1.0
  0
MTEXT
  5
37A
100
AcDbEntity
100
AcDbMText
  8
labels - figures
 62
256
370
-1
 48
1.0
  6
BYLAYER
 10
400.00000000000006
 20
-520.0
 30
0.0
 40
10.0
 41
0.0
 71
5
 72
1
  1
5
  7
textstyle178
 50
0.0
 73
2
 44
1.0
  0
MTEXT
  5
37B
100
AcDbEntity
100
AcDbMText
  8
labels - figures
 62
256
370
-1
 48
1.0
  6
BYLAYER
 10
600.00000000000011
 20
-520.0
 30
0.0
 40
10.0
 41
0.0
 71
5
 72
1
  1
6
  7
textstyle179
 50
0.0
 73
2
 44
1.0
  0
MTEXT
  5
37C
100
AcDbEntity
100
AcDbMText
  8
labels - figures
 62
256
370
-1
 48
1.0
  6
BYLAYER
 10
600.00000000000011
 20
-820.0
 30
0.0
 40
10.0
 41
0.0
 71
5
 72
1
  1
6
  7
textstyle180
 50
0.0
 73
2
 44
1.0
  0
MTEXT
  5
37D
100
AcDbEntity
100
AcDbMText
  8
labels - figures
 62
256
370
-1
 48
1.0
  6
BYLAYER
 10
400.00000000000006
 20
-820.0
 30
0.0
 40
10.0
 41
0.0
 71
5
 72
1
  1
5
  7
textstyle181
 50
0.0
 73
2
 44
1.0
  0
MTEXT
  5
37E
100
AcDbEntity
100
AcDbMText
  8
labels - figures
 62
256
370
-1
 48
1.0
  6
BYLAYER
 10
1000.0000000000001
 20
-820.0
 30
0.0
 40
10.0
 41
0.0
 71
5
 72
1
  1
8
  7
textstyle182
 50
0.0
 73
2
 44
1.0
  0
MTEXT
  5
37F
100
AcDbEntity
100
AcDbMText
  8
labels - figures
 62
256
370
-1
 48
1.0
  6
BYLAYER
 10
800.00000000000011
 20
-820.0
 30
0.0
 40
10.0
 41
0.0
 71
5
 72
1
  1
7
  7
textstyle183
 50
0.0
 73
2
 44
1.0
  0
MTEXT
  5
380
100
AcDbEntity
100
AcDbMText
  8
labels - figures
 62
256
370
-1
 48
1.0
  6
BYLAYER
 10
1000.0000000000005
 20
-220.0
 30
0.0
 40
10.0
 41
0.0
 71
5
 72
1
  1
10
  7
textstyle184
 50
0.0
 73
2
 44
1.0
  0
MTEXT
  5
381
100
AcDbEntity
100
AcDbMText
  8
labels - figures
 62
256
370
-1
 48
1.0
  6
BYLAYER
 10
1200.0000000000005
 20
-220.0
 30
0.0
 40
10.0
 41
0.0
 71
5
 72
1
  1
11
  7
textstyle193
 50
0.0
 73
2
 44
1.0
  0
MTEXT
  5
382
100
AcDbEntity
100
AcDbMText
  8
labels - figures
 62
256
370
-1
 48
1.0
  6
BYLAYER
 10
600.00000000000045
 20
-220.0
 30
0.0
 40
10.0
 41
0.0
 71
5
 72
1
  1
8
  7
textstyle194
 50
0.0
 73
2
 44
1.0
  0
MTEXT
  5
383
100
AcDbEntity
100
AcDbMText
  8
labels - figures
 62
256
370
-1
 48
1.0
  6
BYLAYER
 10
800.00000000000045
 20
-220.0
 30
0.0
 40
10.0
 41
0.0
 71
5
 72
1
  1
9
  7
textstyle195
 50
0.0
 73
2
 44
1.0
  0
MTEXT
  5
384
100
AcDbEntity
100
AcDbMText
  8
labels - figures
 62
256
370
-1
 48
1.0
  6
BYLAYER
 10
-399.99999999999994
 20
-520.0
 30
0.0
 40
10.0
 41
0.0
 71
5
 72
1
  1
1
  7
textstyle196
 50
0.0
 73
2
 44
1.0
  0
MTEXT
  5
385
100
AcDbEntity
100
AcDbMText
  8
labels - figures
 62
256
370
-1
 48
1.0
  6
BYLAYER
 10
200.00000000000006
 20
-520.0
 30
0.0
 40
10.0
 41
0.0
 71
5
 72
1
  1
4
  7
textstyle197
 50
0.0
 73
2
 44
1.0
  0
MTEXT
  5
386
100
AcDbEntity
100
AcDbMText
  8
labels - figures
 62
256
370
-1
 48
1.0
  6
BYLAYER
 10
0.0000000000004263
 20
-520.0
 30
0.0
 40
10.0
 41
0.0
 71
5
 72
1
  1
3
  7
textstyle198
 50
0.0
 73
2
 44
1.0
  0
MTEXT
  5
387
100
AcDbEntity
100
AcDbMText
  8
labels - figures
 62
256
370
-1
 48
1.0
  6
BYLAYER
 10
-199.99999999999994
 20
-520.0
 30
0.0
 40
10.0
 41
0.0
 71
5
 72
1
  1
2
  7
textstyle199
 50
0.0
 73
2
 44
1.0
  0
ENDSEC
  0
SECTION
  2
OBJECTS
  0
DICTIONARY
  5
C
100
AcDbDictionary
280
0
281
1
  3
ACAD_GROUP
350
D
  3
ACAD_LAYOUT
350
1A
  3
ACAD_MLINESTYLE
350
17
  3
ACAD_PLOTSETTINGS
350
19
  3
ACAD_PLOTSTYLENAME
350
E
  3
AcDbVariableDictionary
350
388
  3
QCAD_OBJECTS
350
389
  0
DICTIONARY
  5
D
100
AcDbDictionary
280
0
281
1
  0
ACDBDICTIONARYWDFLT
  5
E
100
AcDbDictionary
281
1
  3
Normal
350
F
100
AcDbDictionaryWithDefault
340
F
  0
ACDBPLACEHOLDER
  5
F
  0
DICTIONARY
  5
17
100
AcDbDictionary
280
0
281
1
  3
Standard
350
18
  0
MLINESTYLE
  5
18
100
AcDbMlineStyle
  2
STANDARD
 70
0
  3

 62
256
 51
90.0
 52
90.0
 71
2
 49
0.5
 62
256
  6
BYLAYER
 49
-0.5
 62
256
  6
BYLAYER
  0
DICTIONARY
  5
19
100
AcDbDictionary
280
0
281
1
  0
DICTIONARY
  5
1A
100
AcDbDictionary
281
1
  3
Layout1
350
1E
  3
Layout2
350
26
  3
Model
350
22
  0
LAYOUT
  5
1E
100
AcDbPlotSettings
  1

  2
none_device
  4

  6

 40
0.0
 41
0.0
 42
0.0
 43
0.0
 44
0.0
 45
0.0
 46
0.0
 47
0.0
 48
0.0
 49
0.0
140
0.0
141
0.0
142
1.0
143
1.0
 70
688
 72
0
 73
0
 74
5
  7

 75
16
147
1.0
148
0.0
149
0.0
100
AcDbLayout
  1
Layout1
 70
1
 71
1
 10
0.0
 20
0.0
 11
420.0
 21
297.0
 12
0.0
 22
0.0
 32
0.0
 14
100000000000000000000.0
 24
100000000000000000000.0
 34
100000000000000000000.0
 15
-100000000000000000000.0
 25
-100000000000000000000.0
 35
-100000000000000000000.0
146
0.0
 13
0.0
 23
0.0
 33
0.0
 16
1.0
 26
0.0
 36
0.0
 17
0.0
 27
1.0
 37
0.0
 76
0
330
1B
  0
LAYOUT
  5
22
100
AcDbPlotSettings
  1

  2
none_device
  4

  6

 40
0.0
 41
0.0
 42
0.0
 43
0.0
 44
0.0
 45
0.0
 46
0.0
 47
0.0
 48
0.0
 49
0.0
140
0.0
141
0.0
142
1.0
143
1.0
 70
1712
 72
0
 73
0
 74
0
  7

 75
0
147
1.0
148
0.0
149
0.0
100
AcDbLayout
  1
Model
 70
1
 71
0
 10
0.0
 20
0.0
 11
12.0
 21
9.0
 12
0.0
 22
0.0
 32
0.0
 14
0.0
 24
0.0
 34
0.0
 15
0.0
 25
0.0
 35
0.0
146
0.0
 13
0.0
 23
0.0
 33
0.0
 16
1.0
 26
0.0
 36
0.0
 17
0.0
 27
1.0
 37
0.0
 76
0
330
1F
  0
LAYOUT
  5
26
100
AcDbPlotSettings
  1

  2
none_device
  4

  6

 40
0.0
 41
0.0
 42
0.0
 43
0.0
 44
0.0
 45
0.0
 46
0.0
 47
0.0
 48
0.0
 49
0.0
140
0.0
141
0.0
142
1.0
143
1.0
 70
688
 72
0
 73
0
 74
5
  7

 75
16
147
1.0
148
0.0
149
0.0
100
AcDbLayout
  1
Layout2
 70
1
 71
2
 10
0.0
 20
0.0
 11
12.0
 21
9.0
 12
0.0
 22
0.0
 32
0.0
 14
0.0
 24
0.0
 34
0.0
 15
0.0
 25
0.0
 35
0.0
146
0.0
 13
0.0
 23
0.0
 33
0.0
 16
1.0
 26
0.0
 36
0.0
 17
0.0
 27
1.0
 37
0.0
 76
0
330
23
  0
DICTIONARY
  5
388
100
AcDbDictionary
281
1
  3
DIMASSOC
350
38B
  3
HIDETEXT
350
38A
  0
DICTIONARYVAR
  5
38A
100
DictionaryVariables
280
0
  1
2
  0
DICTIONARYVAR
  5
38B
100
DictionaryVariables
280
0
  1
1
  0
DICTIONARY
  5
389
100
AcDbDictionary
281
1
  3
ColorSettings/BackgroundColor
350
38C
  3
ColorSettings/ColorMode
350
38D
  3
DimensionSettings/AngularFormat
350
38E
  3
DimensionSettings/AngularPrecision
350
38F
  3
DimensionSettings/DimensionFont
350
390
  3
DimensionSettings/KeepProportions
350
391
  3
DimensionSettings/LinearFormat
350
392
  3
DimensionSettings/LinearPrecision
350
393
  3
Grid/DisplayGrid00
350
394
  3
Grid/DisplayGrid01
350
395
  3
Grid/DisplayGrid02
350
396
  3
Grid/DisplayGrid03
350
397
  3
Grid/GridSpacingX00
350
398
  3
Grid/GridSpacingX01
350
399
  3
Grid/GridSpacingX02
350
39A
  3
Grid/GridSpacingX03
350
39B
  3
Grid/GridSpacingY00
350
39C
  3
Grid/GridSpacingY01
350
39D
  3
Grid/GridSpacingY02
350
39E
  3
Grid/GridSpacingY03
350
39F
  3
Grid/IsometricGrid00
350
3A0
  3
Grid/IsometricGrid01
350
3A1
  3
Grid/IsometricGrid02
350
3A2
  3
Grid/IsometricGrid03
350
3A3
  3
Grid/IsometricProjection00
350
3A4
  3
Grid/IsometricProjection01
350
3A5
  3
Grid/IsometricProjection02
350
3A6
  3
Grid/IsometricProjection03
350
3A7
  3
Grid/MetaGridSpacingX00
350
3A8
  3
Grid/MetaGridSpacingX01
350
3A9
  3
Grid/MetaGridSpacingX02
350
3AA
  3
Grid/MetaGridSpacingX03
350
3AB
  3
Grid/MetaGridSpacingY00
350
3AC
  3
Grid/MetaGridSpacingY01
350
3AD
  3
Grid/MetaGridSpacingY02
350
3AE
  3
Grid/MetaGridSpacingY03
350
3AF
  3
MultiPageSettings/Columns
350
3B0
  3
MultiPageSettings/GlueMarginsBottom
350
3B1
  3
MultiPageSettings/GlueMarginsLeft
350
3B2
  3
MultiPageSettings/GlueMarginsRight
350
3B3
  3
MultiPageSettings/GlueMarginsTop
350
3B4
  3
MultiPageSettings/PrintCropMarks
350
3B5
  3
MultiPageSettings/Rows
350
3B6
  3
PageSettings/OffsetX
350
3B7
  3
PageSettings/OffsetY
350
3B8
  3
PageSettings/PageOrientation
350
3B9
  3
PageSettings/PaperHeight
350
3BA
  3
PageSettings/PaperWidth
350
3BB
  3
PageSettings/Scale
350
3BC
  3
PageSettings/ShowPaperBorders
350
3BD
  3
PointDisplaySettings/Button2
350
3BE
  3
PointDisplaySettings/Button3
350
3BF
  3
PointDisplaySettings/Button32
350
3C0
  3
PointDisplaySettings/Button33
350
3C1
  3
PointDisplaySettings/Button34
350
3C2
  3
PointDisplaySettings/Button35
350
3C3
  3
PointDisplaySettings/Button64
350
3C4
  3
PointDisplaySettings/Button65
350
3C5
  3
PointDisplaySettings/Button66
350
3C6
  3
PointDisplaySettings/Button67
350
3C7
  3
PointDisplaySettings/Mode
350
3C8
  3
PointDisplaySettings/Size
350
3C9
  3
QCADVersion
350
3CA
  3
UnitSettings/Measurement
350
3CB
  3
UnitSettings/PaperUnit
350
3CC
  3
ViewportCenter
350
3CD
  3
ViewportHeight
350
3CE
  3
ViewportWidth
350
3CF
  0
XRECORD
  5
38C
330
389
100
AcDbXrecord
280
1
1000
White
  0
XRECORD
  5
38D
330
389
100
AcDbXrecord
280
1
1000
FullColor
  0
XRECORD
  5
38E
330
389
100
AcDbXrecord
280
1
 90
0
  0
XRECORD
  5
38F
330
389
100
AcDbXrecord
280
1
 90
0
  0
XRECORD
  5
390
330
389
100
AcDbXrecord
280
1
1000
MS Shell Dlg 2
  0
XRECORD
  5
391
330
389
100
AcDbXrecord
280
1
290
0
  0
XRECORD
  5
392
330
389
100
AcDbXrecord
280
1
 90
2
  0
XRECORD
  5
393
330
389
100
AcDbXrecord
280
1
 90
4
  0
XRECORD
  5
394
330
389
100
AcDbXrecord
280
1
290
1
  0
XRECORD
  5
395
330
389
100
AcDbXrecord
280
1
290
1
  0
XRECORD
  5
396
330
389
100
AcDbXrecord
280
1
290
1
  0
XRECORD
  5
397
330
389
100
AcDbXrecord
280
1
290
1
  0
XRECORD
  5
398
330
389
100
AcDbXrecord
280
1
1000
auto
  0
XRECORD
  5
399
330
389
100
AcDbXrecord
280
1
1000
auto
  0
XRECORD
  5
39A
330
389
100
AcDbXrecord
280
1
1000
auto
  0
XRECORD
  5
39B
330
389
100
AcDbXrecord
280
1
1000
auto
  0
XRECORD
  5
39C
330
389
100
AcDbXrecord
280
1
1000
auto
  0
XRECORD
  5
39D
330
389
100
AcDbXrecord
280
1
1000
auto
  0
XRECORD
  5
39E
330
389
100
AcDbXrecord
280
1
1000
auto
  0
XRECORD
  5
39F
330
389
100
AcDbXrecord
280
1
1000
auto
  0
XRECORD
  5
3A0
330
389
100
AcDbXrecord
280
1
290
0
  0
XRECORD
  5
3A1
330
389
100
AcDbXrecord
280
1
290
0
  0
XRECORD
  5
3A2
330
389
100
AcDbXrecord
280
1
290
0
  0
XRECORD
  5
3A3
330
389
100
AcDbXrecord
280
1
290
0
  0
XRECORD
  5
3A4
330
389
100
AcDbXrecord
280
1
 90
0
  0
XRECORD
  5
3A5
330
389
100
AcDbXrecord
280
1
 90
0
  0
XRECORD
  5
3A6
330
389
100
AcDbXrecord
280
1
 90
0
  0
XRECORD
  5
3A7
330
389
100
AcDbXrecord
280
1
 90
0
  0
XRECORD
  5
3A8
330
389
100
AcDbXrecord
280
1
1000
auto
  0
XRECORD
  5
3A9
330
389
100
AcDbXrecord
280
1
1000
auto
  0
XRECORD
  5
3AA
330
389
100
AcDbXrecord
280
1
1000
auto
  0
XRECORD
  5
3AB
330
389
100
AcDbXrecord
280
1
1000
auto
  0
XRECORD
  5
3AC
330
389
100
AcDbXrecord
280
1
1000
auto
  0
XRECORD
  5
3AD
330
389
100
AcDbXrecord
280
1
1000
auto
  0
XRECORD
  5
3AE
330
389
100
AcDbXrecord
280
1
1000
auto
  0
XRECORD
  5
3AF
330
389
100
AcDbXrecord
280
1
1000
auto
  0
XRECORD
  5
3B0
330
389
100
AcDbXrecord
280
1
 90
1
  0
XRECORD
  5
3B1
330
389
100
AcDbXrecord
280
1
 40
10.0
  0
XRECORD
  5
3B2
330
389
100
AcDbXrecord
280
1
 40
10.0
  0
XRECORD
  5
3B3
330
389
100
AcDbXrecord
280
1
 40
10.0
  0
XRECORD
  5
3B4
330
389
100
AcDbXrecord
280
1
 40
10.0
  0
XRECORD
  5
3B5
330
389
100
AcDbXrecord
280
1
290
0
  0
XRECORD
  5
3B6
330
389
100
AcDbXrecord
280
1
 90
1
  0
XRECORD
  5
3B7
330
389
100
AcDbXrecord
280
1
 40
0.0
  0
XRECORD
  5
3B8
330
389
100
AcDbXrecord
280
1
 40
0.0
  0
XRECORD
  5
3B9
330
389
100
AcDbXrecord
280
1
1000
Portrait
  0
XRECORD
  5
3BA
330
389
100
AcDbXrecord
280
1
 40
297.0
  0
XRECORD
  5
3BB
330
389
100
AcDbXrecord
280
1
 40
210.0
  0
XRECORD
  5
3BC
330
389
100
AcDbXrecord
280
1
1000
1:1
  0
XRECORD
  5
3BD
330
389
100
AcDbXrecord
280
1
290
1
  0
XRECORD
  5
3BE
330
389
100
AcDbXrecord
280
1
1000
Button2
  0
XRECORD
  5
3BF
330
389
100
AcDbXrecord
280
1
1000
Button3
  0
XRECORD
  5
3C0
330
389
100
AcDbXrecord
280
1
1000
Button32
  0
XRECORD
  5
3C1
330
389
100
AcDbXrecord
280
1
1000
Button33
  0
XRECORD
  5
3C2
330
389
100
AcDbXrecord
280
1
1000
Button34
  0
XRECORD
  5
3C3
330
389
100
AcDbXrecord
280
1
1000
Button35
  0
XRECORD
  5
3C4
330
389
100
AcDbXrecord
280
1
1000
Button64
  0
XRECORD
  5
3C5
330
389
100
AcDbXrecord
280
1
1000
Button65
  0
XRECORD
  5
3C6
330
389
100
AcDbXrecord
280
1
1000
Button66
  0
XRECORD
  5
3C7
330
389
100
AcDbXrecord
280
1
1000
Button67
  0
XRECORD
  5
3C8
330
389
100
AcDbXrecord
280
1
1000
64
  0
XRECORD
  5
3C9
330
389
100
AcDbXrecord
280
1
1000
5
  0
XRECORD
  5
3CA
330
389
100
AcDbXrecord
280
1
1000
3.15.4
  0
XRECORD
  5
3CB
330
389
100
AcDbXrecord
280
1
 90
1
  0
XRECORD
  5
3CC
330
389
100
AcDbXrecord
280
1
 90
4
  0
XRECORD
  5
3CE
330
389
100
AcDbXrecord
280
1
 40
140.28828733251521
  0
XRECORD
  5
3CF
330
389
100
AcDbXrecord
280
1
 40
260.4370291215896
  0
ENDSEC
  0
EOF
