999
dxflib 3.12.2.0
  0
SECTION
  2
HEADER
  9
$ACADVER
  1
AC1015
  9
$HANDSEED
  5
FFFF
  9
$DIMADEC
 70
0
  9
$DIMASZ
 40
7.0
  9
$DIMAUNIT
 70
0
  9
$DIMAZIN
 70
2
  9
$DIMDEC
 70
4
  9
$DIMEXE
 40
5.0
  9
$DIMEXO
 40
2.5
  9
$DIMGAP
 40
2.5
  9
$DIMLUNIT
 70
2
  9
$DIMSCALE
 40
1.0
  9
$DIMTSZ
 40
0.0
  9
$DIMTXT
 40
2.5
  9
$DIMZIN
 70
8
  9
$DWGCODEPAGE
  3
ANSI_1252
  9
$INSUNITS
 70
4
  9
$LTSCALE
 40
1.0
  9
$MEASUREMENT
 70
1
  9
$PDMODE
 70
64
  9
$PDSIZE
 40
5.0
  0
ENDSEC
  0
SECTION
  2
TABLES
  0
TABLE
  2
VPORT
  5
8
100
AcDbSymbolTable
 70
1
  0
VPORT
  5
30
100
AcDbSymbolTableRecord
100
AcDbViewportTableRecord
  2
*Active
 70
0
 10
0.0
 20
0.0
 11
1.0
 21
1.0
 12
286.30555555555549
 22
148.5
 13
0.0
 23
0.0
 14
10.0
 24
10.0
 15
10.0
 25
10.0
 16
0.0
 26
0.0
 36
1.0
 17
0.0
 27
0.0
 37
0.0
 40
297.0
 41
1.92798353909465
 42
50.0
 43
0.0
 44
0.0
 50
0.0
 51
0.0
 71
0
 72
100
 73
1
 74
3
 75
1
 76
1
 77
0
 78
0
281
0
 65
1
110
0.0
120
0.0
130
0.0
111
1.0
121
0.0
131
0.0
112
0.0
122
1.0
132
0.0
 79
0
146
0.0
  0
ENDTAB
  0
TABLE
  2
LTYPE
  5
5
100
AcDbSymbolTable
 70
41
  0
LTYPE
  5
16
100
AcDbSymbolTableRecord
100
AcDbLinetypeTableRecord
  2
Continuous
 70
0
  3
Solid line
 72
65
 73
0
 40
0.0
  0
LTYPE
  5
31
100
AcDbSymbolTableRecord
100
AcDbLinetypeTableRecord
  2
HIDDENX2
 70
0
  3
Hidden (2x) ____ ____ ____ ____ ____ ____ ____ 
 72
65
 73
2
 40
19.049999999999997
 49
12.699999999999999
 74
0
 49
-6.3499999999999996
 74
0
  0
LTYPE
  5
32
100
AcDbSymbolTableRecord
100
AcDbLinetypeTableRecord
  2
ACAD_ISO14W100
 70
0
  3
ISO dash triple-dot __ . . . __ . . . __ . . . _
 72
65
 73
8
 40
24.000000000000004
 49
12.0
 74
0
 49
-2.9500000000000002
 74
0
 49
0.1
 74
0
 49
-2.9000000000000004
 74
0
 49
0.1
 74
0
 49
-2.9000000000000004
 74
0
 49
0.1
 74
0
 49
-2.9500000000000002
 74
0
  0
LTYPE
  5
33
100
AcDbSymbolTableRecord
100
AcDbLinetypeTableRecord
  2
DIVIDE
 70
0
  3
Divide ____ . . ____ . . ____ . . ____ . . ____
 72
65
 73
6
 40
31.750000000000004
 49
12.699999999999999
 74
0
 49
-6.2999999999999998
 74
0
 49
0.1
 74
0
 49
-6.25
 74
0
 49
0.1
 74
0
 49
-6.2999999999999998
 74
0
  0
LTYPE
  5
34
100
AcDbSymbolTableRecord
100
AcDbLinetypeTableRecord
  2
ACAD_ISO06W100
 70
0
  3
ISO long-dash triple-dot ____ ... ____ ... ____
 72
65
 73
8
 40
36.000000000000007
 49
24.0
 74
0
 49
-2.9500000000000002
 74
0
 49
0.1
 74
0
 49
-2.9000000000000004
 74
0
 49
0.1
 74
0
 49
-2.9000000000000004
 74
0
 49
0.1
 74
0
 49
-2.9500000000000002
 74
0
  0
LTYPE
  5
35
100
AcDbSymbolTableRecord
100
AcDbLinetypeTableRecord
  2
DIVIDEX2
 70
0
  3
Divide (2x) ________  .  .  ________  .  .  _
 72
65
 73
6
 40
63.5
 49
25.399999999999999
 74
0
 49
-12.649999999999999
 74
0
 49
0.1
 74
0
 49
-12.599999999999998
 74
0
 49
0.1
 74
0
 49
-12.649999999999999
 74
0
  0
LTYPE
  5
36
100
AcDbSymbolTableRecord
100
AcDbLinetypeTableRecord
  2
BORDER
 70
0
  3
Border __ __ . __ __ . __ __ . __ __ . __ __ .
 72
65
 73
6
 40
44.449999999999996
 49
12.699999999999999
 74
0
 49
-6.3499999999999996
 74
0
 49
12.699999999999999
 74
0
 49
-6.2999999999999998
 74
0
 49
0.1
 74
0
 49
-6.2999999999999998
 74
0
  0
LTYPE
  5
37
100
AcDbSymbolTableRecord
100
AcDbLinetypeTableRecord
  2
DIVIDE2
 70
0
  3
Divide (.5x) __..__..__..__..__..__..__..__.._
 72
65
 73
6
 40
15.874999999999998
 49
6.3499999999999996
 74
0
 49
-3.125
 74
0
 49
0.1
 74
0
 49
-3.0750000000000002
 74
0
 49
0.1
 74
0
 49
-3.125
 74
0
  0
LTYPE
  5
38
100
AcDbSymbolTableRecord
100
AcDbLinetypeTableRecord
  2
DASHEDX2
 70
0
  3
Dashed (2x) ____  ____  ____  ____  ____  ___
 72
65
 73
2
 40
38.099999999999994
 49
25.399999999999999
 74
0
 49
-12.699999999999999
 74
0
  0
LTYPE
  5
39
100
AcDbSymbolTableRecord
100
AcDbLinetypeTableRecord
  2
ACAD_ISO07W100
 70
0
  3
ISO dot . . . . . . . . . . . . . . . . . . . . 
 72
65
 73
2
 40
3.0
 49
0.1
 74
0
 49
-2.8999999999999999
 74
0
  0
LTYPE
  5
3A
100
AcDbSymbolTableRecord
100
AcDbLinetypeTableRecord
  2
DOT2
 70
0
  3
Dot (.5x) ........................................
 72
65
 73
2
 40
3.1749999999999998
 49
0.1
 74
0
 49
-3.0749999999999997
 74
0
  0
LTYPE
  5
3B
100
AcDbSymbolTableRecord
100
AcDbLinetypeTableRecord
  2
PHANTOMX2
 70
0
  3
Phantom (2x) ____________    ____    ____   _
 72
65
 73
6
 40
127.00000000000001
 49
63.5
 74
0
 49
-12.699999999999999
 74
0
 49
12.699999999999999
 74
0
 49
-12.699999999999999
 74
0
 49
12.699999999999999
 74
0
 49
-12.699999999999999
 74
0
  0
LTYPE
  5
3C
100
AcDbSymbolTableRecord
100
AcDbLinetypeTableRecord
  2
CENTER2
 70
0
  3
Center (.5x) ___ _ ___ _ ___ _ ___ _ ___ _ ___
 72
65
 73
4
 40
28.575000000000003
 49
19.050000000000001
 74
0
 49
-3.1749999999999998
 74
0
 49
3.1749999999999998
 74
0
 49
-3.1749999999999998
 74
0
  0
LTYPE
  5
14
100
AcDbSymbolTableRecord
100
AcDbLinetypeTableRecord
  2
BYBLOCK
 70
0
  3

 72
65
 73
0
 40
0.0
  0
LTYPE
  5
15
100
AcDbSymbolTableRecord
100
AcDbLinetypeTableRecord
  2
BYLAYER
 70
0
  3

 72
65
 73
0
 40
0.0
  0
LTYPE
  5
3D
100
AcDbSymbolTableRecord
100
AcDbLinetypeTableRecord
  2
DASHDOT2
 70
0
  3
Dash dot (.5x) _._._._._._._._._._._._._._._.
 72
65
 73
4
 40
12.699999999999999
 49
6.3499999999999996
 74
0
 49
-3.125
 74
0
 49
0.1
 74
0
 49
-3.125
 74
0
  0
LTYPE
  5
3E
100
AcDbSymbolTableRecord
100
AcDbLinetypeTableRecord
  2
HIDDEN2
 70
0
  3
Hidden (.5x) _ _ _ _ _ _ _ _ _ _ _ _ _ _ _ _ _ 
 72
65
 73
2
 40
4.7624999999999993
 49
3.1749999999999998
 74
0
 49
-1.5874999999999999
 74
0
  0
LTYPE
  5
3F
100
AcDbSymbolTableRecord
100
AcDbLinetypeTableRecord
  2
ACAD_ISO13W100
 70
0
  3
ISO double-dash double-dot __ __ . . __ __ . . _
 72
65
 73
8
 40
36.000000000000007
 49
12.0
 74
0
 49
-3.0
 74
0
 49
12.0
 74
0
 49
-2.9500000000000002
 74
0
 49
0.1
 74
0
 49
-2.9000000000000004
 74
0
 49
0.1
 74
0
 49
-2.9500000000000002
 74
0
  0
LTYPE
  5
40
100
AcDbSymbolTableRecord
100
AcDbLinetypeTableRecord
  2
PHANTOM
 70
0
  3
Phantom ______  __  __  ______  __  __  ______ 
 72
65
 73
6
 40
63.500000000000007
 49
31.75
 74
0
 49
-6.3499999999999996
 74
0
 49
6.3499999999999996
 74
0
 49
-6.3499999999999996
 74
0
 49
6.3499999999999996
 74
0
 49
-6.3499999999999996
 74
0
  0
LTYPE
  5
41
100
AcDbSymbolTableRecord
100
AcDbLinetypeTableRecord
  2
DASHED2
 70
0
  3
Dashed (.5x) _ _ _ _ _ _ _ _ _ _ _ _ _ _ _ _ _ 
 72
65
 73
2
 40
9.5249999999999986
 49
6.3499999999999996
 74
0
 49
-3.1749999999999998
 74
0
  0
LTYPE
  5
42
100
AcDbSymbolTableRecord
100
AcDbLinetypeTableRecord
  2
DASHED
 70
0
  3
Dashed __ __ __ __ __ __ __ __ __ __ __ __ __ _
 72
65
 73
2
 40
19.049999999999997
 49
12.699999999999999
 74
0
 49
-6.3499999999999996
 74
0
  0
LTYPE
  5
43
100
AcDbSymbolTableRecord
100
AcDbLinetypeTableRecord
  2
DASHDOTX2
 70
0
  3
Dash dot (2x) ____  .  ____  .  ____  .  ___
 72
65
 73
4
 40
50.799999999999997
 49
25.399999999999999
 74
0
 49
-12.649999999999999
 74
0
 49
0.1
 74
0
 49
-12.649999999999999
 74
0
  0
LTYPE
  5
44
100
AcDbSymbolTableRecord
100
AcDbLinetypeTableRecord
  2
ACAD_ISO05W100
 70
0
  3
ISO long-dash double-dot ____ .. ____ .. ____ . 
 72
65
 73
6
 40
33.000000000000007
 49
24.0
 74
0
 49
-2.9500000000000002
 74
0
 49
0.1
 74
0
 49
-2.9000000000000004
 74
0
 49
0.1
 74
0
 49
-2.9500000000000002
 74
0
  0
LTYPE
  5
45
100
AcDbSymbolTableRecord
100
AcDbLinetypeTableRecord
  2
CENTER
 70
0
  3
Center ____ _ ____ _ ____ _ ____ _ ____ _ ____
 72
65
 73
4
 40
50.800000000000004
 49
31.75
 74
0
 49
-6.3499999999999996
 74
0
 49
6.3499999999999996
 74
0
 49
-6.3499999999999996
 74
0
  0
LTYPE
  5
46
100
AcDbSymbolTableRecord
100
AcDbLinetypeTableRecord
  2
ACAD_ISO03W100
 70
0
  3
ISO dash space __    __    __    __    __    __
 72
65
 73
2
 40
30.0
 49
12.0
 74
0
 49
-18.0
 74
0
  0
LTYPE
  5
47
100
AcDbSymbolTableRecord
100
AcDbLinetypeTableRecord
  2
ACAD_ISO15W100
 70
0
  3
ISO double-dash triple-dot __ __ . . . __ __ . .
 72
65
 73
10
 40
39.000000000000007
 49
12.0
 74
0
 49
-3.0
 74
0
 49
12.0
 74
0
 49
-2.9500000000000002
 74
0
 49
0.1
 74
0
 49
-2.9000000000000004
 74
0
 49
0.1
 74
0
 49
-2.9000000000000004
 74
0
 49
0.1
 74
0
 49
-2.9500000000000002
 74
0
  0
LTYPE
  5
48
100
AcDbSymbolTableRecord
100
AcDbLinetypeTableRecord
  2
ACAD_ISO12W100
 70
0
  3
ISO dash double-dot __ . . __ . . __ . . __ . . 
 72
65
 73
6
 40
21.0
 49
12.0
 74
0
 49
-2.9500000000000002
 74
0
 49
0.1
 74
0
 49
-2.9000000000000004
 74
0
 49
0.1
 74
0
 49
-2.9500000000000002
 74
0
  0
LTYPE
  5
49
100
AcDbSymbolTableRecord
100
AcDbLinetypeTableRecord
  2
DASHDOT
 70
0
  3
Dash dot __ . __ . __ . __ . __ . __ . __ . __
 72
65
 73
4
 40
25.400000000000002
 49
12.699999999999999
 74
0
 49
-6.2999999999999998
 74
0
 49
0.1
 74
0
 49
-6.2999999999999998
 74
0
  0
LTYPE
  5
4A
100
AcDbSymbolTableRecord
100
AcDbLinetypeTableRecord
  2
HIDDEN
 70
0
  3
Hidden __ __ __ __ __ __ __ __ __ __ __ __ __ __
 72
65
 73
2
 40
9.5249999999999986
 49
6.3499999999999996
 74
0
 49
-3.1749999999999998
 74
0
  0
LTYPE
  5
4B
100
AcDbSymbolTableRecord
100
AcDbLinetypeTableRecord
  2
BORDER2
 70
0
  3
Border (.5x) __.__.__.__.__.__.__.__.__.__.__.
 72
65
 73
6
 40
22.225000000000001
 49
6.3499999999999996
 74
0
 49
-3.1749999999999998
 74
0
 49
6.3499999999999996
 74
0
 49
-3.125
 74
0
 49
0.1
 74
0
 49
-3.125
 74
0
  0
LTYPE
  5
4C
100
AcDbSymbolTableRecord
100
AcDbLinetypeTableRecord
  2
ACAD_ISO04W100
 70
0
  3
ISO long-dash dot ____ . ____ . ____ . ____ . _
 72
65
 73
4
 40
30.0
 49
24.0
 74
0
 49
-2.9500000000000002
 74
0
 49
0.1
 74
0
 49
-2.9500000000000002
 74
0
  0
LTYPE
  5
4D
100
AcDbSymbolTableRecord
100
AcDbLinetypeTableRecord
  2
ACAD_ISO09W100
 70
0
  3
ISO long-dash double-short-dash ____ __ __ ____
 72
65
 73
6
 40
45.0
 49
24.0
 74
0
 49
-3.0
 74
0
 49
6.0
 74
0
 49
-3.0
 74
0
 49
6.0
 74
0
 49
-3.0
 74
0
  0
LTYPE
  5
4E
100
AcDbSymbolTableRecord
100
AcDbLinetypeTableRecord
  2
ACAD_ISO11W100
 70
0
  3
ISO double-dash dot __ __ . __ __ . __ __ . __ _
 72
65
 73
6
 40
33.0
 49
12.0
 74
0
 49
-3.0
 74
0
 49
12.0
 74
0
 49
-2.9500000000000002
 74
0
 49
0.1
 74
0
 49
-2.9500000000000002
 74
0
  0
LTYPE
  5
4F
100
AcDbSymbolTableRecord
100
AcDbLinetypeTableRecord
  2
CENTERX2
 70
0
  3
Center (2x) ________  __  ________  __  _____
 72
65
 73
4
 40
101.60000000000001
 49
63.5
 74
0
 49
-12.699999999999999
 74
0
 49
12.699999999999999
 74
0
 49
-12.699999999999999
 74
0
  0
LTYPE
  5
50
100
AcDbSymbolTableRecord
100
AcDbLinetypeTableRecord
  2
DOTX2
 70
0
  3
Dot (2x) .  .  .  .  .  .  .  .  .  .  .  .  .  .
 72
65
 73
2
 40
12.699999999999999
 49
0.1
 74
0
 49
-12.6
 74
0
  0
LTYPE
  5
51
100
AcDbSymbolTableRecord
100
AcDbLinetypeTableRecord
  2
ACAD_ISO08W100
 70
0
  3
ISO long-dash short-dash ____ __ ____ __ ____ _
 72
65
 73
4
 40
36.0
 49
24.0
 74
0
 49
-3.0
 74
0
 49
6.0
 74
0
 49
-3.0
 74
0
  0
LTYPE
  5
52
100
AcDbSymbolTableRecord
100
AcDbLinetypeTableRecord
  2
ACAD_ISO02W100
 70
0
  3
ISO dash __ __ __ __ __ __ __ __ __ __ __ __ __
 72
65
 73
2
 40
15.0
 49
12.0
 74
0
 49
-3.0
 74
0
  0
LTYPE
  5
53
100
AcDbSymbolTableRecord
100
AcDbLinetypeTableRecord
  2
BORDERX2
 70
0
  3
Border (2x) ____  ____  .  ____  ____  .  ___
 72
65
 73
6
 40
88.899999999999977
 49
25.399999999999999
 74
0
 49
-12.699999999999999
 74
0
 49
25.399999999999999
 74
0
 49
-12.649999999999999
 74
0
 49
0.1
 74
0
 49
-12.649999999999999
 74
0
  0
LTYPE
  5
54
100
AcDbSymbolTableRecord
100
AcDbLinetypeTableRecord
  2
PHANTOM2
 70
0
  3
Phantom (.5x) ___ _ _ ___ _ _ ___ _ _ ___ _ _
 72
65
 73
6
 40
31.750000000000004
 49
15.875
 74
0
 49
-3.1749999999999998
 74
0
 49
3.1749999999999998
 74
0
 49
-3.1749999999999998
 74
0
 49
3.1749999999999998
 74
0
 49
-3.1749999999999998
 74
0
  0
LTYPE
  5
55
100
AcDbSymbolTableRecord
100
AcDbLinetypeTableRecord
  2
DOT
 70
0
  3
Dot . . . . . . . . . . . . . . . . . . . . . . . .
 72
65
 73
2
 40
6.3499999999999996
 49
0.1
 74
0
 49
-6.25
 74
0
  0
LTYPE
  5
56
100
AcDbSymbolTableRecord
100
AcDbLinetypeTableRecord
  2
ACAD_ISO10W100
 70
0
  3
ISO dash dot __ . __ . __ . __ . __ . __ . __ . 
 72
65
 73
4
 40
18.0
 49
12.0
 74
0
 49
-2.9500000000000002
 74
0
 49
0.1
 74
0
 49
-2.9500000000000002
 74
0
  0
ENDTAB
  0
TABLE
  2
LAYER
  5
2
100
AcDbSymbolTable
 70
3
  0
LAYER
  5
57
100
AcDbSymbolTableRecord
100
AcDbLayerTableRecord
  2
labels - figures
 70
0
 62
7
420
16777215
  6
Continuous
370
140
390
F
  0
LAYER
  5
10
100
AcDbSymbolTableRecord
100
AcDbLayerTableRecord
  2
0
 70
0
 62
7
420
16777215
  6
Continuous
370
0
390
F
  0
LAYER
  5
58
100
AcDbSymbolTableRecord
100
AcDbLayerTableRecord
  2
labels - categories
 70
0
 62
7
420
16777215
  6
Continuous
370
200
390
F
  0
ENDTAB
  0
TABLE
  2
STYLE
  5
3
100
AcDbSymbolTable
 70
59
  0
STYLE
  5
59
100
AcDbSymbolTableRecord
100
AcDbTextStyleTableRecord
  2
Standard
 70
0
 40
0.0
 41
1.0
 50
0.0
 71
0
 42
2.5
  3

  4

1001
ACAD
1000
txt
1071
0
  0
STYLE
  5
5A
100
AcDbSymbolTableRecord
100
AcDbTextStyleTableRecord
  2
textstyle0
 70
0
 40
0.0
 41
1.0
 50
0.0
 71
0
 42
10.0
  3

  4

1001
ACAD
1000
Standard
1071
0
  0
STYLE
  5
5B
100
AcDbSymbolTableRecord
100
AcDbTextStyleTableRecord
  2
textstyle1
 70
0
 40
0.0
 41
1.0
 50
0.0
 71
0
 42
10.0
  3

  4

1001
ACAD
1000
Standard
1071
0
  0
STYLE
  5
5C
100
AcDbSymbolTableRecord
100
AcDbTextStyleTableRecord
  2
textstyle2
 70
0
 40
0.0
 41
1.0
 50
0.0
 71
0
 42
20.0
  3

  4

1001
ACAD
1000
Standard
1071
0
  0
STYLE
  5
5D
100
AcDbSymbolTableRecord
100
AcDbTextStyleTableRecord
  2
textstyle3
 70
0
 40
0.0
 41
1.0
 50
0.0
 71
0
 42
10.0
  3

  4

1001
ACAD
1000
Standard
1071
0
  0
STYLE
  5
5E
100
AcDbSymbolTableRecord
100
AcDbTextStyleTableRecord
  2
textstyle4
 70
0
 40
0.0
 41
1.0
 50
0.0
 71
0
 42
10.0
  3

  4

1001
ACAD
1000
Standard
1071
0
  0
STYLE
  5
5F
100
AcDbSymbolTableRecord
100
AcDbTextStyleTableRecord
  2
textstyle5
 70
0
 40
0.0
 41
1.0
 50
0.0
 71
0
 42
10.0
  3

  4

1001
ACAD
1000
Standard
1071
0
  0
STYLE
  5
60
100
AcDbSymbolTableRecord
100
AcDbTextStyleTableRecord
  2
textstyle6
 70
0
 40
0.0
 41
1.0
 50
0.0
 71
0
 42
10.0
  3

  4

1001
ACAD
1000
Standard
1071
0
  0
STYLE
  5
61
100
AcDbSymbolTableRecord
100
AcDbTextStyleTableRecord
  2
textstyle7
 70
0
 40
0.0
 41
1.0
 50
0.0
 71
0
 42
10.0
  3

  4

1001
ACAD
1000
Standard
1071
0
  0
STYLE
  5
62
100
AcDbSymbolTableRecord
100
AcDbTextStyleTableRecord
  2
textstyle8
 70
0
 40
0.0
 41
1.0
 50
0.0
 71
0
 42
10.0
  3

  4

1001
ACAD
1000
Standard
1071
0
  0
STYLE
  5
63
100
AcDbSymbolTableRecord
100
AcDbTextStyleTableRecord
  2
textstyle9
 70
0
 40
0.0
 41
1.0
 50
0.0
 71
0
 42
10.0
  3

  4

1001
ACAD
1000
Standard
1071
0
  0
STYLE
  5
64
100
AcDbSymbolTableRecord
100
AcDbTextStyleTableRecord
  2
textstyle10
 70
0
 40
0.0
 41
1.0
 50
0.0
 71
0
 42
10.0
  3

  4

1001
ACAD
1000
Standard
1071
0
  0
STYLE
  5
65
100
AcDbSymbolTableRecord
100
AcDbTextStyleTableRecord
  2
textstyle11
 70
0
 40
0.0
 41
1.0
 50
0.0
 71
0
 42
10.0
  3

  4

1001
ACAD
1000
Standard
1071
0
  0
STYLE
  5
66
100
AcDbSymbolTableRecord
100
AcDbTextStyleTableRecord
  2
textstyle12
 70
0
 40
0.0
 41
1.0
 50
0.0
 71
0
 42
20.0
  3

  4

1001
ACAD
1000
Standard
1071
0
  0
STYLE
  5
67
100
AcDbSymbolTableRecord
100
AcDbTextStyleTableRecord
  2
textstyle13
 70
0
 40
0.0
 41
1.0
 50
0.0
 71
0
 42
20.0
  3

  4

1001
ACAD
1000
Standard
1071
0
  0
STYLE
  5
68
100
AcDbSymbolTableRecord
100
AcDbTextStyleTableRecord
  2
textstyle14
 70
0
 40
0.0
 41
1.0
 50
0.0
 71
0
 42
20.0
  3

  4

1001
ACAD
1000
Standard
1071
0
  0
STYLE
  5
69
100
AcDbSymbolTableRecord
100
AcDbTextStyleTableRecord
  2
textstyle15
 70
0
 40
0.0
 41
1.0
 50
0.0
 71
0
 42
20.0
  3

  4

1001
ACAD
1000
Standard
1071
0
  0
STYLE
  5
6A
100
AcDbSymbolTableRecord
100
AcDbTextStyleTableRecord
  2
textstyle16
 70
0
 40
0.0
 41
1.0
 50
0.0
 71
0
 42
20.0
  3

  4

1001
ACAD
1000
Standard
1071
0
  0
STYLE
  5
6B
100
AcDbSymbolTableRecord
100
AcDbTextStyleTableRecord
  2
textstyle17
 70
0
 40
0.0
 41
1.0
 50
0.0
 71
0
 42
20.0
  3

  4

1001
ACAD
1000
Standard
1071
0
  0
STYLE
  5
6C
100
AcDbSymbolTableRecord
100
AcDbTextStyleTableRecord
  2
textstyle18
 70
0
 40
0.0
 41
1.0
 50
0.0
 71
0
 42
20.0
  3

  4

1001
ACAD
1000
Standard
1071
0
  0
STYLE
  5
6D
100
AcDbSymbolTableRecord
100
AcDbTextStyleTableRecord
  2
textstyle19
 70
0
 40
0.0
 41
1.0
 50
0.0
 71
0
 42
10.0
  3

  4

1001
ACAD
1000
Standard
1071
0
  0
STYLE
  5
6E
100
AcDbSymbolTableRecord
100
AcDbTextStyleTableRecord
  2
textstyle20
 70
0
 40
0.0
 41
1.0
 50
0.0
 71
0
 42
10.0
  3

  4

1001
ACAD
1000
Standard
1071
0
  0
STYLE
  5
6F
100
AcDbSymbolTableRecord
100
AcDbTextStyleTableRecord
  2
textstyle21
 70
0
 40
0.0
 41
1.0
 50
0.0
 71
0
 42
10.0
  3

  4

1001
ACAD
1000
Standard
1071
0
  0
STYLE
  5
70
100
AcDbSymbolTableRecord
100
AcDbTextStyleTableRecord
  2
textstyle22
 70
0
 40
0.0
 41
1.0
 50
0.0
 71
0
 42
10.0
  3

  4

1001
ACAD
1000
Standard
1071
0
  0
STYLE
  5
71
100
AcDbSymbolTableRecord
100
AcDbTextStyleTableRecord
  2
textstyle23
 70
0
 40
0.0
 41
1.0
 50
0.0
 71
0
 42
10.0
  3

  4

1001
ACAD
1000
Standard
1071
0
  0
STYLE
  5
72
100
AcDbSymbolTableRecord
100
AcDbTextStyleTableRecord
  2
textstyle24
 70
0
 40
0.0
 41
1.0
 50
0.0
 71
0
 42
20.0
  3

  4

1001
ACAD
1000
Standard
1071
0
  0
STYLE
  5
73
100
AcDbSymbolTableRecord
100
AcDbTextStyleTableRecord
  2
textstyle25
 70
0
 40
0.0
 41
1.0
 50
0.0
 71
0
 42
10.0
  3

  4

1001
ACAD
1000
Standard
1071
0
  0
STYLE
  5
74
100
AcDbSymbolTableRecord
100
AcDbTextStyleTableRecord
  2
textstyle26
 70
0
 40
0.0
 41
1.0
 50
0.0
 71
0
 42
10.0
  3

  4

1001
ACAD
1000
Standard
1071
0
  0
STYLE
  5
75
100
AcDbSymbolTableRecord
100
AcDbTextStyleTableRecord
  2
textstyle27
 70
0
 40
0.0
 41
1.0
 50
0.0
 71
0
 42
10.0
  3

  4

1001
ACAD
1000
Standard
1071
0
  0
STYLE
  5
76
100
AcDbSymbolTableRecord
100
AcDbTextStyleTableRecord
  2
textstyle28
 70
0
 40
0.0
 41
1.0
 50
0.0
 71
0
 42
10.0
  3

  4

1001
ACAD
1000
Standard
1071
0
  0
STYLE
  5
77
100
AcDbSymbolTableRecord
100
AcDbTextStyleTableRecord
  2
textstyle29
 70
0
 40
0.0
 41
1.0
 50
0.0
 71
0
 42
10.0
  3

  4

1001
ACAD
1000
Standard
1071
0
  0
STYLE
  5
78
100
AcDbSymbolTableRecord
100
AcDbTextStyleTableRecord
  2
textstyle30
 70
0
 40
0.0
 41
1.0
 50
0.0
 71
0
 42
10.0
  3

  4

1001
ACAD
1000
Standard
1071
0
  0
STYLE
  5
79
100
AcDbSymbolTableRecord
100
AcDbTextStyleTableRecord
  2
textstyle31
 70
0
 40
0.0
 41
1.0
 50
0.0
 71
0
 42
10.0
  3

  4

1001
ACAD
1000
Standard
1071
0
  0
STYLE
  5
7A
100
AcDbSymbolTableRecord
100
AcDbTextStyleTableRecord
  2
textstyle32
 70
0
 40
0.0
 41
1.0
 50
0.0
 71
0
 42
10.0
  3

  4

1001
ACAD
1000
Standard
1071
0
  0
STYLE
  5
7B
100
AcDbSymbolTableRecord
100
AcDbTextStyleTableRecord
  2
textstyle33
 70
0
 40
0.0
 41
1.0
 50
0.0
 71
0
 42
10.0
  3

  4

1001
ACAD
1000
Standard
1071
0
  0
STYLE
  5
7C
100
AcDbSymbolTableRecord
100
AcDbTextStyleTableRecord
  2
textstyle34
 70
0
 40
0.0
 41
1.0
 50
0.0
 71
0
 42
10.0
  3

  4

1001
ACAD
1000
Standard
1071
0
  0
STYLE
  5
7D
100
AcDbSymbolTableRecord
100
AcDbTextStyleTableRecord
  2
textstyle35
 70
0
 40
0.0
 41
1.0
 50
0.0
 71
0
 42
10.0
  3

  4

1001
ACAD
1000
Standard
1071
0
  0
STYLE
  5
7E
100
AcDbSymbolTableRecord
100
AcDbTextStyleTableRecord
  2
textstyle36
 70
0
 40
0.0
 41
1.0
 50
0.0
 71
0
 42
10.0
  3

  4

1001
ACAD
1000
Standard
1071
0
  0
STYLE
  5
7F
100
AcDbSymbolTableRecord
100
AcDbTextStyleTableRecord
  2
textstyle37
 70
0
 40
0.0
 41
1.0
 50
0.0
 71
0
 42
10.0
  3

  4

1001
ACAD
1000
Standard
1071
0
  0
STYLE
  5
80
100
AcDbSymbolTableRecord
100
AcDbTextStyleTableRecord
  2
textstyle38
 70
0
 40
0.0
 41
1.0
 50
0.0
 71
0
 42
10.0
  3

  4

1001
ACAD
1000
Standard
1071
0
  0
STYLE
  5
81
100
AcDbSymbolTableRecord
100
AcDbTextStyleTableRecord
  2
textstyle39
 70
0
 40
0.0
 41
1.0
 50
0.0
 71
0
 42
10.0
  3

  4

1001
ACAD
1000
Standard
1071
0
  0
STYLE
  5
82
100
AcDbSymbolTableRecord
100
AcDbTextStyleTableRecord
  2
textstyle40
 70
0
 40
0.0
 41
1.0
 50
0.0
 71
0
 42
20.0
  3

  4

1001
ACAD
1000
Standard
1071
0
  0
STYLE
  5
83
100
AcDbSymbolTableRecord
100
AcDbTextStyleTableRecord
  2
textstyle41
 70
0
 40
0.0
 41
1.0
 50
0.0
 71
0
 42
10.0
  3

  4

1001
ACAD
1000
Standard
1071
0
  0
STYLE
  5
84
100
AcDbSymbolTableRecord
100
AcDbTextStyleTableRecord
  2
textstyle42
 70
0
 40
0.0
 41
1.0
 50
0.0
 71
0
 42
10.0
  3

  4

1001
ACAD
1000
Standard
1071
0
  0
STYLE
  5
85
100
AcDbSymbolTableRecord
100
AcDbTextStyleTableRecord
  2
textstyle43
 70
0
 40
0.0
 41
1.0
 50
0.0
 71
0
 42
10.0
  3

  4

1001
ACAD
1000
Standard
1071
0
  0
STYLE
  5
86
100
AcDbSymbolTableRecord
100
AcDbTextStyleTableRecord
  2
textstyle44
 70
0
 40
0.0
 41
1.0
 50
0.0
 71
0
 42
10.0
  3

  4

1001
ACAD
1000
Standard
1071
0
  0
STYLE
  5
87
100
AcDbSymbolTableRecord
100
AcDbTextStyleTableRecord
  2
textstyle45
 70
0
 40
0.0
 41
1.0
 50
0.0
 71
0
 42
10.0
  3

  4

1001
ACAD
1000
Standard
1071
0
  0
STYLE
  5
88
100
AcDbSymbolTableRecord
100
AcDbTextStyleTableRecord
  2
textstyle46
 70
0
 40
0.0
 41
1.0
 50
0.0
 71
0
 42
10.0
  3

  4

1001
ACAD
1000
Standard
1071
0
  0
STYLE
  5
89
100
AcDbSymbolTableRecord
100
AcDbTextStyleTableRecord
  2
textstyle47
 70
0
 40
0.0
 41
1.0
 50
0.0
 71
0
 42
10.0
  3

  4

1001
ACAD
1000
Standard
1071
0
  0
STYLE
  5
8A
100
AcDbSymbolTableRecord
100
AcDbTextStyleTableRecord
  2
textstyle48
 70
0
 40
0.0
 41
1.0
 50
0.0
 71
0
 42
10.0
  3

  4

1001
ACAD
1000
Standard
1071
0
  0
STYLE
  5
8B
100
AcDbSymbolTableRecord
100
AcDbTextStyleTableRecord
  2
textstyle49
 70
0
 40
0.0
 41
1.0
 50
0.0
 71
0
 42
10.0
  3

  4

1001
ACAD
1000
Standard
1071
0
  0
STYLE
  5
8C
100
AcDbSymbolTableRecord
100
AcDbTextStyleTableRecord
  2
textstyle50
 70
0
 40
0.0
 41
1.0
 50
0.0
 71
0
 42
10.0
  3

  4

1001
ACAD
1000
Standard
1071
0
  0
STYLE
  5
8D
100
AcDbSymbolTableRecord
100
AcDbTextStyleTableRecord
  2
textstyle51
 70
0
 40
0.0
 41
1.0
 50
0.0
 71
0
 42
10.0
  3

  4

1001
ACAD
1000
Standard
1071
0
  0
STYLE
  5
8E
100
AcDbSymbolTableRecord
100
AcDbTextStyleTableRecord
  2
textstyle52
 70
0
 40
0.0
 41
1.0
 50
0.0
 71
0
 42
10.0
  3

  4

1001
ACAD
1000
Standard
1071
0
  0
STYLE
  5
8F
100
AcDbSymbolTableRecord
100
AcDbTextStyleTableRecord
  2
textstyle53
 70
0
 40
0.0
 41
1.0
 50
0.0
 71
0
 42
10.0
  3

  4

1001
ACAD
1000
Standard
1071
0
  0
STYLE
  5
90
100
AcDbSymbolTableRecord
100
AcDbTextStyleTableRecord
  2
textstyle54
 70
0
 40
0.0
 41
1.0
 50
0.0
 71
0
 42
10.0
  3

  4

1001
ACAD
1000
Standard
1071
0
  0
STYLE
  5
91
100
AcDbSymbolTableRecord
100
AcDbTextStyleTableRecord
  2
textstyle55
 70
0
 40
0.0
 41
1.0
 50
0.0
 71
0
 42
10.0
  3

  4

1001
ACAD
1000
Standard
1071
0
  0
STYLE
  5
92
100
AcDbSymbolTableRecord
100
AcDbTextStyleTableRecord
  2
textstyle56
 70
0
 40
0.0
 41
1.0
 50
0.0
 71
0
 42
10.0
  3

  4

1001
ACAD
1000
Standard
1071
0
  0
STYLE
  5
93
100
AcDbSymbolTableRecord
100
AcDbTextStyleTableRecord
  2
textstyle57
 70
0
 40
0.0
 41
1.0
 50
0.0
 71
0
 42
10.0
  3

  4

1001
ACAD
1000
Standard
1071
0
  0
ENDTAB
  0
TABLE
  2
VIEW
  5
6
100
AcDbSymbolTable
 70
0
  0
ENDTAB
  0
TABLE
  2
UCS
  5
7
100
AcDbSymbolTable
 70
0
  0
ENDTAB
  0
TABLE
  2
APPID
  5
9
100
AcDbSymbolTable
 70
1
  0
APPID
  5
12
100
AcDbSymbolTableRecord
100
AcDbRegAppTableRecord
  2
ACAD
 70
0
  0
APPID
  5
94
100
AcDbSymbolTableRecord
100
AcDbRegAppTableRecord
  2
QCAD
 70
0
  0
ENDTAB
  0
TABLE
  2
DIMSTYLE
  5
A
100
AcDbSymbolTable
 70
1
100
AcDbDimStyleTable
 71
0
  0
DIMSTYLE
105
27
100
AcDbSymbolTableRecord
100
AcDbDimStyleTableRecord
  2
Standard
 41
7.0
 42
2.5
 43
3.75
 44
5.0
 70
0
 73
0
 74
0
 77
1
 78
8
140
2.5
141
2.5
143
0.03937007874016
147
2.5
171
3
172
1
271
2
272
2
274
3
278
44
283
0
284
8
340
59
  0
ENDTAB
  0
TABLE
  2
BLOCK_RECORD
  5
1
100
AcDbSymbolTable
 70
1
  0
BLOCK_RECORD
  5
1F
100
AcDbSymbolTableRecord
100
AcDbBlockTableRecord
  2
*Model_Space
340
22
  0
BLOCK_RECORD
  5
1B
100
AcDbSymbolTableRecord
100
AcDbBlockTableRecord
  2
*Paper_Space
340
1E
  0
BLOCK_RECORD
  5
23
100
AcDbSymbolTableRecord
100
AcDbBlockTableRecord
  2
*Paper_Space0
340
26
  0
ENDTAB
  0
ENDSEC
  0
SECTION
  2
BLOCKS
  0
BLOCK
  5
20
100
AcDbEntity
  8
0
100
AcDbBlockBegin
  2
*Model_Space
 70
0
 10
0.0
 20
0.0
 30
0.0
  3
*Model_Space
  1

  0
ENDBLK
  5
21
100
AcDbEntity
  8
0
100
AcDbBlockEnd
  0
BLOCK
  5
1C
100
AcDbEntity
 67
1
  8
0
100
AcDbBlockBegin
  2
*Paper_Space
 70
0
 10
0.0
 20
0.0
 30
0.0
  3
*Paper_Space
  1

  0
ENDBLK
  5
1D
100
AcDbEntity
 67
1
  8
0
100
AcDbBlockEnd
  0
BLOCK
  5
24
100
AcDbEntity
  8
0
100
AcDbBlockBegin
  2
*Paper_Space0
 70
0
 10
0.0
 20
0.0
 30
0.0
  3
*Paper_Space0
  1

  0
ENDBLK
  5
25
100
AcDbEntity
  8
0
100
AcDbBlockEnd
  0
ENDSEC
  0
SECTION
  2
ENTITIES
  0
MTEXT
  5
95
100
AcDbEntity
100
AcDbMText
  8
labels - categories
 62
256
370
-1
 48
1.0
  6
BYLAYER
 10
-0.0000000000000349
 20
-490.0
 30
0.0
 40
20.0
 41
0.0
 71
5
 72
1
  1
cross-out
  7
textstyle24
 50
0.0
 73
2
 44
1.0
  0
MTEXT
  5
96
100
AcDbEntity
100
AcDbMText
  8
labels - categories
 62
256
370
-1
 48
1.0
  6
BYLAYER
 10
0.0
 20
110.0
 30
0.0
 40
20.0
 41
0.0
 71
5
 72
1
  1
cross-full
  7
textstyle12
 50
0.0
 73
2
 44
1.0
  0
MTEXT
  5
97
100
AcDbEntity
100
AcDbMText
  8
labels - categories
 62
256
370
-1
 48
1.0
  6
BYLAYER
 10
-0.00000000000009
 20
-190.0
 30
0.0
 40
20.0
 41
0.0
 71
5
 72
1
  1
cross-in
  7
textstyle2
 50
0.0
 73
2
 44
1.0
  0
MTEXT
  5
98
100
AcDbEntity
100
AcDbMText
  8
labels - categories
 62
256
370
-1
 48
1.0
  6
BYLAYER
 10
-0.0000000000002002
 20
-1390.0
 30
0.0
 40
20.0
 41
0.0
 71
5
 72
1
  1
tangent in
  7
textstyle13
 50
0.0
 73
2
 44
1.0
  0
MTEXT
  5
99
100
AcDbEntity
100
AcDbMText
  8
labels - categories
 62
256
370
-1
 48
1.0
  6
BYLAYER
 10
-0.0000000000002553
 20
-1690.0
 30
0.0
 40
20.0
 41
0.0
 71
5
 72
1
  1
tangent out
  7
textstyle14
 50
0.0
 73
2
 44
1.0
  0
MTEXT
  5
9A
100
AcDbEntity
100
AcDbMText
  8
labels - categories
 62
256
370
-1
 48
1.0
  6
BYLAYER
 10
-0.0000000000003104
 20
-1990.0
 30
0.0
 40
20.0
 41
0.0
 71
5
 72
1
  1
project in
  7
textstyle15
 50
0.0
 73
2
 44
1.0
  0
MTEXT
  5
9B
100
AcDbEntity
100
AcDbMText
  8
labels - categories
 62
256
370
-1
 48
1.0
  6
BYLAYER
 10
-0.2777777777798127
 20
-2288.4596080597335
 30
0.0
 40
20.0
 41
0.0
 71
5
 72
1
  1
project out
  7
textstyle16
 50
0.0
 73
2
 44
1.0
  0
LEADER
  5
9C
  8
0
 62
256
370
-1
 48
1.0
  6
BYLAYER
100
AcDbEntity
100
AcDbLeader
  3
Standard
 71
1
 72
0
 73
3
 74
0
 75
0
 40
1.0
 41
10.0
 76
2
 10
60.0
 20
0.0
 10
-60.0
 20
0.0
  0
POINT
  5
9D
100
AcDbEntity
100
AcDbPoint
  8
0
 62
256
370
-1
 48
1.0
  6
BYLAYER
 10
-60.0
 20
0.0
 30
0.0
  0
MTEXT
  5
9E
100
AcDbEntity
100
AcDbMText
  8
labels - categories
 62
256
370
-1
 48
1.0
  6
BYLAYER
 10
-0.0000000000001451
 20
-1090.0
 30
0.0
 40
20.0
 41
0.0
 71
5
 72
1
  1
touch
  7
textstyle18
 50
0.0
 73
2
 44
1.0
  0
MTEXT
  5
9F
100
AcDbEntity
100
AcDbMText
  8
labels - categories
 62
256
370
-1
 48
1.0
  6
BYLAYER
 10
-0.0000000000000496
 20
-2590.0
 30
0.0
 40
20.0
 41
0.0
 71
5
 72
1
  1
no-cross
  7
textstyle40
 50
0.0
 73
2
 44
1.0
  0
MTEXT
  5
A0
100
AcDbEntity
100
AcDbMText
  8
labels - categories
 62
256
370
-1
 48
1.0
  6
BYLAYER
 10
-0.0000000000004758
 20
-790.0
 30
0.0
 40
20.0
 41
0.0
 71
5
 72
1
  1
inside
  7
textstyle17
 50
0.0
 73
2
 44
1.0
  0
POINT
  5
A1
100
AcDbEntity
100
AcDbPoint
  8
0
 62
256
370
-1
 48
1.0
  6
BYLAYER
 10
60.0
 20
0.0
 30
0.0
  0
MTEXT
  5
A2
100
AcDbEntity
100
AcDbMText
  8
labels - figures
 62
256
370
-1
 48
1.0
  6
BYLAYER
 10
-0.0000000000003711
 20
-2320.0
 30
0.0
 40
10.0
 41
0.0
 71
5
 72
1
  1
1
  7
textstyle19
 50
0.0
 73
2
 44
1.0
  0
MTEXT
  5
A3
100
AcDbEntity
100
AcDbMText
  8
labels - figures
 62
256
370
-1
 48
1.0
  6
BYLAYER
 10
-0.000000000000316
 20
-2020.0
 30
0.0
 40
10.0
 41
0.0
 71
5
 72
1
  1
3
  7
textstyle22
 50
0.0
 73
2
 44
1.0
  0
MTEXT
  5
A4
100
AcDbEntity
100
AcDbMText
  8
labels - figures
 62
256
370
-1
 48
1.0
  6
BYLAYER
 10
-200.00000000000122
 20
-2320.0
 30
0.0
 40
10.0
 41
0.0
 71
5
 72
1
  1
2
  7
textstyle1
 50
0.0
 73
2
 44
1.0
  0
MTEXT
  5
A5
100
AcDbEntity
100
AcDbMText
  8
labels - figures
 62
256
370
-1
 48
1.0
  6
BYLAYER
 10
-400.00000000000085
 20
-2319.9999999999995
 30
0.0
 40
10.0
 41
0.0
 71
5
 72
1
  1
1
  7
textstyle0
 50
0.0
 73
2
 44
1.0
  0
MTEXT
  5
A6
100
AcDbEntity
100
AcDbMText
  8
labels - figures
 62
256
370
-1
 48
1.0
  6
BYLAYER
 10
200.00000000000048
 20
-2320.0
 30
0.0
 40
10.0
 41
0.0
 71
5
 72
1
  1
4
  7
textstyle57
 50
0.0
 73
2
 44
1.0
  0
MTEXT
  5
A7
100
AcDbEntity
100
AcDbMText
  8
labels - figures
 62
256
370
-1
 48
1.0
  6
BYLAYER
 10
399.99999999999841
 20
-2320.0000000000005
 30
0.0
 40
10.0
 41
0.0
 71
5
 72
1
  1
5
  7
textstyle56
 50
0.0
 73
2
 44
1.0
  0
MTEXT
  5
A8
100
AcDbEntity
100
AcDbMText
  8
labels - figures
 62
256
370
-1
 48
1.0
  6
BYLAYER
 10
-0.0000000000003711
 20
-2320.0
 30
0.0
 40
10.0
 41
0.0
 71
5
 72
1
  1
3
  7
textstyle55
 50
0.0
 73
2
 44
1.0
  0
MTEXT
  5
A9
100
AcDbEntity
100
AcDbMText
  8
labels - figures
 62
256
370
-1
 48
1.0
  6
BYLAYER
 10
399.99999999999903
 20
-2020.0000000000005
 30
0.0
 40
10.0
 41
0.0
 71
5
 72
1
  1
5
  7
textstyle54
 50
0.0
 73
2
 44
1.0
  0
MTEXT
  5
AA
100
AcDbEntity
100
AcDbMText
  8
labels - figures
 62
256
370
-1
 48
1.0
  6
BYLAYER
 10
199.99999999999997
 20
-2020.0
 30
0.0
 40
10.0
 41
0.0
 71
5
 72
1
  1
4
  7
textstyle53
 50
0.0
 73
2
 44
1.0
  0
MTEXT
  5
AB
100
AcDbEntity
100
AcDbMText
  8
labels - figures
 62
256
370
-1
 48
1.0
  6
BYLAYER
 10
-400.00000000000114
 20
-2019.9999999999995
 30
0.0
 40
10.0
 41
0.0
 71
5
 72
1
  1
1
  7
textstyle52
 50
0.0
 73
2
 44
1.0
  0
MTEXT
  5
AC
100
AcDbEntity
100
AcDbMText
  8
labels - figures
 62
256
370
-1
 48
1.0
  6
BYLAYER
 10
-200.0000000000006
 20
-2020.0
 30
0.0
 40
10.0
 41
0.0
 71
5
 72
1
  1
2
  7
textstyle51
 50
0.0
 73
2
 44
1.0
  0
MTEXT
  5
AD
100
AcDbEntity
100
AcDbMText
  8
labels - figures
 62
256
370
-1
 48
1.0
  6
BYLAYER
 10
-0.0000000000004813
 20
-820.0
 30
0.0
 40
10.0
 41
0.0
 71
5
 72
1
  1
8
  7
textstyle20
 50
0.0
 73
2
 44
1.0
  0
MTEXT
  5
AE
100
AcDbEntity
100
AcDbMText
  8
labels - figures
 62
256
370
-1
 48
1.0
  6
BYLAYER
 10
400.0000000000004
 20
-2620.0
 30
0.0
 40
10.0
 41
0.0
 71
5
 72
1
  1
5
  7
textstyle11
 50
0.0
 73
2
 44
1.0
  0
MTEXT
  5
AF
100
AcDbEntity
100
AcDbMText
  8
labels - figures
 62
256
370
-1
 48
1.0
  6
BYLAYER
 10
200.00000000000043
 20
-2620.0
 30
0.0
 40
10.0
 41
0.0
 71
5
 72
1
  1
4
  7
textstyle10
 50
0.0
 73
2
 44
1.0
  0
MTEXT
  5
B0
100
AcDbEntity
100
AcDbMText
  8
labels - figures
 62
256
370
-1
 48
1.0
  6
BYLAYER
 10
-399.9999999999996
 20
-2620.0
 30
0.0
 40
10.0
 41
0.0
 71
5
 72
1
  1
1
  7
textstyle9
 50
0.0
 73
2
 44
1.0
  0
MTEXT
  5
B1
100
AcDbEntity
100
AcDbMText
  8
labels - figures
 62
256
370
-1
 48
1.0
  6
BYLAYER
 10
-199.99999999999957
 20
-2620.0
 30
0.0
 40
10.0
 41
0.0
 71
5
 72
1
  1
2
  7
textstyle8
 50
0.0
 73
2
 44
1.0
  0
MTEXT
  5
B2
100
AcDbEntity
100
AcDbMText
  8
labels - figures
 62
256
370
-1
 48
1.0
  6
BYLAYER
 10
-0.0000000000000551
 20
-2620.0
 30
0.0
 40
10.0
 41
0.0
 71
5
 72
1
  1
3
  7
textstyle41
 50
0.0
 73
2
 44
1.0
  0
MTEXT
  5
B3
100
AcDbEntity
100
AcDbMText
  8
labels - figures
 62
256
370
-1
 48
1.0
  6
BYLAYER
 10
0.0000000000004263
 20
80.0
 30
0.0
 40
10.0
 41
0.0
 71
5
 72
1
  1
2
  7
textstyle21
 50
0.0
 73
2
 44
1.0
  0
MTEXT
  5
B4
100
AcDbEntity
100
AcDbMText
  8
labels - figures
 62
256
370
-1
 48
1.0
  6
BYLAYER
 10
-200.00000000000003
 20
-219.99999999999989
 30
0.0
 40
10.0
 41
0.0
 71
5
 72
1
  1
1
  7
textstyle6
 50
0.0
 73
2
 44
1.0
  0
MTEXT
  5
B5
100
AcDbEntity
100
AcDbMText
  8
labels - figures
 62
256
370
-1
 48
1.0
  6
BYLAYER
 10
400.00000000000017
 20
-220.0
 30
0.0
 40
10.0
 41
0.0
 71
5
 72
1
  1
4
  7
textstyle5
 50
0.0
 73
2
 44
1.0
  0
MTEXT
  5
B6
100
AcDbEntity
100
AcDbMText
  8
labels - figures
 62
256
370
-1
 48
1.0
  6
BYLAYER
 10
0.0000000000003663
 20
-220.0
 30
0.0
 40
10.0
 41
0.0
 71
5
 72
1
  1
2
  7
textstyle4
 50
0.0
 73
2
 44
1.0
  0
MTEXT
  5
B7
100
AcDbEntity
100
AcDbMText
  8
labels - figures
 62
256
370
-1
 48
1.0
  6
BYLAYER
 10
600.00000000000011
 20
-220.00000000000034
 30
0.0
 40
10.0
 41
0.0
 71
5
 72
1
  1
5
  7
textstyle3
 50
0.0
 73
2
 44
1.0
  0
MTEXT
  5
B8
100
AcDbEntity
100
AcDbMText
  8
labels - figures
 62
256
370
-1
 48
1.0
  6
BYLAYER
 10
600.00000000000011
 20
-520.00000000000023
 30
0.0
 40
10.0
 41
0.0
 71
5
 72
1
  1
5
  7
textstyle38
 50
0.0
 73
2
 44
1.0
  0
MTEXT
  5
B9
100
AcDbEntity
100
AcDbMText
  8
labels - figures
 62
256
370
-1
 48
1.0
  6
BYLAYER
 10
600.0
 20
80.0
 30
0.0
 40
10.0
 41
0.0
 71
5
 72
1
  1
5
  7
textstyle33
 50
0.0
 73
2
 44
1.0
  0
MTEXT
  5
BA
100
AcDbEntity
100
AcDbMText
  8
labels - figures
 62
256
370
-1
 48
1.0
  6
BYLAYER
 10
400.0
 20
80.0
 30
0.0
 40
10.0
 41
0.0
 71
5
 72
1
  1
4
  7
textstyle32
 50
0.0
 73
2
 44
1.0
  0
MTEXT
  5
BB
100
AcDbEntity
100
AcDbMText
  8
labels - figures
 62
256
370
-1
 48
1.0
  6
BYLAYER
 10
-200.0
 20
80.0
 30
0.0
 40
10.0
 41
0.0
 71
5
 72
1
  1
1
  7
textstyle31
 50
0.0
 73
2
 44
1.0
  0
MTEXT
  5
BC
100
AcDbEntity
100
AcDbMText
  8
labels - figures
 62
256
370
-1
 48
1.0
  6
BYLAYER
 10
400.00000000000011
 20
-520.0
 30
0.0
 40
10.0
 41
0.0
 71
5
 72
1
  1
4
  7
textstyle30
 50
0.0
 73
2
 44
1.0
  0
MTEXT
  5
BD
100
AcDbEntity
100
AcDbMText
  8
labels - figures
 62
256
370
-1
 48
1.0
  6
BYLAYER
 10
-199.99999999999991
 20
-520.0
 30
0.0
 40
10.0
 41
0.0
 71
5
 72
1
  1
1
  7
textstyle29
 50
0.0
 73
2
 44
1.0
  0
MTEXT
  5
BE
100
AcDbEntity
100
AcDbMText
  8
labels - figures
 62
256
370
-1
 48
1.0
  6
BYLAYER
 10
0.0000000000003504
 20
-520.0
 30
0.0
 40
10.0
 41
0.0
 71
5
 72
1
  1
2
  7
textstyle27
 50
0.0
 73
2
 44
1.0
  0
MTEXT
  5
BF
100
AcDbEntity
100
AcDbMText
  8
labels - figures
 62
256
370
-1
 48
1.0
  6
BYLAYER
 10
200.00000000000037
 20
-220.0
 30
0.0
 40
10.0
 41
0.0
 71
5
 72
1
  1
3
  7
textstyle7
 50
0.0
 73
2
 44
1.0
  0
MTEXT
  5
C0
100
AcDbEntity
100
AcDbMText
  8
labels - figures
 62
256
370
-1
 48
1.0
  6
BYLAYER
 10
200.00000000000043
 20
-520.0
 30
0.0
 40
10.0
 41
0.0
 71
5
 72
1
  1
3
  7
textstyle28
 50
0.0
 73
2
 44
1.0
  0
MTEXT
  5
C1
100
AcDbEntity
100
AcDbMText
  8
labels - figures
 62
256
370
-1
 48
1.0
  6
BYLAYER
 10
200.00000000000043
 20
80.0
 30
0.0
 40
10.0
 41
0.0
 71
5
 72
1
  1
3
  7
textstyle25
 50
0.0
 73
2
 44
1.0
  0
MTEXT
  5
C2
100
AcDbEntity
100
AcDbMText
  8
labels - figures
 62
256
370
-1
 48
1.0
  6
BYLAYER
 10
599.99999999999943
 20
-1120.0000000000005
 30
0.0
 40
10.0
 41
0.0
 71
5
 72
1
  1
7
  7
textstyle39
 50
0.0
 73
2
 44
1.0
  0
MTEXT
  5
C3
100
AcDbEntity
100
AcDbMText
  8
labels - figures
 62
256
370
-1
 48
1.0
  6
BYLAYER
 10
399.99999999999983
 20
-1120.0
 30
0.0
 40
10.0
 41
0.0
 71
5
 72
1
  1
6
  7
textstyle37
 50
0.0
 73
2
 44
1.0
  0
MTEXT
  5
C4
100
AcDbEntity
100
AcDbMText
  8
labels - figures
 62
256
370
-1
 48
1.0
  6
BYLAYER
 10
199.99999999999963
 20
-1120.0000000000002
 30
0.0
 40
10.0
 41
0.0
 71
5
 72
1
  1
4
  7
textstyle36
 50
0.0
 73
2
 44
1.0
  0
MTEXT
  5
C5
100
AcDbEntity
100
AcDbMText
  8
labels - figures
 62
256
370
-1
 48
1.0
  6
BYLAYER
 10
-400.00000000000011
 20
-1120.0
 30
0.0
 40
10.0
 41
0.0
 71
5
 72
1
  1
1
  7
textstyle35
 50
0.0
 73
2
 44
1.0
  0
MTEXT
  5
C6
100
AcDbEntity
100
AcDbMText
  8
labels - figures
 62
256
370
-1
 48
1.0
  6
BYLAYER
 10
-200.00000000000065
 20
-1120.0
 30
0.0
 40
10.0
 41
0.0
 71
5
 72
1
  1
2
  7
textstyle34
 50
0.0
 73
2
 44
1.0
  0
MTEXT
  5
C7
100
AcDbEntity
100
AcDbMText
  8
labels - figures
 62
256
370
-1
 48
1.0
  6
BYLAYER
 10
-0.0000000000001506
 20
-1120.0
 30
0.0
 40
10.0
 41
0.0
 71
5
 72
1
  1
3
  7
textstyle26
 50
0.0
 73
2
 44
1.0
  0
MTEXT
  5
C8
100
AcDbEntity
100
AcDbMText
  8
labels - figures
 62
256
370
-1
 48
1.0
  6
BYLAYER
 10
-0.0000000000002057
 20
-1420.0
 30
0.0
 40
10.0
 41
0.0
 71
5
 72
1
  1
3
  7
textstyle23
 50
0.0
 73
2
 44
1.0
  0
MTEXT
  5
C9
100
AcDbEntity
100
AcDbMText
  8
labels - figures
 62
256
370
-1
 48
1.0
  6
BYLAYER
 10
-0.0000000000002608
 20
-1720.0
 30
0.0
 40
10.0
 41
0.0
 71
5
 72
1
  1
3
  7
textstyle50
 50
0.0
 73
2
 44
1.0
  0
MTEXT
  5
CA
100
AcDbEntity
100
AcDbMText
  8
labels - figures
 62
256
370
-1
 48
1.0
  6
BYLAYER
 10
-200.00000000000023
 20
-1719.9999999999998
 30
0.0
 40
10.0
 41
0.0
 71
5
 72
1
  1
2
  7
textstyle49
 50
0.0
 73
2
 44
1.0
  0
MTEXT
  5
CB
100
AcDbEntity
100
AcDbMText
  8
labels - figures
 62
256
370
-1
 48
1.0
  6
BYLAYER
 10
400.00000000000011
 20
-1420.0000000000002
 30
0.0
 40
10.0
 41
0.0
 71
5
 72
1
  1
5
  7
textstyle48
 50
0.0
 73
2
 44
1.0
  0
MTEXT
  5
CC
100
AcDbEntity
100
AcDbMText
  8
labels - figures
 62
256
370
-1
 48
1.0
  6
BYLAYER
 10
199.99999999999991
 20
-1420.0000000000002
 30
0.0
 40
10.0
 41
0.0
 71
5
 72
1
  1
4
  7
textstyle47
 50
0.0
 73
2
 44
1.0
  0
MTEXT
  5
CD
100
AcDbEntity
100
AcDbMText
  8
labels - figures
 62
256
370
-1
 48
1.0
  6
BYLAYER
 10
-400.00000000000034
 20
-1419.9999999999995
 30
0.0
 40
10.0
 41
0.0
 71
5
 72
1
  1
1
  7
textstyle46
 50
0.0
 73
2
 44
1.0
  0
MTEXT
  5
CE
100
AcDbEntity
100
AcDbMText
  8
labels - figures
 62
256
370
-1
 48
1.0
  6
BYLAYER
 10
-200.00000000000028
 20
-1419.9999999999998
 30
0.0
 40
10.0
 41
0.0
 71
5
 72
1
  1
2
  7
textstyle45
 50
0.0
 73
2
 44
1.0
  0
MTEXT
  5
CF
100
AcDbEntity
100
AcDbMText
  8
labels - figures
 62
256
370
-1
 48
1.0
  6
BYLAYER
 10
-400.00000000000074
 20
-1719.9999999999995
 30
0.0
 40
10.0
 41
0.0
 71
5
 72
1
  1
1
  7
textstyle44
 50
0.0
 73
2
 44
1.0
  0
MTEXT
  5
D0
100
AcDbEntity
100
AcDbMText
  8
labels - figures
 62
256
370
-1
 48
1.0
  6
BYLAYER
 10
199.99999999999977
 20
-1720.0000000000002
 30
0.0
 40
10.0
 41
0.0
 71
5
 72
1
  1
4
  7
textstyle43
 50
0.0
 73
2
 44
1.0
  0
MTEXT
  5
D1
100
AcDbEntity
100
AcDbMText
  8
labels - figures
 62
256
370
-1
 48
1.0
  6
BYLAYER
 10
400.00000000000045
 20
-1720.0000000000002
 30
0.0
 40
10.0
 41
0.0
 71
5
 72
1
  1
5
  7
textstyle42
 50
0.0
 73
2
 44
1.0
  0
CIRCLE
  5
D2
100
AcDbEntity
100
AcDbCircle
  8
0
 62
256
370
-1
 48
1.0
  6
BYLAYER
 10
-0.0
 20
-0.0
 30
0.0
 40
40.0
  0
POINT
  5
D3
100
AcDbEntity
100
AcDbPoint
  8
0
 62
256
370
-1
 48
1.0
  6
BYLAYER
 10
-40.0
 20
-0.0
 30
0.0
  0
POINT
  5
D4
100
AcDbEntity
100
AcDbPoint
  8
0
 62
256
370
-1
 48
1.0
  6
BYLAYER
 10
40.0
 20
0.0
 30
0.0
  0
CIRCLE
  5
D5
100
AcDbEntity
100
AcDbCircle
  8
0
 62
256
370
-1
 48
1.0
  6
BYLAYER
 10
200.0
 20
0.0
 30
0.0
 40
44.537088778971416
  0
LEADER
  5
D6
  8
0
 62
256
370
-1
 48
1.0
  6
BYLAYER
100
AcDbEntity
100
AcDbLeader
  3
Standard
 71
1
 72
0
 73
3
 74
0
 75
0
 40
1.0
 41
10.0
 76
2
 10
250.0
 20
-40.0
 10
140.0
 20
50.0
  0
POINT
  5
D7
100
AcDbEntity
100
AcDbPoint
  8
0
 62
256
370
-1
 48
1.0
  6
BYLAYER
 10
165.98004131653371
 20
28.743602559199687
 30
0.0
  0
POINT
  5
D8
100
AcDbEntity
100
AcDbPoint
  8
0
 62
256
370
-1
 48
1.0
  6
BYLAYER
 10
234.91104779237716
 20
-27.654493648308581
 30
0.0
  0
POINT
  5
D9
100
AcDbEntity
100
AcDbPoint
  8
0
 62
256
370
-1
 48
1.0
  6
BYLAYER
 10
140.0
 20
50.0
 30
0.0
  0
POINT
  5
DA
100
AcDbEntity
100
AcDbPoint
  8
0
 62
256
370
-1
 48
1.0
  6
BYLAYER
 10
250.0
 20
-40.0
 30
0.0
  0
CIRCLE
  5
DB
100
AcDbEntity
100
AcDbCircle
  8
0
 62
256
370
-1
 48
1.0
  6
BYLAYER
 10
-200.0
 20
0.0
 30
0.0
 40
40.0
  0
LEADER
  5
DC
  8
0
 62
256
370
-1
 48
1.0
  6
BYLAYER
100
AcDbEntity
100
AcDbLeader
  3
Standard
 71
1
 72
0
 73
3
 74
0
 75
0
 40
1.0
 41
10.0
 76
2
 10
-200.0
 20
-70.0
 10
-200.0
 20
70.0
  0
POINT
  5
DD
100
AcDbEntity
100
AcDbPoint
  8
0
 62
256
370
-1
 48
1.0
  6
BYLAYER
 10
-200.0
 20
40.0
 30
0.0
  0
POINT
  5
DE
100
AcDbEntity
100
AcDbPoint
  8
0
 62
256
370
-1
 48
1.0
  6
BYLAYER
 10
-200.0
 20
-40.0
 30
0.0
  0
POINT
  5
DF
100
AcDbEntity
100
AcDbPoint
  8
0
 62
256
370
-1
 48
1.0
  6
BYLAYER
 10
-200.0
 20
70.0
 30
0.0
  0
POINT
  5
E0
100
AcDbEntity
100
AcDbPoint
  8
0
 62
256
370
-1
 48
1.0
  6
BYLAYER
 10
-200.0
 20
-70.0
 30
0.0
  0
CIRCLE
  5
E1
100
AcDbEntity
100
AcDbCircle
  8
0
 62
256
370
-1
 48
1.0
  6
BYLAYER
 10
406.75522281547762
 20
-11.639146347867637
 30
0.0
 40
33.641125130144736
  0
LEADER
  5
E2
  8
0
 62
256
370
-1
 48
1.0
  6
BYLAYER
100
AcDbEntity
100
AcDbLeader
  3
Standard
 71
1
 72
0
 73
3
 74
0
 75
0
 40
1.0
 41
10.0
 76
2
 10
473.20626533608748
 20
62.42607812822888
 10
385.98927202778708
 20
-78.782387228067051
  0
POINT
  5
E3
100
AcDbEntity
100
AcDbPoint
  8
0
 62
256
370
-1
 48
1.0
  6
BYLAYER
 10
436.80338711049404
 20
3.4880848106013715
 30
0.0
  0
POINT
  5
E4
100
AcDbEntity
100
AcDbPoint
  8
0
 62
256
370
-1
 48
1.0
  6
BYLAYER
 10
406.68180476703867
 20
-45.280191364516867
 30
0.0
  0
POINT
  5
E5
100
AcDbEntity
100
AcDbPoint
  8
0
 62
256
370
-1
 48
1.0
  6
BYLAYER
 10
473.20626533608748
 20
62.42607812822888
 30
0.0
  0
POINT
  5
E6
100
AcDbEntity
100
AcDbPoint
  8
0
 62
256
370
-1
 48
1.0
  6
BYLAYER
 10
385.98927202778708
 20
-78.782387228067051
 30
0.0
  0
CIRCLE
  5
E7
100
AcDbEntity
100
AcDbCircle
  8
0
 62
256
370
-1
 48
1.0
  6
BYLAYER
 10
598.60192917878908
 20
3.1057255545907765
 30
0.0
 40
53.743145345707639
  0
LEADER
  5
E8
  8
0
 62
256
370
-1
 48
1.0
  6
BYLAYER
100
AcDbEntity
100
AcDbLeader
  3
Standard
 71
1
 72
0
 73
3
 74
0
 75
0
 40
1.0
 41
10.0
 76
2
 10
652.43957936909794
 20
-48.328458109365073
 10
525.53654677765553
 20
8.8740452178381588
  0
POINT
  5
E9
100
AcDbEntity
100
AcDbPoint
  8
0
 62
256
370
-1
 48
1.0
  6
BYLAYER
 10
652.43957936909794
 20
-48.328458109365073
 30
0.0
  0
POINT
  5
EA
100
AcDbEntity
100
AcDbPoint
  8
0
 62
256
370
-1
 48
1.0
  6
BYLAYER
 10
631.90731146962833
 20
-39.073382806195035
 30
0.0
  0
POINT
  5
EB
100
AcDbEntity
100
AcDbPoint
  8
0
 62
256
370
-1
 48
1.0
  6
BYLAYER
 10
544.94138632551926
 20
0.1271667852783835
 30
0.0
  0
POINT
  5
EC
100
AcDbEntity
100
AcDbPoint
  8
0
 62
256
370
-1
 48
1.0
  6
BYLAYER
 10
525.53654677765553
 20
8.8740452178381588
 30
0.0
  0
CIRCLE
  5
ED
100
AcDbEntity
100
AcDbCircle
  8
0
 62
256
370
-1
 48
1.0
  6
BYLAYER
 10
0.0
 20
-300.0
 30
0.0
 40
30.0
  0
CIRCLE
  5
EE
100
AcDbEntity
100
AcDbCircle
  8
0
 62
256
370
-1
 48
1.0
  6
BYLAYER
 10
0.0
 20
-600.0
 30
0.0
 40
30.0
  0
LEADER
  5
EF
  8
0
 62
256
370
-1
 48
1.0
  6
BYLAYER
100
AcDbEntity
100
AcDbLeader
  3
Standard
 71
1
 72
0
 73
3
 74
0
 75
0
 40
1.0
 41
10.0
 76
2
 10
20.0
 20
-300.0
 10
-60.0
 20
-300.0
  0
LEADER
  5
F0
  8
0
 62
256
370
-1
 48
1.0
  6
BYLAYER
100
AcDbEntity
100
AcDbLeader
  3
Standard
 71
1
 72
0
 73
3
 74
0
 75
0
 40
1.0
 41
10.0
 76
2
 10
20.0
 20
-600.0
 10
-60.0
 20
-600.0
  0
POINT
  5
F1
100
AcDbEntity
100
AcDbPoint
  8
0
 62
256
370
-1
 48
1.0
  6
BYLAYER
 10
-30.0
 20
-300.0
 30
0.0
  0
POINT
  5
F2
100
AcDbEntity
100
AcDbPoint
  8
0
 62
256
370
-1
 48
1.0
  6
BYLAYER
 10
-30.0
 20
-600.0
 30
0.0
  0
POINT
  5
F3
100
AcDbEntity
100
AcDbPoint
  8
0
 62
256
370
-1
 48
1.0
  6
BYLAYER
 10
20.0
 20
-300.0
 30
0.0
  0
POINT
  5
F4
100
AcDbEntity
100
AcDbPoint
  8
0
 62
256
370
-1
 48
1.0
  6
BYLAYER
 10
20.0
 20
-600.0
 30
0.0
  0
POINT
  5
F5
100
AcDbEntity
100
AcDbPoint
  8
0
 62
256
370
-1
 48
1.0
  6
BYLAYER
 10
-60.0
 20
-300.0
 30
0.0
  0
POINT
  5
F6
100
AcDbEntity
100
AcDbPoint
  8
0
 62
256
370
-1
 48
1.0
  6
BYLAYER
 10
-60.0
 20
-600.0
 30
0.0
  0
CIRCLE
  5
F7
100
AcDbEntity
100
AcDbCircle
  8
0
 62
256
370
-1
 48
1.0
  6
BYLAYER
 10
-200.0
 20
-300.0
 30
0.0
 40
40.0
  0
CIRCLE
  5
F8
100
AcDbEntity
100
AcDbCircle
  8
0
 62
256
370
-1
 48
1.0
  6
BYLAYER
 10
-200.0
 20
-600.0
 30
0.0
 40
40.0
  0
LEADER
  5
F9
  8
0
 62
256
370
-1
 48
1.0
  6
BYLAYER
100
AcDbEntity
100
AcDbLeader
  3
Standard
 71
1
 72
0
 73
3
 74
0
 75
0
 40
1.0
 41
10.0
 76
2
 10
-200.0
 20
-280.0
 10
-200.0
 20
-370.0
  0
LEADER
  5
FA
  8
0
 62
256
370
-1
 48
1.0
  6
BYLAYER
100
AcDbEntity
100
AcDbLeader
  3
Standard
 71
1
 72
0
 73
3
 74
0
 75
0
 40
1.0
 41
10.0
 76
2
 10
-200.0
 20
-580.0
 10
-200.0
 20
-670.0
  0
POINT
  5
FB
100
AcDbEntity
100
AcDbPoint
  8
0
 62
256
370
-1
 48
1.0
  6
BYLAYER
 10
-200.0
 20
-280.0
 30
0.0
  0
POINT
  5
FC
100
AcDbEntity
100
AcDbPoint
  8
0
 62
256
370
-1
 48
1.0
  6
BYLAYER
 10
-200.0
 20
-580.0
 30
0.0
  0
POINT
  5
FD
100
AcDbEntity
100
AcDbPoint
  8
0
 62
256
370
-1
 48
1.0
  6
BYLAYER
 10
-200.0
 20
-370.0
 30
0.0
  0
POINT
  5
FE
100
AcDbEntity
100
AcDbPoint
  8
0
 62
256
370
-1
 48
1.0
  6
BYLAYER
 10
-200.0
 20
-670.0
 30
0.0
  0
POINT
  5
FF
100
AcDbEntity
100
AcDbPoint
  8
0
 62
256
370
-1
 48
1.0
  6
BYLAYER
 10
-200.0
 20
-340.0
 30
0.0
  0
POINT
  5
100
100
AcDbEntity
100
AcDbPoint
  8
0
 62
256
370
-1
 48
1.0
  6
BYLAYER
 10
-200.0
 20
-640.0
 30
0.0
  0
CIRCLE
  5
101
100
AcDbEntity
100
AcDbCircle
  8
0
 62
256
370
-1
 48
1.0
  6
BYLAYER
 10
204.33088862128648
 20
-295.08382665647014
 30
0.0
 40
37.657036152002412
  0
CIRCLE
  5
102
100
AcDbEntity
100
AcDbCircle
  8
0
 62
256
370
-1
 48
1.0
  6
BYLAYER
 10
204.33088862128648
 20
-595.08382665647014
 30
0.0
 40
37.657036152002412
  0
CIRCLE
  5
103
100
AcDbEntity
100
AcDbCircle
  8
0
 62
256
370
-1
 48
1.0
  6
BYLAYER
 10
405.4529675465119
 20
-294.1224400459289
 30
0.0
 40
21.178454575823938
  0
CIRCLE
  5
104
100
AcDbEntity
100
AcDbCircle
  8
0
 62
256
370
-1
 48
1.0
  6
BYLAYER
 10
405.4529675465119
 20
-594.1224400459289
 30
0.0
 40
21.178454575823938
  0
CIRCLE
  5
105
100
AcDbEntity
100
AcDbCircle
  8
0
 62
256
370
-1
 48
1.0
  6
BYLAYER
 10
594.65385250102611
 20
-287.7772884163569
 30
0.0
 40
46.950720469479187
  0
CIRCLE
  5
106
100
AcDbEntity
100
AcDbCircle
  8
0
 62
256
370
-1
 48
1.0
  6
BYLAYER
 10
594.65385250102611
 20
-587.7772884163569
 30
0.0
 40
46.950720469479187
  0
LEADER
  5
107
  8
0
 62
256
370
-1
 48
1.0
  6
BYLAYER
100
AcDbEntity
100
AcDbLeader
  3
Standard
 71
1
 72
0
 73
3
 74
0
 75
0
 40
1.0
 41
10.0
 76
2
 10
256.80721537106911
 20
-258.88569799637162
 10
219.79383086523174
 20
-299.26393563910335
  0
LEADER
  5
108
  8
0
 62
256
370
-1
 48
1.0
  6
BYLAYER
100
AcDbEntity
100
AcDbLeader
  3
Standard
 71
1
 72
0
 73
3
 74
0
 75
0
 40
1.0
 41
10.0
 76
2
 10
256.80721537106911
 20
-558.88569799637162
 10
219.79383086523174
 20
-599.26393563910335
  0
LEADER
  5
109
  8
0
 62
256
370
-1
 48
1.0
  6
BYLAYER
100
AcDbEntity
100
AcDbLeader
  3
Standard
 71
1
 72
0
 73
3
 74
0
 75
0
 40
1.0
 41
10.0
 76
2
 10
399.09243373117124
 20
-307.43572182870389
 10
367.84736888858129
 20
-268.01887079651328
  0
LEADER
  5
10A
  8
0
 62
256
370
-1
 48
1.0
  6
BYLAYER
100
AcDbEntity
100
AcDbLeader
  3
Standard
 71
1
 72
0
 73
3
 74
0
 75
0
 40
1.0
 41
10.0
 76
2
 10
399.09243373117124
 20
-607.43572182870389
 10
367.84736888858129
 20
-568.01887079651328
  0
LEADER
  5
10B
  8
0
 62
256
370
-1
 48
1.0
  6
BYLAYER
100
AcDbEntity
100
AcDbLeader
  3
Standard
 71
1
 72
0
 73
3
 74
0
 75
0
 40
1.0
 41
10.0
 76
2
 10
541.37765209127338
 20
-373.29070465077803
 10
572.62271693386333
 20
-255.52084485947717
  0
LEADER
  5
10C
  8
0
 62
256
370
-1
 48
1.0
  6
BYLAYER
100
AcDbEntity
100
AcDbLeader
  3
Standard
 71
1
 72
0
 73
3
 74
0
 75
0
 40
1.0
 41
10.0
 76
2
 10
541.37765209127338
 20
-673.29070465077803
 10
572.62271693386333
 20
-555.52084485947717
  0
POINT
  5
10D
100
AcDbEntity
100
AcDbPoint
  8
0
 62
256
370
-1
 48
1.0
  6
BYLAYER
 10
219.79383086523174
 20
-299.26393563910335
 30
0.0
  0
POINT
  5
10E
100
AcDbEntity
100
AcDbPoint
  8
0
 62
256
370
-1
 48
1.0
  6
BYLAYER
 10
219.79383086523174
 20
-599.26393563910335
 30
0.0
  0
POINT
  5
10F
100
AcDbEntity
100
AcDbPoint
  8
0
 62
256
370
-1
 48
1.0
  6
BYLAYER
 10
238.37649684531522
 20
-278.99193638810311
 30
0.0
  0
POINT
  5
110
100
AcDbEntity
100
AcDbPoint
  8
0
 62
256
370
-1
 48
1.0
  6
BYLAYER
 10
238.37649684531522
 20
-578.99193638810311
 30
0.0
  0
POINT
  5
111
100
AcDbEntity
100
AcDbPoint
  8
0
 62
256
370
-1
 48
1.0
  6
BYLAYER
 10
256.80721537106911
 20
-258.88569799637162
 30
0.0
  0
POINT
  5
112
100
AcDbEntity
100
AcDbPoint
  8
0
 62
256
370
-1
 48
1.0
  6
BYLAYER
 10
256.80721537106911
 20
-558.88569799637162
 30
0.0
  0
POINT
  5
113
100
AcDbEntity
100
AcDbPoint
  8
0
 62
256
370
-1
 48
1.0
  6
BYLAYER
 10
399.09243373117124
 20
-307.43572182870389
 30
0.0
  0
POINT
  5
114
100
AcDbEntity
100
AcDbPoint
  8
0
 62
256
370
-1
 48
1.0
  6
BYLAYER
 10
399.09243373117124
 20
-607.43572182870389
 30
0.0
  0
POINT
  5
115
100
AcDbEntity
100
AcDbPoint
  8
0
 62
256
370
-1
 48
1.0
  6
BYLAYER
 10
367.84736888858129
 20
-268.01887079651328
 30
0.0
  0
POINT
  5
116
100
AcDbEntity
100
AcDbPoint
  8
0
 62
256
370
-1
 48
1.0
  6
BYLAYER
 10
367.84736888858129
 20
-568.01887079651328
 30
0.0
  0
POINT
  5
117
100
AcDbEntity
100
AcDbPoint
  8
0
 62
256
370
-1
 48
1.0
  6
BYLAYER
 10
384.80507292490097
 20
-289.41166665771675
 30
0.0
  0
POINT
  5
118
100
AcDbEntity
100
AcDbPoint
  8
0
 62
256
370
-1
 48
1.0
  6
BYLAYER
 10
384.80507292490097
 20
-589.41166665771675
 30
0.0
  0
POINT
  5
119
100
AcDbEntity
100
AcDbPoint
  8
0
 62
256
370
-1
 48
1.0
  6
BYLAYER
 10
572.62271693386333
 20
-255.52084485947717
 30
0.0
  0
POINT
  5
11A
100
AcDbEntity
100
AcDbPoint
  8
0
 62
256
370
-1
 48
1.0
  6
BYLAYER
 10
572.62271693386333
 20
-555.52084485947717
 30
0.0
  0
POINT
  5
11B
100
AcDbEntity
100
AcDbPoint
  8
0
 62
256
370
-1
 48
1.0
  6
BYLAYER
 10
556.72366323604103
 20
-315.44804725896154
 30
0.0
  0
POINT
  5
11C
100
AcDbEntity
100
AcDbPoint
  8
0
 62
256
370
-1
 48
1.0
  6
BYLAYER
 10
556.72366323604103
 20
-615.44804725896154
 30
0.0
  0
POINT
  5
11D
100
AcDbEntity
100
AcDbPoint
  8
0
 62
256
370
-1
 48
1.0
  6
BYLAYER
 10
541.37765209127338
 20
-373.29070465077803
 30
0.0
  0
POINT
  5
11E
100
AcDbEntity
100
AcDbPoint
  8
0
 62
256
370
-1
 48
1.0
  6
BYLAYER
 10
541.37765209127338
 20
-673.29070465077803
 30
0.0
  0
CIRCLE
  5
11F
100
AcDbEntity
100
AcDbCircle
  8
0
 62
256
370
-1
 48
1.0
  6
BYLAYER
 10
0.0
 20
-1200.0
 30
0.0
 40
40.0
  0
CIRCLE
  5
120
100
AcDbEntity
100
AcDbCircle
  8
0
 62
256
370
-1
 48
1.0
  6
BYLAYER
 10
-200.0
 20
-1200.0
 30
0.0
 40
30.0
  0
CIRCLE
  5
121
100
AcDbEntity
100
AcDbCircle
  8
0
 62
256
370
-1
 48
1.0
  6
BYLAYER
 10
-400.0
 20
-1200.0
 30
0.0
 40
40.0
  0
CIRCLE
  5
122
100
AcDbEntity
100
AcDbCircle
  8
0
 62
256
370
-1
 48
1.0
  6
BYLAYER
 10
200.0
 20
-1200.0
 30
0.0
 40
22.360679774997898
  0
CIRCLE
  5
123
100
AcDbEntity
100
AcDbCircle
  8
0
 62
256
370
-1
 48
1.0
  6
BYLAYER
 10
400.0
 20
-1200.0
 30
0.0
 40
36.055512754639892
  0
POINT
  5
124
100
AcDbEntity
100
AcDbPoint
  8
0
 62
256
370
-1
 48
1.0
  6
BYLAYER
 10
-440.0
 20
-1200.0
 30
0.0
  0
POINT
  5
125
100
AcDbEntity
100
AcDbPoint
  8
0
 62
256
370
-1
 48
1.0
  6
BYLAYER
 10
0.0
 20
-1240.0
 30
0.0
  0
POINT
  5
126
100
AcDbEntity
100
AcDbPoint
  8
0
 62
256
370
-1
 48
1.0
  6
BYLAYER
 10
177.63932022500211
 20
-1200.0
 30
0.0
  0
POINT
  5
127
100
AcDbEntity
100
AcDbPoint
  8
0
 62
256
370
-1
 48
1.0
  6
BYLAYER
 10
436.05551275463989
 20
-1200.0
 30
0.0
  0
POINT
  5
128
100
AcDbEntity
100
AcDbPoint
  8
0
 62
256
370
-1
 48
1.0
  6
BYLAYER
 10
630.0
 20
-1200.0
 30
0.0
  0
LEADER
  5
129
  8
0
 62
256
370
-1
 48
1.0
  6
BYLAYER
100
AcDbEntity
100
AcDbLeader
  3
Standard
 71
1
 72
0
 73
3
 74
0
 75
0
 40
1.0
 41
10.0
 76
2
 10
-440.0
 20
-1200.0
 10
-500.0
 20
-1200.0
  0
LEADER
  5
12A
  8
0
 62
256
370
-1
 48
1.0
  6
BYLAYER
100
AcDbEntity
100
AcDbLeader
  3
Standard
 71
1
 72
0
 73
3
 74
0
 75
0
 40
1.0
 41
10.0
 76
2
 10
80.0
 20
-1240.0
 10
0.0
 20
-1240.0
  0
LEADER
  5
12B
  8
0
 62
256
370
-1
 48
1.0
  6
BYLAYER
100
AcDbEntity
100
AcDbLeader
  3
Standard
 71
1
 72
0
 73
3
 74
0
 75
0
 40
1.0
 41
10.0
 76
2
 10
177.63932022500211
 20
-1200.0
 10
135.2897000651094
 20
-1154.6057930395539
  0
LEADER
  5
12C
  8
0
 62
256
370
-1
 48
1.0
  6
BYLAYER
100
AcDbEntity
100
AcDbLeader
  3
Standard
 71
1
 72
0
 73
3
 74
0
 75
0
 40
1.0
 41
10.0
 76
2
 10
464.94468910756757
 20
-1265.2237996275503
 10
436.05551275463989
 20
-1200.0
  0
LEADER
  5
12D
  8
0
 62
256
370
-1
 48
1.0
  6
BYLAYER
100
AcDbEntity
100
AcDbLeader
  3
Standard
 71
1
 72
0
 73
3
 74
0
 75
0
 40
1.0
 41
10.0
 76
2
 10
675.5285651987009
 20
-1177.2103535568217
 10
630.0
 20
-1200.0
  0
POINT
  5
12E
100
AcDbEntity
100
AcDbPoint
  8
0
 62
256
370
-1
 48
1.0
  6
BYLAYER
 10
-200.0
 20
-1230.0
 30
0.0
  0
LEADER
  5
12F
  8
0
 62
256
370
-1
 48
1.0
  6
BYLAYER
100
AcDbEntity
100
AcDbLeader
  3
Standard
 71
1
 72
0
 73
3
 74
0
 75
0
 40
1.0
 41
10.0
 76
2
 10
-200.0
 20
-1280.0
 10
-200.0
 20
-1230.0
  0
POINT
  5
130
100
AcDbEntity
100
AcDbPoint
  8
0
 62
256
370
-1
 48
1.0
  6
BYLAYER
 10
-200.0
 20
-1280.0
 30
0.0
  0
POINT
  5
131
100
AcDbEntity
100
AcDbPoint
  8
0
 62
256
370
-1
 48
1.0
  6
BYLAYER
 10
-500.0
 20
-1200.0
 30
0.0
  0
POINT
  5
132
100
AcDbEntity
100
AcDbPoint
  8
0
 62
256
370
-1
 48
1.0
  6
BYLAYER
 10
80.0
 20
-1240.0
 30
0.0
  0
POINT
  5
133
100
AcDbEntity
100
AcDbPoint
  8
0
 62
256
370
-1
 48
1.0
  6
BYLAYER
 10
135.2897000651094
 20
-1154.6057930395539
 30
0.0
  0
POINT
  5
134
100
AcDbEntity
100
AcDbPoint
  8
0
 62
256
370
-1
 48
1.0
  6
BYLAYER
 10
464.94468910756757
 20
-1265.2237996275503
 30
0.0
  0
POINT
  5
135
100
AcDbEntity
100
AcDbPoint
  8
0
 62
256
370
-1
 48
1.0
  6
BYLAYER
 10
675.5285651987009
 20
-1177.2103535568217
 30
0.0
  0
CIRCLE
  5
136
100
AcDbEntity
100
AcDbCircle
  8
0
 62
256
370
-1
 48
1.0
  6
BYLAYER
 10
610.0
 20
-1220.0
 30
0.0
 40
28.284271247461902
  0
CIRCLE
  5
137
100
AcDbEntity
100
AcDbCircle
  8
0
 62
256
370
-1
 48
1.0
  6
BYLAYER
 10
0.0
 20
-1800.0
 30
0.0
 40
30.0
  0
CIRCLE
  5
138
100
AcDbEntity
100
AcDbCircle
  8
0
 62
256
370
-1
 48
1.0
  6
BYLAYER
 10
0.0
 20
-1500.0
 30
0.0
 40
30.0
  0
CIRCLE
  5
139
100
AcDbEntity
100
AcDbCircle
  8
0
 62
256
370
-1
 48
1.0
  6
BYLAYER
 10
200.0
 20
-1800.0
 30
0.0
 40
40.0
  0
CIRCLE
  5
13A
100
AcDbEntity
100
AcDbCircle
  8
0
 62
256
370
-1
 48
1.0
  6
BYLAYER
 10
200.0
 20
-1500.0
 30
0.0
 40
40.0
  0
CIRCLE
  5
13B
100
AcDbEntity
100
AcDbCircle
  8
0
 62
256
370
-1
 48
1.0
  6
BYLAYER
 10
-200.0
 20
-1800.0
 30
0.0
 40
40.0
  0
CIRCLE
  5
13C
100
AcDbEntity
100
AcDbCircle
  8
0
 62
256
370
-1
 48
1.0
  6
BYLAYER
 10
-200.0
 20
-1500.0
 30
0.0
 40
40.0
  0
CIRCLE
  5
13D
100
AcDbEntity
100
AcDbCircle
  8
0
 62
256
370
-1
 48
1.0
  6
BYLAYER
 10
-400.0
 20
-1800.0
 30
0.0
 40
30.0
  0
CIRCLE
  5
13E
100
AcDbEntity
100
AcDbCircle
  8
0
 62
256
370
-1
 48
1.0
  6
BYLAYER
 10
-400.0
 20
-1500.0
 30
0.0
 40
30.0
  0
CIRCLE
  5
13F
100
AcDbEntity
100
AcDbCircle
  8
0
 62
256
370
-1
 48
1.0
  6
BYLAYER
 10
400.0
 20
-1800.0
 30
0.0
 40
30.0
  0
CIRCLE
  5
140
100
AcDbEntity
100
AcDbCircle
  8
0
 62
256
370
-1
 48
1.0
  6
BYLAYER
 10
400.0
 20
-1500.0
 30
0.0
 40
30.0
  0
LEADER
  5
141
  8
0
 62
256
370
-1
 48
1.0
  6
BYLAYER
100
AcDbEntity
100
AcDbLeader
  3
Standard
 71
1
 72
0
 73
3
 74
0
 75
0
 40
1.0
 41
10.0
 76
2
 10
30.0
 20
-1530.0
 10
80.0
 20
-1530.0
  0
POINT
  5
142
100
AcDbEntity
100
AcDbPoint
  8
0
 62
256
370
-1
 48
1.0
  6
BYLAYER
 10
80.0
 20
-1830.0
 30
0.0
  0
POINT
  5
143
100
AcDbEntity
100
AcDbPoint
  8
0
 62
256
370
-1
 48
1.0
  6
BYLAYER
 10
80.0
 20
-1530.0
 30
0.0
  0
POINT
  5
144
100
AcDbEntity
100
AcDbPoint
  8
0
 62
256
370
-1
 48
1.0
  6
BYLAYER
 10
30.0
 20
-1830.0
 30
0.0
  0
POINT
  5
145
100
AcDbEntity
100
AcDbPoint
  8
0
 62
256
370
-1
 48
1.0
  6
BYLAYER
 10
30.0
 20
-1530.0
 30
0.0
  0
POINT
  5
146
100
AcDbEntity
100
AcDbPoint
  8
0
 62
256
370
-1
 48
1.0
  6
BYLAYER
 10
-0.0000000000000018
 20
-1830.0
 30
0.0
  0
POINT
  5
147
100
AcDbEntity
100
AcDbPoint
  8
0
 62
256
370
-1
 48
1.0
  6
BYLAYER
 10
-0.0000000000000018
 20
-1530.0
 30
0.0
  0
LEADER
  5
148
  8
0
 62
256
370
-1
 48
1.0
  6
BYLAYER
100
AcDbEntity
100
AcDbLeader
  3
Standard
 71
1
 72
0
 73
3
 74
0
 75
0
 40
1.0
 41
10.0
 76
2
 10
240.0
 20
-1530.0
 10
240.0
 20
-1590.0
  0
POINT
  5
149
100
AcDbEntity
100
AcDbPoint
  8
0
 62
256
370
-1
 48
1.0
  6
BYLAYER
 10
240.0
 20
-1890.0
 30
0.0
  0
POINT
  5
14A
100
AcDbEntity
100
AcDbPoint
  8
0
 62
256
370
-1
 48
1.0
  6
BYLAYER
 10
240.0
 20
-1590.0
 30
0.0
  0
POINT
  5
14B
100
AcDbEntity
100
AcDbPoint
  8
0
 62
256
370
-1
 48
1.0
  6
BYLAYER
 10
240.0
 20
-1830.0
 30
0.0
  0
POINT
  5
14C
100
AcDbEntity
100
AcDbPoint
  8
0
 62
256
370
-1
 48
1.0
  6
BYLAYER
 10
240.0
 20
-1530.0
 30
0.0
  0
POINT
  5
14D
100
AcDbEntity
100
AcDbPoint
  8
0
 62
256
370
-1
 48
1.0
  6
BYLAYER
 10
240.0
 20
-1800.0
 30
0.0
  0
POINT
  5
14E
100
AcDbEntity
100
AcDbPoint
  8
0
 62
256
370
-1
 48
1.0
  6
BYLAYER
 10
240.0
 20
-1500.0
 30
0.0
  0
LEADER
  5
14F
  8
0
 62
256
370
-1
 48
1.0
  6
BYLAYER
100
AcDbEntity
100
AcDbLeader
  3
Standard
 71
1
 72
0
 73
3
 74
0
 75
0
 40
1.0
 41
10.0
 76
2
 10
-240.0
 20
-1480.0
 10
-240.0
 20
-1440.0
  0
POINT
  5
150
100
AcDbEntity
100
AcDbPoint
  8
0
 62
256
370
-1
 48
1.0
  6
BYLAYER
 10
-240.0
 20
-1740.0
 30
0.0
  0
POINT
  5
151
100
AcDbEntity
100
AcDbPoint
  8
0
 62
256
370
-1
 48
1.0
  6
BYLAYER
 10
-240.0
 20
-1440.0
 30
0.0
  0
POINT
  5
152
100
AcDbEntity
100
AcDbPoint
  8
0
 62
256
370
-1
 48
1.0
  6
BYLAYER
 10
-240.0
 20
-1780.0
 30
0.0
  0
POINT
  5
153
100
AcDbEntity
100
AcDbPoint
  8
0
 62
256
370
-1
 48
1.0
  6
BYLAYER
 10
-240.0
 20
-1480.0
 30
0.0
  0
POINT
  5
154
100
AcDbEntity
100
AcDbPoint
  8
0
 62
256
370
-1
 48
1.0
  6
BYLAYER
 10
-240.0
 20
-1800.0
 30
0.0
  0
POINT
  5
155
100
AcDbEntity
100
AcDbPoint
  8
0
 62
256
370
-1
 48
1.0
  6
BYLAYER
 10
-240.0
 20
-1500.0
 30
0.0
  0
POINT
  5
156
100
AcDbEntity
100
AcDbPoint
  8
0
 62
256
370
-1
 48
1.0
  6
BYLAYER
 10
415.57736839871399
 20
-1774.3612482017797
 30
0.0
  0
POINT
  5
157
100
AcDbEntity
100
AcDbPoint
  8
0
 62
256
370
-1
 48
1.0
  6
BYLAYER
 10
415.57736839871399
 20
-1474.3612482017797
 30
0.0
  0
POINT
  5
158
100
AcDbEntity
100
AcDbPoint
  8
0
 62
256
370
-1
 48
1.0
  6
BYLAYER
 10
415.57736839871421
 20
-1774.3612482017797
 30
0.0
  0
POINT
  5
159
100
AcDbEntity
100
AcDbPoint
  8
0
 62
256
370
-1
 48
1.0
  6
BYLAYER
 10
415.57736839871421
 20
-1474.3612482017797
 30
0.0
  0
POINT
  5
15A
100
AcDbEntity
100
AcDbPoint
  8
0
 62
256
370
-1
 48
1.0
  6
BYLAYER
 10
477.62577298319513
 20
-1819.2582167061564
 30
0.0
  0
POINT
  5
15B
100
AcDbEntity
100
AcDbPoint
  8
0
 62
256
370
-1
 48
1.0
  6
BYLAYER
 10
477.62577298319513
 20
-1519.2582167061564
 30
0.0
  0
POINT
  5
15C
100
AcDbEntity
100
AcDbPoint
  8
0
 62
256
370
-1
 48
1.0
  6
BYLAYER
 10
436.2145921129374
 20
-1789.2939251871119
 30
0.0
  0
POINT
  5
15D
100
AcDbEntity
100
AcDbPoint
  8
0
 62
256
370
-1
 48
1.0
  6
BYLAYER
 10
436.2145921129374
 20
-1489.2939251871119
 30
0.0
  0
LEADER
  5
15E
  8
0
 62
256
370
-1
 48
1.0
  6
BYLAYER
100
AcDbEntity
100
AcDbLeader
  3
Standard
 71
1
 72
0
 73
3
 74
0
 75
0
 40
1.0
 41
10.0
 76
2
 10
436.2145921129374
 20
-1489.2939251871119
 10
477.62577298319513
 20
-1519.2582167061564
  0
POINT
  5
15F
100
AcDbEntity
100
AcDbPoint
  8
0
 62
256
370
-1
 48
1.0
  6
BYLAYER
 10
-466.68766071422459
 20
-1770.0
 30
0.0
  0
POINT
  5
160
100
AcDbEntity
100
AcDbPoint
  8
0
 62
256
370
-1
 48
1.0
  6
BYLAYER
 10
-466.68766071422459
 20
-1470.0
 30
0.0
  0
POINT
  5
161
100
AcDbEntity
100
AcDbPoint
  8
0
 62
256
370
-1
 48
1.0
  6
BYLAYER
 10
-433.55194889029372
 20
-1770.0
 30
0.0
  0
POINT
  5
162
100
AcDbEntity
100
AcDbPoint
  8
0
 62
256
370
-1
 48
1.0
  6
BYLAYER
 10
-433.55194889029372
 20
-1470.0
 30
0.0
  0
LEADER
  5
163
  8
0
 62
256
370
-1
 48
1.0
  6
BYLAYER
100
AcDbEntity
100
AcDbLeader
  3
Standard
 71
1
 72
0
 73
3
 74
0
 75
0
 40
1.0
 41
10.0
 76
2
 10
-433.55194889029372
 20
-1470.0
 10
-466.68766071422459
 20
-1470.0
  0
POINT
  5
164
100
AcDbEntity
100
AcDbPoint
  8
0
 62
256
370
-1
 48
1.0
  6
BYLAYER
 10
-400.00000000000006
 20
-1770.0
 30
0.0
  0
POINT
  5
165
100
AcDbEntity
100
AcDbPoint
  8
0
 62
256
370
-1
 48
1.0
  6
BYLAYER
 10
-400.00000000000006
 20
-1470.0
 30
0.0
  0
LEADER
  5
166
  8
0
 62
256
370
-1
 48
1.0
  6
BYLAYER
100
AcDbEntity
100
AcDbLeader
  3
Standard
 71
1
 72
0
 73
3
 74
0
 75
0
 40
1.0
 41
10.0
 76
2
 10
-466.68766071422459
 20
-1770.0
 10
-433.55194889029372
 20
-1770.0
  0
LEADER
  5
167
  8
0
 62
256
370
-1
 48
1.0
  6
BYLAYER
100
AcDbEntity
100
AcDbLeader
  3
Standard
 71
1
 72
0
 73
3
 74
0
 75
0
 40
1.0
 41
10.0
 76
2
 10
-240.0
 20
-1740.0
 10
-240.0
 20
-1780.0
  0
LEADER
  5
168
  8
0
 62
256
370
-1
 48
1.0
  6
BYLAYER
100
AcDbEntity
100
AcDbLeader
  3
Standard
 71
1
 72
0
 73
3
 74
0
 75
0
 40
1.0
 41
10.0
 76
2
 10
80.0
 20
-1830.0
 10
30.0
 20
-1830.0
  0
LEADER
  5
169
  8
0
 62
256
370
-1
 48
1.0
  6
BYLAYER
100
AcDbEntity
100
AcDbLeader
  3
Standard
 71
1
 72
0
 73
3
 74
0
 75
0
 40
1.0
 41
10.0
 76
2
 10
240.0
 20
-1890.0
 10
240.0
 20
-1830.0
  0
LEADER
  5
16A
  8
0
 62
256
370
-1
 48
1.0
  6
BYLAYER
100
AcDbEntity
100
AcDbLeader
  3
Standard
 71
1
 72
0
 73
3
 74
0
 75
0
 40
1.0
 41
10.0
 76
2
 10
477.62577298319513
 20
-1819.2582167061564
 10
436.2145921129374
 20
-1789.2939251871119
  0
CIRCLE
  5
16B
100
AcDbEntity
100
AcDbCircle
  8
0
 62
256
370
-1
 48
1.0
  6
BYLAYER
 10
0.0
 20
-2400.0
 30
0.0
 40
40.0
  0
CIRCLE
  5
16C
100
AcDbEntity
100
AcDbCircle
  8
0
 62
256
370
-1
 48
1.0
  6
BYLAYER
 10
0.0
 20
-2100.0
 30
0.0
 40
40.0
  0
CIRCLE
  5
16D
100
AcDbEntity
100
AcDbCircle
  8
0
 62
256
370
-1
 48
1.0
  6
BYLAYER
 10
-200.0
 20
-2400.0
 30
0.0
 40
31.622776601683793
  0
CIRCLE
  5
16E
100
AcDbEntity
100
AcDbCircle
  8
0
 62
256
370
-1
 48
1.0
  6
BYLAYER
 10
-200.0
 20
-2100.0
 30
0.0
 40
31.622776601683793
  0
CIRCLE
  5
16F
100
AcDbEntity
100
AcDbCircle
  8
0
 62
256
370
-1
 48
1.0
  6
BYLAYER
 10
-400.0
 20
-2400.0
 30
0.0
 40
50.990195135927848
  0
CIRCLE
  5
170
100
AcDbEntity
100
AcDbCircle
  8
0
 62
256
370
-1
 48
1.0
  6
BYLAYER
 10
-400.0
 20
-2100.0
 30
0.0
 40
50.990195135927848
  0
CIRCLE
  5
171
100
AcDbEntity
100
AcDbCircle
  8
0
 62
256
370
-1
 48
1.0
  6
BYLAYER
 10
213.50918376839806
 20
-2411.988799957725
 30
0.0
 40
30.733607165782132
  0
CIRCLE
  5
172
100
AcDbEntity
100
AcDbCircle
  8
0
 62
256
370
-1
 48
1.0
  6
BYLAYER
 10
213.50918376839806
 20
-2111.988799957725
 30
0.0
 40
30.733607165782132
  0
CIRCLE
  5
173
100
AcDbEntity
100
AcDbCircle
  8
0
 62
256
370
-1
 48
1.0
  6
BYLAYER
 10
392.92699857404466
 20
-2393.7147632645574
 30
0.0
 40
46.076083847191029
  0
CIRCLE
  5
174
100
AcDbEntity
100
AcDbCircle
  8
0
 62
256
370
-1
 48
1.0
  6
BYLAYER
 10
392.92699857404466
 20
-2093.7147632645574
 30
0.0
 40
46.076083847191029
  0
POINT
  5
175
100
AcDbEntity
100
AcDbPoint
  8
0
 62
256
370
-1
 48
1.0
  6
BYLAYER
 10
-444.92366887375226
 20
-2444.9236688737524
 30
0.0
  0
POINT
  5
176
100
AcDbEntity
100
AcDbPoint
  8
0
 62
256
370
-1
 48
1.0
  6
BYLAYER
 10
-444.92366887375226
 20
-2144.9236688737524
 30
0.0
  0
POINT
  5
177
100
AcDbEntity
100
AcDbPoint
  8
0
 62
256
370
-1
 48
1.0
  6
BYLAYER
 10
-500.0
 20
-2500.0
 30
0.0
  0
POINT
  5
178
100
AcDbEntity
100
AcDbPoint
  8
0
 62
256
370
-1
 48
1.0
  6
BYLAYER
 10
-500.0
 20
-2200.0
 30
0.0
  0
POINT
  5
179
100
AcDbEntity
100
AcDbPoint
  8
0
 62
256
370
-1
 48
1.0
  6
BYLAYER
 10
-200.0
 20
-2444.1506430721261
 30
0.0
  0
POINT
  5
17A
100
AcDbEntity
100
AcDbPoint
  8
0
 62
256
370
-1
 48
1.0
  6
BYLAYER
 10
-200.0
 20
-2144.1506430721261
 30
0.0
  0
POINT
  5
17B
100
AcDbEntity
100
AcDbPoint
  8
0
 62
256
370
-1
 48
1.0
  6
BYLAYER
 10
-200.0
 20
-2520.0
 30
0.0
  0
POINT
  5
17C
100
AcDbEntity
100
AcDbPoint
  8
0
 62
256
370
-1
 48
1.0
  6
BYLAYER
 10
-200.0
 20
-2220.0
 30
0.0
  0
POINT
  5
17D
100
AcDbEntity
100
AcDbPoint
  8
0
 62
256
370
-1
 48
1.0
  6
BYLAYER
 10
57.429409927592928
 20
-2400.0
 30
0.0
  0
POINT
  5
17E
100
AcDbEntity
100
AcDbPoint
  8
0
 62
256
370
-1
 48
1.0
  6
BYLAYER
 10
57.429409927592928
 20
-2100.0
 30
0.0
  0
POINT
  5
17F
100
AcDbEntity
100
AcDbPoint
  8
0
 62
256
370
-1
 48
1.0
  6
BYLAYER
 10
131.14684389559818
 20
-2400.0
 30
0.0
  0
POINT
  5
180
100
AcDbEntity
100
AcDbPoint
  8
0
 62
256
370
-1
 48
1.0
  6
BYLAYER
 10
131.14684389559818
 20
-2100.0
 30
0.0
  0
POINT
  5
181
100
AcDbEntity
100
AcDbPoint
  8
0
 62
256
370
-1
 48
1.0
  6
BYLAYER
 10
274.74222779056095
 20
-2422.4433502293582
 30
0.0
  0
POINT
  5
182
100
AcDbEntity
100
AcDbPoint
  8
0
 62
256
370
-1
 48
1.0
  6
BYLAYER
 10
274.74222779056095
 20
-2122.4433502293582
 30
0.0
  0
POINT
  5
183
100
AcDbEntity
100
AcDbPoint
  8
0
 62
256
370
-1
 48
1.0
  6
BYLAYER
 10
427.95073328402469
 20
-2347.1036381425693
 30
0.0
  0
POINT
  5
184
100
AcDbEntity
100
AcDbPoint
  8
0
 62
256
370
-1
 48
1.0
  6
BYLAYER
 10
427.95073328402469
 20
-2047.1036381425693
 30
0.0
  0
POINT
  5
185
100
AcDbEntity
100
AcDbPoint
  8
0
 62
256
370
-1
 48
1.0
  6
BYLAYER
 10
436.32056050001131
 20
-2272.5957644943746
 30
0.0
  0
POINT
  5
186
100
AcDbEntity
100
AcDbPoint
  8
0
 62
256
370
-1
 48
1.0
  6
BYLAYER
 10
436.32056050001131
 20
-1972.5957644943749
 30
0.0
  0
POINT
  5
187
100
AcDbEntity
100
AcDbPoint
  8
0
 62
256
370
-1
 48
1.0
  6
BYLAYER
 10
-200.0
 20
-2368.3772233983163
 30
0.0
  0
POINT
  5
188
100
AcDbEntity
100
AcDbPoint
  8
0
 62
256
370
-1
 48
1.0
  6
BYLAYER
 10
-200.0
 20
-2068.3772233983163
 30
0.0
  0
POINT
  5
189
100
AcDbEntity
100
AcDbPoint
  8
0
 62
256
370
-1
 48
1.0
  6
BYLAYER
 10
-200.0
 20
-2431.6227766016837
 30
0.0
  0
POINT
  5
18A
100
AcDbEntity
100
AcDbPoint
  8
0
 62
256
370
-1
 48
1.0
  6
BYLAYER
 10
-200.0
 20
-2131.6227766016837
 30
0.0
  0
POINT
  5
18B
100
AcDbEntity
100
AcDbPoint
  8
0
 62
256
370
-1
 48
1.0
  6
BYLAYER
 10
-363.94448724536011
 20
-2363.9444872453601
 30
0.0
  0
POINT
  5
18C
100
AcDbEntity
100
AcDbPoint
  8
0
 62
256
370
-1
 48
1.0
  6
BYLAYER
 10
-363.94448724536011
 20
-2063.9444872453601
 30
0.0
  0
POINT
  5
18D
100
AcDbEntity
100
AcDbPoint
  8
0
 62
256
370
-1
 48
1.0
  6
BYLAYER
 10
-436.05551275463989
 20
-2436.0555127546399
 30
0.0
  0
POINT
  5
18E
100
AcDbEntity
100
AcDbPoint
  8
0
 62
256
370
-1
 48
1.0
  6
BYLAYER
 10
-436.05551275463989
 20
-2136.0555127546399
 30
0.0
  0
POINT
  5
18F
100
AcDbEntity
100
AcDbPoint
  8
0
 62
256
370
-1
 48
1.0
  6
BYLAYER
 10
-40.0
 20
-2400.0
 30
0.0
  0
POINT
  5
190
100
AcDbEntity
100
AcDbPoint
  8
0
 62
256
370
-1
 48
1.0
  6
BYLAYER
 10
-40.0
 20
-2100.0
 30
0.0
  0
POINT
  5
191
100
AcDbEntity
100
AcDbPoint
  8
0
 62
256
370
-1
 48
1.0
  6
BYLAYER
 10
40.0
 20
-2400.0
 30
0.0
  0
POINT
  5
192
100
AcDbEntity
100
AcDbPoint
  8
0
 62
256
370
-1
 48
1.0
  6
BYLAYER
 10
40.0
 20
-2100.0
 30
0.0
  0
POINT
  5
193
100
AcDbEntity
100
AcDbPoint
  8
0
 62
256
370
-1
 48
1.0
  6
BYLAYER
 10
197.32508145205321
 20
-2385.8616217397339
 30
0.0
  0
POINT
  5
194
100
AcDbEntity
100
AcDbPoint
  8
0
 62
256
370
-1
 48
1.0
  6
BYLAYER
 10
197.32508145205321
 20
-2085.8616217397339
 30
0.0
  0
POINT
  5
195
100
AcDbEntity
100
AcDbPoint
  8
0
 62
256
370
-1
 48
1.0
  6
BYLAYER
 10
243.96993824349502
 20
-2407.9025980257993
 30
0.0
  0
POINT
  5
196
100
AcDbEntity
100
AcDbPoint
  8
0
 62
256
370
-1
 48
1.0
  6
BYLAYER
 10
243.96993824349502
 20
-2107.9025980257993
 30
0.0
  0
POINT
  5
197
100
AcDbEntity
100
AcDbPoint
  8
0
 62
256
370
-1
 48
1.0
  6
BYLAYER
 10
426.28515932319101
 20
-2361.9305122252849
 30
0.0
  0
POINT
  5
198
100
AcDbEntity
100
AcDbPoint
  8
0
 62
256
370
-1
 48
1.0
  6
BYLAYER
 10
426.28515932319101
 20
-2061.9305122252849
 30
0.0
  0
POINT
  5
199
100
AcDbEntity
100
AcDbPoint
  8
0
 62
256
370
-1
 48
1.0
  6
BYLAYER
 10
418.40178494858958
 20
-2432.1080017560507
 30
0.0
  0
POINT
  5
19A
100
AcDbEntity
100
AcDbPoint
  8
0
 62
256
370
-1
 48
1.0
  6
BYLAYER
 10
418.40178494858958
 20
-2132.1080017560507
 30
0.0
  0
POINT
  5
19B
100
AcDbEntity
100
AcDbPoint
  8
0
 62
256
370
-1
 48
1.0
  6
BYLAYER
 10
321.89975578725875
 20
-2444.7265777442813
 30
0.0
  0
POINT
  5
19C
100
AcDbEntity
100
AcDbPoint
  8
0
 62
256
370
-1
 48
1.0
  6
BYLAYER
 10
321.89975578725875
 20
-2144.7265777442813
 30
0.0
  0
POINT
  5
19D
100
AcDbEntity
100
AcDbPoint
  8
0
 62
256
370
-1
 48
1.0
  6
BYLAYER
 10
-200.0
 20
-2520.0
 30
0.0
  0
POINT
  5
19E
100
AcDbEntity
100
AcDbPoint
  8
0
 62
256
370
-1
 48
1.0
  6
BYLAYER
 10
-200.0
 20
-2220.0
 30
0.0
  0
LEADER
  5
19F
  8
0
 62
256
370
-1
 48
1.0
  6
BYLAYER
100
AcDbEntity
100
AcDbLeader
  3
Standard
 71
1
 72
0
 73
3
 74
0
 75
0
 40
1.0
 41
10.0
 76
2
 10
-444.92366887375226
 20
-2144.9236688737524
 10
-500.0
 20
-2200.0
  0
LEADER
  5
1A0
  8
0
 62
256
370
-1
 48
1.0
  6
BYLAYER
100
AcDbEntity
100
AcDbLeader
  3
Standard
 71
1
 72
0
 73
3
 74
0
 75
0
 40
1.0
 41
10.0
 76
2
 10
-200.0
 20
-2144.1506430721261
 10
-200.0
 20
-2220.0
  0
LEADER
  5
1A1
  8
0
 62
256
370
-1
 48
1.0
  6
BYLAYER
100
AcDbEntity
100
AcDbLeader
  3
Standard
 71
1
 72
0
 73
3
 74
0
 75
0
 40
1.0
 41
10.0
 76
2
 10
57.429409927592928
 20
-2100.0
 10
131.14684389559818
 20
-2100.0
  0
LEADER
  5
1A2
  8
0
 62
256
370
-1
 48
1.0
  6
BYLAYER
100
AcDbEntity
100
AcDbLeader
  3
Standard
 71
1
 72
0
 73
3
 74
0
 75
0
 40
1.0
 41
10.0
 76
2
 10
274.74222779056095
 20
-2122.4433502293582
 10
321.89975578725875
 20
-2144.7265777442813
  0
LEADER
  5
1A3
  8
0
 62
256
370
-1
 48
1.0
  6
BYLAYER
100
AcDbEntity
100
AcDbLeader
  3
Standard
 71
1
 72
0
 73
3
 74
0
 75
0
 40
1.0
 41
10.0
 76
2
 10
427.95073328402469
 20
-2047.1036381425693
 10
436.32056050001131
 20
-1972.5957644943749
  0
LEADER
  5
1A4
  8
0
 62
256
370
-1
 48
1.0
  6
BYLAYER
100
AcDbEntity
100
AcDbLeader
  3
Standard
 71
1
 72
0
 73
3
 74
0
 75
0
 40
1.0
 41
10.0
 76
2
 10
-500.0
 20
-2500.0
 10
-444.92366887375226
 20
-2444.9236688737524
  0
LEADER
  5
1A5
  8
0
 62
256
370
-1
 48
1.0
  6
BYLAYER
100
AcDbEntity
100
AcDbLeader
  3
Standard
 71
1
 72
0
 73
3
 74
0
 75
0
 40
1.0
 41
10.0
 76
2
 10
-200.0
 20
-2520.0
 10
-200.0
 20
-2444.1506430721261
  0
LEADER
  5
1A6
  8
0
 62
256
370
-1
 48
1.0
  6
BYLAYER
100
AcDbEntity
100
AcDbLeader
  3
Standard
 71
1
 72
0
 73
3
 74
0
 75
0
 40
1.0
 41
10.0
 76
2
 10
131.14684389559818
 20
-2400.0
 10
57.429409927592928
 20
-2400.0
  0
LEADER
  5
1A7
  8
0
 62
256
370
-1
 48
1.0
  6
BYLAYER
100
AcDbEntity
100
AcDbLeader
  3
Standard
 71
1
 72
0
 73
3
 74
0
 75
0
 40
1.0
 41
10.0
 76
2
 10
321.89975578725875
 20
-2444.7265777442813
 10
274.74222779056095
 20
-2422.4433502293582
  0
LEADER
  5
1A8
  8
0
 62
256
370
-1
 48
1.0
  6
BYLAYER
100
AcDbEntity
100
AcDbLeader
  3
Standard
 71
1
 72
0
 73
3
 74
0
 75
0
 40
1.0
 41
10.0
 76
2
 10
436.32056050001131
 20
-2272.5957644943746
 10
427.95073328402469
 20
-2347.1036381425693
  0
CIRCLE
  5
1A9
100
AcDbEntity
100
AcDbCircle
  8
0
 62
256
370
-1
 48
1.0
  6
BYLAYER
 10
0.0
 20
-900.0
 30
0.0
 40
60.0
  0
CIRCLE
  5
1AA
100
AcDbEntity
100
AcDbCircle
  8
0
 62
256
370
-1
 48
1.0
  6
BYLAYER
 10
-200.0
 20
-900.0
 30
0.0
 40
50.0
  0
CIRCLE
  5
1AB
100
AcDbEntity
100
AcDbCircle
  8
0
 62
256
370
-1
 48
1.0
  6
BYLAYER
 10
-400.0
 20
-900.0
 30
0.0
 40
60.0
  0
CIRCLE
  5
1AC
100
AcDbEntity
100
AcDbCircle
  8
0
 62
256
370
-1
 48
1.0
  6
BYLAYER
 10
213.03480916481249
 20
-892.98189185519686
 30
0.0
 40
50.564183390046935
  0
CIRCLE
  5
1AD
100
AcDbEntity
100
AcDbCircle
  8
0
 62
256
370
-1
 48
1.0
  6
BYLAYER
 10
421.09040832526091
 20
-937.19728109334483
 30
0.0
 40
59.751550686352317
  0
POINT
  5
1AE
100
AcDbEntity
100
AcDbPoint
  8
0
 62
256
370
-1
 48
1.0
  6
BYLAYER
 10
-357.57359312880715
 20
-857.57359312880715
 30
0.0
  0
POINT
  5
1AF
100
AcDbEntity
100
AcDbPoint
  8
0
 62
256
370
-1
 48
1.0
  6
BYLAYER
 10
-442.42640687119285
 20
-942.42640687119285
 30
0.0
  0
POINT
  5
1B0
100
AcDbEntity
100
AcDbPoint
  8
0
 62
256
370
-1
 48
1.0
  6
BYLAYER
 10
-200.0
 20
-850.0
 30
0.0
  0
POINT
  5
1B1
100
AcDbEntity
100
AcDbPoint
  8
0
 62
256
370
-1
 48
1.0
  6
BYLAYER
 10
-200.0
 20
-950.0
 30
0.0
  0
POINT
  5
1B2
100
AcDbEntity
100
AcDbPoint
  8
0
 62
256
370
-1
 48
1.0
  6
BYLAYER
 10
-60.0
 20
-900.0
 30
0.0
  0
POINT
  5
1B3
100
AcDbEntity
100
AcDbPoint
  8
0
 62
256
370
-1
 48
1.0
  6
BYLAYER
 10
60.0
 20
-900.0
 30
0.0
  0
POINT
  5
1B4
100
AcDbEntity
100
AcDbPoint
  8
0
 62
256
370
-1
 48
1.0
  6
BYLAYER
 10
178.25645282726794
 20
-929.68615008719325
 30
0.0
  0
POINT
  5
1B5
100
AcDbEntity
100
AcDbPoint
  8
0
 62
256
370
-1
 48
1.0
  6
BYLAYER
 10
257.76846218807708
 20
-916.55384402502091
 30
0.0
  0
POINT
  5
1B6
100
AcDbEntity
100
AcDbPoint
  8
0
 62
256
370
-1
 48
1.0
  6
BYLAYER
 10
380.90640819851802
 20
-892.97631385790703
 30
0.0
  0
POINT
  5
1B7
100
AcDbEntity
100
AcDbPoint
  8
0
 62
256
370
-1
 48
1.0
  6
BYLAYER
 10
390.88290638630127
 20
-988.75069646062661
 30
0.0
  0
POINT
  5
1B8
100
AcDbEntity
100
AcDbPoint
  8
0
 62
256
370
-1
 48
1.0
  6
BYLAYER
 10
382.81369924176431
 20
-911.28630787307145
 30
0.0
  0
POINT
  5
1B9
100
AcDbEntity
100
AcDbPoint
  8
0
 62
256
370
-1
 48
1.0
  6
BYLAYER
 10
388.96013403393215
 20
-970.29208187788277
 30
0.0
  0
POINT
  5
1BA
100
AcDbEntity
100
AcDbPoint
  8
0
 62
256
370
-1
 48
1.0
  6
BYLAYER
 10
197.55978738127658
 20
-926.49798644472469
 30
0.0
  0
POINT
  5
1BB
100
AcDbEntity
100
AcDbPoint
  8
0
 62
256
370
-1
 48
1.0
  6
BYLAYER
 10
246.67965507634077
 20
-918.3852857157334
 30
0.0
  0
POINT
  5
1BC
100
AcDbEntity
100
AcDbPoint
  8
0
 62
256
370
-1
 48
1.0
  6
BYLAYER
 10
-47.365185654335249
 20
-900.0
 30
0.0
  0
POINT
  5
1BD
100
AcDbEntity
100
AcDbPoint
  8
0
 62
256
370
-1
 48
1.0
  6
BYLAYER
 10
38.67891598910488
 20
-900.0
 30
0.0
  0
POINT
  5
1BE
100
AcDbEntity
100
AcDbPoint
  8
0
 62
256
370
-1
 48
1.0
  6
BYLAYER
 10
-200.0
 20
-878.34446625555984
 30
0.0
  0
POINT
  5
1BF
100
AcDbEntity
100
AcDbPoint
  8
0
 62
256
370
-1
 48
1.0
  6
BYLAYER
 10
-200.0
 20
-936.98904949857479
 30
0.0
  0
POINT
  5
1C0
100
AcDbEntity
100
AcDbPoint
  8
0
 62
256
370
-1
 48
1.0
  6
BYLAYER
 10
-367.39772359945027
 20
-867.39772359945027
 30
0.0
  0
POINT
  5
1C1
100
AcDbEntity
100
AcDbPoint
  8
0
 62
256
370
-1
 48
1.0
  6
BYLAYER
 10
-428.44577336881844
 20
-928.44577336881844
 30
0.0
  0
LEADER
  5
1C2
  8
0
 62
256
370
-1
 48
1.0
  6
BYLAYER
100
AcDbEntity
100
AcDbLeader
  3
Standard
 71
1
 72
0
 73
3
 74
0
 75
0
 40
1.0
 41
10.0
 76
2
 10
388.96013403393215
 20
-970.29208187788277
 10
382.81369924176431
 20
-911.28630787307145
  0
LEADER
  5
1C3
  8
0
 62
256
370
-1
 48
1.0
  6
BYLAYER
100
AcDbEntity
100
AcDbLeader
  3
Standard
 71
1
 72
0
 73
3
 74
0
 75
0
 40
1.0
 41
10.0
 76
2
 10
197.55978738127658
 20
-926.49798644472469
 10
246.67965507634077
 20
-918.3852857157334
  0
LEADER
  5
1C4
  8
0
 62
256
370
-1
 48
1.0
  6
BYLAYER
100
AcDbEntity
100
AcDbLeader
  3
Standard
 71
1
 72
0
 73
3
 74
0
 75
0
 40
1.0
 41
10.0
 76
2
 10
38.67891598910488
 20
-900.0
 10
-47.365185654335249
 20
-900.0
  0
LEADER
  5
1C5
  8
0
 62
256
370
-1
 48
1.0
  6
BYLAYER
100
AcDbEntity
100
AcDbLeader
  3
Standard
 71
1
 72
0
 73
3
 74
0
 75
0
 40
1.0
 41
10.0
 76
2
 10
-200.0
 20
-878.34446625555984
 10
-200.0
 20
-936.98904949857479
  0
LEADER
  5
1C6
  8
0
 62
256
370
-1
 48
1.0
  6
BYLAYER
100
AcDbEntity
100
AcDbLeader
  3
Standard
 71
1
 72
0
 73
3
 74
0
 75
0
 40
1.0
 41
10.0
 76
2
 10
-367.39772359945027
 20
-867.39772359945027
 10
-428.44577336881844
 20
-928.44577336881844
  0
CIRCLE
  5
1C7
100
AcDbEntity
100
AcDbCircle
  8
0
 62
256
370
-1
 48
1.0
  6
BYLAYER
 10
0.0
 20
-2700.0
 30
0.0
 40
50.0
  0
CIRCLE
  5
1C8
100
AcDbEntity
100
AcDbCircle
  8
0
 62
256
370
-1
 48
1.0
  6
BYLAYER
 10
-200.0
 20
-2700.0
 30
0.0
 40
30.0
  0
CIRCLE
  5
1C9
100
AcDbEntity
100
AcDbCircle
  8
0
 62
256
370
-1
 48
1.0
  6
BYLAYER
 10
-400.0
 20
-2700.0
 30
0.0
 40
40.0
  0
CIRCLE
  5
1CA
100
AcDbEntity
100
AcDbCircle
  8
0
 62
256
370
-1
 48
1.0
  6
BYLAYER
 10
202.97704360205341
 20
-2696.9506533325521
 30
0.0
 40
31.767681863735689
  0
CIRCLE
  5
1CB
100
AcDbEntity
100
AcDbCircle
  8
0
 62
256
370
-1
 48
1.0
  6
BYLAYER
 10
407.17555968101084
 20
-2709.0641246253713
 30
0.0
 40
35.506807230872276
  0
LEADER
  5
1CC
  8
0
 62
256
370
-1
 48
1.0
  6
BYLAYER
100
AcDbEntity
100
AcDbLeader
  3
Standard
 71
1
 72
0
 73
3
 74
0
 75
0
 40
1.0
 41
10.0
 76
2
 10
-330.0
 20
-2720.0
 10
-380.0
 20
-2770.0
  0
LEADER
  5
1CD
  8
0
 62
256
370
-1
 48
1.0
  6
BYLAYER
100
AcDbEntity
100
AcDbLeader
  3
Standard
 71
1
 72
0
 73
3
 74
0
 75
0
 40
1.0
 41
10.0
 76
2
 10
-250.0
 20
-2680.0
 10
-250.0
 20
-2740.0
  0
LEADER
  5
1CE
  8
0
 62
256
370
-1
 48
1.0
  6
BYLAYER
100
AcDbEntity
100
AcDbLeader
  3
Standard
 71
1
 72
0
 73
3
 74
0
 75
0
 40
1.0
 41
10.0
 76
2
 10
-40.0
 20
-2770.0
 10
30.0
 20
-2770.0
  0
LEADER
  5
1CF
  8
0
 62
256
370
-1
 48
1.0
  6
BYLAYER
100
AcDbEntity
100
AcDbLeader
  3
Standard
 71
1
 72
0
 73
3
 74
0
 75
0
 40
1.0
 41
10.0
 76
2
 10
268.03801816207192
 20
-2712.6150145882125
 10
186.12787894395908
 20
-2739.1492850391505
  0
LEADER
  5
1D0
  8
0
 62
256
370
-1
 48
1.0
  6
BYLAYER
100
AcDbEntity
100
AcDbLeader
  3
Standard
 71
1
 72
0
 73
3
 74
0
 75
0
 40
1.0
 41
10.0
 76
2
 10
446.85592772274077
 20
-2696.4637195311202
 10
449.1632555880397
 20
-2788.1800021767535
  0
POINT
  5
1D1
100
AcDbEntity
100
AcDbPoint
  8
0
 62
256
370
-1
 48
1.0
  6
BYLAYER
 10
-250.0
 20
-2680.0
 30
0.0
  0
POINT
  5
1D2
100
AcDbEntity
100
AcDbPoint
  8
0
 62
256
370
-1
 48
1.0
  6
BYLAYER
 10
-250.0
 20
-2740.0
 30
0.0
  0
POINT
  5
1D3
100
AcDbEntity
100
AcDbPoint
  8
0
 62
256
370
-1
 48
1.0
  6
BYLAYER
 10
-330.0
 20
-2720.0
 30
0.0
  0
POINT
  5
1D4
100
AcDbEntity
100
AcDbPoint
  8
0
 62
256
370
-1
 48
1.0
  6
BYLAYER
 10
-380.0
 20
-2770.0
 30
0.0
  0
POINT
  5
1D5
100
AcDbEntity
100
AcDbPoint
  8
0
 62
256
370
-1
 48
1.0
  6
BYLAYER
 10
30.0
 20
-2770.0
 30
0.0
  0
POINT
  5
1D6
100
AcDbEntity
100
AcDbPoint
  8
0
 62
256
370
-1
 48
1.0
  6
BYLAYER
 10
-40.0
 20
-2770.0
 30
0.0
  0
POINT
  5
1D7
100
AcDbEntity
100
AcDbPoint
  8
0
 62
256
370
-1
 48
1.0
  6
BYLAYER
 10
186.12787894395908
 20
-2739.1492850391505
 30
0.0
  0
POINT
  5
1D8
100
AcDbEntity
100
AcDbPoint
  8
0
 62
256
370
-1
 48
1.0
  6
BYLAYER
 10
268.03801816207192
 20
-2712.6150145882125
 30
0.0
  0
POINT
  5
1D9
100
AcDbEntity
100
AcDbPoint
  8
0
 62
256
370
-1
 48
1.0
  6
BYLAYER
 10
446.85592772274077
 20
-2696.4637195311202
 30
0.0
  0
POINT
  5
1DA
100
AcDbEntity
100
AcDbPoint
  8
0
 62
256
370
-1
 48
1.0
  6
BYLAYER
 10
449.1632555880397
 20
-2788.1800021767535
 30
0.0
  0
ENDSEC
  0
SECTION
  2
OBJECTS
  0
DICTIONARY
  5
C
100
AcDbDictionary
280
0
281
1
  3
ACAD_GROUP
350
D
  3
ACAD_LAYOUT
350
1A
  3
ACAD_MLINESTYLE
350
17
  3
ACAD_PLOTSETTINGS
350
19
  3
ACAD_PLOTSTYLENAME
350
E
  3
AcDbVariableDictionary
350
1DB
  3
QCAD_OBJECTS
350
1DC
  0
DICTIONARY
  5
D
100
AcDbDictionary
280
0
281
1
  0
ACDBDICTIONARYWDFLT
  5
E
100
AcDbDictionary
281
1
  3
Normal
350
F
100
AcDbDictionaryWithDefault
340
F
  0
ACDBPLACEHOLDER
  5
F
  0
DICTIONARY
  5
17
100
AcDbDictionary
280
0
281
1
  3
Standard
350
18
  0
MLINESTYLE
  5
18
100
AcDbMlineStyle
  2
STANDARD
 70
0
  3

 62
256
 51
90.0
 52
90.0
 71
2
 49
0.5
 62
256
  6
BYLAYER
 49
-0.5
 62
256
  6
BYLAYER
  0
DICTIONARY
  5
19
100
AcDbDictionary
280
0
281
1
  0
DICTIONARY
  5
1A
100
AcDbDictionary
281
1
  3
Layout1
350
1E
  3
Layout2
350
26
  3
Model
350
22
  0
LAYOUT
  5
1E
100
AcDbPlotSettings
  1

  2
none_device
  4

  6

 40
0.0
 41
0.0
 42
0.0
 43
0.0
 44
0.0
 45
0.0
 46
0.0
 47
0.0
 48
0.0
 49
0.0
140
0.0
141
0.0
142
1.0
143
1.0
 70
688
 72
0
 73
0
 74
5
  7

 75
16
147
1.0
148
0.0
149
0.0
100
AcDbLayout
  1
Layout1
 70
1
 71
1
 10
0.0
 20
0.0
 11
420.0
 21
297.0
 12
0.0
 22
0.0
 32
0.0
 14
100000000000000000000.0
 24
100000000000000000000.0
 34
100000000000000000000.0
 15
-100000000000000000000.0
 25
-100000000000000000000.0
 35
-100000000000000000000.0
146
0.0
 13
0.0
 23
0.0
 33
0.0
 16
1.0
 26
0.0
 36
0.0
 17
0.0
 27
1.0
 37
0.0
 76
0
330
1B
  0
LAYOUT
  5
22
100
AcDbPlotSettings
  1

  2
none_device
  4

  6

 40
0.0
 41
0.0
 42
0.0
 43
0.0
 44
0.0
 45
0.0
 46
0.0
 47
0.0
 48
0.0
 49
0.0
140
0.0
141
0.0
142
1.0
143
1.0
 70
1712
 72
0
 73
0
 74
0
  7

 75
0
147
1.0
148
0.0
149
0.0
100
AcDbLayout
  1
Model
 70
1
 71
0
 10
0.0
 20
0.0
 11
12.0
 21
9.0
 12
0.0
 22
0.0
 32
0.0
 14
0.0
 24
0.0
 34
0.0
 15
0.0
 25
0.0
 35
0.0
146
0.0
 13
0.0
 23
0.0
 33
0.0
 16
1.0
 26
0.0
 36
0.0
 17
0.0
 27
1.0
 37
0.0
 76
0
330
1F
  0
LAYOUT
  5
26
100
AcDbPlotSettings
  1

  2
none_device
  4

  6

 40
0.0
 41
0.0
 42
0.0
 43
0.0
 44
0.0
 45
0.0
 46
0.0
 47
0.0
 48
0.0
 49
0.0
140
0.0
141
0.0
142
1.0
143
1.0
 70
688
 72
0
 73
0
 74
5
  7

 75
16
147
1.0
148
0.0
149
0.0
100
AcDbLayout
  1
Layout2
 70
1
 71
2
 10
0.0
 20
0.0
 11
12.0
 21
9.0
 12
0.0
 22
0.0
 32
0.0
 14
0.0
 24
0.0
 34
0.0
 15
0.0
 25
0.0
 35
0.0
146
0.0
 13
0.0
 23
0.0
 33
0.0
 16
1.0
 26
0.0
 36
0.0
 17
0.0
 27
1.0
 37
0.0
 76
0
330
23
  0
DICTIONARY
  5
1DB
100
AcDbDictionary
281
1
  3
DIMASSOC
350
1DE
  3
HIDETEXT
350
1DD
  0
DICTIONARYVAR
  5
1DD
100
DictionaryVariables
280
0
  1
2
  0
DICTIONARYVAR
  5
1DE
100
DictionaryVariables
280
0
  1
1
  0
DICTIONARY
  5
1DC
100
AcDbDictionary
281
1
  3
ColorSettings/BackgroundColor
350
1DF
  3
ColorSettings/ColorMode
350
1E0
  3
DimensionSettings/AngularFormat
350
1E1
  3
DimensionSettings/AngularPrecision
350
1E2
  3
DimensionSettings/DimensionFont
350
1E3
  3
DimensionSettings/KeepProportions
350
1E4
  3
DimensionSettings/LinearFormat
350
1E5
  3
DimensionSettings/LinearPrecision
350
1E6
  3
Grid/DisplayGrid00
350
1E7
  3
Grid/DisplayGrid01
350
1E8
  3
Grid/DisplayGrid02
350
1E9
  3
Grid/DisplayGrid03
350
1EA
  3
Grid/GridSpacingX00
350
1EB
  3
Grid/GridSpacingX01
350
1EC
  3
Grid/GridSpacingX02
350
1ED
  3
Grid/GridSpacingX03
350
1EE
  3
Grid/GridSpacingY00
350
1EF
  3
Grid/GridSpacingY01
350
1F0
  3
Grid/GridSpacingY02
350
1F1
  3
Grid/GridSpacingY03
350
1F2
  3
Grid/IsometricGrid00
350
1F3
  3
Grid/IsometricGrid01
350
1F4
  3
Grid/IsometricGrid02
350
1F5
  3
Grid/IsometricGrid03
350
1F6
  3
Grid/IsometricProjection00
350
1F7
  3
Grid/IsometricProjection01
350
1F8
  3
Grid/IsometricProjection02
350
1F9
  3
Grid/IsometricProjection03
350
1FA
  3
Grid/MetaGridSpacingX00
350
1FB
  3
Grid/MetaGridSpacingX01
350
1FC
  3
Grid/MetaGridSpacingX02
350
1FD
  3
Grid/MetaGridSpacingX03
350
1FE
  3
Grid/MetaGridSpacingY00
350
1FF
  3
Grid/MetaGridSpacingY01
350
200
  3
Grid/MetaGridSpacingY02
350
201
  3
Grid/MetaGridSpacingY03
350
202
  3
MultiPageSettings/Columns
350
203
  3
MultiPageSettings/GlueMarginsBottom
350
204
  3
MultiPageSettings/GlueMarginsLeft
350
205
  3
MultiPageSettings/GlueMarginsRight
350
206
  3
MultiPageSettings/GlueMarginsTop
350
207
  3
MultiPageSettings/PrintCropMarks
350
208
  3
MultiPageSettings/Rows
350
209
  3
PageSettings/OffsetX
350
20A
  3
PageSettings/OffsetY
350
20B
  3
PageSettings/PageOrientation
350
20C
  3
PageSettings/PaperHeight
350
20D
  3
PageSettings/PaperWidth
350
20E
  3
PageSettings/Scale
350
20F
  3
PageSettings/ShowPaperBorders
350
210
  3
PointDisplaySettings/Button2
350
211
  3
PointDisplaySettings/Button3
350
212
  3
PointDisplaySettings/Button32
350
213
  3
PointDisplaySettings/Button33
350
214
  3
PointDisplaySettings/Button34
350
215
  3
PointDisplaySettings/Button35
350
216
  3
PointDisplaySettings/Button64
350
217
  3
PointDisplaySettings/Button65
350
218
  3
PointDisplaySettings/Button66
350
219
  3
PointDisplaySettings/Button67
350
21A
  3
PointDisplaySettings/Mode
350
21B
  3
PointDisplaySettings/Size
350
21C
  3
QCADVersion
350
21D
  3
UnitSettings/Measurement
350
21E
  3
UnitSettings/PaperUnit
350
21F
  3
ViewportCenter
350
220
  3
ViewportHeight
350
221
  3
ViewportWidth
350
222
  0
XRECORD
  5
1DF
330
1DC
100
AcDbXrecord
280
1
1000
White
  0
XRECORD
  5
1E0
330
1DC
100
AcDbXrecord
280
1
1000
FullColor
  0
XRECORD
  5
1E1
330
1DC
100
AcDbXrecord
280
1
 90
0
  0
XRECORD
  5
1E2
330
1DC
100
AcDbXrecord
280
1
 90
0
  0
XRECORD
  5
1E3
330
1DC
100
AcDbXrecord
280
1
1000
MS Shell Dlg 2
  0
XRECORD
  5
1E4
330
1DC
100
AcDbXrecord
280
1
290
0
  0
XRECORD
  5
1E5
330
1DC
100
AcDbXrecord
280
1
 90
2
  0
XRECORD
  5
1E6
330
1DC
100
AcDbXrecord
280
1
 90
4
  0
XRECORD
  5
1E7
330
1DC
100
AcDbXrecord
280
1
290
1
  0
XRECORD
  5
1E8
330
1DC
100
AcDbXrecord
280
1
290
1
  0
XRECORD
  5
1E9
330
1DC
100
AcDbXrecord
280
1
290
1
  0
XRECORD
  5
1EA
330
1DC
100
AcDbXrecord
280
1
290
1
  0
XRECORD
  5
1EB
330
1DC
100
AcDbXrecord
280
1
1000
auto
  0
XRECORD
  5
1EC
330
1DC
100
AcDbXrecord
280
1
1000
auto
  0
XRECORD
  5
1ED
330
1DC
100
AcDbXrecord
280
1
1000
auto
  0
XRECORD
  5
1EE
330
1DC
100
AcDbXrecord
280
1
1000
auto
  0
XRECORD
  5
1EF
330
1DC
100
AcDbXrecord
280
1
1000
auto
  0
XRECORD
  5
1F0
330
1DC
100
AcDbXrecord
280
1
1000
auto
  0
XRECORD
  5
1F1
330
1DC
100
AcDbXrecord
280
1
1000
auto
  0
XRECORD
  5
1F2
330
1DC
100
AcDbXrecord
280
1
1000
auto
  0
XRECORD
  5
1F3
330
1DC
100
AcDbXrecord
280
1
290
0
  0
XRECORD
  5
1F4
330
1DC
100
AcDbXrecord
280
1
290
0
  0
XRECORD
  5
1F5
330
1DC
100
AcDbXrecord
280
1
290
0
  0
XRECORD
  5
1F6
330
1DC
100
AcDbXrecord
280
1
290
0
  0
XRECORD
  5
1F7
330
1DC
100
AcDbXrecord
280
1
 90
0
  0
XRECORD
  5
1F8
330
1DC
100
AcDbXrecord
280
1
 90
0
  0
XRECORD
  5
1F9
330
1DC
100
AcDbXrecord
280
1
 90
0
  0
XRECORD
  5
1FA
330
1DC
100
AcDbXrecord
280
1
 90
0
  0
XRECORD
  5
1FB
330
1DC
100
AcDbXrecord
280
1
1000
auto
  0
XRECORD
  5
1FC
330
1DC
100
AcDbXrecord
280
1
1000
auto
  0
XRECORD
  5
1FD
330
1DC
100
AcDbXrecord
280
1
1000
auto
  0
XRECORD
  5
1FE
330
1DC
100
AcDbXrecord
280
1
1000
auto
  0
XRECORD
  5
1FF
330
1DC
100
AcDbXrecord
280
1
1000
auto
  0
XRECORD
  5
200
330
1DC
100
AcDbXrecord
280
1
1000
auto
  0
XRECORD
  5
201
330
1DC
100
AcDbXrecord
280
1
1000
auto
  0
XRECORD
  5
202
330
1DC
100
AcDbXrecord
280
1
1000
auto
  0
XRECORD
  5
203
330
1DC
100
AcDbXrecord
280
1
 90
1
  0
XRECORD
  5
204
330
1DC
100
AcDbXrecord
280
1
 40
10.0
  0
XRECORD
  5
205
330
1DC
100
AcDbXrecord
280
1
 40
10.0
  0
XRECORD
  5
206
330
1DC
100
AcDbXrecord
280
1
 40
10.0
  0
XRECORD
  5
207
330
1DC
100
AcDbXrecord
280
1
 40
10.0
  0
XRECORD
  5
208
330
1DC
100
AcDbXrecord
280
1
290
0
  0
XRECORD
  5
209
330
1DC
100
AcDbXrecord
280
1
 90
1
  0
XRECORD
  5
20A
330
1DC
100
AcDbXrecord
280
1
 40
0.0
  0
XRECORD
  5
20B
330
1DC
100
AcDbXrecord
280
1
 40
0.0
  0
XRECORD
  5
20C
330
1DC
100
AcDbXrecord
280
1
1000
Portrait
  0
XRECORD
  5
20D
330
1DC
100
AcDbXrecord
280
1
 40
297.0
  0
XRECORD
  5
20E
330
1DC
100
AcDbXrecord
280
1
 40
210.0
  0
XRECORD
  5
20F
330
1DC
100
AcDbXrecord
280
1
1000
1:1
  0
XRECORD
  5
210
330
1DC
100
AcDbXrecord
280
1
290
1
  0
XRECORD
  5
211
330
1DC
100
AcDbXrecord
280
1
1000
Button2
  0
XRECORD
  5
212
330
1DC
100
AcDbXrecord
280
1
1000
Button3
  0
XRECORD
  5
213
330
1DC
100
AcDbXrecord
280
1
1000
Button32
  0
XRECORD
  5
214
330
1DC
100
AcDbXrecord
280
1
1000
Button33
  0
XRECORD
  5
215
330
1DC
100
AcDbXrecord
280
1
1000
Button34
  0
XRECORD
  5
216
330
1DC
100
AcDbXrecord
280
1
1000
Button35
  0
XRECORD
  5
217
330
1DC
100
AcDbXrecord
280
1
1000
Button64
  0
XRECORD
  5
218
330
1DC
100
AcDbXrecord
280
1
1000
Button65
  0
XRECORD
  5
219
330
1DC
100
AcDbXrecord
280
1
1000
Button66
  0
XRECORD
  5
21A
330
1DC
100
AcDbXrecord
280
1
1000
Button67
  0
XRECORD
  5
21B
330
1DC
100
AcDbXrecord
280
1
1000
64
  0
XRECORD
  5
21C
330
1DC
100
AcDbXrecord
280
1
1000
5
  0
XRECORD
  5
21D
330
1DC
100
AcDbXrecord
280
1
1000
3.15.4
  0
XRECORD
  5
21E
330
1DC
100
AcDbXrecord
280
1
 90
1
  0
XRECORD
  5
21F
330
1DC
100
AcDbXrecord
280
1
 90
4
  0
XRECORD
  5
221
330
1DC
100
AcDbXrecord
280
1
 40
2419.7532381995502
  0
XRECORD
  5
222
330
1DC
100
AcDbXrecord
280
1
 40
4503.1816105730859
  0
ENDSEC
  0
EOF
